mtllib material.mtl
usemtl material_0
v 3.70024200 6.67638300 3.49505900
v 3.70024200 6.67638300 3.49505900
v 3.70024200 6.61735100 3.51290300
v 3.70024200 6.61735100 3.51290300
v 3.70024200 6.61735100 3.51290300
v 3.70024200 6.55568400 3.51339200
v 3.70024200 6.55568400 3.51339200
v 3.70024200 6.49637600 3.49648700
v 3.70024200 6.49637600 3.49648700
v 3.70024200 6.44423300 3.46355900
v 3.70024200 6.44423300 3.46355900
v 3.70024200 6.40348000 3.41727400
v 3.70024200 6.40348000 3.41727400
v 3.70024200 6.37741700 3.36138200
v 3.70024200 6.37741700 3.36138200
v 3.70024200 6.36815600 3.30041100
v 3.70024200 6.36815600 3.30041100
v 3.70024200 6.37644800 3.23930200
v 3.70024200 6.37644800 3.23930200
v 3.70024200 6.40162100 3.18300300
v 3.70024200 6.40162100 3.18300300
v 3.70024200 6.44163500 3.13607800
v 3.70024200 6.44163500 3.13607800
v 3.70024200 6.49324800 3.10232600
v 3.70024200 6.49324800 3.10232600
v 3.70024200 6.55228100 3.08448300
v 3.70024200 6.55228100 3.08448300
v 3.70024200 6.61394800 3.08399300
v 3.70024200 6.61394800 3.08399300
v 3.70024200 6.67325600 3.10089800
v 3.70024200 6.67325600 3.10089800
v 3.70024200 6.72539900 3.13382600
v 3.70024200 6.72539900 3.13382600
v 3.70024200 6.76615200 3.18011100
v 3.70024200 6.76615200 3.18011100
v 3.70024200 6.79221500 3.23600300
v 3.70024200 6.79221500 3.23600300
v 3.70024200 6.80147600 3.29697400
v 3.70024200 6.80147600 3.29697400
v 3.70024200 6.79318400 3.35808300
v 3.70024200 6.79318400 3.35808300
v 3.70024200 6.76801100 3.41438200
v 3.70024200 6.76801100 3.41438200
v 3.70024200 6.72799700 3.46130800
v 3.70024200 6.72799700 3.46130800
v 3.70024200 7.13422000 4.47689300
v 3.70024200 7.13422000 4.47689300
v 3.70024200 6.78002700 4.58395200
v 3.70024200 6.78002700 4.58395200
v 3.70024200 6.78002700 4.58395200
v 3.70024200 6.41002000 4.58688800
v 3.70024200 6.41002000 4.58688800
v 3.70024200 6.05417400 4.48546100
v 3.70024200 6.05417400 4.48546100
v 3.70024200 5.74131800 4.28788900
v 3.70024200 5.74131800 4.28788900
v 3.70024200 5.49679700 4.01018000
v 3.70024200 5.49679700 4.01018000
v 3.70024200 5.34042000 3.67482900
v 3.70024200 5.34042000 3.67482900
v 3.70024200 5.28485700 3.30900500
v 3.70024200 5.28485700 3.30900500
v 3.70024200 5.33460900 2.94234700
v 3.70024200 5.33460900 2.94234700
v 3.70024200 5.48564500 2.60455800
v 3.70024200 5.48564500 2.60455800
v 3.70024200 5.72573000 2.32300300
v 3.70024200 5.72573000 2.32300300
v 3.70024200 6.03541200 2.12049300
v 3.70024200 6.03541200 2.12049300
v 3.70024200 6.38960400 2.01343300
v 3.70024200 6.38960400 2.01343300
v 3.70024200 6.75961100 2.01049800
v 3.70024200 6.75961100 2.01049800
v 3.70024200 7.11545700 2.11192400
v 3.70024200 7.11545700 2.11192400
v 3.70024200 7.42831400 2.30949500
v 3.70024200 7.42831400 2.30949500
v 3.70024200 7.67283500 2.58720500
v 3.70024200 7.67283500 2.58720500
v 3.70024200 7.82921200 2.92255600
v 3.70024200 7.82921200 2.92255600
v 3.70024200 7.88477500 3.28837900
v 3.70024200 7.88477500 3.28837900
v 3.70024200 7.83502300 3.65503700
v 3.70024200 7.83502300 3.65503700
v 3.70024200 7.68398800 3.99282600
v 3.70024200 7.68398800 3.99282600
v 3.70024200 7.44390300 4.27438200
v 3.70024200 7.44390300 4.27438200
v 3.70911900 7.13422000 4.47689300
v 3.70911900 7.13422000 4.47689300
v 3.70911900 6.78002700 4.58395200
v 3.70911900 6.78002700 4.58395200
v 3.70911900 6.78002700 4.58395200
v 3.70911900 6.41002000 4.58688800
v 3.70911900 6.41002000 4.58688800
v 3.70911900 6.05417400 4.48546100
v 3.70911900 6.05417400 4.48546100
v 3.70911900 5.74131800 4.28788900
v 3.70911900 5.74131800 4.28788900
v 3.70911900 5.49679700 4.01018000
v 3.70911900 5.49679700 4.01018000
v 3.70911900 5.34042000 3.67482900
v 3.70911900 5.34042000 3.67482900
v 3.70911900 5.28485700 3.30900500
v 3.70911900 5.28485700 3.30900500
v 3.70911900 5.33460900 2.94234700
v 3.70911900 5.33460900 2.94234700
v 3.70911900 5.48564500 2.60455800
v 3.70911900 5.48564500 2.60455800
v 3.70911900 5.72573000 2.32300300
v 3.70911900 5.72573000 2.32300300
v 3.70911900 6.03541200 2.12049300
v 3.70911900 6.03541200 2.12049300
v 3.70911900 6.38960400 2.01343300
v 3.70911900 6.38960400 2.01343300
v 3.70911900 6.75961100 2.01049800
v 3.70911900 6.75961100 2.01049800
v 3.70911900 7.11545700 2.11192400
v 3.70911900 7.11545700 2.11192400
v 3.70911900 7.42831400 2.30949500
v 3.70911900 7.42831400 2.30949500
v 3.70911900 7.67283500 2.58720500
v 3.70911900 7.67283500 2.58720500
v 3.70911900 7.82921200 2.92255600
v 3.70911900 7.82921200 2.92255600
v 3.70911900 7.88477500 3.28837900
v 3.70911900 7.88477500 3.28837900
v 3.70911900 7.83502300 3.65503700
v 3.70911900 7.83502300 3.65503700
v 3.70911900 7.68398800 3.99282600
v 3.70911900 7.68398800 3.99282600
v 3.70911900 7.44390300 4.27438200
v 3.70911900 7.44390300 4.27438200
v 3.70911900 6.67638300 3.49505900
v 3.70911900 6.67638300 3.49505900
v 3.70911900 6.61735100 3.51290200
v 3.70911900 6.61735100 3.51290200
v 3.70911900 6.61735100 3.51290200
v 3.70911900 6.55568400 3.51339200
v 3.70911900 6.55568400 3.51339200
v 3.70911900 6.49637600 3.49648700
v 3.70911900 6.49637600 3.49648700
v 3.70911900 6.44423300 3.46355900
v 3.70911900 6.44423300 3.46355900
v 3.70911900 6.40348000 3.41727400
v 3.70911900 6.40348000 3.41727400
v 3.70911900 6.37741700 3.36138200
v 3.70911900 6.37741700 3.36138200
v 3.70911900 6.36815600 3.30041100
v 3.70911900 6.36815600 3.30041100
v 3.70911900 6.37644800 3.23930200
v 3.70911900 6.37644800 3.23930200
v 3.70911900 6.40162100 3.18300300
v 3.70911900 6.40162100 3.18300300
v 3.70911900 6.44163500 3.13607800
v 3.70911900 6.44163500 3.13607800
v 3.70911900 6.49324900 3.10232600
v 3.70911900 6.49324900 3.10232600
v 3.70911900 6.55228100 3.08448300
v 3.70911900 6.55228100 3.08448300
v 3.70911900 6.61394800 3.08399400
v 3.70911900 6.61394800 3.08399400
v 3.70911900 6.67325600 3.10089800
v 3.70911900 6.67325600 3.10089800
v 3.70911900 6.72539900 3.13382600
v 3.70911900 6.72539900 3.13382600
v 3.70911900 6.76615200 3.18011100
v 3.70911900 6.76615200 3.18011100
v 3.70911900 6.79221500 3.23600300
v 3.70911900 6.79221500 3.23600300
v 3.70911900 6.80147600 3.29697400
v 3.70911900 6.80147600 3.29697400
v 3.70911900 6.79318400 3.35808300
v 3.70911900 6.79318400 3.35808300
v 3.70911900 6.76801100 3.41438200
v 3.70911900 6.76801100 3.41438200
v 3.70911900 6.72799700 3.46130800
v 3.70911900 6.72799700 3.46130800
v 3.70024200 6.57283600 3.08432000
v 3.70024200 6.57283600 3.08432000
v 3.70024200 6.57283600 3.08432000
v 3.70024200 6.59339200 3.08415700
v 3.70024200 6.59339200 3.08415700
v 3.70024200 6.59339200 3.08415700
v 3.70024200 6.63627500 2.01147600
v 3.70024200 6.63627500 2.01147600
v 3.70024200 6.63627500 2.01147600
v 3.70024200 6.51294000 2.01245500
v 3.70024200 6.51294000 2.01245500
v 3.70024200 6.51294000 2.01245500
v 3.70911900 6.63627500 2.01147600
v 3.70911900 6.63627500 2.01147600
v 3.70911900 6.63627500 2.01147600
v 3.70911900 6.51294000 2.01245500
v 3.70911900 6.51294000 2.01245500
v 3.70911900 6.51294000 2.01245500
v 3.70911900 6.59339200 3.08415700
v 3.70911900 6.59339200 3.08415700
v 3.70911900 6.59339200 3.08415700
v 3.70911900 6.57283600 3.08432000
v 3.70911900 6.57283600 3.08432000
v 3.70911900 6.57283600 3.08432000
v 3.74842400 6.55573300 3.03044700
v 3.74842400 6.55573300 3.03044700
v 3.74842400 6.55573300 3.03044700
v 3.74842400 6.61055800 3.03010600
v 3.74842400 6.61055800 3.03010600
v 3.74842400 6.61055800 3.03010600
v 3.66093500 6.61055800 3.03010600
v 3.66093500 6.61055800 3.03010600
v 3.66093500 6.61055800 3.03010600
v 3.66093500 6.55573300 3.03044700
v 3.66093500 6.55573300 3.03044700
v 3.66093500 6.55573300 3.03044700
v 3.83008100 6.53945300 1.97676500
v 3.83008100 6.53945300 1.97676500
v 3.83008100 6.53945300 1.97676500
v 3.83008100 6.53945300 1.97676500
v 3.83008100 6.61371800 1.97630300
v 3.83008100 6.61371800 1.97630300
v 3.83008100 6.61371800 1.97630300
v 3.83008100 6.61371800 1.97630300
v 3.57927800 6.61371800 1.97630300
v 3.57927800 6.61371800 1.97630300
v 3.57927800 6.61371800 1.97630300
v 3.57927800 6.61371800 1.97630300
v 3.57927800 6.53945300 1.97676500
v 3.57927800 6.53945300 1.97676500
v 3.57927800 6.53945300 1.97676500
v 3.57927800 6.53945300 1.97676500
v 3.83008100 6.61033200 1.43245900
v 3.83008100 6.61033200 1.43245900
v 3.83008100 6.61033200 1.43245900
v 3.83008100 6.53606800 1.43292100
v 3.83008100 6.53606800 1.43292100
v 3.83008100 6.53606800 1.43292100
v 3.57927800 6.53606700 1.43292100
v 3.57927800 6.53606700 1.43292100
v 3.57927800 6.53606700 1.43292100
v 3.57927800 6.61033200 1.43245900
v 3.57927800 6.61033200 1.43245900
v 3.57927800 6.61033200 1.43245900
vn -1.00000000 -0.00000000 -0.00000000
vn -0.00000000 -0.42260000 -0.90630000
vn -0.00000000 -0.15020000 -0.98870000
vn -1.00000000 -0.00000000 -0.00000000
vn -0.00000000 -0.15020000 -0.98870000
vn -0.00000000 0.13450000 -0.99090000
vn -1.00000000 -0.00000000 -0.00000000
vn -0.00000000 0.40820000 -0.91290000
vn -1.00000000 -0.00000000 -0.00000000
vn -1.00000000 -0.00000000 -0.00000000
vn -0.00000000 0.64880000 -0.76090000
vn -1.00000000 -0.00000000 -0.00000000
vn -0.00000000 0.83690000 -0.54730000
vn -1.00000000 -0.00000000 -0.00000000
vn -0.00000000 0.95720000 -0.28930000
vn -1.00000000 -0.00000000 -0.00000000
vn -0.00000000 1.00000000 -0.00790000
vn -0.00000000 0.96170000 0.27410000
vn -1.00000000 -0.00000000 -0.00000000
vn -1.00000000 -0.00000000 -0.00000000
vn -0.00000000 0.84550000 0.53390000
vn -0.00000000 0.66080000 0.75050000
vn -1.00000000 -0.00000000 -0.00000000
vn -0.00000000 0.42260000 0.90630000
vn -1.00000000 -0.00000000 -0.00000000
vn -0.00000000 0.15020000 0.98870000
vn -1.00000000 -0.00000000 -0.00000000
vn -0.00000000 -0.13450000 0.99090000
vn -1.00000000 -0.00000000 -0.00000000
vn -1.00000000 -0.00000000 -0.00000000
vn -0.00000000 -0.40820000 0.91290000
vn -0.00000000 -0.64880000 0.76090000
vn -1.00000000 -0.00000000 -0.00000000
vn -0.00000000 -0.83690000 0.54730000
vn -1.00000000 -0.00000000 -0.00000000
vn -0.00000000 -0.95720000 0.28930000
vn -1.00000000 -0.00000000 -0.00000000
vn -1.00000000 -0.00000000 -0.00000000
vn -0.00000000 -1.00000000 0.00790000
vn -1.00000000 -0.00000000 -0.00000000
vn -0.00000000 -0.96170000 -0.27410000
vn -0.00000000 -0.84550000 -0.53400000
vn -1.00000000 -0.00000000 -0.00000000
vn -1.00000000 -0.00000000 -0.00000000
vn -0.00000000 -0.66080000 -0.75050000
vn -1.00000000 -0.00000000 -0.00000000
vn -0.00000000 0.42260000 0.90630000
vn -1.00000000 -0.00000000 -0.00000000
vn -0.00000000 0.15020000 0.98870000
vn -0.00000000 0.15020000 0.98870000
vn -1.00000000 -0.00000000 -0.00000000
vn -0.00000000 -0.13450000 0.99090000
vn -0.00000000 -0.40820000 0.91290000
vn -1.00000000 -0.00000000 -0.00000000
vn -1.00000000 -0.00000000 -0.00000000
vn -0.00000000 -0.64880000 0.76090000
vn -1.00000000 -0.00000000 -0.00000000
vn -0.00000000 -0.83690000 0.54730000
vn -0.00000000 -0.95720000 0.28930000
vn -1.00000000 -0.00000000 -0.00000000
vn -0.00000000 -1.00000000 0.00790000
vn -1.00000000 -0.00000000 -0.00000000
vn -0.00000000 -0.96170000 -0.27410000
vn -1.00000000 -0.00000000 -0.00000000
vn -0.00000000 -0.84550000 -0.53390000
vn -1.00000000 -0.00000000 -0.00000000
vn -0.00000000 -0.66080000 -0.75050000
vn -1.00000000 -0.00000000 -0.00000000
vn -1.00000000 -0.00000000 -0.00000000
vn -0.00000000 -0.42260000 -0.90630000
vn -0.00000000 -0.15020000 -0.98870000
vn -1.00000000 -0.00000000 -0.00000000
vn -0.00000000 0.13450000 -0.99090000
vn -1.00000000 -0.00000000 -0.00000000
vn -1.00000000 -0.00000000 -0.00000000
vn -0.00000000 0.40820000 -0.91290000
vn -1.00000000 -0.00000000 -0.00000000
vn -0.00000000 0.64880000 -0.76090000
vn -0.00000000 0.83690000 -0.54730000
vn -1.00000000 -0.00000000 -0.00000000
vn -0.00000000 0.95720000 -0.28930000
vn -1.00000000 -0.00000000 -0.00000000
vn -0.00000000 1.00000000 -0.00790000
vn -1.00000000 -0.00000000 -0.00000000
vn -1.00000000 -0.00000000 -0.00000000
vn -0.00000000 0.96170000 0.27410000
vn -0.00000000 0.84550000 0.53400000
vn -1.00000000 -0.00000000 -0.00000000
vn -0.00000000 0.66080000 0.75050000
vn -1.00000000 -0.00000000 -0.00000000
vn -0.00000000 0.42260000 0.90630000
vn 1.00000000 -0.00000000 -0.00000000
vn -0.00000000 0.15020000 0.98870000
vn -0.00000000 0.15020000 0.98870000
vn 1.00000000 -0.00000000 -0.00000000
vn 1.00000000 -0.00000000 -0.00000000
vn -0.00000000 -0.13450000 0.99090000
vn 1.00000000 -0.00000000 -0.00000000
vn -0.00000000 -0.40820000 0.91290000
vn -0.00000000 -0.64880000 0.76090000
vn 1.00000000 -0.00000000 -0.00000000
vn -0.00000000 -0.83690000 0.54730000
vn 1.00000000 -0.00000000 -0.00000000
vn -0.00000000 -0.95720000 0.28930000
vn 1.00000000 -0.00000000 -0.00000000
vn 1.00000000 -0.00000000 -0.00000000
vn -0.00000000 -1.00000000 0.00790000
vn -0.00000000 -0.96170000 -0.27410000
vn 1.00000000 -0.00000000 -0.00000000
vn 1.00000000 -0.00000000 -0.00000000
vn -0.00000000 -0.84550000 -0.53400000
vn -0.00000000 -0.66080000 -0.75050000
vn 1.00000000 -0.00000000 -0.00000000
vn 1.00000000 -0.00000000 -0.00000000
vn -0.00000000 -0.42260000 -0.90630000
vn -0.00000000 -0.15020000 -0.98870000
vn 1.00000000 -0.00000000 -0.00000000
vn 1.00000000 -0.00000000 -0.00000000
vn -0.00000000 0.13450000 -0.99090000
vn 1.00000000 -0.00000000 -0.00000000
vn -0.00000000 0.40820000 -0.91290000
vn -0.00000000 0.64880000 -0.76090000
vn 1.00000000 -0.00000000 -0.00000000
vn -0.00000000 0.83690000 -0.54730000
vn 1.00000000 -0.00000000 -0.00000000
vn 1.00000000 -0.00000000 -0.00000000
vn -0.00000000 0.95720000 -0.28930000
vn -0.00000000 1.00000000 -0.00790000
vn 1.00000000 -0.00000000 -0.00000000
vn 1.00000000 -0.00000000 -0.00000000
vn -0.00000000 0.96170000 0.27410000
vn 1.00000000 -0.00000000 -0.00000000
vn -0.00000000 0.84550000 0.53390000
vn -0.00000000 0.66080000 0.75050000
vn 1.00000000 -0.00000000 -0.00000000
vn 1.00000000 -0.00000000 -0.00000000
vn -0.00000000 -0.42260000 -0.90630000
vn -0.00000000 -0.15020000 -0.98870000
vn -0.00000000 -0.15020000 -0.98870000
vn 1.00000000 -0.00000000 -0.00000000
vn -0.00000000 0.13450000 -0.99090000
vn 1.00000000 -0.00000000 -0.00000000
vn -0.00000000 0.40820000 -0.91290000
vn 1.00000000 -0.00000000 -0.00000000
vn -0.00000000 0.64880000 -0.76090000
vn 1.00000000 -0.00000000 -0.00000000
vn 1.00000000 -0.00000000 -0.00000000
vn -0.00000000 0.83690000 -0.54730000
vn -0.00000000 0.95720000 -0.28930000
vn 1.00000000 -0.00000000 -0.00000000
vn -0.00000000 1.00000000 -0.00790000
vn 1.00000000 -0.00000000 -0.00000000
vn -0.00000000 0.96170000 0.27410000
vn 1.00000000 -0.00000000 -0.00000000
vn -0.00000000 0.84550000 0.53400000
vn 1.00000000 -0.00000000 -0.00000000
vn -0.00000000 0.66080000 0.75050000
vn 1.00000000 -0.00000000 -0.00000000
vn 1.00000000 -0.00000000 -0.00000000
vn -0.00000000 0.42260000 0.90630000
vn 1.00000000 -0.00000000 -0.00000000
vn -0.00000000 0.15020000 0.98870000
vn -0.00000000 -0.13450000 0.99090000
vn 1.00000000 -0.00000000 -0.00000000
vn 1.00000000 -0.00000000 -0.00000000
vn -0.00000000 -0.40820000 0.91290000
vn -0.00000000 -0.64880000 0.76090000
vn 1.00000000 -0.00000000 -0.00000000
vn -0.00000000 -0.83690000 0.54730000
vn 1.00000000 -0.00000000 -0.00000000
vn 1.00000000 -0.00000000 -0.00000000
vn -0.00000000 -0.95720000 0.28930000
vn 1.00000000 -0.00000000 -0.00000000
vn -0.00000000 -1.00000000 0.00790000
vn 1.00000000 -0.00000000 -0.00000000
vn -0.00000000 -0.96170000 -0.27410000
vn 1.00000000 -0.00000000 -0.00000000
vn -0.00000000 -0.84550000 -0.53390000
vn 1.00000000 -0.00000000 -0.00000000
vn -0.00000000 -0.66080000 -0.75050000
vn -0.00000000 0.00790000 1.00000000
vn -1.00000000 -0.00000000 -0.00000000
vn -0.00000000 0.99840000 -0.05580000
vn -0.00000000 0.00790000 1.00000000
vn -0.00000000 -0.99920000 -0.03990000
vn -1.00000000 -0.00000000 -0.00000000
vn -1.00000000 -0.00000000 -0.00000000
vn -0.00000000 -0.99920000 -0.03990000
vn -0.00000000 -0.00790000 -1.00000000
vn -1.00000000 -0.00000000 -0.00000000
vn -0.00000000 -0.00790000 -1.00000000
vn -0.00000000 0.99840000 -0.05580000
vn -0.00000000 -0.00790000 -1.00000000
vn -0.00000000 -0.99920000 -0.03990000
vn 1.00000000 -0.00000000 -0.00000000
vn -0.00000000 -0.00790000 -1.00000000
vn -0.00000000 0.99840000 -0.05580000
vn 1.00000000 -0.00000000 -0.00000000
vn 1.00000000 -0.00000000 -0.00000000
vn -0.00000000 0.00790000 1.00000000
vn -0.00000000 -0.99920000 -0.03990000
vn 1.00000000 -0.00000000 -0.00000000
vn -0.00000000 0.00790000 1.00000000
vn -0.00000000 0.99840000 -0.05580000
vn 0.99700000 0.00050000 0.07730000
vn -0.00000000 -0.99990000 0.01540000
vn -0.00000000 0.00620000 1.00000000
vn 0.99700000 0.00050000 0.07730000
vn -0.00000000 0.00620000 1.00000000
vn -0.00000000 1.00000000 0.00300000
vn -0.00000000 0.00620000 1.00000000
vn -0.00000000 1.00000000 0.00300000
vn -0.99700000 0.00050000 0.07730000
vn -0.99700000 0.00050000 0.07730000
vn -0.00000000 -0.99990000 0.01540000
vn -0.00000000 0.00620000 1.00000000
vn 1.00000000 -0.00000000 -0.00000000
vn 0.99700000 0.00050000 0.07730000
vn -0.00000000 -1.00000000 0.00620000
vn -0.00000000 -0.99990000 0.01540000
vn 0.99700000 0.00050000 0.07730000
vn -0.00000000 1.00000000 -0.00620000
vn -0.00000000 1.00000000 0.00300000
vn 1.00000000 -0.00000000 -0.00000000
vn -0.00000000 1.00000000 -0.00620000
vn -1.00000000 -0.00000000 -0.00000000
vn -0.00000000 1.00000000 0.00300000
vn -0.99700000 0.00050000 0.07730000
vn -0.99700000 0.00050000 0.07730000
vn -1.00000000 -0.00000000 -0.00000000
vn -0.00000000 -1.00000000 0.00620000
vn -0.00000000 -0.99990000 0.01540000
vn -0.00000000 -0.00620000 -1.00000000
vn 1.00000000 -0.00000000 -0.00000000
vn -0.00000000 1.00000000 -0.00620000
vn -0.00000000 -0.00620000 -1.00000000
vn 1.00000000 -0.00000000 -0.00000000
vn -0.00000000 -1.00000000 0.00620000
vn -0.00000000 -0.00620000 -1.00000000
vn -0.00000000 -1.00000000 0.00620000
vn -1.00000000 -0.00000000 -0.00000000
vn -1.00000000 -0.00000000 -0.00000000
vn -0.00000000 1.00000000 -0.00620000
vn -0.00000000 -0.00620000 -1.00000000
vt 0.75771300 0.07730500
vt 0.25246200 0.11279900
vt 0.24956300 0.11285200
vt 0.75812600 0.08017700
vt 0.28243100 0.11140900
vt 0.27953100 0.11135800
vt 0.75933100 0.08281500
vt 0.27663000 0.11131100
vt 0.76123000 0.08500600
vt 0.76366900 0.08657400
vt 0.27372900 0.11127500
vt 0.76645100 0.08739000
vt 0.27082700 0.11125400
vt 0.76935100 0.08739000
vt 0.26792600 0.11124900
vt 0.77213300 0.08657300
vt 0.26502500 0.11126800
vt 0.26212600 0.11130200
vt 0.77457200 0.08500600
vt 0.77647100 0.08281500
vt 0.25922700 0.11130300
vt 0.25632600 0.11136200
vt 0.77767500 0.08017700
vt 0.25342800 0.11142200
vt 0.77808800 0.07730500
vt 0.25053000 0.11147100
vt 0.77767500 0.07443700
vt 0.27856200 0.11244000
vt 0.77647200 0.07179500
vt 0.77457200 0.06960400
vt 0.27566000 0.11244100
vt 0.27275800 0.11249800
vt 0.77213300 0.06803600
vt 0.26985900 0.11253900
vt 0.76935000 0.06722000
vt 0.26695900 0.11257600
vt 0.76645000 0.06722100
vt 0.76366800 0.06803800
vt 0.26405900 0.11261400
vt 0.76122800 0.06960600
vt 0.26115900 0.11265300
vt 0.25826000 0.11269800
vt 0.75932900 0.07179800
vt 0.75812500 0.07443600
vt 0.25536100 0.11274700
vt 0.70677300 0.07730500
vt 0.19699600 0.11949200
vt 0.70925000 0.09452900
vt 0.17985600 0.12248400
vt 0.38146300 0.10715700
vt 0.71647700 0.11035500
vt 0.36424600 0.10465500
vt 0.34700200 0.10236500
vt 0.72787100 0.12350400
vt 0.74250800 0.13291000
vt 0.32970900 0.10050700
vt 0.75920200 0.13781200
vt 0.31236300 0.09925600
vt 0.29498300 0.09870900
vt 0.77660000 0.13781100
vt 0.27759500 0.09891300
vt 0.79329400 0.13291000
vt 0.26022600 0.09979000
vt 0.80793000 0.12350400
vt 0.24289400 0.10124100
vt 0.81932400 0.11035500
vt 0.22559500 0.10306800
vt 0.82655200 0.09452900
vt 0.82902800 0.07730500
vt 0.20831400 0.10508300
vt 0.19102700 0.10706700
vt 0.82655200 0.06008600
vt 0.35235400 0.10582800
vt 0.81932500 0.04425500
vt 0.80793100 0.03110600
vt 0.33500000 0.10464200
vt 0.79329400 0.02170000
vt 0.31761800 0.10414200
vt 0.30023700 0.10461600
vt 0.77660000 0.01679900
vt 0.28290400 0.10601300
vt 0.75920100 0.01679900
vt 0.26563600 0.10807600
vt 0.74250700 0.02170200
vt 0.72787000 0.03110900
vt 0.24842900 0.11062100
vt 0.23127000 0.11348000
vt 0.71647600 0.04425800
vt 0.21413400 0.11648600
vt 0.70924900 0.06008500
vt 0.19692400 0.11908100
vt 0.98114700 0.35438000
vt 0.38152300 0.10674400
vt 0.17978500 0.12207300
vt 0.97867100 0.37160100
vt 0.97144300 0.38742800
vt 0.36430300 0.10424200
vt 0.96005000 0.40057700
vt 0.34705100 0.10195100
vt 0.32974600 0.10009200
vt 0.94541300 0.40998300
vt 0.31238500 0.09883900
vt 0.92871900 0.41488500
vt 0.29498700 0.09829200
vt 0.91132100 0.41488500
vt 0.89462700 0.40998300
vt 0.27758200 0.09849600
vt 0.26019800 0.09937400
vt 0.87999000 0.40057700
vt 0.86859700 0.38742800
vt 0.24285500 0.10082500
vt 0.22554900 0.10265300
vt 0.86136900 0.37160200
vt 0.85889400 0.35438000
vt 0.20826600 0.10466800
vt 0.19098000 0.10665200
vt 0.86137000 0.33715900
vt 0.86859500 0.32133300
vt 0.35238300 0.10541200
vt 0.87998800 0.30818400
vt 0.33502000 0.10422500
vt 0.31761900 0.10372500
vt 0.89462500 0.29877700
vt 0.30021500 0.10419900
vt 0.91131900 0.29387500
vt 0.92871800 0.29387500
vt 0.28286300 0.10559800
vt 0.26558000 0.10766200
vt 0.94541200 0.29877700
vt 0.96004900 0.30818300
vt 0.24836400 0.11020800
vt 0.97144300 0.32133200
vt 0.23120000 0.11306900
vt 0.21406100 0.11607500
vt 0.97867100 0.33715800
vt 0.93020700 0.35438000
vt 0.25247000 0.11321600
vt 0.24957100 0.11326900
vt 0.28242400 0.11182700
vt 0.92979500 0.35725000
vt 0.27952400 0.11177600
vt 0.92859000 0.35988800
vt 0.27662400 0.11172900
vt 0.92669100 0.36207900
vt 0.27372500 0.11169200
vt 0.92425200 0.36364700
vt 0.92147000 0.36446400
vt 0.27082600 0.11167200
vt 0.26792700 0.11166700
vt 0.91857000 0.36446400
vt 0.26502900 0.11168500
vt 0.91578800 0.36364700
vt 0.26212900 0.11172000
vt 0.91334900 0.36207900
vt 0.25923100 0.11172000
vt 0.91145000 0.35988800
vt 0.25633500 0.11177900
vt 0.91024600 0.35725000
vt 0.90983300 0.35438000
vt 0.25343600 0.11184000
vt 0.91024600 0.35151000
vt 0.25053700 0.11188900
vt 0.27856200 0.11285700
vt 0.91144800 0.34887300
vt 0.91334700 0.34668200
vt 0.27566400 0.11285800
vt 0.27276500 0.11291600
vt 0.91578600 0.34511400
vt 0.26986400 0.11295700
vt 0.91856900 0.34429600
vt 0.92146800 0.34429600
vt 0.26696400 0.11299400
vt 0.92425100 0.34511300
vt 0.26406400 0.11303100
vt 0.92669100 0.34668100
vt 0.26116500 0.11307000
vt 0.92859000 0.34887200
vt 0.25826700 0.11311500
vt 0.92979400 0.35151000
vt 0.25536900 0.11316400
vt 0.24956300 0.11148800
vt 0.77727400 0.07355800
vt 0.11497100 0.13368100
vt 0.27952900 0.11244000
vt 0.97770600 0.31563500
vt 0.77687300 0.07267400
vt 0.82173400 0.04953000
vt 0.93495400 0.28879600
vt 0.35814100 0.10621500
vt 0.82414200 0.05481100
vt 0.18526500 0.10772400
vt 0.13557000 0.08759600
vt 0.35816900 0.10579900
vt 0.93517600 0.28844200
vt 0.86618500 0.32660900
vt 0.18521800 0.10730900
vt 0.13518900 0.08742600
vt 0.86377900 0.33188300
vt 0.91104600 0.34975200
vt 0.27952900 0.11285700
vt 0.97792800 0.31528100
vt 0.91064800 0.35063100
vt 0.24957000 0.11190500
vt 0.11459000 0.13351100
vt 0.75412800 0.40189300
vt 0.77764400 0.37823500
vt 0.34277100 0.12155700
vt 0.75648300 0.40084400
vt 0.34484300 0.12002300
vt 0.76361900 0.38338600
vt 0.34729100 0.12332900
vt 0.76747700 0.38195800
vt 0.75789900 0.39167900
vt 0.76027800 0.39068700
vt 0.77367500 0.37931600
vt 0.34521900 0.12486300
vt 0.73348200 0.35668400
vt 0.73348200 0.35668400
vt 0.76833300 0.32941500
vt 0.76833300 0.32941500
vt 0.73667200 0.35526300
vt 0.74281600 0.33825000
vt 0.74281600 0.33825000
vt 0.73667200 0.35526300
vt 0.75387500 0.33415600
vt 0.73834700 0.34598600
vt 0.75387500 0.33415600
vt 0.73834700 0.34598600
vt 0.74157000 0.34464200
vt 0.74157000 0.34464200
vt 0.75695400 0.33251300
vt 0.75695400 0.33251300
vt 0.66678900 0.70795600
vt 0.72626100 0.33190500
vt 0.73393800 0.31426800
vt 0.66331000 0.70765700
vt 0.72307200 0.33332700
vt 0.76161500 0.30474100
vt 0.66432000 0.69590700
vt 0.75023600 0.30783900
vt 0.73172800 0.32103900
vt 0.72850500 0.32238300
vt 0.74499700 0.31017400
vt 0.66779900 0.69620600
f 4/4/4 48/48/48 1/1/1
f 46/46/46 1/1/1 48/48/48
f 48/48/48 7/7/7 51/51/51
f 7/7/7 48/48/48 4/4/4
f 51/51/51 7/7/7 54/54/54
f 54/54/54 7/7/7 9/9/9
f 10/10/10 54/54/54 9/9/9
f 54/54/54 10/10/10 55/55/55
f 57/57/57 10/10/10 12/12/12
f 10/10/10 57/57/57 55/55/55
f 14/14/14 57/57/57 12/12/12
f 57/57/57 14/14/14 60/60/60
f 16/16/16 62/62/62 14/14/14
f 14/14/14 62/62/62 60/60/60
f 19/19/19 64/64/64 16/16/16
f 62/62/62 16/16/16 64/64/64
f 64/64/64 20/20/20 66/66/66
f 20/20/20 64/64/64 19/19/19
f 66/66/66 23/23/23 68/68/68
f 23/23/23 66/66/66 20/20/20
f 69/69/69 23/23/23 25/25/25
f 23/23/23 69/69/69 68/68/68
f 27/27/27 69/69/69 25/25/25
f 69/69/69 27/27/27 72/72/72
f 30/30/30 74/74/74 29/29/29
f 74/74/74 30/30/30 75/75/75
f 33/33/33 75/75/75 30/30/30
f 75/75/75 33/33/33 77/77/77
f 35/35/35 80/80/80 33/33/33
f 77/77/77 33/33/33 80/80/80
f 80/80/80 37/37/37 82/82/82
f 37/37/37 80/80/80 35/35/35
f 82/82/82 38/38/38 84/84/84
f 38/38/38 82/82/82 37/37/37
f 85/85/85 38/38/38 40/40/40
f 38/38/38 85/85/85 84/84/84
f 88/88/88 40/40/40 43/43/43
f 40/40/40 88/88/88 85/85/85
f 44/44/44 90/90/90 43/43/43
f 43/43/43 90/90/90 88/88/88
f 1/1/1 90/90/90 44/44/44
f 90/90/90 1/1/1 46/46/46
f 94/94/94 91/91/91 47/47/47
f 94/94/94 47/47/47 49/49/49
f 97/97/97 93/93/93 50/50/50
f 97/97/97 50/50/50 52/52/52
f 97/97/97 53/53/53 99/99/99
f 53/53/53 97/97/97 52/52/52
f 99/99/99 56/56/56 100/100/100
f 56/56/56 99/99/99 53/53/53
f 100/100/100 58/58/58 102/102/102
f 58/58/58 100/100/100 56/56/56
f 102/102/102 59/59/59 104/104/104
f 59/59/59 102/102/102 58/58/58
f 104/104/104 61/61/61 107/107/107
f 61/61/61 104/104/104 59/59/59
f 107/107/107 63/63/63 108/108/108
f 63/63/63 107/107/107 61/61/61
f 108/108/108 65/65/65 111/111/111
f 65/65/65 108/108/108 63/63/63
f 111/111/111 67/67/67 112/112/112
f 67/67/67 111/111/111 65/65/65
f 112/112/112 70/70/70 115/115/115
f 70/70/70 112/112/112 67/67/67
f 115/115/115 71/71/71 116/116/116
f 71/71/71 115/115/115 70/70/70
f 121/121/121 119/119/119 73/73/73
f 121/121/121 73/73/73 76/76/76
f 122/122/122 121/121/121 76/76/76
f 122/122/122 76/76/76 78/78/78
f 124/124/124 122/122/122 78/78/78
f 124/124/124 78/78/78 79/79/79
f 127/127/127 124/124/124 79/79/79
f 127/127/127 79/79/79 81/81/81
f 128/128/128 127/127/127 81/81/81
f 128/128/128 81/81/81 83/83/83
f 131/131/131 128/128/128 83/83/83
f 131/131/131 83/83/83 86/86/86
f 133/133/133 131/131/131 86/86/86
f 133/133/133 86/86/86 87/87/87
f 134/134/134 133/133/133 87/87/87
f 134/134/134 87/87/87 89/89/89
f 91/91/91 134/134/134 89/89/89
f 91/91/91 89/89/89 47/47/47
f 95/95/95 136/136/136 92/92/92
f 136/136/136 95/95/95 140/140/140
f 140/140/140 95/95/95 142/142/142
f 95/95/95 96/96/96 142/142/142
f 98/98/98 142/142/142 96/96/96
f 142/142/142 98/98/98 144/144/144
f 101/101/101 146/146/146 98/98/98
f 144/144/144 98/98/98 146/146/146
f 103/103/103 146/146/146 101/101/101
f 146/146/146 103/103/103 147/147/147
f 105/105/105 150/150/150 103/103/103
f 103/103/103 150/150/150 147/147/147
f 152/152/152 105/105/105 106/106/106
f 105/105/105 152/152/152 150/150/150
f 109/109/109 152/152/152 106/106/106
f 152/152/152 109/109/109 154/154/154
f 154/154/154 109/109/109 156/156/156
f 156/156/156 109/109/109 110/110/110
f 156/156/156 113/113/113 158/158/158
f 113/113/113 156/156/156 110/110/110
f 114/114/114 159/159/159 113/113/113
f 158/158/158 113/113/113 159/159/159
f 117/117/117 161/161/161 114/114/114
f 159/159/159 114/114/114 161/161/161
f 165/165/165 118/118/118 120/120/120
f 118/118/118 165/165/165 164/164/164
f 168/168/168 120/120/120 123/123/123
f 120/120/120 168/168/168 165/165/165
f 168/168/168 125/125/125 170/170/170
f 125/125/125 168/168/168 123/123/123
f 170/170/170 125/125/125 171/171/171
f 125/125/125 126/126/126 171/171/171
f 129/129/129 173/173/173 126/126/126
f 171/171/171 126/126/126 173/173/173
f 130/130/130 173/173/173 129/129/129
f 173/173/173 130/130/130 175/175/175
f 132/132/132 175/175/175 130/130/130
f 175/175/175 132/132/132 177/177/177
f 135/135/135 177/177/177 132/132/132
f 177/177/177 135/135/135 179/179/179
f 136/136/136 135/135/135 92/92/92
f 135/135/135 136/136/136 179/179/179
f 143/143/143 6/6/6 141/141/141
f 6/6/6 143/143/143 8/8/8
f 141/141/141 5/5/5 139/139/139
f 5/5/5 141/141/141 6/6/6
f 138/138/138 2/2/2 137/137/137
f 2/2/2 138/138/138 3/3/3
f 180/180/180 137/137/137 2/2/2
f 180/180/180 2/2/2 45/45/45
f 178/178/178 180/180/180 45/45/45
f 178/178/178 45/45/45 42/42/42
f 176/176/176 178/178/178 42/42/42
f 176/176/176 42/42/42 41/41/41
f 176/176/176 39/39/39 174/174/174
f 39/39/39 176/176/176 41/41/41
f 174/174/174 36/36/36 172/172/172
f 36/36/36 174/174/174 39/39/39
f 172/172/172 34/34/34 169/169/169
f 34/34/34 172/172/172 36/36/36
f 167/167/167 169/169/169 34/34/34
f 167/167/167 34/34/34 32/32/32
f 166/166/166 167/167/167 32/32/32
f 166/166/166 32/32/32 31/31/31
f 166/166/166 28/28/28 163/163/163
f 28/28/28 166/166/166 31/31/31
f 162/162/162 24/24/24 160/160/160
f 24/24/24 162/162/162 26/26/26
f 157/157/157 160/160/160 24/24/24
f 157/157/157 24/24/24 22/22/22
f 155/155/155 157/157/157 22/22/22
f 155/155/155 22/22/22 21/21/21
f 153/153/153 155/155/155 21/21/21
f 153/153/153 21/21/21 18/18/18
f 153/153/153 17/17/17 151/151/151
f 17/17/17 153/153/153 18/18/18
f 151/151/151 15/15/15 149/149/149
f 15/15/15 151/151/151 17/17/17
f 148/148/148 149/149/149 15/15/15
f 148/148/148 15/15/15 13/13/13
f 145/145/145 148/148/148 13/13/13
f 145/145/145 13/13/13 11/11/11
f 143/143/143 145/145/145 11/11/11
f 143/143/143 11/11/11 8/8/8
f 187/187/187 186/186/186 29/29/29
f 29/29/29 74/74/74 187/187/187
f 72/72/72 27/27/27 190/190/190
f 182/182/182 190/190/190 27/27/27
f 193/193/193 73/73/73 119/119/119
f 73/73/73 193/193/193 189/189/189
f 71/71/71 191/191/191 116/116/116
f 196/196/196 116/116/116 191/191/191
f 118/118/118 164/164/164 195/195/195
f 195/195/195 164/164/164 199/199/199
f 198/198/198 161/161/161 117/117/117
f 161/161/161 198/198/198 202/202/202
f 203/203/203 26/26/26 162/162/162
f 26/26/26 203/203/203 181/181/181
f 28/28/28 184/184/184 163/163/163
f 200/200/200 163/163/163 184/184/184
f 185/185/185 194/194/194 201/201/201
f 194/194/194 185/185/185 188/188/188
f 197/197/197 183/183/183 204/204/204
f 183/183/183 197/197/197 192/192/192
f 218/218/218 208/208/208 205/205/205
f 208/208/208 218/218/218 221/221/221
f 210/210/210 223/223/223 227/227/227
f 210/210/210 227/227/227 212/212/212
f 229/229/229 214/214/214 213/213/213
f 213/213/213 228/228/228 229/229/229
f 206/206/206 232/232/232 220/220/220
f 232/232/232 206/206/206 215/215/215
f 209/209/209 216/216/216 207/207/207
f 216/216/216 209/209/209 211/211/211
f 233/233/233 239/239/239 244/244/244
f 239/239/239 233/233/233 236/236/236
f 234/234/234 224/224/224 237/237/237
f 237/237/237 224/224/224 217/217/217
f 231/231/231 238/238/238 219/219/219
f 238/238/238 231/231/231 240/240/240
f 242/242/242 230/230/230 226/226/226
f 230/230/230 242/242/242 241/241/241
f 235/235/235 225/225/225 222/222/222
f 225/225/225 235/235/235 243/243/243

