mtllib material.mtl
usemtl material_0
v 0.13811300 -0.00901700 0.05708800
v 0.13811300 -0.00901700 0.05708800
v 0.13811300 -0.00901700 0.05708800
v 0.13811300 -0.00901700 0.05708800
v 0.13811300 -0.00901700 0.05708800
v 0.13811300 -0.00901700 0.05708800
v 0.13806600 -0.03835400 0.05844000
v 0.13806600 -0.03835400 0.05844000
v 0.13806600 -0.03835400 0.05844000
v 0.13806600 -0.03835400 0.05844000
v 0.13806600 -0.03835400 0.05844000
v 0.13806600 -0.03835400 0.05844000
v 0.13807700 0.03835400 0.05842800
v 0.13807700 0.03835400 0.05842800
v 0.13807700 0.03835400 0.05842800
v 0.13807700 0.03835400 0.05842800
v 0.13807700 0.03835400 0.05842800
v 0.13807700 0.03835400 0.05842800
v 0.13807700 0.03835400 0.05842800
v 0.13811300 -0.00050800 0.05708800
v 0.13811300 -0.00050800 0.05708800
v 0.13811300 -0.00050800 0.05708800
v 0.13811300 -0.00050800 0.05708800
v 0.13811300 0.00050800 0.05708800
v 0.13811300 0.00050800 0.05708800
v 0.13811300 0.00050800 0.05708800
v 0.13811300 0.00050800 0.05708800
v 0.13811300 0.00901700 0.05708800
v 0.13811300 0.00901700 0.05708800
v 0.13811300 0.00901700 0.05708800
v 0.13811300 0.00901700 0.05708800
v 0.13811300 0.02806700 0.03975200
v 0.13811300 0.02806700 0.03975200
v 0.13811300 0.02806700 0.03975200
v 0.13811300 0.02806700 0.03975200
v 0.13811300 0.02806700 0.03975200
v 0.13811300 0.02806700 0.03975200
v 0.13801600 0.03835400 0.03841000
v 0.13801600 0.03835400 0.03841000
v 0.13801600 0.03835400 0.03841000
v 0.13801600 0.03835400 0.03841000
v 0.13801600 0.03835400 0.03841000
v 0.13801600 0.03835400 0.03841000
v 0.13808700 -0.03835400 0.03841000
v 0.13808700 -0.03835400 0.03841000
v 0.13808700 -0.03835400 0.03841000
v 0.13808700 -0.03835400 0.03841000
v 0.13808700 -0.03835400 0.03841000
v 0.13808700 -0.03835400 0.03841000
v 0.13808700 -0.03835400 0.03841000
v 0.13811300 0.01955800 0.03975200
v 0.13811300 0.01955800 0.03975200
v 0.13811300 0.01955800 0.03975200
v 0.13811300 0.01955800 0.03975200
v 0.13811300 0.01854200 0.03975200
v 0.13811300 0.01854200 0.03975200
v 0.13811300 0.01854200 0.03975200
v 0.13811300 0.01854200 0.03975200
v 0.13811300 0.01003300 0.03975200
v 0.13811300 0.01003300 0.03975200
v 0.13811300 0.01003300 0.03975200
v 0.13811300 0.01003300 0.03975200
v 0.13811300 0.00901700 0.03975200
v 0.13811300 0.00901700 0.03975200
v 0.13811300 0.00901700 0.03975200
v 0.13811300 0.00901700 0.03975200
v 0.13811300 0.00050800 0.03975200
v 0.13811300 0.00050800 0.03975200
v 0.13811300 0.00050800 0.03975200
v 0.13811300 0.00050800 0.03975200
v 0.13811300 0.03835400 0.05708800
v 0.13811300 0.03835400 0.05708800
v 0.13811300 0.03835400 0.05708800
v 0.13811300 0.02908300 0.05708800
v 0.13811300 0.02908300 0.05708800
v 0.13811300 0.02908300 0.05708800
v 0.13811300 0.02908300 0.05708800
v 0.13811300 -0.00050800 0.03975200
v 0.13811300 -0.00050800 0.03975200
v 0.13811300 -0.00050800 0.03975200
v 0.13811300 -0.00050800 0.03975200
v 0.13811300 -0.00901700 0.03975200
v 0.13811300 -0.00901700 0.03975200
v 0.13811300 -0.00901700 0.03975200
v 0.13811300 -0.00901700 0.03975200
v 0.13811300 -0.01003300 0.03975200
v 0.13811300 -0.01003300 0.03975200
v 0.13811300 -0.01003300 0.03975200
v 0.13811300 -0.01003300 0.03975200
v 0.13811300 -0.01854200 0.03975200
v 0.13811300 -0.01854200 0.03975200
v 0.13811300 -0.01854200 0.03975200
v 0.13811300 -0.01854200 0.03975200
v 0.13811300 -0.01955800 0.03975200
v 0.13811300 -0.01955800 0.03975200
v 0.13811300 -0.01955800 0.03975200
v 0.13811300 -0.01955800 0.03975200
v 0.13811300 -0.02806700 0.03975200
v 0.13811300 -0.02806700 0.03975200
v 0.13811300 -0.02806700 0.03975200
v 0.13811300 -0.02806700 0.03975200
v 0.13811300 0.02806700 0.05708800
v 0.13811300 0.02806700 0.05708800
v 0.13811300 0.02806700 0.05708800
v 0.13811300 0.02806700 0.05708800
v 0.13811300 0.01955800 0.05708800
v 0.13811300 0.01955800 0.05708800
v 0.13811300 0.01955800 0.05708800
v 0.13811300 0.01955800 0.05708800
v 0.13811300 0.01854200 0.05708800
v 0.13811300 0.01854200 0.05708800
v 0.13811300 0.01854200 0.05708800
v 0.13811300 0.01854200 0.05708800
v 0.13811300 0.03835400 0.03975200
v 0.13811300 0.03835400 0.03975200
v 0.13811300 0.03835400 0.03975200
v 0.13811300 0.02908300 0.03975200
v 0.13811300 0.02908300 0.03975200
v 0.13811300 0.02908300 0.03975200
v 0.13811300 0.02908300 0.03975200
v 0.13811300 0.01003300 0.05708800
v 0.13811300 0.01003300 0.05708800
v 0.13811300 0.01003300 0.05708800
v 0.13811300 0.01003300 0.05708800
v 0.13811300 -0.01003300 0.05708800
v 0.13811300 -0.01003300 0.05708800
v 0.13811300 -0.01003300 0.05708800
v 0.13811300 -0.01003300 0.05708800
v 0.13811300 -0.01854200 0.05708800
v 0.13811300 -0.01854200 0.05708800
v 0.13811300 -0.01854200 0.05708800
v 0.13811300 -0.01854200 0.05708800
v 0.13811300 -0.01955800 0.05708800
v 0.13811300 -0.01955800 0.05708800
v 0.13811300 -0.01955800 0.05708800
v 0.13811300 -0.01955800 0.05708800
v 0.13811300 -0.02806700 0.05708800
v 0.13811300 -0.02806700 0.05708800
v 0.13811300 -0.02806700 0.05708800
v 0.13811300 -0.02806700 0.05708800
v 0.13811300 -0.02908300 0.05708800
v 0.13811300 -0.02908300 0.05708800
v 0.13811300 -0.02908300 0.05708800
v 0.13811300 -0.02908300 0.05708800
v 0.13811300 -0.03835400 0.05708800
v 0.13811300 -0.03835400 0.05708800
v 0.13811300 -0.03835400 0.05708800
v 0.13811300 -0.02908300 0.03975200
v 0.13811300 -0.02908300 0.03975200
v 0.13811300 -0.02908300 0.03975200
v 0.13811300 -0.02908300 0.03975200
v 0.13811300 -0.03835400 0.03975200
v 0.13811300 -0.03835400 0.03975200
v 0.13811300 -0.03835400 0.03975200
v 0.14395500 0.02908300 0.03975200
v 0.14395500 0.02908300 0.03975200
v 0.14395500 0.02908300 0.03975200
v 0.14395500 0.02908300 0.03975200
v 0.14395500 0.02908300 0.03975200
v 0.14395500 0.02908300 0.03975200
v 0.14395500 0.03835400 0.03975200
v 0.14395500 0.03835400 0.03975200
v 0.14395500 0.03835400 0.03975200
v 0.14395500 0.03835400 0.03975200
v 0.14395500 0.02908300 0.05708800
v 0.14395500 0.02908300 0.05708800
v 0.14395500 0.02908300 0.05708800
v 0.14395500 0.02908300 0.05708800
v 0.14395500 0.03835400 0.05708800
v 0.14395500 0.03835400 0.05708800
v 0.14395500 0.03835400 0.05708800
v 0.14395500 0.03835400 0.05708800
v 0.14395500 0.03835400 0.05708800
v 0.14393300 0.03898900 0.05772300
v 0.14393300 0.03898900 0.05772300
v 0.14393300 0.03898900 0.05772300
v 0.14393300 0.03898900 0.05772300
v 0.14393300 0.03898900 0.05772300
v 0.14395500 -0.02806700 0.05708800
v 0.14395500 -0.02806700 0.05708800
v 0.14395500 -0.02806700 0.05708800
v 0.14395500 -0.02806700 0.05708800
v 0.14395500 -0.02806700 0.05708800
v 0.14395500 -0.02806700 0.05708800
v 0.14395500 -0.01955800 0.05708800
v 0.14395500 -0.01955800 0.05708800
v 0.14395500 -0.01955800 0.05708800
v 0.14395500 -0.01955800 0.05708800
v 0.14395500 -0.01854200 0.05708800
v 0.14395500 -0.01854200 0.05708800
v 0.14395500 -0.01854200 0.05708800
v 0.14395500 -0.01854200 0.05708800
v 0.14395500 -0.01003300 0.05708800
v 0.14395500 -0.01003300 0.05708800
v 0.14395500 -0.01003300 0.05708800
v 0.14395500 -0.01003300 0.05708800
v 0.14395500 -0.00901700 0.05708800
v 0.14395500 -0.00901700 0.05708800
v 0.14395500 -0.00901700 0.05708800
v 0.14395500 -0.00901700 0.05708800
v 0.14395500 -0.00050800 0.05708800
v 0.14395500 -0.00050800 0.05708800
v 0.14395500 -0.00050800 0.05708800
v 0.14395500 -0.00050800 0.05708800
v 0.14395500 0.00050800 0.05708800
v 0.14395500 0.00050800 0.05708800
v 0.14395500 0.00050800 0.05708800
v 0.14395500 0.00050800 0.05708800
v 0.14395500 0.00901700 0.05708800
v 0.14395500 0.00901700 0.05708800
v 0.14395500 0.00901700 0.05708800
v 0.14395500 0.00901700 0.05708800
v 0.14395500 0.01003300 0.05708800
v 0.14395500 0.01003300 0.05708800
v 0.14395500 0.01003300 0.05708800
v 0.14395500 0.01003300 0.05708800
v 0.14395500 0.01854200 0.05708800
v 0.14395500 0.01854200 0.05708800
v 0.14395500 0.01854200 0.05708800
v 0.14395500 0.01854200 0.05708800
v 0.14395500 0.01955800 0.05708800
v 0.14395500 0.01955800 0.05708800
v 0.14395500 0.01955800 0.05708800
v 0.14395500 0.01955800 0.05708800
v 0.14395500 0.02806700 0.05708800
v 0.14395500 0.02806700 0.05708800
v 0.14395500 0.02806700 0.05708800
v 0.14395500 0.02806700 0.05708800
v 0.14393500 -0.03898600 0.03912100
v 0.14393500 -0.03898600 0.03912100
v 0.14393500 -0.03898600 0.03912100
v 0.14393500 -0.03898600 0.03912100
v 0.14393500 -0.03898600 0.03912100
v 0.14393500 -0.03898600 0.03912100
v 0.14389900 0.03906400 0.03904200
v 0.14389900 0.03906400 0.03904200
v 0.14389900 0.03906400 0.03904200
v 0.14389900 0.03906400 0.03904200
v 0.14389900 0.03906400 0.03904200
v 0.14389900 0.03906400 0.03904200
v 0.14389900 0.03906400 0.03904200
v 0.14389900 0.03906400 0.03904200
v 0.14395500 0.02806700 0.03975200
v 0.14395500 0.02806700 0.03975200
v 0.14395500 0.02806700 0.03975200
v 0.14395500 0.02806700 0.03975200
v 0.14395500 0.01955800 0.03975200
v 0.14395500 0.01955800 0.03975200
v 0.14395500 0.01955800 0.03975200
v 0.14395500 0.01955800 0.03975200
v 0.14395500 0.01854200 0.03975200
v 0.14395500 0.01854200 0.03975200
v 0.14395500 0.01854200 0.03975200
v 0.14395500 0.01854200 0.03975200
v 0.14395500 0.01003300 0.03975200
v 0.14395500 0.01003300 0.03975200
v 0.14395500 0.01003300 0.03975200
v 0.14395500 0.01003300 0.03975200
v 0.14395500 0.00901700 0.03975200
v 0.14395500 0.00901700 0.03975200
v 0.14395500 0.00901700 0.03975200
v 0.14395500 0.00901700 0.03975200
v 0.14395500 0.00050800 0.03975200
v 0.14395500 0.00050800 0.03975200
v 0.14395500 0.00050800 0.03975200
v 0.14395500 0.00050800 0.03975200
v 0.14395500 -0.00050800 0.03975200
v 0.14395500 -0.00050800 0.03975200
v 0.14395500 -0.00050800 0.03975200
v 0.14395500 -0.00050800 0.03975200
v 0.14395500 -0.00901700 0.03975200
v 0.14395500 -0.00901700 0.03975200
v 0.14395500 -0.00901700 0.03975200
v 0.14395500 -0.00901700 0.03975200
v 0.14395500 -0.01003300 0.03975200
v 0.14395500 -0.01003300 0.03975200
v 0.14395500 -0.01003300 0.03975200
v 0.14395500 -0.01003300 0.03975200
v 0.14395500 -0.01854200 0.03975200
v 0.14395500 -0.01854200 0.03975200
v 0.14395500 -0.01854200 0.03975200
v 0.14395500 -0.01854200 0.03975200
v 0.14395500 -0.01955800 0.03975200
v 0.14395500 -0.01955800 0.03975200
v 0.14395500 -0.01955800 0.03975200
v 0.14395500 -0.01955800 0.03975200
v 0.14395500 -0.02806700 0.03975200
v 0.14395500 -0.02806700 0.03975200
v 0.14395500 -0.02806700 0.03975200
v 0.14395500 -0.02806700 0.03975200
v 0.14395500 -0.02908300 0.03975200
v 0.14395500 -0.02908300 0.03975200
v 0.14395500 -0.02908300 0.03975200
v 0.14395500 -0.02908300 0.03975200
v 0.14389900 -0.03906400 0.05779800
v 0.14389900 -0.03906400 0.05779800
v 0.14389900 -0.03906400 0.05779800
v 0.14389900 -0.03906400 0.05779800
v 0.14389900 -0.03906400 0.05779800
v 0.14389900 -0.03906400 0.05779800
v 0.14389900 -0.03906400 0.05779800
v 0.14395500 -0.02908300 0.05708800
v 0.14395500 -0.02908300 0.05708800
v 0.14395500 -0.02908300 0.05708800
v 0.14395500 -0.02908300 0.05708800
v 0.14395500 -0.03835400 0.05708800
v 0.14395500 -0.03835400 0.05708800
v 0.14395500 -0.03835400 0.05708800
v 0.14395500 -0.03835400 0.05708800
v 0.14395500 -0.03835400 0.05708800
v 0.14395500 -0.03835400 0.03975200
v 0.14395500 -0.03835400 0.03975200
v 0.14395500 -0.03835400 0.03975200
v 0.14395500 -0.03835400 0.03975200
v 0.14341800 0.03952700 0.05826000
v 0.14341800 0.03952700 0.05826000
v 0.14341800 0.03952700 0.05826000
v 0.14341800 0.03952700 0.05826000
v 0.14341800 0.03952700 0.05826000
v 0.14341800 0.03952700 0.05826000
v 0.14341800 0.03952700 0.05826000
v 0.14341800 0.03952700 0.05826000
v 0.14340100 -0.03953200 0.05826900
v 0.14340100 -0.03953200 0.05826900
v 0.14340100 -0.03953200 0.05826900
v 0.14340100 -0.03953200 0.05826900
v 0.14340100 -0.03953200 0.05826900
v 0.14340100 -0.03953200 0.05826900
v 0.14340100 -0.03953200 0.05826900
v 0.14340100 -0.03953200 0.05826900
v 0.13754900 0.03952400 0.05825200
v 0.13754900 0.03952400 0.05825200
v 0.13754900 0.03952400 0.05825200
v 0.13754900 0.03952400 0.05825200
v 0.13754900 0.03952400 0.05825200
v 0.13756400 -0.03951500 0.05826700
v 0.13756400 -0.03951500 0.05826700
v 0.13756400 -0.03951500 0.05826700
v 0.13756400 -0.03951500 0.05826700
v 0.13756400 -0.03951500 0.05826700
v 0.13608100 -0.03835400 0.05678300
v 0.13608100 -0.03835400 0.05678300
v 0.13608100 -0.03835400 0.05678300
v 0.13608100 -0.03835400 0.05678300
v 0.13608100 -0.03962400 0.05678300
v 0.13608100 -0.03962400 0.05678300
v 0.13608100 -0.03962400 0.05678300
v 0.13608100 -0.03962400 0.05678300
v 0.13608100 -0.03835400 0.04005700
v 0.13608100 -0.03835400 0.04005700
v 0.13608100 -0.03835400 0.04005700
v 0.13608100 -0.03835400 0.04005700
v 0.13608100 -0.03962400 0.04005700
v 0.13608100 -0.03962400 0.04005700
v 0.13608100 -0.03962400 0.04005700
v 0.13608100 -0.03962400 0.04005700
v 0.13754900 -0.03952400 0.03858800
v 0.13754900 -0.03952400 0.03858800
v 0.13754900 -0.03952400 0.03858800
v 0.13754900 -0.03952400 0.03858800
v 0.13754900 -0.03952400 0.03858800
v 0.13811300 -0.03962400 0.05238200
v 0.13811300 -0.03962400 0.05238200
v 0.13811300 -0.03962400 0.05238200
v 0.13811300 -0.03962400 0.05238200
v 0.13811300 -0.03962400 0.05238200
v 0.13811300 -0.03962400 0.05238200
v 0.13608100 -0.03962400 0.05238200
v 0.13608100 -0.03962400 0.05238200
v 0.13608100 -0.03962400 0.05238200
v 0.13811300 -0.03962400 0.04445800
v 0.13811300 -0.03962400 0.04445800
v 0.13811300 -0.03962400 0.04445800
v 0.13811300 -0.03962400 0.04445800
v 0.13811300 -0.03962400 0.04445800
v 0.13811300 -0.03962400 0.04445800
v 0.13811300 -0.03962400 0.04445800
v 0.13608100 -0.03962400 0.04445800
v 0.13608100 -0.03962400 0.04445800
v 0.13608100 -0.03962400 0.04445800
v 0.13608100 -0.04336500 0.04963300
v 0.13608100 -0.04336500 0.04963300
v 0.13608100 -0.04336500 0.04963300
v 0.13608100 -0.04336500 0.04963300
v 0.13608100 -0.04603700 0.05080800
v 0.13608100 -0.04603700 0.05080800
v 0.13608100 -0.04603700 0.05080800
v 0.13608100 -0.04446300 0.05238200
v 0.13608100 -0.04446300 0.05238200
v 0.13608100 -0.04446300 0.05238200
v 0.13608100 -0.04421400 0.04847400
v 0.13608100 -0.04421400 0.04847400
v 0.13608100 -0.04421400 0.04847400
v 0.13608100 -0.04421400 0.04847400
v 0.13608100 -0.04209800 0.04949800
v 0.13608100 -0.04209800 0.04949800
v 0.13608100 -0.04209800 0.04949800
v 0.13608100 -0.04209800 0.04949800
v 0.13608100 -0.04603700 0.04603200
v 0.13608100 -0.04603700 0.04603200
v 0.13608100 -0.04603700 0.04603200
v 0.13608100 -0.04337200 0.04719000
v 0.13608100 -0.04337200 0.04719000
v 0.13608100 -0.04337200 0.04719000
v 0.13608100 -0.04337200 0.04719000
v 0.13608100 -0.04155800 0.04842000
v 0.13608100 -0.04155800 0.04842000
v 0.13608100 -0.04155800 0.04842000
v 0.13608100 -0.04155800 0.04842000
v 0.13608100 -0.04155800 0.04842000
v 0.13608100 -0.04446300 0.04445800
v 0.13608100 -0.04446300 0.04445800
v 0.13608100 -0.04446300 0.04445800
v 0.13608100 -0.04206300 0.04737900
v 0.13608100 -0.04206300 0.04737900
v 0.13608100 -0.04206300 0.04737900
v 0.13811300 -0.04446300 0.05238200
v 0.13811300 -0.04446300 0.05238200
v 0.13811300 -0.04446300 0.05238200
v 0.13811300 -0.04603700 0.05080800
v 0.13811300 -0.04603700 0.05080800
v 0.13811300 -0.04603700 0.05080800
v 0.13811300 -0.04418000 0.04877300
v 0.13811300 -0.04418000 0.04877300
v 0.13811300 -0.04418000 0.04877300
v 0.13811300 -0.04418000 0.04877300
v 0.13811300 -0.04298500 0.04973600
v 0.13811300 -0.04298500 0.04973600
v 0.13811300 -0.04298500 0.04973600
v 0.13811300 -0.04298500 0.04973600
v 0.13811300 -0.04603700 0.04603200
v 0.13811300 -0.04603700 0.04603200
v 0.13811300 -0.04603700 0.04603200
v 0.13811300 -0.04366200 0.04737900
v 0.13811300 -0.04366200 0.04737900
v 0.13811300 -0.04366200 0.04737900
v 0.13811300 -0.04366200 0.04737900
v 0.13811300 -0.04182100 0.04921900
v 0.13811300 -0.04182100 0.04921900
v 0.13811300 -0.04182100 0.04921900
v 0.13811300 -0.04182100 0.04921900
v 0.13811300 -0.04159000 0.04828300
v 0.13811300 -0.04159000 0.04828300
v 0.13811300 -0.04159000 0.04828300
v 0.13811300 -0.04446300 0.04445800
v 0.13811300 -0.04446300 0.04445800
v 0.13811300 -0.04446300 0.04445800
v 0.13811300 -0.04218000 0.04723900
v 0.13811300 -0.04218000 0.04723900
v 0.13811300 -0.04218000 0.04723900
v 0.13811300 -0.04218000 0.04723900
v 0.13811300 -0.04218000 0.04723900
v 0.14341800 -0.03952700 0.03858000
v 0.14341800 -0.03952700 0.03858000
v 0.14341800 -0.03952700 0.03858000
v 0.14341800 -0.03952700 0.03858000
v 0.14341800 -0.03952700 0.03858000
v 0.14341800 -0.03952700 0.03858000
v 0.14341800 -0.03952700 0.03858000
v 0.14341800 -0.03952700 0.03858000
v 0.14340100 0.03953200 0.03857100
v 0.14340100 0.03953200 0.03857100
v 0.14340100 0.03953200 0.03857100
v 0.14340100 0.03953200 0.03857100
v 0.14340100 0.03953200 0.03857100
v 0.14340100 0.03953200 0.03857100
v 0.14340100 0.03953200 0.03857100
v 0.14340100 0.03953200 0.03857100
v 0.13756400 0.03951500 0.03857300
v 0.13756400 0.03951500 0.03857300
v 0.13756400 0.03951500 0.03857300
v 0.13756400 0.03951500 0.03857300
v 0.13756400 0.03951500 0.03857300
v 0.13608100 0.03835400 0.04005700
v 0.13608100 0.03835400 0.04005700
v 0.13608100 0.03835400 0.04005700
v 0.13608100 0.03835400 0.04005700
v 0.13608100 0.03962400 0.04005700
v 0.13608100 0.03962400 0.04005700
v 0.13608100 0.03962400 0.04005700
v 0.13608100 0.03962400 0.04005700
v 0.13608100 0.03835400 0.05678300
v 0.13608100 0.03835400 0.05678300
v 0.13608100 0.03835400 0.05678300
v 0.13608100 0.03835400 0.05678300
v 0.13608100 0.03962400 0.05238200
v 0.13608100 0.03962400 0.05238200
v 0.13608100 0.03962400 0.05238200
v 0.13608100 0.03962400 0.05678300
v 0.13608100 0.03962400 0.05678300
v 0.13608100 0.03962400 0.05678300
v 0.13608100 0.03962400 0.05678300
v 0.13608100 0.04236000 0.04963300
v 0.13608100 0.04236000 0.04963300
v 0.13608100 0.04236000 0.04963300
v 0.13608100 0.04236000 0.04963300
v 0.13608100 0.04156000 0.04864200
v 0.13608100 0.04156000 0.04864200
v 0.13608100 0.04156000 0.04864200
v 0.13608100 0.04156000 0.04864200
v 0.13608100 0.04446300 0.05238200
v 0.13608100 0.04446300 0.05238200
v 0.13608100 0.04446300 0.05238200
v 0.13608100 0.04382700 0.04938500
v 0.13608100 0.04382700 0.04938500
v 0.13608100 0.04382700 0.04938500
v 0.13608100 0.04382700 0.04938500
v 0.13608100 0.03962400 0.04445800
v 0.13608100 0.03962400 0.04445800
v 0.13608100 0.03962400 0.04445800
v 0.13608100 0.04184400 0.04763900
v 0.13608100 0.04184400 0.04763900
v 0.13608100 0.04184400 0.04763900
v 0.13608100 0.04184400 0.04763900
v 0.13608100 0.04603700 0.05080800
v 0.13608100 0.04603700 0.05080800
v 0.13608100 0.04603700 0.05080800
v 0.13608100 0.04407500 0.04791800
v 0.13608100 0.04407500 0.04791800
v 0.13608100 0.04407500 0.04791800
v 0.13608100 0.04407500 0.04791800
v 0.13608100 0.04603700 0.04603200
v 0.13608100 0.04603700 0.04603200
v 0.13608100 0.04603700 0.04603200
v 0.13608100 0.04291700 0.04706900
v 0.13608100 0.04291700 0.04706900
v 0.13608100 0.04291700 0.04706900
v 0.13608100 0.04291700 0.04706900
v 0.13608100 0.04446300 0.04445800
v 0.13608100 0.04446300 0.04445800
v 0.13608100 0.04446300 0.04445800
v 0.13811300 0.03962400 0.04445800
v 0.13811300 0.03962400 0.04445800
v 0.13811300 0.03962400 0.04445800
v 0.13811300 0.03962400 0.04445800
v 0.13811300 0.03962400 0.04445800
v 0.13811300 0.03962400 0.04445800
v 0.13811300 0.03962400 0.05238200
v 0.13811300 0.03962400 0.05238200
v 0.13811300 0.03962400 0.05238200
v 0.13811300 0.03962400 0.05238200
v 0.13811300 0.03962400 0.05238200
v 0.13811300 0.03962400 0.05238200
v 0.13811300 0.03962400 0.05238200
v 0.13811300 0.04446300 0.05238200
v 0.13811300 0.04446300 0.05238200
v 0.13811300 0.04446300 0.05238200
v 0.13811300 0.04603700 0.05080800
v 0.13811300 0.04603700 0.05080800
v 0.13811300 0.04603700 0.05080800
v 0.13811300 0.04194600 0.04941400
v 0.13811300 0.04194600 0.04941400
v 0.13811300 0.04194600 0.04941400
v 0.13811300 0.04194600 0.04941400
v 0.13811300 0.04159000 0.04825200
v 0.13811300 0.04159000 0.04825200
v 0.13811300 0.04159000 0.04825200
v 0.13811300 0.04159000 0.04825200
v 0.13811300 0.04341400 0.04962100
v 0.13811300 0.04341400 0.04962100
v 0.13811300 0.04341400 0.04962100
v 0.13811300 0.04341400 0.04962100
v 0.13811300 0.04206300 0.04737900
v 0.13811300 0.04206300 0.04737900
v 0.13811300 0.04206300 0.04737900
v 0.13811300 0.04206300 0.04737900
v 0.13811300 0.04421400 0.04836600
v 0.13811300 0.04421400 0.04836600
v 0.13811300 0.04421400 0.04836600
v 0.13811300 0.04421400 0.04836600
v 0.13811300 0.04332100 0.04718100
v 0.13811300 0.04332100 0.04718100
v 0.13811300 0.04332100 0.04718100
v 0.13811300 0.04332100 0.04718100
v 0.13811300 0.04446300 0.04445800
v 0.13811300 0.04446300 0.04445800
v 0.13811300 0.04446300 0.04445800
v 0.13811300 0.04603700 0.04603200
v 0.13811300 0.04603700 0.04603200
v 0.13811300 0.04603700 0.04603200
vn -0.99950000 0.00010000 -0.03150000
vn -0.00000000 -0.00000000 -1.00000000
vn -1.00000000 -0.00000000 -0.00000000
vn -0.99970000 -0.00000000 -0.02630000
vn -0.00000000 1.00000000 -0.00000000
vn -0.99940000 -0.00000000 -0.03470000
vn -0.99950000 0.00010000 -0.03150000
vn -0.00000000 1.00000000 -0.00000000
vn -0.99940000 -0.00000000 -0.03470000
vn -0.00070000 -0.14700000 0.98910000
vn 0.03210000 0.00010000 0.99950000
vn -0.63250000 0.16010000 0.75780000
vn -0.62680000 -0.16820000 0.76080000
vn 0.03210000 0.00010000 0.99950000
vn -0.00150000 0.14860000 0.98890000
vn -0.00000000 -1.00000000 -0.00000000
vn -0.99970000 -0.00000000 -0.02630000
vn -0.99950000 0.00010000 -0.03150000
vn 0.03150000 0.00010000 0.99950000
vn -0.00000000 -0.00000000 -1.00000000
vn -1.00000000 -0.00000000 -0.00000000
vn -0.99970000 -0.00000000 -0.02630000
vn -0.00000000 -1.00000000 -0.00000000
vn -1.00000000 -0.00000000 -0.00000000
vn -0.00000000 -0.00000000 -1.00000000
vn -0.99970000 -0.00000000 -0.02630000
vn -0.00000000 1.00000000 -0.00000000
vn -1.00000000 -0.00000000 -0.00000000
vn -0.99970000 -0.00000000 -0.02630000
vn -0.00000000 -0.00000000 -1.00000000
vn -0.00000000 -1.00000000 -0.00000000
vn -1.00000000 -0.00000000 -0.00000000
vn -0.99740000 -0.00000000 0.07150000
vn -0.00000000 -0.00000000 1.00000000
vn -0.99790000 -0.00090000 0.06450000
vn -0.99980000 -0.00000000 0.01920000
vn -0.00000000 -1.00000000 -0.00000000
vn -0.99790000 -0.00090000 0.06450000
vn -0.00070000 0.13880000 -0.99030000
vn -0.64130000 -0.14370000 -0.75370000
vn -0.00000000 -1.00000000 -0.00000000
vn 0.02990000 -0.00000000 -0.99960000
vn -0.99740000 -0.00000000 0.07150000
vn -0.00150000 -0.14980000 -0.98870000
vn -0.99980000 -0.00000000 0.01920000
vn -0.99790000 -0.00090000 0.06450000
vn 0.02990000 -0.00000000 -0.99960000
vn -0.62510000 0.17140000 -0.76150000
vn -0.00000000 1.00000000 -0.00000000
vn 0.03180000 -0.00010000 -0.99950000
vn -0.99980000 -0.00000000 0.01920000
vn -1.00000000 -0.00000000 -0.00000000
vn -0.00000000 1.00000000 -0.00000000
vn -0.00000000 -0.00000000 1.00000000
vn -0.00000000 -1.00000000 -0.00000000
vn -1.00000000 -0.00000000 -0.00000000
vn -0.00000000 -0.00000000 1.00000000
vn -0.99980000 -0.00000000 0.01920000
vn -0.99980000 -0.00000000 0.01920000
vn -0.00000000 -0.00000000 1.00000000
vn -0.00000000 1.00000000 -0.00000000
vn -1.00000000 -0.00000000 -0.00000000
vn -0.00000000 -0.00000000 1.00000000
vn -1.00000000 -0.00000000 -0.00000000
vn -0.00000000 -1.00000000 -0.00000000
vn -0.99980000 -0.00000000 0.01920000
vn -0.00000000 1.00000000 -0.00000000
vn -0.00000000 -0.00000000 1.00000000
vn -1.00000000 -0.00000000 -0.00000000
vn -0.99980000 -0.00000000 0.01920000
vn -0.00000000 -0.00000000 -1.00000000
vn -0.99970000 -0.00000000 -0.02630000
vn -0.00000000 -1.00000000 -0.00000000
vn -0.99970000 -0.00000000 -0.02630000
vn -0.00000000 -0.00000000 -1.00000000
vn -1.00000000 -0.00000000 -0.00000000
vn -0.00000000 1.00000000 -0.00000000
vn -0.99980000 -0.00000000 0.01920000
vn -0.00000000 -0.00000000 1.00000000
vn -1.00000000 -0.00000000 -0.00000000
vn -0.00000000 -1.00000000 -0.00000000
vn -0.00000000 1.00000000 -0.00000000
vn -1.00000000 -0.00000000 -0.00000000
vn -0.00000000 -0.00000000 1.00000000
vn -0.99980000 -0.00000000 0.01920000
vn -0.99980000 -0.00000000 0.01920000
vn -0.00000000 -1.00000000 -0.00000000
vn -1.00000000 -0.00000000 -0.00000000
vn -0.00000000 -0.00000000 1.00000000
vn -0.99980000 -0.00000000 0.01920000
vn -0.00000000 -0.00000000 1.00000000
vn -0.00000000 1.00000000 -0.00000000
vn -1.00000000 -0.00000000 -0.00000000
vn -0.99980000 -0.00000000 0.01920000
vn -0.00000000 -1.00000000 -0.00000000
vn -0.00000000 -0.00000000 1.00000000
vn -1.00000000 -0.00000000 -0.00000000
vn -0.00000000 1.00000000 -0.00000000
vn -0.00000000 -0.00000000 1.00000000
vn -1.00000000 -0.00000000 -0.00000000
vn -0.99980000 -0.00000000 0.01920000
vn -0.99970000 -0.00000000 -0.02630000
vn -1.00000000 -0.00000000 -0.00000000
vn -0.00000000 -0.00000000 -1.00000000
vn -0.00000000 -1.00000000 -0.00000000
vn -1.00000000 -0.00000000 -0.00000000
vn -0.00000000 -0.00000000 -1.00000000
vn -0.99970000 -0.00000000 -0.02630000
vn -0.00000000 1.00000000 -0.00000000
vn -0.00000000 -0.00000000 -1.00000000
vn -1.00000000 -0.00000000 -0.00000000
vn -0.99970000 -0.00000000 -0.02630000
vn -0.00000000 -1.00000000 -0.00000000
vn -0.00000000 -0.00000000 1.00000000
vn -0.99740000 -0.00000000 0.07150000
vn -0.00000000 -1.00000000 -0.00000000
vn -0.99740000 -0.00000000 0.07150000
vn -0.00000000 1.00000000 -0.00000000
vn -0.00000000 -0.00000000 1.00000000
vn -1.00000000 -0.00000000 -0.00000000
vn -1.00000000 -0.00000000 -0.00000000
vn -0.99970000 -0.00000000 -0.02630000
vn -0.00000000 -0.00000000 -1.00000000
vn -0.00000000 1.00000000 -0.00000000
vn -0.99940000 -0.00000000 -0.03470000
vn -0.00000000 -0.00000000 -1.00000000
vn -0.00000000 -1.00000000 -0.00000000
vn -1.00000000 -0.00000000 -0.00000000
vn -0.99940000 -0.00000000 -0.03470000
vn -1.00000000 -0.00000000 -0.00000000
vn -0.00000000 1.00000000 -0.00000000
vn -0.00000000 -0.00000000 -1.00000000
vn -0.00000000 -1.00000000 -0.00000000
vn -0.00000000 -0.00000000 -1.00000000
vn -0.99940000 -0.00000000 -0.03470000
vn -1.00000000 -0.00000000 -0.00000000
vn -0.00000000 1.00000000 -0.00000000
vn -0.00000000 -0.00000000 -1.00000000
vn -1.00000000 -0.00000000 -0.00000000
vn -0.99940000 -0.00000000 -0.03470000
vn -0.00000000 -1.00000000 -0.00000000
vn -1.00000000 -0.00000000 -0.00000000
vn -0.00000000 -0.00000000 -1.00000000
vn -0.99940000 -0.00000000 -0.03470000
vn -0.00000000 1.00000000 -0.00000000
vn -0.99940000 -0.00000000 -0.03470000
vn -0.00000000 -0.00000000 -1.00000000
vn -0.00000000 -1.00000000 -0.00000000
vn -0.00000000 -0.00000000 1.00000000
vn -1.00000000 -0.00000000 -0.00000000
vn -0.99980000 -0.00000000 0.01920000
vn -0.99980000 -0.00000000 0.01920000
vn -0.00000000 1.00000000 -0.00000000
vn -0.00000000 -0.00000000 1.00000000
vn -0.00000000 1.00000000 -0.00000000
vn -0.00000000 -0.00000000 1.00000000
vn 0.99950000 -0.00000000 -0.03130000
vn 0.99740000 0.00040000 -0.07260000
vn 0.99700000 -0.00000000 -0.07790000
vn 1.00000000 -0.00000000 -0.00000000
vn -0.00000000 -1.00000000 -0.00000000
vn 0.99700000 -0.00000000 -0.07790000
vn -0.00000000 -0.00000000 1.00000000
vn 0.99700000 0.07790000 -0.00000000
vn -0.00000000 1.00000000 -0.00000000
vn 0.99940000 -0.00000000 0.03430000
vn -0.00000000 -0.00000000 -1.00000000
vn 1.00000000 -0.00000000 -0.00000000
vn -0.00000000 -0.00000000 -1.00000000
vn 0.99700000 0.07790000 -0.00000000
vn -0.00000000 -1.00000000 -0.00000000
vn 0.99930000 0.03600000 -0.00170000
vn 0.99940000 -0.00000000 0.03430000
vn 0.72200000 0.00040000 0.69190000
vn 0.72340000 0.69050000 0.00150000
vn 0.99930000 0.03600000 -0.00170000
vn 0.99940000 -0.00000000 0.03430000
vn 0.99740000 -0.00040000 0.07240000
vn -0.00000000 1.00000000 -0.00000000
vn 1.00000000 -0.00000000 -0.00000000
vn 0.99700000 -0.00000000 0.07790000
vn 0.99740000 -0.00040000 0.07240000
vn 0.99940000 -0.00000000 0.03430000
vn -0.00000000 -0.00000000 -1.00000000
vn 0.99940000 -0.00000000 0.03430000
vn -0.00000000 -1.00000000 -0.00000000
vn 1.00000000 -0.00000000 -0.00000000
vn -0.00000000 -0.00000000 -1.00000000
vn -0.00000000 1.00000000 -0.00000000
vn 1.00000000 -0.00000000 -0.00000000
vn -0.00000000 -0.00000000 -1.00000000
vn 0.99940000 -0.00000000 0.03430000
vn 1.00000000 -0.00000000 -0.00000000
vn -0.00000000 -1.00000000 -0.00000000
vn 0.99940000 -0.00000000 0.03430000
vn -0.00000000 -0.00000000 -1.00000000
vn 0.99940000 -0.00000000 0.03430000
vn -0.00000000 -0.00000000 -1.00000000
vn 1.00000000 -0.00000000 -0.00000000
vn -0.00000000 1.00000000 -0.00000000
vn -0.00000000 -1.00000000 -0.00000000
vn 0.99940000 -0.00000000 0.03430000
vn 1.00000000 -0.00000000 -0.00000000
vn -0.00000000 -0.00000000 -1.00000000
vn -0.00000000 1.00000000 -0.00000000
vn -0.00000000 -0.00000000 -1.00000000
vn 1.00000000 -0.00000000 -0.00000000
vn 0.99940000 -0.00000000 0.03430000
vn 0.99940000 -0.00000000 0.03430000
vn 1.00000000 -0.00000000 -0.00000000
vn -0.00000000 -0.00000000 -1.00000000
vn -0.00000000 -1.00000000 -0.00000000
vn 0.99940000 -0.00000000 0.03430000
vn 1.00000000 -0.00000000 -0.00000000
vn -0.00000000 1.00000000 -0.00000000
vn -0.00000000 -0.00000000 -1.00000000
vn 1.00000000 -0.00000000 -0.00000000
vn -0.00000000 -0.00000000 -1.00000000
vn -0.00000000 -1.00000000 -0.00000000
vn 0.99940000 -0.00000000 0.03430000
vn -0.00000000 1.00000000 -0.00000000
vn 1.00000000 -0.00000000 -0.00000000
vn -0.00000000 -0.00000000 -1.00000000
vn 0.99940000 -0.00000000 0.03430000
vn 0.99940000 -0.00000000 0.03430000
vn -0.00000000 -0.00000000 -1.00000000
vn -0.00000000 -1.00000000 -0.00000000
vn 1.00000000 -0.00000000 -0.00000000
vn 0.99740000 0.00040000 -0.07260000
vn 0.72400000 -0.68980000 -0.00150000
vn 0.99710000 -0.07630000 0.00160000
vn 0.99950000 -0.03130000 -0.00000000
vn 0.99950000 -0.00000000 -0.03130000
vn 0.72260000 -0.00040000 -0.69120000
vn 0.72340000 0.69050000 0.00150000
vn 0.99930000 0.03600000 -0.00170000
vn 0.72260000 -0.00040000 -0.69120000
vn 0.99700000 0.07790000 -0.00000000
vn 0.68490000 0.72860000 -0.00040000
vn 0.68680000 0.00010000 -0.72690000
vn 0.99740000 0.00040000 -0.07260000
vn 0.99700000 -0.00000000 -0.07790000
vn -0.00000000 -1.00000000 -0.00000000
vn 0.99950000 -0.00000000 -0.03130000
vn 1.00000000 -0.00000000 -0.00000000
vn -0.00000000 -0.00000000 1.00000000
vn -0.00000000 -0.00000000 1.00000000
vn -0.00000000 1.00000000 -0.00000000
vn 0.99950000 -0.00000000 -0.03130000
vn 1.00000000 -0.00000000 -0.00000000
vn 1.00000000 -0.00000000 -0.00000000
vn 0.99950000 -0.00000000 -0.03130000
vn -0.00000000 -0.00000000 1.00000000
vn -0.00000000 -1.00000000 -0.00000000
vn 1.00000000 -0.00000000 -0.00000000
vn -0.00000000 1.00000000 -0.00000000
vn -0.00000000 -0.00000000 1.00000000
vn 0.99950000 -0.00000000 -0.03130000
vn -0.00000000 -1.00000000 -0.00000000
vn 0.99950000 -0.00000000 -0.03130000
vn 1.00000000 -0.00000000 -0.00000000
vn -0.00000000 -0.00000000 1.00000000
vn -0.00000000 -0.00000000 1.00000000
vn 0.99950000 -0.00000000 -0.03130000
vn -0.00000000 1.00000000 -0.00000000
vn 1.00000000 -0.00000000 -0.00000000
vn -0.00000000 -1.00000000 -0.00000000
vn 1.00000000 -0.00000000 -0.00000000
vn 0.99950000 -0.00000000 -0.03130000
vn -0.00000000 -0.00000000 1.00000000
vn -0.00000000 1.00000000 -0.00000000
vn 1.00000000 -0.00000000 -0.00000000
vn -0.00000000 -0.00000000 1.00000000
vn 0.99950000 -0.00000000 -0.03130000
vn 0.99950000 -0.00000000 -0.03130000
vn -0.00000000 -0.00000000 1.00000000
vn 1.00000000 -0.00000000 -0.00000000
vn -0.00000000 -1.00000000 -0.00000000
vn -0.00000000 1.00000000 -0.00000000
vn 0.99950000 -0.00000000 -0.03130000
vn -0.00000000 -0.00000000 1.00000000
vn 1.00000000 -0.00000000 -0.00000000
vn -0.00000000 -1.00000000 -0.00000000
vn -0.00000000 -0.00000000 1.00000000
vn 0.99950000 -0.00000000 -0.03130000
vn 1.00000000 -0.00000000 -0.00000000
vn -0.00000000 -0.00000000 1.00000000
vn 0.99950000 -0.00000000 -0.03130000
vn 1.00000000 -0.00000000 -0.00000000
vn -0.00000000 1.00000000 -0.00000000
vn 1.00000000 -0.00000000 -0.00000000
vn -0.00000000 -1.00000000 -0.00000000
vn 0.99950000 -0.00000000 -0.03130000
vn -0.00000000 -0.00000000 1.00000000
vn 0.68490000 -0.72860000 0.00040000
vn 0.99740000 -0.00040000 0.07240000
vn 0.99710000 -0.07630000 0.00160000
vn 0.72200000 0.00040000 0.69190000
vn 0.72400000 -0.68980000 -0.00150000
vn 0.68680000 -0.00010000 0.72680000
vn 0.99700000 -0.00000000 0.07790000
vn -0.00000000 -0.00000000 -1.00000000
vn 1.00000000 -0.00000000 -0.00000000
vn -0.00000000 -1.00000000 -0.00000000
vn 0.99700000 -0.00000000 0.07790000
vn -0.00000000 1.00000000 -0.00000000
vn 0.99710000 -0.07630000 0.00160000
vn 0.99950000 -0.03130000 -0.00000000
vn -0.00000000 -0.00000000 -1.00000000
vn 0.99700000 -0.00000000 0.07790000
vn 0.99950000 -0.00000000 -0.03130000
vn -0.00000000 1.00000000 -0.00000000
vn 0.99950000 -0.03130000 -0.00000000
vn -0.00000000 -0.00000000 1.00000000
vn 0.72340000 0.69050000 0.00150000
vn 0.68680000 -0.00010000 0.72680000
vn 0.72200000 0.00040000 0.69190000
vn 0.03150000 0.00010000 0.99950000
vn 0.01800000 0.99980000 0.00020000
vn 0.68490000 0.72860000 -0.00040000
vn -0.00060000 0.99990000 0.01700000
vn -0.00150000 0.14860000 0.98890000
vn 0.03210000 0.00010000 0.99950000
vn -0.00300000 -0.99980000 0.01820000
vn -0.00070000 -0.14700000 0.98910000
vn 0.03150000 0.00010000 0.99950000
vn 0.68490000 -0.72860000 0.00040000
vn 0.68680000 -0.00010000 0.72680000
vn 0.01800000 -0.99980000 -0.00020000
vn 0.01730000 -0.99980000 -0.00000000
vn -0.70710000 -0.00000000 0.70710000
vn -0.00150000 0.14860000 0.98890000
vn -0.62680000 -0.16820000 0.76080000
vn -0.00060000 0.99990000 0.01700000
vn 0.04660000 0.99870000 0.02150000
vn -0.70710000 -0.00000000 0.70710000
vn -0.63250000 0.16010000 0.75780000
vn -0.00300000 -0.99980000 0.01820000
vn 0.05020000 -0.99850000 0.02320000
vn -0.00070000 -0.14700000 0.98910000
vn -0.63250000 0.16010000 0.75780000
vn -1.00000000 -0.00000000 -0.00000000
vn -0.00000000 1.00000000 -0.00000000
vn -0.70710000 -0.00000000 0.70710000
vn -1.00000000 -0.00000000 -0.00000000
vn -0.70710000 -0.00000000 0.70710000
vn -0.00000000 -1.00000000 -0.00000000
vn 0.05020000 -0.99850000 0.02320000
vn -0.62510000 0.17140000 -0.76150000
vn -0.00000000 1.00000000 -0.00000000
vn -1.00000000 -0.00000000 -0.00000000
vn -0.70710000 -0.00000000 -0.70710000
vn 0.04660000 -0.99870000 -0.02150000
vn -0.00000000 -1.00000000 -0.00000000
vn -1.00000000 -0.00000000 -0.00000000
vn -0.70710000 -0.00000000 -0.70710000
vn -0.62510000 0.17140000 -0.76150000
vn -0.00060000 -0.99990000 -0.01700000
vn -0.00150000 -0.14980000 -0.98870000
vn -0.70710000 -0.00000000 -0.70710000
vn 0.04660000 -0.99870000 -0.02150000
vn 0.01730000 -0.99980000 -0.00000000
vn -0.00000000 -0.00000000 1.00000000
vn -0.00000000 -1.00000000 -0.00000000
vn 0.05020000 -0.99850000 0.02320000
vn -0.00300000 -0.99980000 0.01820000
vn 1.00000000 -0.00000000 -0.00000000
vn -0.00000000 -1.00000000 -0.00000000
vn -0.00000000 -0.00000000 1.00000000
vn -1.00000000 -0.00000000 -0.00000000
vn 0.04660000 -0.99870000 -0.02150000
vn 0.01800000 -0.99980000 -0.00020000
vn -0.00060000 -0.99990000 -0.01700000
vn 0.01730000 -0.99980000 -0.00000000
vn -0.00000000 -1.00000000 -0.00000000
vn -0.00000000 -0.00000000 -1.00000000
vn 1.00000000 -0.00000000 -0.00000000
vn -0.00000000 -1.00000000 -0.00000000
vn -0.00000000 -0.00000000 -1.00000000
vn -1.00000000 -0.00000000 -0.00000000
vn -0.07750000 0.62540000 -0.77640000
vn -1.00000000 -0.00000000 -0.00000000
vn 0.07000000 -0.10550000 -0.99200000
vn 0.07330000 0.80440000 -0.58950000
vn -1.00000000 -0.00000000 -0.00000000
vn -0.00000000 -1.00000000 -0.00000000
vn -0.00000000 -0.70710000 0.70710000
vn -1.00000000 -0.00000000 -0.00000000
vn -0.00000000 -0.70710000 0.70710000
vn -0.00000000 -0.00000000 1.00000000
vn -1.00000000 -0.00000000 -0.00000000
vn 0.07330000 0.80440000 -0.58950000
vn 0.06830000 0.83430000 0.54700000
vn -0.06660000 0.93520000 0.34780000
vn 0.06050000 -0.89250000 -0.44700000
vn 0.07000000 -0.10550000 -0.99200000
vn -0.07000000 -0.40460000 -0.91180000
vn -1.00000000 -0.00000000 -0.00000000
vn -0.00000000 -0.70710000 -0.70710000
vn -0.00000000 -1.00000000 -0.00000000
vn -1.00000000 -0.00000000 -0.00000000
vn -0.07860000 0.09380000 0.99250000
vn -1.00000000 -0.00000000 -0.00000000
vn 0.06830000 0.83430000 0.54700000
vn 0.05980000 -0.14210000 0.98800000
vn -1.00000000 -0.00000000 -0.00000000
vn -0.03130000 -0.97040000 -0.23930000
vn -0.02180000 -0.89960000 0.43620000
vn 0.06050000 -0.89250000 -0.44700000
vn 0.01960000 -0.87040000 0.49190000
vn -0.00000000 -0.00000000 -1.00000000
vn -1.00000000 -0.00000000 -0.00000000
vn -0.00000000 -0.70710000 -0.70710000
vn -0.02180000 -0.89960000 0.43620000
vn -1.00000000 -0.00000000 -0.00000000
vn 0.05980000 -0.14210000 0.98800000
vn -0.00000000 -0.70710000 0.70710000
vn -0.00000000 -0.00000000 1.00000000
vn 1.00000000 -0.00000000 -0.00000000
vn 1.00000000 -0.00000000 -0.00000000
vn -0.00000000 -0.70710000 0.70710000
vn -0.00000000 -1.00000000 -0.00000000
vn 0.07330000 0.80440000 -0.58950000
vn -0.06660000 0.93520000 0.34780000
vn -0.07750000 0.62540000 -0.77640000
vn 1.00000000 -0.00000000 -0.00000000
vn -0.07750000 0.62540000 -0.77640000
vn 1.00000000 -0.00000000 -0.00000000
vn -0.07000000 -0.40460000 -0.91180000
vn 0.07000000 -0.10550000 -0.99200000
vn 1.00000000 -0.00000000 -0.00000000
vn -0.00000000 -1.00000000 -0.00000000
vn -0.00000000 -0.70710000 -0.70710000
vn -0.07860000 0.09380000 0.99250000
vn 0.06830000 0.83430000 0.54700000
vn 1.00000000 -0.00000000 -0.00000000
vn -0.06660000 0.93520000 0.34780000
vn 1.00000000 -0.00000000 -0.00000000
vn 0.06050000 -0.89250000 -0.44700000
vn -0.07000000 -0.40460000 -0.91180000
vn -0.03130000 -0.97040000 -0.23930000
vn 0.01960000 -0.87040000 0.49190000
vn -0.03130000 -0.97040000 -0.23930000
vn 1.00000000 -0.00000000 -0.00000000
vn 1.00000000 -0.00000000 -0.00000000
vn -0.00000000 -0.00000000 -1.00000000
vn -0.00000000 -0.70710000 -0.70710000
vn 0.05980000 -0.14210000 0.98800000
vn -0.07860000 0.09380000 0.99250000
vn 1.00000000 -0.00000000 -0.00000000
vn -0.02180000 -0.89960000 0.43620000
vn 0.01960000 -0.87040000 0.49190000
vn 0.01800000 -0.99980000 -0.00020000
vn -0.00060000 -0.99990000 -0.01700000
vn 0.72260000 -0.00040000 -0.69120000
vn -0.00150000 -0.14980000 -0.98870000
vn 0.68680000 0.00010000 -0.72690000
vn 0.68490000 -0.72860000 0.00040000
vn 0.72400000 -0.68980000 -0.00150000
vn 0.03180000 -0.00010000 -0.99950000
vn 0.68680000 0.00010000 -0.72690000
vn 0.02990000 -0.00000000 -0.99960000
vn 0.01800000 0.99980000 0.00020000
vn 0.68490000 0.72860000 -0.00040000
vn 0.01730000 0.99980000 -0.00000000
vn -0.00070000 0.13880000 -0.99030000
vn 0.03180000 -0.00010000 -0.99950000
vn -0.00300000 0.99980000 -0.01820000
vn -0.70710000 -0.00000000 -0.70710000
vn -0.00070000 0.13880000 -0.99030000
vn -0.00300000 0.99980000 -0.01820000
vn 0.05020000 0.99850000 -0.02320000
vn -0.64130000 -0.14370000 -0.75370000
vn -0.64130000 -0.14370000 -0.75370000
vn -0.00000000 -1.00000000 -0.00000000
vn -1.00000000 -0.00000000 -0.00000000
vn -0.70710000 -0.00000000 -0.70710000
vn 0.05020000 0.99850000 -0.02320000
vn -1.00000000 -0.00000000 -0.00000000
vn -0.70710000 -0.00000000 -0.70710000
vn -0.00000000 1.00000000 -0.00000000
vn -0.62680000 -0.16820000 0.76080000
vn -1.00000000 -0.00000000 -0.00000000
vn -0.00000000 -1.00000000 -0.00000000
vn -0.70710000 -0.00000000 0.70710000
vn -0.00000000 1.00000000 -0.00000000
vn -0.00000000 -0.00000000 1.00000000
vn -1.00000000 -0.00000000 -0.00000000
vn -1.00000000 -0.00000000 -0.00000000
vn -0.70710000 -0.00000000 0.70710000
vn 0.04660000 0.99870000 0.02150000
vn -0.00000000 1.00000000 -0.00000000
vn 0.08040000 -0.16630000 -0.98280000
vn 0.09070000 0.77470000 -0.62580000
vn -0.07790000 0.13900000 -0.98720000
vn -1.00000000 -0.00000000 -0.00000000
vn 0.03810000 0.96150000 0.27220000
vn -0.07000000 0.95380000 -0.29220000
vn 0.09070000 0.77470000 -0.62580000
vn -1.00000000 -0.00000000 -0.00000000
vn -0.00000000 -0.00000000 1.00000000
vn -0.00000000 0.70710000 0.70710000
vn -1.00000000 -0.00000000 -0.00000000
vn 0.08040000 -0.16630000 -0.98280000
vn 0.10340000 -0.98070000 -0.16590000
vn -0.10830000 -0.83850000 -0.53410000
vn -1.00000000 -0.00000000 -0.00000000
vn -1.00000000 -0.00000000 -0.00000000
vn -0.00000000 1.00000000 -0.00000000
vn -0.00000000 -0.00000000 -1.00000000
vn 0.03810000 0.96150000 0.27220000
vn 0.06220000 0.46810000 0.88150000
vn -0.03390000 0.87860000 0.47630000
vn -1.00000000 -0.00000000 -0.00000000
vn -0.00000000 0.70710000 0.70710000
vn -1.00000000 -0.00000000 -0.00000000
vn -0.00000000 1.00000000 -0.00000000
vn 0.07300000 -0.58950000 0.80440000
vn 0.10340000 -0.98070000 -0.16590000
vn -1.00000000 -0.00000000 -0.00000000
vn -0.07800000 -0.79640000 0.59980000
vn -0.00000000 0.70710000 -0.70710000
vn -0.00000000 1.00000000 -0.00000000
vn -1.00000000 -0.00000000 -0.00000000
vn -0.08510000 0.15470000 0.98430000
vn -1.00000000 -0.00000000 -0.00000000
vn 0.07300000 -0.58950000 0.80440000
vn 0.06220000 0.46810000 0.88150000
vn -0.00000000 -0.00000000 -1.00000000
vn -0.00000000 0.70710000 -0.70710000
vn -1.00000000 -0.00000000 -0.00000000
vn 1.00000000 -0.00000000 -0.00000000
vn 0.01730000 0.99980000 -0.00000000
vn -0.00000000 -0.00000000 -1.00000000
vn -0.00000000 1.00000000 -0.00000000
vn -0.00300000 0.99980000 -0.01820000
vn 0.05020000 0.99850000 -0.02320000
vn 0.01800000 0.99980000 0.00020000
vn 0.01730000 0.99980000 -0.00000000
vn -0.00000000 1.00000000 -0.00000000
vn -0.00000000 -0.00000000 1.00000000
vn 1.00000000 -0.00000000 -0.00000000
vn 0.04660000 0.99870000 0.02150000
vn -0.00060000 0.99990000 0.01700000
vn 1.00000000 -0.00000000 -0.00000000
vn -0.00000000 0.70710000 0.70710000
vn -0.00000000 -0.00000000 1.00000000
vn 1.00000000 -0.00000000 -0.00000000
vn -0.00000000 0.70710000 0.70710000
vn -0.00000000 1.00000000 -0.00000000
vn 1.00000000 -0.00000000 -0.00000000
vn 0.09070000 0.77470000 -0.62580000
vn -0.07790000 0.13900000 -0.98720000
vn -0.07000000 0.95380000 -0.29220000
vn 0.03810000 0.96150000 0.27220000
vn -0.07000000 0.95380000 -0.29220000
vn -0.03390000 0.87860000 0.47630000
vn 1.00000000 -0.00000000 -0.00000000
vn 0.08040000 -0.16630000 -0.98280000
vn -0.07790000 0.13900000 -0.98720000
vn 1.00000000 -0.00000000 -0.00000000
vn -0.10830000 -0.83850000 -0.53410000
vn 1.00000000 -0.00000000 -0.00000000
vn -0.08510000 0.15470000 0.98430000
vn 0.06220000 0.46810000 0.88150000
vn -0.03390000 0.87860000 0.47630000
vn -0.10830000 -0.83850000 -0.53410000
vn 1.00000000 -0.00000000 -0.00000000
vn 0.10340000 -0.98070000 -0.16590000
vn -0.07800000 -0.79640000 0.59980000
vn -0.08510000 0.15470000 0.98430000
vn 1.00000000 -0.00000000 -0.00000000
vn -0.07800000 -0.79640000 0.59980000
vn 0.07300000 -0.58950000 0.80440000
vn -0.00000000 -0.00000000 -1.00000000
vn 1.00000000 -0.00000000 -0.00000000
vn -0.00000000 0.70710000 -0.70710000
vn -0.00000000 0.70710000 -0.70710000
vn -0.00000000 1.00000000 -0.00000000
vn 1.00000000 -0.00000000 -0.00000000
vt 0.34912800 0.83002700
vt 0.02581600 0.96962700
vt 0.34912800 0.83002700
vt 0.34912800 0.83002700
vt 0.51561900 0.92519900
vt 0.34912800 0.83002700
vt 0.35057700 0.80771800
vt 0.95956200 0.24149900
vt 0.35057700 0.80771800
vt 0.91108100 0.44868700
vt 0.91108100 0.44868700
vt 0.91108100 0.44868700
vt 0.91106900 0.36613300
vt 0.91106900 0.36613300
vt 0.91106900 0.36613300
vt 0.35057700 0.86616900
vt 0.35057700 0.86616900
vt 0.35057700 0.86616900
vt 0.91106900 0.36613300
vt 0.02581600 0.97878500
vt 0.34912900 0.83651100
vt 0.34912900 0.83651100
vt 0.34912900 0.83651100
vt 0.34912900 0.83728600
vt 0.50475700 0.96920900
vt 0.34912900 0.83728600
vt 0.96432700 0.24152800
vt 0.34913100 0.84377100
vt 0.34913100 0.84377100
vt 0.50475700 0.97836700
vt 0.34913100 0.84377100
vt 0.33047900 0.85810900
vt 0.33047900 0.85810900
vt 0.97851700 0.62774000
vt 0.33047900 0.85810900
vt 0.33047900 0.85810900
vt 0.33047900 0.85810900
vt 0.32903500 0.86600800
vt 0.23735000 0.67915400
vt 0.23735000 0.67915400
vt 0.32903500 0.86600800
vt 0.23735000 0.67915400
vt 0.32903500 0.86600800
vt 0.23727300 0.59660100
vt 0.32902300 0.80749400
vt 0.32902300 0.80749400
vt 0.23727300 0.59660100
vt 0.23727300 0.59660100
vt 0.95957900 0.26305400
vt 0.23727300 0.59660100
vt 0.33047700 0.85162400
vt 0.33047700 0.85162400
vt 0.79047700 0.94074600
vt 0.97851700 0.63689800
vt 0.33047700 0.85085000
vt 0.33047700 0.85085000
vt 0.65962600 0.96814500
vt 0.33047700 0.85085000
vt 0.33047600 0.84436500
vt 0.65962600 0.97730300
vt 0.42604400 0.96464500
vt 0.33047600 0.84436500
vt 0.97048300 0.06993600
vt 0.33047600 0.84359000
vt 0.33047600 0.84359000
vt 0.33047600 0.84359000
vt 0.96432800 0.26018400
vt 0.97048300 0.06077900
vt 0.33047400 0.83710600
vt 0.33047400 0.83710600
vt 0.73183100 0.96554400
vt 0.34913500 0.86612900
vt 0.34913500 0.86612900
vt 0.34913400 0.85906300
vt 0.73183100 0.97552200
vt 0.34913400 0.85906300
vt 0.96488800 0.22162600
vt 0.33047400 0.83633100
vt 0.97938400 0.02043700
vt 0.33047400 0.83633100
vt 0.33047400 0.83633100
vt 0.51561900 0.94385500
vt 0.33047300 0.82984700
vt 0.97938400 0.02959400
vt 0.33047300 0.82984700
vt 0.33047200 0.82907200
vt 0.33047200 0.82907200
vt 0.33047200 0.82907200
vt 0.36700200 0.97919700
vt 0.33047100 0.82258700
vt 0.36700200 0.97003900
vt 0.96941700 0.74733600
vt 0.33047100 0.82258700
vt 0.33047100 0.82181300
vt 0.33047100 0.82181300
vt 0.67366100 0.97834700
vt 0.33047100 0.82181300
vt 0.96502700 0.49832000
vt 0.67366100 0.96919000
vt 0.33046900 0.81532800
vt 0.33046900 0.81532800
vt 0.34913400 0.85828900
vt 0.34913400 0.85828900
vt 0.58047300 0.97825300
vt 0.34913400 0.85828900
vt 0.34913200 0.85180400
vt 0.58047300 0.96909600
vt 0.34913200 0.85180400
vt 0.79047700 0.92209000
vt 0.31013800 0.97816000
vt 0.34913200 0.85103000
vt 0.34913200 0.85103000
vt 0.34913200 0.85103000
vt 0.73128500 0.96561900
vt 0.33048000 0.86594800
vt 0.33048000 0.86594800
vt 0.33047900 0.85888300
vt 0.96488800 0.24028200
vt 0.73128500 0.97559700
vt 0.33047900 0.85888300
vt 0.34913100 0.84454500
vt 0.34913100 0.84454500
vt 0.31013800 0.96900200
vt 0.42604400 0.94598900
vt 0.34912700 0.82925200
vt 0.08713200 0.97927500
vt 0.34912700 0.82925200
vt 0.34912700 0.82925200
vt 0.34912600 0.82276700
vt 0.34912600 0.82276700
vt 0.96941700 0.76599200
vt 0.08713200 0.97011700
vt 0.34912600 0.82199300
vt 0.06928700 0.96900400
vt 0.34912600 0.82199300
vt 0.34912600 0.82199300
vt 0.96502600 0.47966400
vt 0.06928700 0.97816100
vt 0.34912400 0.81550800
vt 0.34912400 0.81550800
vt 0.34912400 0.81473400
vt 0.34912400 0.81473400
vt 0.31922600 0.97578500
vt 0.34912400 0.81473400
vt 0.95960000 0.24295300
vt 0.34912300 0.80766900
vt 0.31922600 0.96580800
vt 0.33046900 0.81455400
vt 0.84842600 0.96547000
vt 0.33046900 0.81455400
vt 0.33046900 0.81455400
vt 0.33046800 0.80748800
vt 0.95960000 0.26160900
vt 0.84842600 0.97544800
vt 0.96955100 0.24025200
vt 0.72499700 0.97559700
vt 0.62123000 0.88302600
vt 0.62123000 0.88302600
vt 0.62123000 0.88302600
vt 0.62123000 0.88302600
vt 0.33056700 0.86151000
vt 0.62126900 0.89016900
vt 0.72499700 0.96561900
vt 0.62126900 0.89016900
vt 0.96955100 0.22159600
vt 0.60257300 0.88304100
vt 0.73811800 0.97552200
vt 0.60257300 0.88304100
vt 0.73811800 0.96554400
vt 0.60261300 0.89018400
vt 0.34922200 0.86169000
vt 0.60261300 0.89018400
vt 0.60261300 0.89018400
vt 0.90476500 0.36545000
vt 0.60193200 0.89069000
vt 0.60193200 0.89069000
vt 0.60193200 0.89069000
vt 0.60193200 0.89069000
vt 0.96969000 0.47963400
vt 0.60233000 0.83900800
vt 0.60233000 0.83900800
vt 0.60233000 0.83900800
vt 0.60233000 0.83900800
vt 0.07557500 0.97816100
vt 0.60236600 0.84556400
vt 0.34921300 0.81755400
vt 0.60236600 0.84556400
vt 0.07557500 0.96900400
vt 0.96475400 0.76602200
vt 0.60237000 0.84634700
vt 0.08084500 0.97011700
vt 0.60237000 0.84634700
vt 0.60240700 0.85290300
vt 0.34921400 0.82481400
vt 0.60240700 0.85290300
vt 0.08084500 0.97927500
vt 0.60241100 0.85368600
vt 0.01952900 0.96962700
vt 0.60241100 0.85368600
vt 0.52028200 0.92517000
vt 0.34921600 0.83207300
vt 0.60244700 0.86024200
vt 0.60244700 0.86024200
vt 0.01952900 0.97878500
vt 0.96899100 0.24149900
vt 0.49847000 0.96920900
vt 0.60245200 0.86102400
vt 0.60245200 0.86102400
vt 0.60248800 0.86758100
vt 0.60248800 0.86758100
vt 0.49847000 0.97836700
vt 0.34921700 0.83933200
vt 0.60249200 0.86836300
vt 0.60249200 0.86836300
vt 0.43070700 0.94595900
vt 0.30385100 0.96900200
vt 0.60252800 0.87491900
vt 0.30385100 0.97816000
vt 0.34921900 0.84659100
vt 0.60252800 0.87491900
vt 0.79513900 0.92206100
vt 0.60253300 0.87570200
vt 0.57418500 0.96909600
vt 0.60253300 0.87570200
vt 0.60256900 0.88225800
vt 0.57418500 0.97825300
vt 0.34922100 0.85385000
vt 0.60256900 0.88225800
vt 0.62162000 0.83059500
vt 0.96034600 0.96316100
vt 0.96034600 0.96316100
vt 0.96034600 0.96316100
vt 0.62162000 0.83059500
vt 0.23098000 0.59592200
vt 0.62203600 0.89075700
vt 0.62203600 0.89075700
vt 0.23101800 0.67991900
vt 0.62203600 0.89075700
vt 0.62203600 0.89075700
vt 0.23101800 0.67991900
vt 0.62203600 0.89075700
vt 0.62203600 0.89075700
vt 0.33056600 0.85367000
vt 0.62122500 0.88224300
vt 0.62122500 0.88224300
vt 0.97222900 0.62774000
vt 0.97222900 0.63689800
vt 0.79513900 0.94071700
vt 0.62118900 0.87568700
vt 0.62118900 0.87568700
vt 0.62118500 0.87490500
vt 0.62118500 0.87490500
vt 0.65333900 0.96814500
vt 0.33056400 0.84641100
vt 0.62114900 0.86834900
vt 0.43070700 0.96461500
vt 0.65333900 0.97730300
vt 0.62114900 0.86834900
vt 0.33056300 0.83915200
vt 0.62114400 0.86756600
vt 0.62114400 0.86756600
vt 0.97677100 0.06993600
vt 0.97677100 0.06077900
vt 0.62110800 0.86101000
vt 0.96899100 0.26015500
vt 0.62110800 0.86101000
vt 0.33056100 0.83189300
vt 0.62110400 0.86022700
vt 0.62110400 0.86022700
vt 0.97309700 0.02043700
vt 0.52028200 0.94382600
vt 0.62106700 0.85367100
vt 0.97309700 0.02959400
vt 0.62106700 0.85367100
vt 0.62106300 0.85288800
vt 0.37329000 0.97919700
vt 0.62106300 0.85288800
vt 0.33055900 0.82463300
vt 0.96475400 0.74736600
vt 0.62102700 0.84633200
vt 0.37329000 0.97003900
vt 0.62102700 0.84633200
vt 0.33055800 0.81737400
vt 0.67994800 0.97834700
vt 0.62102300 0.84555000
vt 0.62102300 0.84555000
vt 0.67994800 0.96919000
vt 0.62098600 0.83899400
vt 0.62098600 0.83899400
vt 0.96969000 0.49829100
vt 0.62098200 0.83821100
vt 0.33055600 0.81011500
vt 0.62098200 0.83821100
vt 0.84213900 0.96547000
vt 0.96043300 0.94306200
vt 0.60151900 0.83057800
vt 0.96043300 0.94306200
vt 0.90480200 0.44945000
vt 0.96043300 0.94306200
vt 0.90480200 0.44945000
vt 0.60151900 0.83057800
vt 0.31293900 0.97578500
vt 0.60232500 0.83822500
vt 0.34921100 0.81029500
vt 0.60232500 0.83822500
vt 0.96426300 0.24292400
vt 0.95984800 0.94382100
vt 0.95984800 0.94382100
vt 0.31293900 0.96580800
vt 0.60228600 0.83108200
vt 0.62094200 0.83106800
vt 0.96426300 0.26158000
vt 0.95984800 0.96247700
vt 0.84213900 0.97544800
vt 0.60135500 0.89149200
vt 0.90532100 0.36487100
vt 0.90532100 0.36487100
vt 0.90532100 0.36487100
vt 0.47480700 0.93291800
vt 0.60135500 0.89149200
vt 0.47480700 0.93291800
vt 0.90532100 0.36487100
vt 0.90533900 0.44995500
vt 0.67910700 0.98243300
vt 0.90533900 0.44995500
vt 0.90533900 0.44995500
vt 0.96116800 0.94255500
vt 0.90533900 0.44995500
vt 0.96116800 0.94255500
vt 0.96116800 0.94255500
vt 0.91163700 0.36487400
vt 0.91163700 0.36487400
vt 0.91163700 0.36487400
vt 0.47949300 0.93288100
vt 0.17127000 0.99238200
vt 0.91162000 0.44993600
vt 0.91162000 0.44993600
vt 0.68354500 0.98212800
vt 0.29640700 0.99828700
vt 0.91162000 0.44993600
vt 0.91321400 0.44868500
vt 0.06893300 0.69993500
vt 0.95797800 0.24329200
vt 0.91321400 0.44868500
vt 0.06796600 0.69994500
vt 0.91321400 0.45005200
vt 0.06796600 0.69994500
vt 0.29511800 0.99676500
vt 0.23943200 0.59660300
vt 0.95797800 0.26129200
vt 0.06893300 0.71793500
vt 0.23943200 0.59660300
vt 0.95717400 0.99297200
vt 0.06796600 0.71794500
vt 0.06796600 0.71794500
vt 0.23943200 0.59523600
vt 0.23785200 0.59534200
vt 0.39669600 0.98861900
vt 0.23785200 0.59534200
vt 0.23785200 0.59534200
vt 0.95844900 0.99145000
vt 0.96524300 0.94885300
vt 0.99612900 0.34921200
vt 0.06642100 0.70466500
vt 0.29640700 0.99194100
vt 0.68354500 0.98847700
vt 0.98414500 0.64590400
vt 0.06796600 0.70468100
vt 0.99394200 0.34921300
vt 0.06796600 0.70468100
vt 0.95844900 0.99777100
vt 0.96524300 0.95738200
vt 0.39669600 0.98228000
vt 0.96524300 0.95738200
vt 0.06642100 0.71319400
vt 0.99645900 0.06037100
vt 0.98414500 0.63737500
vt 0.06796600 0.71320900
vt 0.99427200 0.06037100
vt 0.06796600 0.71320900
vt 0.88822600 0.99545900
vt 0.06511500 0.70766800
vt 0.88822600 0.99545900
vt 0.99910300 0.51037600
vt 0.06307800 0.70642400
vt 0.06307800 0.70642400
vt 0.99394200 0.34231300
vt 0.06427800 0.70471700
vt 0.99394000 0.34400600
vt 0.99394000 0.34400600
vt 0.06446800 0.70892100
vt 0.99822000 0.51146900
vt 0.88155200 0.17349400
vt 0.98392500 0.39996200
vt 0.01076300 0.99345400
vt 0.88822600 0.99682100
vt 0.88822600 0.99682100
vt 0.06608000 0.70780300
vt 0.99427200 0.06727100
vt 0.06307800 0.71156200
vt 0.06307800 0.71156200
vt 0.93564100 0.03582100
vt 0.06510900 0.71029600
vt 0.88155200 0.17196500
vt 0.93564100 0.03582100
vt 0.06649100 0.70895900
vt 0.99858200 0.44556300
vt 0.06649100 0.70895900
vt 0.00969700 0.99284400
vt 0.92865300 0.43784200
vt 0.99427200 0.06557800
vt 0.06427800 0.71324500
vt 0.99427200 0.06557800
vt 0.06610700 0.71008400
vt 0.06610700 0.71008400
vt 0.93704700 0.03590300
vt 0.99612700 0.34400500
vt 0.99612700 0.34400500
vt 0.98041600 0.64592200
vt 0.97920300 0.64423300
vt 0.99612900 0.34231200
vt 0.06153400 0.70640800
vt 0.99910300 0.51272300
vt 0.98281300 0.39870400
vt 0.88604000 0.99458000
vt 0.98063400 0.64203600
vt 0.88603900 0.99586700
vt 0.98155500 0.64306800
vt 0.88603900 0.99586700
vt 0.88603900 0.99586700
vt 0.97920300 0.63909400
vt 0.06153400 0.71154700
vt 0.99645900 0.06727100
vt 0.93545500 0.03362100
vt 0.88005000 0.17288500
vt 0.98103400 0.64053400
vt 0.98392500 0.39762600
vt 0.98245200 0.64250800
vt 0.01076300 0.99167500
vt 0.88604000 0.99712000
vt 0.99858200 0.44361200
vt 0.92865300 0.43631800
vt 0.99776200 0.44422000
vt 0.98263000 0.64149900
vt 0.98041600 0.63739300
vt 0.99645900 0.06557800
vt 0.99645900 0.06557800
vt 0.93704700 0.03371200
vt 0.93704700 0.03371200
vt 0.98217500 0.64037800
vt 0.06447300 0.71022000
vt 0.92748400 0.43664700
vt 0.96115100 0.96374300
vt 0.39225100 0.98822900
vt 0.23153700 0.59533800
vt 0.23153700 0.59533800
vt 0.23153700 0.59533800
vt 0.96115100 0.96374300
vt 0.96115100 0.96374300
vt 0.23153700 0.59533800
vt 0.23155500 0.68042300
vt 0.23155500 0.68042300
vt 0.47482200 0.91173000
vt 0.62254300 0.89149200
vt 0.47482200 0.91173000
vt 0.23155500 0.68042300
vt 0.23155500 0.68042300
vt 0.47482200 0.91173000
vt 0.23783600 0.68040400
vt 0.23783600 0.68040400
vt 0.47949300 0.91170300
vt 0.55977000 0.99812900
vt 0.23783600 0.68040400
vt 0.23943200 0.67915600
vt 0.33077800 0.86749600
vt 0.33077800 0.86749600
vt 0.23943200 0.67915600
vt 0.55849000 0.99659100
vt 0.33077800 0.86846300
vt 0.23943200 0.68052300
vt 0.96602200 0.68977900
vt 0.91321400 0.36613200
vt 0.34877700 0.86766900
vt 0.34877700 0.86766900
vt 0.91321400 0.36613200
vt 0.97495400 0.49358500
vt 0.13514200 0.92286200
vt 0.34404200 0.86859100
vt 0.34877700 0.86863700
vt 0.91321400 0.36476500
vt 0.17000500 0.99389100
vt 0.97495400 0.49832000
vt 0.86204200 0.75239900
vt 0.86204200 0.75239900
vt 0.86204200 0.75239900
vt 0.34108300 0.87064800
vt 0.95266200 0.61374100
vt 0.99554900 0.75550200
vt 0.86204200 0.75153700
vt 0.34001700 0.87002800
vt 0.13514000 0.92806900
vt 0.13514000 0.92806900
vt 0.34404300 0.87227900
vt 0.86204200 0.75397800
vt 0.97931000 0.50994000
vt 0.87951900 0.17196500
vt 0.34081600 0.87176400
vt 0.33551400 0.86850900
vt 0.96449100 0.68529800
vt 0.99407000 0.24113700
vt 0.95156300 0.61382600
vt 0.70483900 0.08611500
vt 0.98834500 0.79864400
vt 0.33893700 0.87023400
vt 0.13514200 0.92976600
vt 0.34234800 0.87346300
vt 0.07081700 0.99211700
vt 0.70483900 0.08371400
vt 0.97772200 0.50994000
vt 0.33923800 0.87193700
vt 0.22960000 0.99709500
vt 0.99407000 0.23423300
vt 0.07081700 0.99725600
vt 0.33720900 0.87341300
vt 0.70483700 0.08495900
vt 0.33832400 0.87104600
vt 0.70483700 0.08495900
vt 0.70483700 0.08495900
vt 0.99406900 0.23593000
vt 0.99406900 0.23593000
vt 0.33551500 0.87219700
vt 0.97974700 0.01046800
vt 0.47897500 0.91803800
vt 0.99625700 0.24113700
vt 0.96602200 0.68476400
vt 0.47897500 0.91803800
vt 0.55977000 0.99179000
vt 0.47897300 0.92656700
vt 0.47897300 0.92656700
vt 0.97333300 0.49359500
vt 0.13732900 0.92286300
vt 0.97974700 0.01899600
vt 0.17127000 0.99871000
vt 0.47897300 0.92656700
vt 0.98347600 0.01897900
vt 0.13732700 0.92807000
vt 0.13732700 0.92807000
vt 0.98468900 0.01727800
vt 0.13732900 0.92976700
vt 0.07243900 0.99210600
vt 0.98153600 0.01579300
vt 0.85985500 0.75195300
vt 0.85985500 0.75195300
vt 0.99554900 0.75757900
vt 0.95266200 0.61530500
vt 0.99451100 0.75684000
vt 0.98848700 0.80022500
vt 0.98126200 0.01454400
vt 0.85985500 0.75353400
vt 0.85985500 0.75353400
vt 0.98266800 0.01601000
vt 0.87850900 0.17354800
vt 0.98162700 0.01360200
vt 0.70265100 0.08587900
vt 0.70265100 0.08587900
vt 0.98748300 0.80022500
vt 0.87998600 0.17354800
vt 0.98328400 0.01465700
vt 0.97799100 0.50825100
vt 0.22863300 0.99827200
vt 0.70265100 0.08452500
vt 0.98259600 0.01338500
vt 0.22960000 0.99935400
vt 0.70265100 0.08452500
vt 0.99625600 0.23592900
vt 0.98347500 0.01045000
vt 0.99625600 0.23592900
vt 0.99625700 0.23423300
vt 0.07243900 0.99724500
vt 0.98468900 0.01213900
f 1/1/1 7/7/7 18/18/18
f 22/22/22 4/4/4 17/17/17
f 26/26/26 22/22/22 17/17/17
f 29/29/29 26/26/26 17/17/17
f 35/35/35 38/38/38 46/46/46
f 51/51/51 36/36/36 45/45/45
f 58/58/58 51/51/51 45/45/45
f 59/59/59 58/58/58 45/45/45
f 66/66/66 59/59/59 45/45/45
f 70/70/70 66/66/66 45/45/45
f 17/17/17 72/72/72 74/74/74
f 78/78/78 70/70/70 45/45/45
f 85/85/85 78/78/78 45/45/45
f 86/86/86 85/85/85 45/45/45
f 90/90/90 86/86/86 45/45/45
f 94/94/94 90/90/90 45/45/45
f 101/101/101 94/94/94 45/45/45
f 17/17/17 74/74/74 102/102/102
f 17/17/17 102/102/102 108/108/108
f 17/17/17 108/108/108 112/112/112
f 115/115/115 43/43/43 117/117/117
f 103/103/103 76/76/76 120/120/120
f 117/117/117 43/43/43 33/33/33
f 103/103/103 120/120/120 32/32/32
f 17/17/17 112/112/112 122/122/122
f 17/17/17 122/122/122 29/29/29
f 111/111/111 106/106/106 52/52/52
f 111/111/111 52/52/52 56/56/56
f 28/28/28 121/121/121 62/62/62
f 28/28/28 62/62/62 64/64/64
f 21/21/21 24/24/24 69/69/69
f 21/21/21 69/69/69 80/80/80
f 128/128/128 3/3/3 83/83/83
f 128/128/128 83/83/83 88/88/88
f 130/130/130 93/93/93 97/97/97
f 136/136/136 130/130/130 97/97/97
f 135/135/135 140/140/140 9/9/9
f 125/125/125 129/129/129 9/9/9
f 6/6/6 125/125/125 9/9/9
f 129/129/129 135/135/135 9/9/9
f 140/140/140 144/144/144 9/9/9
f 9/9/9 144/144/144 146/146/146
f 139/139/139 100/100/100 150/150/150
f 142/142/142 139/139/139 150/150/150
f 152/152/152 151/151/151 45/45/45
f 151/151/151 101/101/101 45/45/45
f 156/156/156 114/114/114 119/119/119
f 156/156/156 163/163/163 114/114/114
f 155/155/155 77/77/77 165/165/165
f 118/118/118 77/77/77 155/155/155
f 71/71/71 167/167/167 75/75/75
f 169/169/169 167/167/167 71/71/71
f 177/177/177 183/183/183 185/185/185
f 177/177/177 185/185/185 192/192/192
f 177/177/177 192/192/192 195/195/195
f 177/177/177 195/195/195 197/197/197
f 177/177/177 197/197/197 202/202/202
f 177/177/177 202/202/202 208/208/208
f 177/177/177 208/208/208 209/209/209
f 177/177/177 209/209/209 213/213/213
f 177/177/177 213/213/213 220/220/220
f 177/177/177 220/220/220 224/224/224
f 177/177/177 224/224/224 225/225/225
f 229/229/229 241/241/241 158/158/158
f 233/233/233 157/157/157 244/244/244
f 233/233/233 244/244/244 249/249/249
f 233/233/233 249/249/249 252/252/252
f 166/166/166 173/173/173 177/177/177
f 233/233/233 252/252/252 258/258/258
f 233/233/233 258/258/258 260/260/260
f 233/233/233 260/260/260 264/264/264
f 233/233/233 264/264/264 269/269/269
f 233/233/233 269/269/269 274/274/274
f 225/225/225 166/166/166 177/177/177
f 233/233/233 274/274/274 275/275/275
f 233/233/233 275/275/275 280/280/280
f 233/233/233 280/280/280 285/285/285
f 233/233/233 285/285/285 288/288/288
f 233/233/233 288/288/288 293/293/293
f 238/238/238 170/170/170 164/164/164
f 236/236/236 176/176/176 172/172/172
f 160/160/160 168/168/168 228/228/228
f 159/159/159 242/242/242 162/162/162
f 245/245/245 160/160/160 228/228/228
f 250/250/250 222/222/222 217/217/217
f 251/251/251 250/250/250 217/217/217
f 255/255/255 214/214/214 210/210/210
f 261/261/261 255/255/255 210/210/210
f 266/266/266 207/207/207 203/203/203
f 268/268/268 266/266/266 203/203/203
f 272/272/272 199/199/199 193/193/193
f 277/277/277 272/272/272 193/193/193
f 282/282/282 190/190/190 187/187/187
f 286/286/286 282/282/282 187/187/187
f 301/301/301 305/305/305 181/181/181
f 310/310/310 305/305/305 301/301/301
f 291/291/291 289/289/289 180/180/180
f 291/291/291 180/180/180 303/303/303
f 233/233/233 293/293/293 311/311/311
f 232/232/232 313/313/313 308/308/308
f 231/231/231 307/307/307 297/297/297
f 178/178/178 296/296/296 182/182/182
f 298/298/298 174/174/174 317/317/317
f 328/328/328 300/300/300 316/316/316
f 322/322/322 332/332/332 15/15/15
f 323/323/323 14/14/14 11/11/11
f 326/326/326 318/318/318 19/19/19
f 325/325/325 10/10/10 340/340/340
f 336/336/336 344/344/344 346/346/346
f 12/12/12 341/341/341 337/337/337
f 153/153/153 49/49/49 350/350/350
f 145/145/145 350/350/350 343/343/343
f 145/145/145 153/153/153 350/350/350
f 8/8/8 145/145/145 343/343/343
f 306/306/306 312/312/312 153/153/153
f 306/306/306 153/153/153 145/145/145
f 357/357/357 349/349/349 48/48/48
f 360/360/360 356/356/356 352/352/352
f 364/364/364 347/347/347 368/368/368
f 365/365/365 339/339/339 348/348/348
f 366/366/366 324/324/324 338/338/338
f 374/374/374 330/330/330 362/362/362
f 354/354/354 375/375/375 378/378/378
f 361/361/361 371/371/371 353/353/353
f 453/453/453 329/329/329 372/372/372
f 454/454/454 373/373/373 358/358/358
f 382/382/382 385/385/385 388/388/388
f 391/391/391 385/385/385 382/382/382
f 398/398/398 382/382/382 388/388/388
f 401/401/401 385/385/385 391/391/391
f 370/370/370 345/345/345 342/342/342
f 370/370/370 398/398/398 388/388/388
f 403/403/403 401/401/401 391/391/391
f 406/406/406 398/398/398 370/370/370
f 412/412/412 403/403/403 415/415/415
f 412/412/412 401/401/401 403/403/403
f 380/380/380 415/415/415 406/406/406
f 380/380/380 406/406/406 370/370/370
f 380/380/380 412/412/412 415/415/415
f 351/351/351 355/355/355 380/380/380
f 342/342/342 351/351/351 380/380/380
f 342/342/342 380/380/380 370/370/370
f 369/369/369 390/390/390 418/418/418
f 369/369/369 418/418/418 363/363/363
f 421/421/421 389/389/389 387/387/387
f 421/421/421 417/417/417 389/389/389
f 419/419/419 420/420/420 428/428/428
f 420/420/420 426/426/426 428/428/428
f 426/426/426 420/420/420 431/431/431
f 419/419/419 428/428/428 367/367/367
f 426/426/426 431/431/431 436/436/436
f 367/367/367 428/428/428 438/438/438
f 367/367/367 438/438/438 444/444/444
f 450/450/450 436/436/436 445/445/445
f 436/436/436 431/431/431 445/445/445
f 444/444/444 450/450/450 377/377/377
f 450/450/450 445/445/445 377/377/377
f 367/367/367 444/444/444 377/377/377
f 447/447/447 399/399/399 413/413/413
f 447/447/447 433/433/433 399/399/399
f 411/411/411 376/376/376 446/446/446
f 411/411/411 379/379/379 376/376/376
f 386/386/386 400/400/400 432/432/432
f 386/386/386 432/432/432 422/422/422
f 423/423/423 392/392/392 384/384/384
f 427/427/427 425/425/425 381/381/381
f 430/430/430 383/383/383 396/396/396
f 440/440/440 429/429/429 397/397/397
f 443/443/443 441/441/441 407/407/407
f 439/439/439 395/395/395 409/409/409
f 452/452/452 442/442/442 410/410/410
f 451/451/451 408/408/408 414/414/414
f 448/448/448 416/416/416 405/405/405
f 434/434/434 449/449/449 402/402/402
f 424/424/424 437/437/437 394/394/394
f 435/435/435 404/404/404 393/393/393
f 458/458/458 295/295/295 327/327/327
f 459/459/459 230/230/230 299/299/299
f 237/237/237 234/234/234 455/455/455
f 461/461/461 240/240/240 457/457/457
f 456/456/456 359/359/359 44/44/44
f 462/462/462 47/47/47 42/42/42
f 467/467/467 460/460/460 50/50/50
f 466/466/466 39/39/39 470/470/470
f 469/469/469 477/477/477 480/480/480
f 40/40/40 474/474/474 473/473/473
f 73/73/73 16/16/16 484/484/484
f 116/116/116 484/484/484 475/475/475
f 116/116/116 73/73/73 484/484/484
f 41/41/41 116/116/116 475/475/475
f 161/161/161 171/171/171 73/73/73
f 161/161/161 73/73/73 116/116/116
f 488/488/488 483/483/483 489/489/489
f 500/500/500 488/488/488 496/496/496
f 496/496/496 488/488/488 503/503/503
f 507/507/507 496/496/496 503/503/503
f 508/508/508 514/514/514 526/526/526
f 508/508/508 500/500/500 514/514/514
f 508/508/508 488/488/488 500/500/500
f 516/516/516 507/507/507 503/503/503
f 520/520/520 507/507/507 516/516/516
f 479/479/479 476/476/476 508/508/508
f 524/524/524 526/526/526 520/520/520
f 524/524/524 520/520/520 516/516/516
f 531/531/531 508/508/508 526/526/526
f 531/531/531 526/526/526 524/524/524
f 476/476/476 483/483/483 488/488/488
f 476/476/476 488/488/488 508/508/508
f 537/537/537 472/472/472 478/478/478
f 536/536/536 468/468/468 471/471/471
f 535/535/535 481/481/481 509/509/509
f 539/539/539 465/465/465 533/533/533
f 492/492/492 540/540/540 486/486/486
f 335/335/335 543/543/543 491/491/491
f 319/319/319 463/463/463 538/538/538
f 321/321/321 544/544/544 334/334/334
f 320/320/320 239/239/239 464/464/464
f 315/315/315 175/175/175 235/235/235
f 333/333/333 482/482/482 13/13/13
f 331/331/331 490/490/490 485/485/485
f 501/501/501 541/541/541 547/547/547
f 501/501/501 487/487/487 541/541/541
f 546/546/546 515/515/515 502/502/502
f 546/546/546 549/549/549 515/515/515
f 545/545/545 542/542/542 551/551/551
f 551/551/551 542/542/542 558/558/558
f 545/545/545 551/551/551 561/561/561
f 563/563/563 558/558/558 532/532/532
f 558/558/558 542/542/542 532/532/532
f 561/561/561 568/568/568 548/548/548
f 545/545/545 561/561/561 548/548/548
f 572/572/572 563/563/563 576/576/576
f 563/563/563 532/532/532 576/576/576
f 568/568/568 572/572/572 580/580/580
f 548/548/548 568/568/568 580/580/580
f 572/572/572 576/576/576 580/580/580
f 578/578/578 530/530/530 522/522/522
f 578/578/578 577/577/577 530/530/530
f 523/523/523 550/550/550 579/579/579
f 523/523/523 517/517/517 550/550/550
f 510/510/510 529/529/529 575/575/575
f 510/510/510 575/575/575 534/534/534
f 554/554/554 556/556/556 498/498/498
f 552/552/552 499/499/499 494/494/494
f 560/560/560 553/553/553 495/495/495
f 559/559/559 493/493/493 504/504/504
f 567/567/567 562/562/562 506/506/506
f 569/569/569 505/505/505 519/519/519
f 573/573/573 570/570/570 521/521/521
f 574/574/574 518/518/518 527/527/527
f 564/564/564 571/571/571 525/525/525
f 565/565/565 528/528/528 512/512/512
f 557/557/557 566/566/566 513/513/513
f 555/555/555 511/511/511 497/497/497
f 154/154/154 294/294/294 149/149/149
f 314/314/314 294/294/294 154/154/154
f 304/304/304 148/148/148 292/292/292
f 141/141/141 148/148/148 304/304/304
f 302/302/302 147/147/147 143/143/143
f 302/302/302 309/309/309 147/147/147
f 60/60/60 253/253/253 57/57/57
f 257/257/257 253/253/253 60/60/60
f 219/219/219 55/55/55 254/254/254
f 113/113/113 55/55/55 219/219/219
f 110/110/110 216/216/216 123/123/123
f 218/218/218 216/216/216 110/110/110
f 256/256/256 124/124/124 215/215/215
f 61/61/61 124/124/124 256/256/256
f 68/68/68 262/262/262 63/63/63
f 263/263/263 262/262/262 68/68/68
f 212/212/212 65/65/65 259/259/259
f 31/31/31 65/65/65 212/212/212
f 30/30/30 206/206/206 25/25/25
f 211/211/211 206/206/206 30/30/30
f 265/265/265 27/27/27 205/205/205
f 67/67/67 27/27/27 265/265/265
f 84/84/84 270/270/270 79/79/79
f 273/273/273 270/270/270 84/84/84
f 201/201/201 81/81/81 267/267/267
f 23/23/23 81/81/81 201/201/201
f 20/20/20 198/198/198 2/2/2
f 204/204/204 198/198/198 20/20/20
f 271/271/271 5/5/5 200/200/200
f 82/82/82 5/5/5 271/271/271
f 91/91/91 276/276/276 89/89/89
f 281/281/281 276/276/276 91/91/91
f 194/194/194 87/87/87 278/278/278
f 127/127/127 87/87/87 194/194/194
f 126/126/126 191/191/191 132/132/132
f 196/196/196 191/191/191 126/126/126
f 279/279/279 131/131/131 189/189/189
f 92/92/92 131/131/131 279/279/279
f 287/287/287 284/284/284 96/96/96
f 287/287/287 96/96/96 99/99/99
f 186/186/186 95/95/95 283/283/283
f 133/133/133 95/95/95 186/186/186
f 188/188/188 138/138/138 134/134/134
f 188/188/188 184/184/184 138/138/138
f 290/290/290 137/137/137 179/179/179
f 98/98/98 137/137/137 290/290/290
f 247/247/247 246/246/246 34/34/34
f 247/247/247 34/34/34 54/54/54
f 227/227/227 37/37/37 243/243/243
f 105/105/105 37/37/37 227/227/227
f 226/226/226 107/107/107 104/104/104
f 226/226/226 223/223/223 107/107/107
f 248/248/248 109/109/109 221/221/221
f 53/53/53 109/109/109 248/248/248

