mtllib material.mtl
usemtl material_0
v 0.11274900 0.00730400 0.13665600
v 0.11731800 0.02009800 0.13589400
v 0.11606000 0.01837700 0.13589400
v 0.11588800 0.01581600 0.13589400
v 0.11701100 0.01400100 0.13589400
v 0.11895600 0.01282600 0.13589400
v 0.12349800 0.01481400 0.13589400
v 0.12399600 0.01743000 0.13589400
v 0.12310800 0.01947400 0.13589400
v 0.12147200 0.02068500 0.13589400
v 0.11195400 0.00104600 0.13589400
v 0.11374600 -0.00236700 0.13589400
v 0.11990100 0.01139200 0.13589400
v 0.11734900 -0.00467900 0.13589400
v 0.11432800 0.00920300 0.13589400
v 0.11432800 0.00920300 0.13589400
v 0.12119100 -0.00496900 0.13589400
v 0.11235700 0.00653400 0.13589400
v 0.11235700 0.00653400 0.13589400
v 0.11171600 0.00360400 0.13589400
v 0.12531400 0.00934800 0.13589400
v 0.12400300 -0.00393000 0.13589400
v 0.12600700 -0.00232300 0.13589400
v 0.12775400 0.00062300 0.13589400
v 0.12807600 0.00392600 0.13589400
v 0.11626500 0.02468400 0.13589400
v 0.11501700 0.02635000 0.13589400
v 0.12001100 0.03438500 0.13589400
v 0.11882100 0.02340200 0.13589400
v 0.11682700 0.03343000 0.13589400
v 0.11490300 0.03117900 0.13589400
v 0.11439700 0.02836500 0.13589400
v 0.12461400 0.03165500 0.13589400
v 0.12296400 0.03341300 0.13589400
v 0.12141000 0.02354500 0.13589400
v 0.12353600 0.02468400 0.13589400
v 0.12533700 0.02963600 0.13589400
vn 0.79100000 -0.58390000 0.18280000
vn -0.00000000 -0.00000000 1.00000000
vn -0.00000000 -0.00000000 1.00000000
vn -0.00000000 -0.00000000 1.00000000
vn -0.00000000 -0.00000000 1.00000000
vn -0.00000000 -0.00000000 1.00000000
vn -0.00000000 -0.00000000 1.00000000
vn -0.00000000 -0.00000000 1.00000000
vn -0.00000000 -0.00000000 1.00000000
vn -0.00000000 -0.00000000 1.00000000
vn -0.00000000 -0.00000000 1.00000000
vn -0.00000000 -0.00000000 1.00000000
vn -0.00000000 -0.00000000 1.00000000
vn -0.00000000 -0.00000000 1.00000000
vn 0.79100000 -0.58390000 0.18280000
vn -0.00000000 -0.00000000 1.00000000
vn -0.00000000 -0.00000000 1.00000000
vn 0.79100000 -0.58390000 0.18280000
vn -0.00000000 -0.00000000 1.00000000
vn -0.00000000 -0.00000000 1.00000000
vn -0.00000000 -0.00000000 1.00000000
vn -0.00000000 -0.00000000 1.00000000
vn -0.00000000 -0.00000000 1.00000000
vn -0.00000000 -0.00000000 1.00000000
vn -0.00000000 -0.00000000 1.00000000
vn -0.00000000 -0.00000000 1.00000000
vn -0.00000000 -0.00000000 1.00000000
vn -0.00000000 -0.00000000 1.00000000
vn -0.00000000 -0.00000000 1.00000000
vn -0.00000000 -0.00000000 1.00000000
vn -0.00000000 -0.00000000 1.00000000
vn -0.00000000 -0.00000000 1.00000000
vn -0.00000000 -0.00000000 1.00000000
vn -0.00000000 -0.00000000 1.00000000
vn -0.00000000 -0.00000000 1.00000000
vn -0.00000000 -0.00000000 1.00000000
vn -0.00000000 -0.00000000 1.00000000
vt 0.94179800 0.95016800
vt 0.52771100 0.08446400
vt 0.52663300 0.08243900
vt 0.52684000 0.07968400
vt 0.52831200 0.07792200
vt 0.53056400 0.07696600
vt 0.53510000 0.07977600
vt 0.53523200 0.08263900
vt 0.53397400 0.08468100
vt 0.53204800 0.08572200
vt 0.88897900 0.15721400
vt 0.89102800 0.16082000
vt 0.87498900 0.15839700
vt 0.89102800 0.16542700
vt 0.94261500 0.95281600
vt 0.88021100 0.15462200
vt 0.88905900 0.16907600
vt 0.94262100 0.94928200
vt 0.88377400 0.15438900
vt 0.88680000 0.15551100
vt 0.87369400 0.16448800
vt 0.88648200 0.17101800
vt 0.88386200 0.17190000
vt 0.88017800 0.17177000
vt 0.87700000 0.17014200
vt 0.33642500 0.55298100
vt 0.33853400 0.55373800
vt 0.34521900 0.54605900
vt 0.33429800 0.55075800
vt 0.34524400 0.54963700
vt 0.34353700 0.55232800
vt 0.34080300 0.55373800
vt 0.34095400 0.54218800
vt 0.34328500 0.54332900
vt 0.33362500 0.54805000
vt 0.33412400 0.54550300
vt 0.33864800 0.54208300
f 4/4/4 5/5/5 6/6/6
f 4/4/4 8/8/8 9/9/9
f 4/4/4 7/7/7 8/8/8
f 4/4/4 6/6/6 7/7/7
f 10/10/10 4/4/4 9/9/9
f 2/2/2 4/4/4 10/10/10
f 2/2/2 3/3/3 4/4/4
f 18/18/18 15/15/15 1/1/1
f 11/11/11 12/12/12 25/25/25
f 20/20/20 25/25/25 21/21/21
f 17/17/17 22/22/22 23/23/23
f 20/20/20 11/11/11 25/25/25
f 17/17/17 23/23/23 24/24/24
f 12/12/12 14/14/14 17/17/17
f 16/16/16 20/20/20 21/21/21
f 16/16/16 21/21/21 13/13/13
f 16/16/16 19/19/19 20/20/20
f 12/12/12 17/17/17 24/24/24
f 12/12/12 24/24/24 25/25/25
f 31/31/31 27/27/27 28/28/28
f 31/31/31 32/32/32 27/27/27
f 30/30/30 31/31/31 28/28/28
f 37/37/37 35/35/35 36/36/36
f 33/33/33 35/35/35 37/37/37
f 26/26/26 29/29/29 35/35/35
f 26/26/26 35/35/35 33/33/33
f 34/34/34 26/26/26 33/33/33
f 28/28/28 26/26/26 34/34/34
f 28/28/28 27/27/27 26/26/26

