mtllib material.mtl
usemtl material_0
v 0.14285200 0.03236600 -0.04243800
v 0.14285200 0.03236600 -0.04243800
v 0.14285800 0.03359000 -0.04176000
v 0.14285800 0.03359000 -0.04176000
v 0.14285800 0.03359000 -0.04176000
v 0.14292100 0.03494800 -0.04032900
v 0.14292100 0.03494800 -0.04032900
v 0.14292100 0.03494800 -0.04032900
v 0.14283100 0.03573700 -0.03902100
v 0.14283100 0.03573700 -0.03902100
v 0.14284800 0.03601800 -0.03796100
v 0.14284800 0.03601800 -0.03796100
v 0.14284600 0.03612300 -0.03698300
v 0.14284600 0.03612300 -0.03698300
v 0.14284600 0.03612300 -0.03698300
v 0.14284100 0.03539200 -0.03403200
v 0.14284100 0.03539200 -0.03403200
v 0.14285300 0.02668900 -0.04173500
v 0.14285300 0.02668900 -0.04173500
v 0.14291200 0.02828700 -0.04248200
v 0.14291200 0.02828700 -0.04248200
v 0.14271900 0.02579100 -0.03277100
v 0.14284600 0.02493200 -0.03403900
v 0.14284600 0.02493200 -0.03403900
v 0.14284600 0.02493200 -0.03403900
v 0.14284600 0.02493200 -0.03403900
v 0.14285800 0.02452400 -0.03501800
v 0.14285800 0.02452400 -0.03501800
v 0.14285400 0.02420300 -0.03698300
v 0.14285400 0.02420300 -0.03698300
v 0.14285400 0.02420300 -0.03698300
v 0.14266100 0.02445500 -0.03880000
v 0.14285000 0.02528200 -0.04032700
v 0.14285000 0.02528200 -0.04032700
v 0.14285000 0.02528200 -0.04032700
v 0.14285000 0.02528200 -0.04032700
v 0.14286600 0.03243500 -0.03140700
v 0.14286600 0.03243500 -0.03140700
v 0.14272800 0.02723400 -0.03166400
v 0.14295200 0.02452000 -0.03847700
v 0.14295200 0.02452000 -0.03847700
v 0.14295200 0.02452000 -0.03847700
v 0.14294400 0.02963200 -0.03107300
v 0.14294400 0.02963200 -0.03107300
v 0.14296600 0.03395300 -0.03247800
v 0.14296600 0.03395300 -0.03247800
v 0.14296600 0.03395300 -0.03247800
v 0.14295500 0.02777400 -0.03158100
v 0.14295500 0.02777400 -0.03158100
v 0.14295500 0.02777400 -0.03158100
v 0.14295500 0.02777400 -0.03158100
v 0.14293900 0.02613100 -0.03265500
v 0.14293900 0.02613100 -0.03265500
v 0.14293900 0.02613100 -0.03265500
v 0.14293900 0.02613100 -0.03265500
v 0.14301500 0.03106300 -0.03122600
v 0.14301500 0.03106300 -0.03122600
v 0.14301500 0.03106300 -0.03122600
v 0.14367500 0.03417200 -0.03553200
v 0.14367500 0.03417200 -0.03553200
v 0.14367500 0.03417200 -0.03553200
v 0.14367500 0.03417200 -0.03553200
v 0.14367500 0.03417200 -0.03553200
v 0.14367500 0.03417200 -0.03553200
v 0.14388300 0.03368500 -0.03769500
v 0.14388300 0.03368500 -0.03769500
v 0.14388300 0.03368500 -0.03769500
v 0.14388300 0.03368500 -0.03769500
v 0.14388300 0.03368500 -0.03769500
v 0.14388300 0.03368500 -0.03769500
v 0.14388300 0.03368500 -0.03769500
v 0.14388300 0.03368500 -0.03769500
v 0.14372900 0.03302800 -0.03976500
v 0.14372900 0.03302800 -0.03976500
v 0.14372900 0.03302800 -0.03976500
v 0.14372900 0.03302800 -0.03976500
v 0.14372900 0.03302800 -0.03976500
v 0.14405200 0.03197100 -0.03440700
v 0.14405200 0.03197100 -0.03440700
v 0.14405200 0.03197100 -0.03440700
v 0.14405200 0.03197100 -0.03440700
v 0.14405200 0.03197100 -0.03440700
v 0.14405200 0.03197100 -0.03440700
v 0.14405200 0.03197100 -0.03440700
v 0.14388300 0.03095800 -0.04042200
v 0.14388300 0.03095800 -0.04042200
v 0.14388300 0.03095800 -0.04042200
v 0.14388300 0.03095800 -0.04042200
v 0.14388300 0.03095800 -0.04042200
v 0.14388300 0.03095800 -0.04042200
v 0.14442100 0.03016200 -0.03690000
v 0.14442100 0.03016200 -0.03690000
v 0.14442100 0.03016200 -0.03690000
v 0.14442100 0.03016200 -0.03690000
v 0.14442100 0.03016200 -0.03690000
v 0.14442100 0.03016200 -0.03690000
v 0.14442100 0.03016200 -0.03690000
v 0.14442100 0.03016200 -0.03690000
v 0.14388500 0.02936700 -0.03338800
v 0.14388500 0.02936700 -0.03338800
v 0.14388500 0.02936700 -0.03338800
v 0.14388500 0.02936700 -0.03338800
v 0.14388500 0.02936700 -0.03338800
v 0.14388500 0.02936700 -0.03338800
v 0.14405200 0.02834500 -0.03938700
v 0.14405200 0.02834500 -0.03938700
v 0.14405200 0.02834500 -0.03938700
v 0.14405200 0.02834500 -0.03938700
v 0.14405200 0.02834500 -0.03938700
v 0.14405200 0.02834500 -0.03938700
v 0.14405200 0.02834500 -0.03938700
v 0.14405200 0.02834500 -0.03938700
v 0.14373000 0.02730100 -0.03403900
v 0.14373000 0.02730100 -0.03403900
v 0.14373000 0.02730100 -0.03403900
v 0.14373000 0.02730100 -0.03403900
v 0.14373000 0.02730100 -0.03403900
v 0.14373000 0.02730100 -0.03403900
v 0.14388500 0.02665100 -0.03610400
v 0.14388500 0.02665100 -0.03610400
v 0.14388500 0.02665100 -0.03610400
v 0.14388500 0.02665100 -0.03610400
v 0.14388500 0.02665100 -0.03610400
v 0.14388500 0.02665100 -0.03610400
v 0.14388500 0.02665100 -0.03610400
v 0.14367000 0.02615100 -0.03829000
v 0.14367000 0.02615100 -0.03829000
v 0.14367000 0.02615100 -0.03829000
v 0.14367000 0.02615100 -0.03829000
v 0.14367000 0.02615100 -0.03829000
v 0.14299100 0.02997800 -0.04270000
v 0.14299100 0.02997800 -0.04270000
v 0.14299100 0.02997800 -0.04270000
v 0.14295300 0.03574500 -0.03522200
v 0.14295300 0.03574500 -0.03522200
vn 0.91180000 0.09720000 -0.39890000
vn 0.92120000 0.18490000 -0.34230000
vn 0.92120000 0.18490000 -0.34230000
vn 0.90460000 0.28860000 -0.31370000
vn 0.91910000 0.17980000 -0.35070000
vn 0.90460000 0.28860000 -0.31370000
vn 0.91630000 0.36770000 -0.15850000
vn 0.92470000 0.33750000 -0.17610000
vn 0.91250000 0.39130000 -0.11900000
vn 0.91630000 0.36770000 -0.15850000
vn 0.91250000 0.39130000 -0.11900000
vn 0.91500000 0.40130000 -0.04100000
vn 0.91500000 0.40130000 -0.04100000
vn 0.92020000 0.39140000 0.00030000
vn 0.91070000 0.41170000 0.03310000
vn 0.91250000 0.33440000 0.23580000
vn 0.90510000 0.37670000 0.19730000
vn 0.92070000 -0.27720000 -0.27460000
vn 0.92220000 -0.19090000 -0.33620000
vn 0.92220000 -0.19090000 -0.33620000
vn 0.93520000 -0.08810000 -0.34290000
vn 0.66440000 -0.58630000 0.46340000
vn 0.66440000 -0.58630000 0.46340000
vn 0.91090000 -0.34020000 0.23350000
vn 0.91850000 -0.36060000 0.16240000
vn 0.92190000 -0.34430000 0.17770000
vn 0.91110000 -0.40710000 0.06440000
vn 0.91850000 -0.36060000 0.16240000
vn 0.91110000 -0.40710000 0.06440000
vn 0.91580000 -0.40080000 -0.02530000
vn 0.92180000 -0.38780000 -0.00210000
vn 0.55330000 -0.75920000 -0.34290000
vn 0.92490000 -0.28620000 -0.25040000
vn 0.92070000 -0.27720000 -0.27460000
vn 0.55330000 -0.75920000 -0.34290000
vn 0.90420000 -0.37510000 -0.20410000
vn 0.92420000 0.17750000 0.33800000
vn 0.92750000 0.14590000 0.34420000
vn 0.71250000 -0.38890000 0.58410000
vn 0.90420000 -0.37510000 -0.20410000
vn 0.55330000 -0.75920000 -0.34290000
vn 0.91580000 -0.40080000 -0.02530000
vn 0.92610000 -0.00560000 0.37740000
vn 0.91760000 -0.09980000 0.38470000
vn 0.91250000 0.33440000 0.23580000
vn 0.92420000 0.17750000 0.33800000
vn 0.93050000 0.28020000 0.23610000
vn 0.71250000 -0.38890000 0.58410000
vn 0.91760000 -0.09980000 0.38470000
vn 0.91560000 -0.22630000 0.33250000
vn 0.92930000 -0.17260000 0.32650000
vn 0.66440000 -0.58630000 0.46340000
vn 0.71250000 -0.38890000 0.58410000
vn 0.91090000 -0.34020000 0.23350000
vn 0.91560000 -0.22630000 0.33250000
vn 0.92610000 -0.00560000 0.37740000
vn 0.94270000 0.06740000 0.32680000
vn 0.92750000 0.14590000 0.34420000
vn 0.97970000 0.19370000 0.05060000
vn 0.92020000 0.39140000 0.00030000
vn 0.91070000 0.41170000 0.03310000
vn 0.90510000 0.37670000 0.19730000
vn 0.91250000 0.33440000 0.23580000
vn 0.93050000 0.28020000 0.23610000
vn 0.91630000 0.36770000 -0.15850000
vn 0.91500000 0.40130000 -0.04100000
vn 0.98700000 0.15770000 0.03150000
vn 0.92020000 0.39140000 0.00030000
vn 0.92470000 0.33750000 -0.17610000
vn 0.91250000 0.39130000 -0.11900000
vn 0.97970000 0.19370000 0.05060000
vn 0.98570000 0.12480000 -0.11310000
vn 0.92470000 0.33750000 -0.17610000
vn 0.98570000 0.12480000 -0.11310000
vn 0.91910000 0.17980000 -0.35070000
vn 0.98570000 0.11310000 -0.12490000
vn 0.90460000 0.28860000 -0.31370000
vn 0.98870000 -0.00480000 0.14960000
vn 0.98700000 0.15770000 0.03150000
vn 0.97970000 0.19370000 0.05060000
vn 0.94270000 0.06740000 0.32680000
vn 0.92750000 0.14590000 0.34420000
vn 0.93050000 0.28020000 0.23610000
vn 0.92420000 0.17750000 0.33800000
vn 0.93890000 -0.07260000 -0.33640000
vn 0.98870000 0.00450000 -0.14980000
vn 0.98570000 0.11310000 -0.12490000
vn 0.91910000 0.17980000 -0.35070000
vn 0.92120000 0.18490000 -0.34230000
vn 0.91180000 0.09720000 -0.39890000
vn 0.98700000 -0.15750000 -0.03120000
vn 0.98870000 0.00450000 -0.14980000
vn 0.98870000 -0.00480000 0.14960000
vn 0.98570000 -0.12460000 0.11330000
vn 0.98570000 -0.11330000 0.12460000
vn 0.98570000 0.12480000 -0.11310000
vn 0.98700000 0.15770000 0.03150000
vn 0.98570000 0.11310000 -0.12490000
vn 0.92610000 -0.00560000 0.37740000
vn 0.91760000 -0.09980000 0.38470000
vn 0.98870000 -0.00480000 0.14960000
vn 0.94270000 0.06740000 0.32680000
vn 0.92930000 -0.17260000 0.32650000
vn 0.98570000 -0.11330000 0.12460000
vn 0.93520000 -0.08810000 -0.34290000
vn 0.98700000 -0.15750000 -0.03120000
vn 0.93890000 -0.07260000 -0.33640000
vn 0.98870000 0.00450000 -0.14980000
vn 0.97920000 -0.19610000 -0.05150000
vn 0.92490000 -0.28620000 -0.25040000
vn 0.92070000 -0.27720000 -0.27460000
vn 0.92220000 -0.19090000 -0.33620000
vn 0.91560000 -0.22630000 0.33250000
vn 0.98570000 -0.12460000 0.11330000
vn 0.91090000 -0.34020000 0.23350000
vn 0.98570000 -0.11330000 0.12460000
vn 0.92930000 -0.17260000 0.32650000
vn 0.92190000 -0.34430000 0.17770000
vn 0.91850000 -0.36060000 0.16240000
vn 0.97920000 -0.19610000 -0.05150000
vn 0.91110000 -0.40710000 0.06440000
vn 0.98570000 -0.12460000 0.11330000
vn 0.92180000 -0.38780000 -0.00210000
vn 0.98700000 -0.15750000 -0.03120000
vn 0.92190000 -0.34430000 0.17770000
vn 0.90420000 -0.37510000 -0.20410000
vn 0.97920000 -0.19610000 -0.05150000
vn 0.91580000 -0.40080000 -0.02530000
vn 0.92180000 -0.38780000 -0.00210000
vn 0.92490000 -0.28620000 -0.25040000
vn 0.93890000 -0.07260000 -0.33640000
vn 0.93520000 -0.08810000 -0.34290000
vn 0.91180000 0.09720000 -0.39890000
vn 0.91070000 0.41170000 0.03310000
vn 0.90510000 0.37670000 0.19730000
vt 0.70325100 0.95303200
vt 0.70325100 0.95303200
vt 0.70423300 0.95369600
vt 0.70423300 0.95369600
vt 0.70423300 0.95369600
vt 0.70532800 0.95516400
vt 0.70532800 0.95516400
vt 0.70532800 0.95516400
vt 0.70609100 0.95652400
vt 0.70609100 0.95652400
vt 0.70636600 0.95764800
vt 0.70636600 0.95764800
vt 0.70651500 0.95869300
vt 0.70651500 0.95869300
vt 0.70651500 0.95869300
vt 0.70616000 0.96190000
vt 0.70616000 0.96190000
vt 0.39691800 0.95343400
vt 0.39691800 0.95343400
vt 0.39828200 0.95282300
vt 0.39828200 0.95282300
vt 0.39480700 0.96287500
vt 0.39444100 0.96144000
vt 0.39444100 0.96144000
vt 0.39444100 0.96144000
vt 0.39444100 0.96144000
vt 0.39428700 0.96035200
vt 0.39428700 0.96035200
vt 0.39433200 0.95822000
vt 0.39433200 0.95822000
vt 0.39433200 0.95822000
vt 0.39464800 0.95629300
vt 0.39564200 0.95477800
vt 0.39564200 0.95477800
vt 0.39564200 0.95477800
vt 0.39564200 0.95477800
vt 0.70404600 0.96487700
vt 0.70404600 0.96487700
vt 0.39574100 0.96421800
vt 0.39486800 0.95667300
vt 0.39486800 0.95667300
vt 0.39486800 0.95667300
vt 0.39762900 0.96513800
vt 0.39762900 0.96513800
vt 0.70506500 0.96365100
vt 0.70506500 0.96365100
vt 0.70506500 0.96365100
vt 0.39630700 0.96439000
vt 0.39630700 0.96439000
vt 0.39630700 0.96439000
vt 0.39630700 0.96439000
vt 0.39521200 0.96305800
vt 0.39521200 0.96305800
vt 0.39521200 0.96305800
vt 0.39521200 0.96305800
vt 0.39878700 0.96514300
vt 0.70289200 0.96514900
vt 0.70289200 0.96514900
vt 0.70449400 0.96039000
vt 0.70449400 0.96039000
vt 0.70449400 0.96039000
vt 0.70449400 0.96039000
vt 0.70449400 0.96039000
vt 0.70449400 0.96039000
vt 0.70381500 0.95810200
vt 0.70381500 0.95810200
vt 0.70381500 0.95810200
vt 0.70381500 0.95810200
vt 0.70381500 0.95810200
vt 0.70381500 0.95810200
vt 0.70381500 0.95810200
vt 0.70381500 0.95810200
vt 0.70328400 0.95590600
vt 0.70328400 0.95590600
vt 0.70328400 0.95590600
vt 0.70328400 0.95590600
vt 0.70328400 0.95590600
vt 0.40072600 0.96195600
vt 0.70259600 0.96173100
vt 0.70259600 0.96173100
vt 0.70259600 0.96173100
vt 0.70259600 0.96173100
vt 0.70259600 0.96173100
vt 0.70259600 0.96173100
vt 0.40072600 0.95541400
vt 0.70153200 0.95531600
vt 0.70153200 0.95531600
vt 0.70153200 0.95531600
vt 0.70153200 0.95531600
vt 0.70153200 0.95531600
vt 0.40000500 0.95913200
vt 0.70075800 0.95916500
vt 0.40000500 0.95913200
vt 0.40000500 0.95913200
vt 0.40000500 0.95913200
vt 0.70075800 0.95916500
vt 0.70075800 0.95916500
vt 0.70075800 0.95916500
vt 0.39848000 0.96273300
vt 0.39848000 0.96273300
vt 0.39848000 0.96273300
vt 0.70078800 0.96295500
vt 0.39848000 0.96273300
vt 0.39848000 0.96273300
vt 0.39872200 0.95624000
vt 0.39872200 0.95624000
vt 0.39872200 0.95624000
vt 0.69946800 0.95657200
vt 0.39872200 0.95624000
vt 0.39872200 0.95624000
vt 0.39872200 0.95624000
vt 0.39872200 0.95624000
vt 0.39689700 0.96179200
vt 0.39689700 0.96179200
vt 0.39689700 0.96179200
vt 0.39689700 0.96179200
vt 0.39689700 0.96179200
vt 0.39689700 0.96179200
vt 0.39682800 0.95953300
vt 0.39682800 0.95953300
vt 0.39682800 0.95953300
vt 0.39682800 0.95953300
vt 0.39682800 0.95953300
vt 0.39682800 0.95953300
vt 0.39682800 0.95953300
vt 0.39661400 0.95712600
vt 0.39661400 0.95712600
vt 0.39661400 0.95712600
vt 0.39661400 0.95712600
vt 0.39661400 0.95712600
vt 0.39965300 0.95278900
vt 0.39965300 0.95278900
vt 0.70129300 0.95288200
vt 0.70626500 0.96060900
vt 0.70626500 0.96060900
f 53/53/53 48/48/48 39/39/39
f 23/23/23 52/52/52 22/22/22
f 41/41/41 32/32/32 35/35/35
f 61/61/61 15/15/15 134/134/134
f 66/66/66 12/12/12 13/13/13
f 70/70/70 9/9/9 11/11/11
f 65/65/65 7/7/7 10/10/10
f 68/68/68 14/14/14 60/60/60
f 63/63/63 16/16/16 45/45/45
f 62/62/62 135/135/135 17/17/17
f 77/77/77 4/4/4 6/6/6
f 73/73/73 8/8/8 69/69/69
f 83/83/83 64/64/64 47/47/47
f 84/84/84 46/46/46 37/37/37
f 80/80/80 71/71/71 59/59/59
f 89/89/89 2/2/2 3/3/3
f 90/90/90 133/133/133 1/1/1
f 88/88/88 5/5/5 75/75/75
f 96/96/96 74/74/74 72/72/72
f 97/97/97 67/67/67 79/79/79
f 58/58/58 82/82/82 38/38/38
f 102/102/102 81/81/81 57/57/57
f 87/87/87 76/76/76 98/98/98
f 93/93/93 78/78/78 101/101/101
f 99/99/99 56/56/56 43/43/43
f 100/100/100 44/44/44 49/49/49
f 108/108/108 86/86/86 92/92/92
f 107/107/107 131/131/131 85/85/85
f 112/112/112 19/19/19 20/20/20
f 111/111/111 34/34/34 18/18/18
f 105/105/105 21/21/21 132/132/132
f 116/116/116 95/95/95 104/104/104
f 124/124/124 106/106/106 91/91/91
f 122/122/122 94/94/94 114/114/114
f 115/115/115 54/54/54 24/24/24
f 113/113/113 50/50/50 55/55/55
f 117/117/117 103/103/103 51/51/51
f 127/127/127 109/109/109 120/120/120
f 130/130/130 33/33/33 110/110/110
f 126/126/126 40/40/40 36/36/36
f 119/119/119 25/25/25 28/28/28
f 125/125/125 118/118/118 26/26/26
f 121/121/121 27/27/27 29/29/29
f 129/129/129 123/123/123 31/31/31
f 128/128/128 30/30/30 42/42/42

