mtllib material.mtl
usemtl material_0
v 0.13969800 0.05266900 0.03135900
v 0.13969800 0.05258800 -0.02502500
v 0.13969800 -0.05350300 -0.02490800
v 0.13969800 -0.05258800 0.03137500
v 0.13969800 0.05265400 0.00833100
v 0.13969800 0.05256500 -0.00176700
v 0.13969800 -0.04787500 0.00301000
v 0.13969800 -0.04901600 0.00011900
v 0.12156400 -0.01987600 0.12049100
v 0.12156400 -0.01987600 0.12049100
v 0.12156400 -0.01987600 0.12049100
v 0.12156400 -0.01987600 0.09861500
v 0.12156400 -0.01987600 0.09861500
v 0.12156400 -0.01987600 0.09861500
v 0.12156400 -0.02176200 0.11860500
v 0.12156400 -0.02176200 0.11860500
v 0.12156400 -0.02176200 0.11860500
v 0.12156400 -0.02382100 0.11864500
v 0.12156400 -0.02382100 0.11864500
v 0.12156400 -0.02382100 0.11864500
v 0.12156400 -0.02382100 0.11864500
v 0.12156400 -0.04683100 0.09861500
v 0.12156400 -0.04683100 0.09861500
v 0.12156400 -0.04683100 0.09861500
v 0.12156400 -0.04494500 0.10050200
v 0.12156400 -0.04494500 0.10050200
v 0.12156400 -0.04494500 0.10050200
v 0.12156400 -0.04494500 0.10050200
v 0.12156400 -0.04505700 0.10283000
v 0.12156400 -0.04505700 0.10283000
v 0.12156400 -0.04505700 0.10283000
v 0.12156400 -0.04505700 0.10283000
v 0.12156400 -0.02479300 0.11942000
v 0.12156400 -0.02479300 0.11942000
v 0.12156400 -0.02479300 0.11942000
v 0.12156400 -0.02479300 0.11942000
v 0.12156400 -0.04602900 0.10360500
v 0.12156400 -0.04602900 0.10360500
v 0.12156400 -0.04602900 0.10360500
v 0.12156400 -0.04602900 0.10360500
v 0.12156400 -0.04997500 0.12363500
v 0.12156400 -0.04997500 0.12363500
v 0.12156400 -0.04997500 0.12363500
v 0.12156400 -0.02490500 0.12174800
v 0.12156400 -0.02490500 0.12174800
v 0.12156400 -0.02490500 0.12174800
v 0.12156400 -0.02490500 0.12174800
v 0.12156400 -0.02301900 0.12363500
v 0.12156400 -0.02301900 0.12363500
v 0.12156400 -0.02301900 0.12363500
v 0.12156400 -0.04808800 0.10364500
v 0.12156400 -0.04808800 0.10364500
v 0.12156400 -0.04808800 0.10364500
v 0.12156400 -0.04997500 0.10175900
v 0.12156400 -0.04997500 0.10175900
v 0.12156400 -0.04997500 0.10175900
v 0.12410400 -0.02403600 0.11870300
v 0.12410400 -0.02403600 0.11870300
v 0.12410400 -0.02403600 0.11870300
v 0.12410400 -0.02403600 0.11870300
v 0.12410400 -0.02485800 0.11964400
v 0.12410400 -0.02485800 0.11964400
v 0.12410400 -0.02485800 0.11964400
v 0.12410400 -0.02485800 0.11964400
v 0.12410400 -0.02176200 0.11860500
v 0.12410400 -0.02176200 0.11860500
v 0.12410400 -0.02176200 0.11860500
v 0.12410400 -0.02176200 0.11860500
v 0.12410400 -0.01987600 0.12049100
v 0.12410400 -0.01987600 0.12049100
v 0.12410400 -0.01987600 0.12049100
v 0.12410400 -0.01987600 0.12363500
v 0.12410400 -0.01987600 0.12363500
v 0.12410400 -0.01987600 0.12363500
v 0.12410400 -0.02111800 0.12217900
v 0.12410400 -0.02111800 0.12217900
v 0.12410400 -0.02111800 0.12217900
v 0.12410400 -0.02111800 0.12217900
v 0.12410400 -0.02301900 0.12363500
v 0.12410400 -0.02301900 0.12363500
v 0.12410400 -0.02301900 0.12363500
v 0.12410400 -0.02283800 0.12067200
v 0.12410400 -0.02283800 0.12067200
v 0.12410400 -0.02283800 0.12067200
v 0.12410400 -0.02203500 0.12032800
v 0.12410400 -0.02203500 0.12032800
v 0.12410400 -0.02203500 0.12032800
v 0.12410400 -0.02203500 0.12032800
v 0.12410400 -0.02319200 0.12158300
v 0.12410400 -0.02319200 0.12158300
v 0.12410400 -0.02319200 0.12158300
v 0.12410400 -0.02319200 0.12158300
v 0.12410400 -0.02490500 0.12174800
v 0.12410400 -0.02490500 0.12174800
v 0.12410400 -0.02490500 0.12174800
v 0.12410400 -0.02098100 0.12092300
v 0.12410400 -0.02098100 0.12092300
v 0.12410400 -0.02098100 0.12092300
v 0.12410400 -0.02098100 0.12092300
v 0.12410400 -0.02098100 0.12092300
v 0.12410400 -0.02234500 0.12263500
v 0.12410400 -0.02234500 0.12263500
v 0.12410400 -0.02234500 0.12263500
v 0.12410400 -0.02234500 0.12263500
v 0.12537400 -0.01987600 0.12363500
v 0.12537400 -0.01987600 0.12363500
v 0.12537400 -0.01987600 0.12363500
v 0.12537400 -0.02490500 0.12363500
v 0.12537400 -0.02490500 0.12363500
v 0.12537400 -0.02490500 0.12363500
v 0.12537400 -0.02490500 0.12363500
v 0.12766000 -0.04997500 0.12363500
v 0.12766000 -0.04997500 0.12363500
v 0.12766000 -0.04997500 0.12363500
v 0.12766000 -0.02490500 0.12363500
v 0.12766000 -0.02490500 0.12363500
v 0.12766000 -0.02490500 0.12363500
v 0.12329700 -0.01987600 0.11100200
v 0.12329700 -0.01987600 0.11100200
v 0.12329700 -0.01987600 0.11100200
v 0.12329700 -0.01987600 0.11100200
v 0.12383100 -0.01987600 0.11010700
v 0.12383100 -0.01987600 0.11010700
v 0.12383100 -0.01987600 0.11010700
v 0.12483500 -0.01987600 0.10982200
v 0.12483500 -0.01987600 0.10982200
v 0.12483500 -0.01987600 0.10982200
v 0.12483500 -0.01987600 0.10982200
v 0.12766000 -0.01987600 0.09861500
v 0.12766000 -0.01987600 0.09861500
v 0.12766000 -0.01987600 0.09861500
v 0.12593200 -0.01987600 0.11082800
v 0.12593200 -0.01987600 0.11082800
v 0.12593200 -0.01987600 0.11082800
v 0.12593200 -0.01987600 0.11082800
v 0.12398400 -0.01987600 0.11232200
v 0.12398400 -0.01987600 0.11232200
v 0.12398400 -0.01987600 0.11232200
v 0.12398400 -0.01987600 0.11232200
v 0.12537400 -0.01987600 0.11860500
v 0.12537400 -0.01987600 0.11860500
v 0.12537400 -0.01987600 0.11860500
v 0.12541200 -0.01987600 0.11216600
v 0.12541200 -0.01987600 0.11216600
v 0.12541200 -0.01987600 0.11216600
v 0.12541200 -0.01987600 0.11216600
v 0.12541200 -0.01987600 0.11216600
v 0.12766000 -0.01987600 0.11860500
v 0.12766000 -0.01987600 0.11860500
v 0.12766000 -0.01987600 0.11860500
v 0.12766000 -0.01987600 0.11860500
v 0.12410400 -0.04683100 0.09861500
v 0.12410400 -0.04683100 0.09861500
v 0.12410400 -0.04683100 0.09861500
v 0.12537400 -0.04997500 0.09861500
v 0.12537400 -0.04997500 0.09861500
v 0.12537400 -0.04997500 0.09861500
v 0.12410400 -0.04997500 0.09861500
v 0.12410400 -0.04997500 0.09861500
v 0.12410400 -0.04997500 0.09861500
v 0.12537400 -0.04494500 0.09861500
v 0.12537400 -0.04494500 0.09861500
v 0.12537400 -0.04494500 0.09861500
v 0.12537400 -0.04494500 0.09861500
v 0.12766000 -0.04494500 0.09861500
v 0.12766000 -0.04494500 0.09861500
v 0.12766000 -0.04494500 0.09861500
v 0.12410400 -0.04997500 0.10175900
v 0.12410400 -0.04997500 0.10175900
v 0.12410400 -0.04997500 0.10175900
v 0.12410400 -0.04891300 0.10048100
v 0.12410400 -0.04891300 0.10048100
v 0.12410400 -0.04891300 0.10048100
v 0.12410400 -0.04826400 0.09969200
v 0.12410400 -0.04826400 0.09969200
v 0.12410400 -0.04826400 0.09969200
v 0.12410400 -0.04826400 0.09969200
v 0.12410400 -0.04755400 0.10193600
v 0.12410400 -0.04755400 0.10193600
v 0.12410400 -0.04755400 0.10193600
v 0.12410400 -0.04755400 0.10193600
v 0.12410400 -0.04499200 0.10260700
v 0.12410400 -0.04499200 0.10260700
v 0.12410400 -0.04499200 0.10260700
v 0.12410400 -0.04499200 0.10260700
v 0.12410400 -0.04581400 0.10354700
v 0.12410400 -0.04581400 0.10354700
v 0.12410400 -0.04581400 0.10354700
v 0.12410400 -0.04581400 0.10354700
v 0.12410400 -0.04665400 0.10092700
v 0.12410400 -0.04665400 0.10092700
v 0.12410400 -0.04665400 0.10092700
v 0.12410400 -0.04665400 0.10092700
v 0.12410400 -0.04665400 0.10092700
v 0.12410400 -0.04808800 0.10364500
v 0.12410400 -0.04808800 0.10364500
v 0.12410400 -0.04808800 0.10364500
v 0.12410400 -0.04808800 0.10364500
v 0.12410400 -0.04494500 0.10050200
v 0.12410400 -0.04494500 0.10050200
v 0.12410400 -0.04494500 0.10050200
v 0.12410400 -0.04711200 0.09985800
v 0.12410400 -0.04711200 0.09985800
v 0.12410400 -0.04711200 0.09985800
v 0.12410400 -0.04711200 0.09985800
v 0.12410400 -0.04876400 0.10144700
v 0.12410400 -0.04876400 0.10144700
v 0.12410400 -0.04876400 0.10144700
v 0.12410400 -0.04876400 0.10144700
v 0.12410400 -0.04876400 0.10144700
v 0.12537400 -0.04997500 0.10364500
v 0.12537400 -0.04997500 0.10364500
v 0.12537400 -0.04997500 0.10364500
v 0.12766000 -0.04997500 0.10364500
v 0.12766000 -0.04997500 0.10364500
v 0.12766000 -0.04997500 0.10364500
v 0.12766000 -0.04997500 0.10364500
v 0.12766000 -0.02897600 0.10560500
v 0.12766000 -0.02897600 0.10560500
v 0.12766000 -0.02897600 0.10560500
v 0.12766000 -0.02897600 0.10560500
v 0.12766000 -0.03122000 0.10393100
v 0.12766000 -0.03122000 0.10393100
v 0.12766000 -0.03122000 0.10393100
v 0.12766000 -0.03122000 0.10393100
v 0.12766000 -0.02710600 0.10881400
v 0.12766000 -0.02710600 0.10881400
v 0.12766000 -0.02710600 0.10881400
v 0.12766000 -0.02710600 0.10881400
v 0.12766000 -0.03380700 0.10309400
v 0.12766000 -0.03380700 0.10309400
v 0.12766000 -0.03380700 0.10309400
v 0.12766000 -0.03380700 0.10309400
v 0.12766000 -0.02698400 0.11293800
v 0.12766000 -0.02698400 0.11293800
v 0.12766000 -0.02698400 0.11293800
v 0.12766000 -0.02698400 0.11293800
v 0.12766000 -0.02389700 0.11866700
v 0.12766000 -0.02389700 0.11866700
v 0.12766000 -0.02389700 0.11866700
v 0.12766000 -0.02888300 0.11660000
v 0.12766000 -0.02888300 0.11660000
v 0.12766000 -0.02888300 0.11660000
v 0.12766000 -0.02888300 0.11660000
v 0.12766000 -0.02888300 0.11660000
v 0.12766000 -0.03712000 0.10329800
v 0.12766000 -0.03712000 0.10329800
v 0.12766000 -0.03712000 0.10329800
v 0.12766000 -0.03712000 0.10329800
v 0.12766000 -0.03712000 0.10329800
v 0.12766000 -0.03979900 0.10466600
v 0.12766000 -0.03979900 0.10466600
v 0.12766000 -0.03979900 0.10466600
v 0.12766000 -0.03979900 0.10466600
v 0.12766000 -0.02482800 0.11950600
v 0.12766000 -0.02482800 0.11950600
v 0.12766000 -0.02482800 0.11950600
v 0.12766000 -0.02482800 0.11950600
v 0.12766000 -0.02482800 0.11950600
v 0.12766000 -0.04502200 0.10274400
v 0.12766000 -0.04502200 0.10274400
v 0.12766000 -0.04502200 0.10274400
v 0.12766000 -0.04502200 0.10274400
v 0.12766000 -0.04502200 0.10274400
v 0.12766000 -0.04197900 0.10705200
v 0.12766000 -0.04197900 0.10705200
v 0.12766000 -0.04197900 0.10705200
v 0.12766000 -0.04197900 0.10705200
v 0.12766000 -0.03161100 0.11850700
v 0.12766000 -0.03161100 0.11850700
v 0.12766000 -0.03161100 0.11850700
v 0.12766000 -0.03161100 0.11850700
v 0.12766000 -0.04595300 0.10358300
v 0.12766000 -0.04595300 0.10358300
v 0.12766000 -0.04595300 0.10358300
v 0.12766000 -0.04304500 0.11072700
v 0.12766000 -0.04304500 0.11072700
v 0.12766000 -0.04304500 0.11072700
v 0.12766000 -0.04304500 0.11072700
v 0.12766000 -0.03401800 0.11917100
v 0.12766000 -0.03401800 0.11917100
v 0.12766000 -0.03401800 0.11917100
v 0.12766000 -0.03401800 0.11917100
v 0.12766000 -0.03742000 0.11888800
v 0.12766000 -0.03742000 0.11888800
v 0.12766000 -0.03742000 0.11888800
v 0.12766000 -0.03742000 0.11888800
v 0.12766000 -0.04089600 0.11666500
v 0.12766000 -0.04089600 0.11666500
v 0.12766000 -0.04089600 0.11666500
v 0.12766000 -0.04089600 0.11666500
v 0.12766000 -0.04256800 0.11379900
v 0.12766000 -0.04256800 0.11379900
v 0.12766000 -0.04256800 0.11379900
v 0.12766000 -0.04256800 0.11379900
v 0.12537400 -0.02485000 0.11965700
v 0.12537400 -0.02485000 0.11965700
v 0.12537400 -0.02485000 0.11965700
v 0.12537400 -0.02173700 0.12036700
v 0.12537400 -0.02173700 0.12036700
v 0.12537400 -0.02173700 0.12036700
v 0.12537400 -0.02173700 0.12036700
v 0.12537400 -0.02105100 0.12090800
v 0.12537400 -0.02105100 0.12090800
v 0.12537400 -0.02105100 0.12090800
v 0.12537400 -0.02304000 0.12211100
v 0.12537400 -0.02304000 0.12211100
v 0.12537400 -0.02304000 0.12211100
v 0.12537400 -0.02304000 0.12211100
v 0.12537400 -0.02188400 0.12262100
v 0.12537400 -0.02188400 0.12262100
v 0.12537400 -0.02188400 0.12262100
v 0.12537400 -0.02188400 0.12262100
v 0.12537400 -0.02290900 0.12066900
v 0.12537400 -0.02290900 0.12066900
v 0.12537400 -0.02290900 0.12066900
v 0.12537400 -0.02290900 0.12066900
v 0.12537400 -0.02290900 0.12066900
v 0.12537400 -0.02095200 0.12192400
v 0.12537400 -0.02095200 0.12192400
v 0.12537400 -0.02095200 0.12192400
v 0.12537400 -0.02095200 0.12192400
v 0.12537400 -0.02405900 0.11869500
v 0.12537400 -0.02405900 0.11869500
v 0.12537400 -0.02405900 0.11869500
v 0.12537400 -0.02405900 0.11869500
v 0.12537400 -0.02405900 0.11869500
v 0.12537400 -0.04500000 0.10259400
v 0.12537400 -0.04500000 0.10259400
v 0.12537400 -0.04500000 0.10259400
v 0.12537400 -0.04811300 0.10188300
v 0.12537400 -0.04811300 0.10188300
v 0.12537400 -0.04811300 0.10188300
v 0.12537400 -0.04811300 0.10188300
v 0.12537400 -0.04879900 0.10134300
v 0.12537400 -0.04879900 0.10134300
v 0.12537400 -0.04879900 0.10134300
v 0.12537400 -0.04700400 0.09996300
v 0.12537400 -0.04700400 0.09996300
v 0.12537400 -0.04700400 0.09996300
v 0.12537400 -0.04700400 0.09996300
v 0.12537400 -0.04796600 0.09962900
v 0.12537400 -0.04796600 0.09962900
v 0.12537400 -0.04796600 0.09962900
v 0.12537400 -0.04796600 0.09962900
v 0.12537400 -0.04668000 0.10077500
v 0.12537400 -0.04668000 0.10077500
v 0.12537400 -0.04668000 0.10077500
v 0.12537400 -0.04707300 0.10166900
v 0.12537400 -0.04707300 0.10166900
v 0.12537400 -0.04707300 0.10166900
v 0.12537400 -0.04707300 0.10166900
v 0.12537400 -0.04889800 0.10032600
v 0.12537400 -0.04889800 0.10032600
v 0.12537400 -0.04889800 0.10032600
v 0.12537400 -0.04889800 0.10032600
v 0.12537400 -0.04889800 0.10032600
v 0.12537400 -0.04579100 0.10355500
v 0.12537400 -0.04579100 0.10355500
v 0.12537400 -0.04579100 0.10355500
v 0.12537400 -0.04579100 0.10355500
v 0.12537400 -0.04579100 0.10355500
v 0.12639000 -0.03036000 0.11782000
v 0.12639000 -0.03036000 0.11782000
v 0.12639000 -0.03036000 0.11782000
v 0.12639000 -0.03036000 0.11782000
v 0.12639000 -0.03036000 0.11782000
v 0.12639000 -0.02846600 0.11599900
v 0.12639000 -0.02846600 0.11599900
v 0.12639000 -0.02846600 0.11599900
v 0.12639000 -0.02846600 0.11599900
v 0.12639000 -0.03673100 0.11903700
v 0.12639000 -0.03673100 0.11903700
v 0.12639000 -0.03673100 0.11903700
v 0.12639000 -0.03673100 0.11903700
v 0.12639000 -0.03673100 0.11903700
v 0.12639000 -0.04280100 0.11313800
v 0.12639000 -0.04280100 0.11313800
v 0.12639000 -0.04280100 0.11313800
v 0.12639000 -0.04280100 0.11313800
v 0.12639000 -0.04280100 0.11313800
v 0.12639000 -0.04280100 0.11313800
v 0.12639000 -0.04280100 0.11313800
v 0.12639000 -0.02717000 0.11351700
v 0.12639000 -0.02717000 0.11351700
v 0.12639000 -0.02717000 0.11351700
v 0.12639000 -0.02717000 0.11351700
v 0.12639000 -0.02717000 0.11351700
v 0.12639000 -0.03332100 0.11909500
v 0.12639000 -0.03332100 0.11909500
v 0.12639000 -0.03332100 0.11909500
v 0.12639000 -0.03332100 0.11909500
v 0.12639000 -0.03332100 0.11909500
v 0.12639000 -0.03332100 0.11909500
v 0.12639000 -0.02684600 0.11042800
v 0.12639000 -0.02684600 0.11042800
v 0.12639000 -0.02684600 0.11042800
v 0.12639000 -0.02684600 0.11042800
v 0.12639000 -0.02684600 0.11042800
v 0.12639000 -0.02684600 0.11042800
v 0.12639000 -0.04144000 0.11593300
v 0.12639000 -0.04144000 0.11593300
v 0.12639000 -0.04144000 0.11593300
v 0.12639000 -0.04144000 0.11593300
v 0.12639000 -0.04144000 0.11593300
v 0.12639000 -0.03949000 0.11782000
v 0.12639000 -0.03949000 0.11782000
v 0.12639000 -0.03949000 0.11782000
v 0.12639000 -0.03949000 0.11782000
v 0.12639000 -0.03949000 0.11782000
v 0.12639000 -0.03949000 0.11782000
v 0.12639000 -0.03012200 0.10461800
v 0.12639000 -0.03012200 0.10461800
v 0.12639000 -0.03012200 0.10461800
v 0.12639000 -0.03012200 0.10461800
v 0.12639000 -0.03012200 0.10461800
v 0.12639000 -0.03966100 0.10456400
v 0.12639000 -0.03966100 0.10456400
v 0.12639000 -0.03966100 0.10456400
v 0.12639000 -0.03966100 0.10456400
v 0.12639000 -0.03966100 0.10456400
v 0.12639000 -0.03217200 0.10351600
v 0.12639000 -0.03217200 0.10351600
v 0.12639000 -0.03217200 0.10351600
v 0.12639000 -0.03217200 0.10351600
v 0.12639000 -0.03217200 0.10351600
v 0.12639000 -0.03217200 0.10351600
v 0.12639000 -0.04181500 0.10679600
v 0.12639000 -0.04181500 0.10679600
v 0.12639000 -0.04181500 0.10679600
v 0.12639000 -0.04181500 0.10679600
v 0.12639000 -0.04181500 0.10679600
v 0.12639000 -0.04181500 0.10679600
v 0.12639000 -0.03453700 0.10304200
v 0.12639000 -0.03453700 0.10304200
v 0.12639000 -0.03453700 0.10304200
v 0.12639000 -0.03453700 0.10304200
v 0.12639000 -0.03453700 0.10304200
v 0.12639000 -0.02791200 0.10696500
v 0.12639000 -0.02791200 0.10696500
v 0.12639000 -0.02791200 0.10696500
v 0.12639000 -0.02791200 0.10696500
v 0.12639000 -0.02791200 0.10696500
v 0.12639000 -0.02791200 0.10696500
v 0.12639000 -0.04293800 0.10991700
v 0.12639000 -0.04293800 0.10991700
v 0.12639000 -0.04293800 0.10991700
v 0.12639000 -0.04293800 0.10991700
v 0.12639000 -0.04293800 0.10991700
v 0.12639000 -0.03722800 0.10335000
v 0.12639000 -0.03722800 0.10335000
v 0.12639000 -0.03722800 0.10335000
v 0.12639000 -0.03722800 0.10335000
v 0.12639000 -0.03722800 0.10335000
v 0.12639200 -0.03025200 0.10703000
v 0.12639200 -0.03025200 0.10703000
v 0.12639200 -0.03025200 0.10703000
v 0.12639200 -0.03025200 0.10703000
v 0.12639200 -0.03025200 0.10703000
v 0.12639200 -0.03025200 0.10703000
v 0.12639200 -0.03968500 0.11509600
v 0.12639200 -0.03968500 0.11509600
v 0.12639200 -0.03968500 0.11509600
v 0.12639200 -0.03968500 0.11509600
v 0.12639200 -0.03968500 0.11509600
v 0.12639200 -0.03968500 0.11509600
v 0.12639400 -0.03621700 0.11725300
v 0.12639400 -0.03621700 0.11725300
v 0.12639400 -0.03621700 0.11725300
v 0.12639400 -0.03621700 0.11725300
v 0.12639400 -0.03621700 0.11725300
v 0.12639400 -0.03621700 0.11725300
v 0.12639400 -0.03621700 0.11725300
v 0.12639400 -0.03621700 0.11725300
v 0.12639100 -0.04091000 0.11245000
v 0.12639100 -0.04091000 0.11245000
v 0.12639100 -0.04091000 0.11245000
v 0.12639100 -0.04091000 0.11245000
v 0.12639100 -0.04091000 0.11245000
v 0.12639300 -0.04080300 0.10909800
v 0.12639300 -0.04080300 0.10909800
v 0.12639300 -0.04080300 0.10909800
v 0.12639300 -0.04080300 0.10909800
v 0.12639300 -0.04080300 0.10909800
v 0.12639300 -0.04080300 0.10909800
v 0.12639300 -0.04080300 0.10909800
v 0.12639200 -0.03182100 0.11648600
v 0.12639200 -0.03182100 0.11648600
v 0.12639200 -0.03182100 0.11648600
v 0.12639200 -0.03182100 0.11648600
v 0.12639200 -0.03182100 0.11648600
v 0.12639200 -0.03182100 0.11648600
v 0.12639200 -0.03802900 0.10576400
v 0.12639200 -0.03802900 0.10576400
v 0.12639200 -0.03802900 0.10576400
v 0.12639200 -0.03802900 0.10576400
v 0.12639200 -0.03802900 0.10576400
v 0.12639200 -0.03802900 0.10576400
v 0.12639200 -0.02914000 0.11337500
v 0.12639200 -0.02914000 0.11337500
v 0.12639200 -0.02914000 0.11337500
v 0.12639200 -0.02914000 0.11337500
v 0.12639200 -0.02914000 0.11337500
v 0.12639200 -0.02914000 0.11337500
v 0.12639200 -0.02914000 0.11337500
v 0.12639200 -0.03407700 0.10495200
v 0.12639200 -0.03407700 0.10495200
v 0.12639200 -0.03407700 0.10495200
v 0.12639200 -0.03407700 0.10495200
v 0.12639200 -0.03407700 0.10495200
v 0.12639200 -0.03407700 0.10495200
v 0.12639200 -0.03407700 0.10495200
v 0.12639200 -0.03407700 0.10495200
v 0.12639400 -0.02891000 0.10980700
v 0.12639400 -0.02891000 0.10980700
v 0.12639400 -0.02891000 0.10980700
v 0.12639400 -0.02891000 0.10980700
v 0.12639400 -0.02891000 0.10980700
v 0.12639400 -0.02891000 0.10980700
v 0.12702100 -0.03771400 0.10751300
v 0.12702100 -0.03771400 0.10751300
v 0.12702100 -0.03771400 0.10751300
v 0.12702100 -0.03771400 0.10751300
v 0.12702100 -0.03771400 0.10751300
v 0.12702100 -0.03771400 0.10751300
v 0.12710000 -0.03486200 0.10691600
v 0.12710000 -0.03486200 0.10691600
v 0.12710000 -0.03486200 0.10691600
v 0.12710000 -0.03486200 0.10691600
v 0.12710000 -0.03486200 0.10691600
v 0.12711700 -0.03080400 0.11074100
v 0.12711700 -0.03080400 0.11074100
v 0.12711700 -0.03080400 0.11074100
v 0.12711700 -0.03080400 0.11074100
v 0.12711700 -0.03080400 0.11074100
v 0.12711700 -0.03080400 0.11074100
v 0.12700500 -0.03189400 0.10769500
v 0.12700500 -0.03189400 0.10769500
v 0.12700500 -0.03189400 0.10769500
v 0.12700500 -0.03189400 0.10769500
v 0.12700500 -0.03189400 0.10769500
v 0.12700500 -0.03189400 0.10769500
v 0.12748700 -0.03614900 0.10903200
v 0.12748700 -0.03614900 0.10903200
v 0.12748700 -0.03614900 0.10903200
v 0.12748700 -0.03614900 0.10903200
v 0.12748700 -0.03614900 0.10903200
v 0.12728000 -0.03849500 0.11067100
v 0.12728000 -0.03849500 0.11067100
v 0.12728000 -0.03849500 0.11067100
v 0.12728000 -0.03849500 0.11067100
v 0.12728000 -0.03849500 0.11067100
v 0.12728000 -0.03849500 0.11067100
v 0.12728000 -0.03849500 0.11067100
v 0.12768200 -0.03493100 0.11103300
v 0.12768200 -0.03493100 0.11103300
v 0.12768200 -0.03493100 0.11103300
v 0.12768200 -0.03493100 0.11103300
v 0.12768200 -0.03493100 0.11103300
v 0.12753900 -0.03338100 0.10955200
v 0.12753900 -0.03338100 0.10955200
v 0.12753900 -0.03338100 0.10955200
v 0.12753900 -0.03338100 0.10955200
v 0.12753900 -0.03338100 0.10955200
v 0.12753900 -0.03338100 0.10955200
v 0.12697000 -0.03895100 0.11352300
v 0.12697000 -0.03895100 0.11352300
v 0.12697000 -0.03895100 0.11352300
v 0.12697000 -0.03895100 0.11352300
v 0.12697000 -0.03895100 0.11352300
v 0.12697000 -0.03895100 0.11352300
v 0.12706800 -0.03385000 0.11538200
v 0.12706800 -0.03385000 0.11538200
v 0.12706800 -0.03385000 0.11538200
v 0.12706800 -0.03385000 0.11538200
v 0.12706800 -0.03385000 0.11538200
v 0.12706800 -0.03385000 0.11538200
v 0.12750300 -0.03315100 0.11281400
v 0.12750300 -0.03315100 0.11281400
v 0.12750300 -0.03315100 0.11281400
v 0.12750300 -0.03315100 0.11281400
v 0.12750300 -0.03315100 0.11281400
v 0.12750300 -0.03315100 0.11281400
v 0.12760700 -0.03624100 0.11225400
v 0.12760700 -0.03624100 0.11225400
v 0.12760700 -0.03624100 0.11225400
v 0.12760700 -0.03624100 0.11225400
v 0.12760700 -0.03624100 0.11225400
v 0.12760700 -0.03624100 0.11225400
v 0.12697000 -0.03089900 0.11352300
v 0.12697000 -0.03089900 0.11352300
v 0.12697000 -0.03089900 0.11352300
v 0.12697000 -0.03089900 0.11352300
v 0.12697000 -0.03089900 0.11352300
v 0.12725900 -0.03635500 0.11441800
v 0.12725900 -0.03635500 0.11441800
v 0.12725900 -0.03635500 0.11441800
v 0.12725900 -0.03635500 0.11441800
v 0.12444100 -0.01479600 0.11242700
v 0.12444100 -0.01479600 0.11242700
v 0.12444100 -0.01479600 0.11242700
v 0.12444100 -0.01479600 0.11242700
v 0.12539400 -0.01479600 0.11214400
v 0.12539400 -0.01479600 0.11214400
v 0.12539400 -0.01479600 0.11214400
v 0.12592800 -0.01479600 0.11124800
v 0.12592800 -0.01479600 0.11124800
v 0.12592800 -0.01479600 0.11124800
v 0.12592800 -0.01479600 0.11124800
v 0.12541200 -0.01479600 0.11008400
v 0.12541200 -0.01479600 0.11008400
v 0.12541200 -0.01479600 0.11008400
v 0.12541200 -0.01479600 0.11008400
v 0.12398400 -0.01479600 0.10992800
v 0.12398400 -0.01479600 0.10992800
v 0.12398400 -0.01479600 0.10992800
v 0.12398400 -0.01479600 0.10992800
v 0.12398400 -0.01479600 0.10992800
v 0.12329500 -0.01479600 0.11147800
v 0.12329500 -0.01479600 0.11147800
v 0.12329500 -0.01479600 0.11147800
v 0.12329500 -0.01479600 0.11147800
vn 1.00000000 -0.00000000 -0.00000000
vn 1.00000000 -0.00000000 -0.00000000
vn 1.00000000 -0.00000000 -0.00000000
vn 1.00000000 -0.00000000 -0.00000000
vn 1.00000000 -0.00000000 -0.00000000
vn 1.00000000 -0.00000000 -0.00000000
vn 1.00000000 -0.00000000 -0.00000000
vn 1.00000000 -0.00000000 -0.00000000
vn -0.00000000 1.00000000 -0.00000000
vn -0.00000000 -0.70710000 0.70710000
vn -1.00000000 -0.00000000 -0.00000000
vn -1.00000000 -0.00000000 -0.00000000
vn -0.00000000 1.00000000 -0.00000000
vn -0.00000000 -0.00000000 -1.00000000
vn -0.00000000 0.01950000 0.99980000
vn -0.00000000 -0.70710000 0.70710000
vn -1.00000000 -0.00000000 -0.00000000
vn -0.01900000 0.04290000 0.99890000
vn -0.00000000 0.01950000 0.99980000
vn 0.03500000 0.62340000 0.78120000
vn -1.00000000 -0.00000000 -0.00000000
vn -0.00000000 -0.70710000 0.70710000
vn -1.00000000 -0.00000000 -0.00000000
vn -0.00000000 -0.00000000 -1.00000000
vn -0.00000000 -0.99980000 -0.02210000
vn -0.00000000 -0.70710000 0.70710000
vn -1.00000000 -0.00000000 -0.00000000
vn 0.02150000 -0.99860000 -0.04810000
vn 0.03500000 -0.62340000 -0.78120000
vn -1.00000000 -0.00000000 -0.00000000
vn 0.02150000 -0.99860000 -0.04810000
vn -0.03840000 -0.75240000 -0.65760000
vn -1.00000000 -0.00000000 -0.00000000
vn 0.03500000 0.62340000 0.78120000
vn 0.02160000 0.99860000 0.04810000
vn -0.03840000 0.75240000 0.65760000
vn 0.03500000 -0.62340000 -0.78120000
vn -0.01900000 -0.04290000 -0.99890000
vn -1.00000000 -0.00000000 -0.00000000
vn -0.00000000 -0.01950000 -0.99980000
vn -0.00000000 -0.00000000 1.00000000
vn -0.00000000 -1.00000000 -0.00000000
vn -1.00000000 -0.00000000 -0.00000000
vn 0.02160000 0.99860000 0.04810000
vn -0.00000000 0.99980000 0.02210000
vn -1.00000000 -0.00000000 -0.00000000
vn -0.00000000 0.70710000 -0.70710000
vn -0.00000000 0.70710000 -0.70710000
vn -1.00000000 -0.00000000 -0.00000000
vn -0.00000000 -0.00000000 1.00000000
vn -0.00000000 0.70710000 -0.70710000
vn -0.00000000 -0.01950000 -0.99980000
vn -1.00000000 -0.00000000 -0.00000000
vn -1.00000000 -0.00000000 -0.00000000
vn -0.00000000 0.70710000 -0.70710000
vn -0.00000000 -1.00000000 -0.00000000
vn -0.01900000 0.04290000 0.99890000
vn -0.03840000 0.75240000 0.65760000
vn -1.00000000 -0.00000000 -0.00000000
vn 0.03500000 0.62340000 0.78120000
vn 0.02160000 0.99860000 0.04810000
vn -0.00000000 0.99980000 0.02210000
vn -1.00000000 -0.00000000 -0.00000000
vn -0.03840000 0.75240000 0.65760000
vn -0.01900000 0.04290000 0.99890000
vn -0.00000000 -0.70710000 0.70710000
vn -0.00000000 0.01950000 0.99980000
vn -1.00000000 -0.00000000 -0.00000000
vn -0.00000000 1.00000000 -0.00000000
vn -1.00000000 -0.00000000 -0.00000000
vn -0.00000000 -0.70710000 0.70710000
vn -0.00000000 -0.00000000 1.00000000
vn -1.00000000 -0.00000000 -0.00000000
vn -0.00000000 1.00000000 -0.00000000
vn 0.11540000 -0.34620000 -0.93100000
vn -0.08230000 -0.59720000 -0.79780000
vn -1.00000000 -0.00000000 -0.00000000
vn 0.10720000 -0.98840000 -0.10800000
vn -0.00000000 -0.00000000 1.00000000
vn -1.00000000 -0.00000000 -0.00000000
vn -0.00000000 0.70710000 -0.70710000
vn 0.05340000 0.93060000 0.36220000
vn 0.02480000 0.39390000 0.91880000
vn -1.00000000 -0.00000000 -0.00000000
vn 0.02480000 0.39390000 0.91880000
vn -0.08780000 0.24830000 0.96470000
vn -1.00000000 -0.00000000 -0.00000000
vn 0.08780000 -0.48950000 0.86760000
vn 0.16530000 0.76800000 -0.61870000
vn -0.15490000 0.98390000 0.08940000
vn -1.00000000 -0.00000000 -0.00000000
vn 0.05340000 0.93060000 0.36220000
vn -1.00000000 -0.00000000 -0.00000000
vn -0.00000000 0.70710000 -0.70710000
vn -0.00000000 0.99980000 0.02210000
vn 0.08780000 -0.48950000 0.86760000
vn -1.00000000 -0.00000000 -0.00000000
vn 0.10720000 -0.98840000 -0.10800000
vn -0.05360000 -0.99390000 0.09620000
vn -0.02480000 -0.61830000 0.78560000
vn -1.00000000 -0.00000000 -0.00000000
vn 0.11540000 -0.34620000 -0.93100000
vn -0.15480000 0.39820000 -0.90420000
vn 0.16530000 0.76800000 -0.61870000
vn 1.00000000 -0.00000000 -0.00000000
vn -0.00000000 1.00000000 -0.00000000
vn -0.00000000 -0.00000000 1.00000000
vn -0.00000000 0.99980000 0.01860000
vn -0.00880000 0.99990000 0.01370000
vn -0.00000000 -0.00000000 1.00000000
vn 1.00000000 -0.00000000 -0.00000000
vn -0.00000000 -1.00000000 -0.00000000
vn -0.00000000 -0.00000000 1.00000000
vn 1.00000000 -0.00000000 -0.00000000
vn 1.00000000 -0.00000000 -0.00000000
vn -0.00000000 -0.00000000 1.00000000
vn -0.00000000 0.99980000 0.01860000
vn -0.85890000 0.00780000 -0.51210000
vn -0.88620000 -0.04350000 0.46130000
vn -0.91320000 0.03770000 -0.40580000
vn -0.00000000 1.00000000 -0.00000000
vn -0.27230000 -0.02570000 -0.96190000
vn -0.85890000 0.00780000 -0.51210000
vn -0.00000000 1.00000000 -0.00000000
vn -0.27230000 -0.02570000 -0.96190000
vn 0.67510000 -0.03880000 -0.73670000
vn -0.00000000 1.00000000 -0.00000000
vn 0.10850000 0.03870000 -0.99330000
vn 1.00000000 -0.00000000 -0.00000000
vn -0.00000000 -0.00000000 -1.00000000
vn -0.00000000 1.00000000 -0.00000000
vn -0.00000000 1.00000000 -0.00000000
vn 0.67510000 -0.03880000 -0.73670000
vn 0.91350000 0.03410000 -0.40540000
vn 0.93170000 -0.02930000 0.36210000
vn -0.00000000 1.00000000 -0.00000000
vn 0.10860000 -0.03010000 0.99360000
vn -0.88620000 -0.04350000 0.46130000
vn -0.63690000 0.04160000 0.76980000
vn -0.00000000 0.02140000 0.99980000
vn 1.00000000 -0.00000000 -0.00000000
vn -0.00000000 1.00000000 -0.00000000
vn -0.00000000 1.00000000 -0.00000000
vn 0.28470000 0.00530000 0.95860000
vn 0.10860000 -0.03010000 0.99360000
vn 0.85890000 0.00530000 0.51210000
vn 0.93170000 -0.02930000 0.36210000
vn 1.00000000 -0.00000000 -0.00000000
vn -0.00000000 0.02140000 0.99980000
vn 0.01090000 0.01540000 0.99980000
vn -0.00000000 1.00000000 -0.00000000
vn -1.00000000 -0.00000000 -0.00000000
vn -0.00000000 -0.00000000 -1.00000000
vn -0.00000000 -0.70710000 0.70710000
vn 1.00000000 -0.00000000 -0.00000000
vn -0.00000000 -0.00000000 -1.00000000
vn -0.00000000 -1.00000000 -0.00000000
vn -0.00000000 -1.00000000 -0.00000000
vn -1.00000000 -0.00000000 -0.00000000
vn -0.00000000 -0.00000000 -1.00000000
vn -0.00000000 -0.00000000 -1.00000000
vn -0.00000000 -0.99980000 -0.01860000
vn 1.00000000 -0.00000000 -0.00000000
vn -0.00880000 -0.99990000 -0.01370000
vn -0.00000000 -0.00000000 -1.00000000
vn 1.00000000 -0.00000000 -0.00000000
vn -0.00000000 -0.99980000 -0.01860000
vn -0.00000000 0.70710000 -0.70710000
vn -0.00000000 -1.00000000 -0.00000000
vn -1.00000000 -0.00000000 -0.00000000
vn -0.03020000 0.98790000 -0.15180000
vn 0.06780000 0.77010000 0.63430000
vn -1.00000000 -0.00000000 -0.00000000
vn 0.06780000 0.77010000 0.63430000
vn -1.00000000 -0.00000000 -0.00000000
vn 0.08230000 -0.14190000 0.98640000
vn -0.10000000 0.59620000 0.79660000
vn 0.12530000 0.37140000 -0.92000000
vn -1.00000000 -0.00000000 -0.00000000
vn 0.14160000 -0.73850000 -0.65920000
vn -0.12790000 -0.19960000 -0.97150000
vn -0.00000000 -0.99980000 -0.02210000
vn -1.00000000 -0.00000000 -0.00000000
vn -0.03840000 -0.75240000 -0.65760000
vn 0.02150000 -0.99860000 -0.04810000
vn -0.03840000 -0.75240000 -0.65760000
vn -1.00000000 -0.00000000 -0.00000000
vn -0.01900000 -0.04290000 -0.99890000
vn 0.03500000 -0.62340000 -0.78120000
vn -0.06650000 -0.91340000 -0.40160000
vn 0.04570000 -0.91830000 0.39330000
vn -1.00000000 -0.00000000 -0.00000000
vn 0.02620000 -0.92820000 0.37120000
vn 0.14160000 -0.73850000 -0.65920000
vn -0.00000000 -0.01950000 -0.99980000
vn -1.00000000 -0.00000000 -0.00000000
vn -0.01900000 -0.04290000 -0.99890000
vn -0.00000000 0.70710000 -0.70710000
vn -0.00000000 -0.70710000 0.70710000
vn -1.00000000 -0.00000000 -0.00000000
vn -0.00000000 -0.99980000 -0.02210000
vn -0.05010000 -0.32740000 0.94360000
vn 0.08230000 -0.14190000 0.98640000
vn 0.04570000 -0.91830000 0.39330000
vn -1.00000000 -0.00000000 -0.00000000
vn -1.00000000 -0.00000000 -0.00000000
vn 0.01950000 0.99520000 -0.09630000
vn -0.03020000 0.98790000 -0.15180000
vn -0.04750000 0.61780000 -0.78490000
vn 0.12530000 0.37140000 -0.92000000
vn -0.00000000 -1.00000000 -0.00000000
vn -0.00000000 -0.02140000 -0.99980000
vn 1.00000000 -0.00000000 -0.00000000
vn -0.00000000 -0.02140000 -0.99980000
vn 0.01090000 -0.01540000 -0.99980000
vn -0.00000000 -1.00000000 -0.00000000
vn 1.00000000 -0.00000000 -0.00000000
vn 1.00000000 -0.00000000 -0.00000000
vn -0.18150000 -0.84960000 0.49530000
vn -0.08310000 -0.59600000 0.79870000
vn 0.12310000 -0.72250000 0.68030000
vn -0.08310000 -0.59600000 0.79870000
vn -0.07990000 -0.30700000 0.94830000
vn 0.06690000 -0.47260000 0.87880000
vn 1.00000000 -0.00000000 -0.00000000
vn -0.16440000 -0.98600000 0.02910000
vn 0.17600000 -0.94080000 0.28960000
vn 1.00000000 -0.00000000 -0.00000000
vn -0.18150000 -0.84960000 0.49530000
vn -0.07540000 0.06120000 0.99530000
vn 1.00000000 -0.00000000 -0.00000000
vn -0.07990000 -0.30700000 0.94830000
vn 0.07300000 -0.19580000 0.97790000
vn 0.09800000 -0.98970000 -0.10390000
vn 1.00000000 -0.00000000 -0.00000000
vn -0.16440000 -0.98600000 0.02910000
vn -0.07930000 -0.88500000 -0.45880000
vn 0.01090000 0.01540000 0.99980000
vn 1.00000000 -0.00000000 -0.00000000
vn -0.03850000 0.66860000 0.74260000
vn -0.07210000 -0.88430000 -0.46140000
vn 1.00000000 -0.00000000 -0.00000000
vn -0.07930000 -0.88500000 -0.45880000
vn -0.11980000 -0.56880000 -0.81370000
vn 0.11280000 -0.68850000 -0.71640000
vn 1.00000000 -0.00000000 -0.00000000
vn -0.02200000 0.45470000 0.89040000
vn 0.03140000 0.11350000 0.99300000
vn -0.07540000 0.06120000 0.99530000
vn -0.00090000 0.44640000 0.89490000
vn -0.04060000 0.73770000 0.67390000
vn 0.02250000 0.71940000 0.69420000
vn 1.00000000 -0.00000000 -0.00000000
vn -0.02200000 0.45470000 0.89040000
vn 1.00000000 -0.00000000 -0.00000000
vn -0.03850000 0.66860000 0.74260000
vn -0.00000000 0.99980000 0.01860000
vn -0.00880000 0.99990000 0.01370000
vn 0.03430000 0.77170000 0.63500000
vn 1.00000000 -0.00000000 -0.00000000
vn 0.03430000 -0.77170000 -0.63500000
vn -0.03860000 -0.66860000 -0.74260000
vn -0.00000000 -0.99980000 -0.01860000
vn -0.00880000 -0.99990000 -0.01370000
vn 1.00000000 -0.00000000 -0.00000000
vn -0.04060000 0.73770000 0.67390000
vn -0.09600000 0.95600000 0.27720000
vn 0.05330000 0.93960000 0.33800000
vn -0.08770000 -0.26480000 -0.96030000
vn -0.11980000 -0.56880000 -0.81370000
vn 1.00000000 -0.00000000 -0.00000000
vn 0.10700000 -0.39320000 -0.91320000
vn 1.00000000 -0.00000000 -0.00000000
vn 0.01090000 -0.01540000 -0.99980000
vn -0.03860000 -0.66860000 -0.74260000
vn -0.10150000 0.98310000 -0.15270000
vn 0.11060000 0.99300000 -0.04200000
vn -0.09600000 0.95600000 0.27720000
vn 1.00000000 -0.00000000 -0.00000000
vn -0.08770000 -0.26480000 -0.96030000
vn -0.07170000 0.08280000 -0.99400000
vn 0.06930000 0.01700000 -0.99750000
vn 1.00000000 -0.00000000 -0.00000000
vn 0.11100000 0.40100000 -0.90930000
vn -0.07170000 0.08280000 -0.99400000
vn -0.16710000 0.53110000 -0.83060000
vn 1.00000000 -0.00000000 -0.00000000
vn -0.07920000 0.86110000 -0.50220000
vn -0.16710000 0.53110000 -0.83060000
vn 0.11580000 0.69070000 -0.71380000
vn 1.00000000 -0.00000000 -0.00000000
vn -0.10150000 0.98310000 -0.15270000
vn 0.06240000 0.89730000 -0.43700000
vn -0.07920000 0.86110000 -0.50220000
vn 1.00000000 -0.00000000 -0.00000000
vn 0.03430000 0.77170000 0.63500000
vn 1.00000000 -0.00000000 -0.00000000
vn -0.00880000 0.99990000 0.01370000
vn 1.00000000 -0.00000000 -0.00000000
vn -0.08780000 0.24830000 0.96470000
vn 0.08780000 -0.48950000 0.86760000
vn -0.02480000 -0.61830000 0.78560000
vn -0.02480000 -0.61830000 0.78560000
vn -0.05360000 -0.99390000 0.09620000
vn 1.00000000 -0.00000000 -0.00000000
vn 1.00000000 -0.00000000 -0.00000000
vn -0.15480000 0.39820000 -0.90420000
vn 0.16530000 0.76800000 -0.61870000
vn -0.15490000 0.98390000 0.08940000
vn -0.08230000 -0.59720000 -0.79780000
vn 1.00000000 -0.00000000 -0.00000000
vn 0.11540000 -0.34620000 -0.93100000
vn -0.15480000 0.39820000 -0.90420000
vn 1.00000000 -0.00000000 -0.00000000
vn -0.15490000 0.98390000 0.08940000
vn -0.08780000 0.24830000 0.96470000
vn 0.02480000 0.39390000 0.91880000
vn 0.05340000 0.93060000 0.36220000
vn -0.05360000 -0.99390000 0.09620000
vn 0.10720000 -0.98840000 -0.10800000
vn 1.00000000 -0.00000000 -0.00000000
vn -0.08230000 -0.59720000 -0.79780000
vn -0.03850000 0.66860000 0.74260000
vn -0.00000000 0.02140000 0.99980000
vn 0.01090000 0.01540000 0.99980000
vn 0.03430000 0.77170000 0.63500000
vn 1.00000000 -0.00000000 -0.00000000
vn 1.00000000 -0.00000000 -0.00000000
vn -0.00880000 -0.99990000 -0.01370000
vn 0.03430000 -0.77170000 -0.63500000
vn 0.12530000 0.37140000 -0.92000000
vn 1.00000000 -0.00000000 -0.00000000
vn -0.12790000 -0.19960000 -0.97150000
vn -0.04750000 0.61780000 -0.78490000
vn 0.01950000 0.99520000 -0.09630000
vn -0.04750000 0.61780000 -0.78490000
vn 1.00000000 -0.00000000 -0.00000000
vn 0.04570000 -0.91830000 0.39330000
vn 0.02620000 -0.92820000 0.37120000
vn 1.00000000 -0.00000000 -0.00000000
vn -0.05010000 -0.32740000 0.94360000
vn 0.08230000 -0.14190000 0.98640000
vn -0.10000000 0.59620000 0.79660000
vn -0.05010000 -0.32740000 0.94360000
vn 1.00000000 -0.00000000 -0.00000000
vn 1.00000000 -0.00000000 -0.00000000
vn -0.06650000 -0.91340000 -0.40160000
vn 0.02620000 -0.92820000 0.37120000
vn -0.12790000 -0.19960000 -0.97150000
vn 0.14160000 -0.73850000 -0.65920000
vn 1.00000000 -0.00000000 -0.00000000
vn -0.06650000 -0.91340000 -0.40160000
vn 0.06780000 0.77010000 0.63430000
vn -0.10000000 0.59620000 0.79660000
vn -0.03020000 0.98790000 -0.15180000
vn 1.00000000 -0.00000000 -0.00000000
vn 0.01950000 0.99520000 -0.09630000
vn -0.00000000 -0.02140000 -0.99980000
vn -0.03860000 -0.66860000 -0.74260000
vn 0.01090000 -0.01540000 -0.99980000
vn 1.00000000 -0.00000000 -0.00000000
vn 0.03430000 -0.77170000 -0.63500000
vn -0.11980000 -0.56880000 -0.81370000
vn 0.11280000 -0.68850000 -0.71640000
vn 1.00000000 0.00030000 0.00060000
vn 0.10700000 -0.39320000 -0.91320000
vn 1.00000000 0.00040000 0.00040000
vn 1.00000000 0.00040000 0.00040000
vn 1.00000000 0.00070000 0.00040000
vn -0.07210000 -0.88430000 -0.46140000
vn 0.11280000 -0.68850000 -0.71640000
vn -0.07170000 0.08280000 -0.99400000
vn 1.00000000 -0.00000000 0.00200000
vn 1.00000000 -0.00080000 0.00180000
vn 0.11100000 0.40100000 -0.90930000
vn 0.06930000 0.01700000 -0.99750000
vn 0.06240000 0.89730000 -0.43700000
vn 1.00000000 -0.00120000 0.00010000
vn 1.00000000 -0.00060000 0.00030000
vn 1.00000000 -0.00040000 0.00050000
vn 1.00000000 -0.00050000 0.00010000
vn -0.10150000 0.98310000 -0.15270000
vn 0.11060000 0.99300000 -0.04200000
vn 1.00000000 0.00070000 0.00010000
vn 0.09800000 -0.98970000 -0.10390000
vn 1.00000000 0.00070000 0.00040000
vn -0.07930000 -0.88500000 -0.45880000
vn -0.07210000 -0.88430000 -0.46140000
vn 1.00000000 -0.00000000 0.00200000
vn 1.00000000 0.00030000 0.00060000
vn -0.08770000 -0.26480000 -0.96030000
vn 1.00000000 0.00070000 0.00090000
vn 0.06930000 0.01700000 -0.99750000
vn 0.10700000 -0.39320000 -0.91320000
vn 0.09800000 -0.98970000 -0.10390000
vn -0.16440000 -0.98600000 0.02910000
vn 1.00000000 0.00180000 -0.00060000
vn 1.00000000 0.00150000 0.00070000
vn 0.17600000 -0.94080000 0.28960000
vn 1.00000000 0.00070000 0.00010000
vn 0.11580000 0.69070000 -0.71380000
vn 1.00000000 -0.00050000 0.00050000
vn 1.00000000 -0.00060000 0.00030000
vn 0.06240000 0.89730000 -0.43700000
vn -0.07920000 0.86110000 -0.50220000
vn 1.00000000 -0.00080000 0.00180000
vn 1.00000000 -0.00050000 0.00050000
vn -0.16710000 0.53110000 -0.83060000
vn 0.11580000 0.69070000 -0.71380000
vn 0.11100000 0.40100000 -0.90930000
vn 1.00000000 -0.00100000 0.00050000
vn 0.12310000 -0.72250000 0.68030000
vn 1.00000000 0.00060000 -0.00060000
vn -0.08310000 -0.59600000 0.79870000
vn 1.00000000 0.00030000 -0.00060000
vn 0.06690000 -0.47260000 0.87880000
vn 1.00000000 -0.00040000 -0.00040000
vn 1.00000000 -0.00030000 -0.00060000
vn -0.02200000 0.45470000 0.89040000
vn 0.02250000 0.71940000 0.69420000
vn -0.00090000 0.44640000 0.89490000
vn 0.06690000 -0.47260000 0.87880000
vn 1.00000000 0.00040000 -0.00060000
vn 1.00000000 0.00020000 -0.00090000
vn -0.07990000 -0.30700000 0.94830000
vn 1.00000000 0.00030000 -0.00060000
vn 0.07300000 -0.19580000 0.97790000
vn 0.02250000 0.71940000 0.69420000
vn 1.00000000 -0.00060000 -0.00090000
vn 1.00000000 -0.00040000 -0.00040000
vn -0.04060000 0.73770000 0.67390000
vn 0.05330000 0.93960000 0.33800000
vn 1.00000000 -0.00140000 -0.00050000
vn 0.07300000 -0.19580000 0.97790000
vn -0.07540000 0.06120000 0.99530000
vn 0.03140000 0.11350000 0.99300000
vn 1.00000000 0.00020000 -0.00090000
vn 1.00000000 -0.00010000 -0.00080000
vn 0.12310000 -0.72250000 0.68030000
vn -0.18150000 -0.84960000 0.49530000
vn 1.00000000 0.00060000 -0.00100000
vn 1.00000000 0.00060000 -0.00060000
vn 0.17600000 -0.94080000 0.28960000
vn 1.00000000 0.00180000 -0.00060000
vn 0.05330000 0.93960000 0.33800000
vn -0.09600000 0.95600000 0.27720000
vn 1.00000000 -0.00140000 -0.00050000
vn 1.00000000 -0.00120000 0.00010000
vn 0.11060000 0.99300000 -0.04200000
vn 1.00000000 -0.00010000 -0.00080000
vn 1.00000000 -0.00020000 -0.00060000
vn 1.00000000 -0.00030000 -0.00060000
vn 0.03140000 0.11350000 0.99300000
vn -0.00090000 0.44640000 0.89490000
vn 1.00000000 0.00040000 -0.00060000
vn 0.94480000 0.29470000 -0.14310000
vn 0.91260000 0.19520000 -0.35920000
vn 1.00000000 0.00030000 -0.00060000
vn 1.00000000 0.00060000 -0.00060000
vn 1.00000000 0.00060000 -0.00100000
vn 1.00000000 -0.00100000 0.00050000
vn 1.00000000 -0.00060000 0.00030000
vn 1.00000000 -0.00050000 0.00010000
vn 1.00000000 -0.00050000 0.00050000
vn 0.91670000 -0.36260000 0.16790000
vn 0.94800000 -0.16860000 0.26990000
vn 1.00000000 -0.00100000 0.00050000
vn 1.00000000 -0.00080000 0.00180000
vn 0.93320000 -0.20560000 0.29480000
vn 0.94800000 -0.16860000 0.26990000
vn 1.00000000 -0.00000000 0.00200000
vn 1.00000000 0.00070000 0.00090000
vn 0.95520000 -0.04000000 0.29340000
vn 0.90500000 0.07360000 0.41910000
vn 0.94940000 -0.30960000 0.05350000
vn 0.93590000 -0.35210000 -0.01090000
vn 1.00000000 -0.00050000 0.00010000
vn 1.00000000 -0.00040000 0.00050000
vn 0.91670000 -0.36260000 0.16790000
vn 0.90770000 -0.32240000 -0.26860000
vn 1.00000000 -0.00060000 -0.00090000
vn 1.00000000 -0.00040000 0.00050000
vn 0.95260000 -0.26770000 -0.14420000
vn 0.93590000 -0.35210000 -0.01090000
vn 1.00000000 -0.00120000 0.00010000
vn 1.00000000 -0.00140000 -0.00050000
vn 0.95210000 0.18500000 0.24340000
vn 1.00000000 0.00040000 0.00040000
vn 0.90580000 0.32100000 0.27670000
vn 1.00000000 0.00030000 0.00060000
vn 1.00000000 0.00070000 0.00090000
vn 0.90500000 0.07360000 0.41910000
vn 0.94260000 -0.06730000 -0.32710000
vn 1.00000000 -0.00040000 -0.00040000
vn 1.00000000 -0.00030000 -0.00060000
vn 1.00000000 -0.00020000 -0.00060000
vn 1.00000000 -0.00060000 -0.00090000
vn 0.90770000 -0.32240000 -0.26860000
vn 1.00000000 0.00070000 0.00010000
vn 0.92980000 0.36720000 0.02420000
vn 1.00000000 0.00040000 0.00040000
vn 1.00000000 0.00070000 0.00040000
vn 1.00000000 0.00150000 0.00070000
vn 0.94670000 0.31630000 0.06100000
vn 0.90580000 0.32100000 0.27670000
vn 0.94830000 0.10850000 -0.29820000
vn 1.00000000 -0.00020000 -0.00060000
vn 0.94260000 -0.06730000 -0.32710000
vn 1.00000000 -0.00010000 -0.00080000
vn 1.00000000 0.00020000 -0.00090000
vn 0.92190000 -0.10350000 -0.37340000
vn 1.00000000 0.00040000 -0.00060000
vn 0.91260000 0.19520000 -0.35920000
vn 0.94600000 0.29260000 -0.13970000
vn 0.94480000 0.29470000 -0.14310000
vn 1.00000000 0.00060000 -0.00100000
vn 1.00000000 0.00180000 -0.00060000
vn 0.92980000 0.36720000 0.02420000
vn 1.00000000 0.00150000 0.00070000
vn 0.97740000 -0.17210000 -0.12260000
vn 0.97210000 -0.07330000 -0.22260000
vn 0.92190000 -0.10350000 -0.37340000
vn 0.94260000 -0.06730000 -0.32710000
vn 0.95260000 -0.26770000 -0.14420000
vn 0.90770000 -0.32240000 -0.26860000
vn 0.97210000 -0.07330000 -0.22260000
vn 0.98500000 0.01370000 -0.17200000
vn 0.97370000 0.08650000 -0.21100000
vn 0.92190000 -0.10350000 -0.37340000
vn 0.94830000 0.10850000 -0.29820000
vn 0.94600000 0.29260000 -0.13970000
vn 0.97540000 0.21250000 0.05900000
vn 0.94670000 0.31630000 0.06100000
vn 0.97130000 0.21020000 -0.11120000
vn 0.92980000 0.36720000 0.02420000
vn 0.98680000 0.16180000 -0.00060000
vn 0.97370000 0.08650000 -0.21100000
vn 0.94480000 0.29470000 -0.14310000
vn 0.91260000 0.19520000 -0.35920000
vn 0.94830000 0.10850000 -0.29820000
vn 0.97130000 0.21020000 -0.11120000
vn 0.94600000 0.29260000 -0.13970000
vn 0.99530000 -0.00060000 -0.09680000
vn 0.97210000 -0.07330000 -0.22260000
vn 0.97740000 -0.17210000 -0.12260000
vn 0.99360000 -0.10920000 -0.03050000
vn 0.98500000 0.01370000 -0.17200000
vn 0.94940000 -0.30960000 0.05350000
vn 0.97800000 -0.19480000 0.07500000
vn 0.95260000 -0.26770000 -0.14420000
vn 0.99360000 -0.10920000 -0.03050000
vn 0.97740000 -0.17210000 -0.12260000
vn 0.93590000 -0.35210000 -0.01090000
vn 0.99290000 -0.10680000 -0.05330000
vn 0.99540000 0.09580000 0.00420000
vn 0.99650000 0.01860000 0.08140000
vn 0.99290000 -0.10680000 -0.05330000
vn 0.99360000 -0.10920000 -0.03050000
vn 0.99530000 -0.00060000 -0.09680000
vn 0.97370000 0.08650000 -0.21100000
vn 0.99540000 0.09580000 0.00420000
vn 0.98500000 0.01370000 -0.17200000
vn 0.99530000 -0.00060000 -0.09680000
vn 0.97130000 0.21020000 -0.11120000
vn 0.98680000 0.16180000 -0.00060000
vn 0.93320000 -0.20560000 0.29480000
vn 0.94940000 -0.30960000 0.05350000
vn 0.94800000 -0.16860000 0.26990000
vn 0.91670000 -0.36260000 0.16790000
vn 0.97590000 -0.15990000 0.14840000
vn 0.97800000 -0.19480000 0.07500000
vn 0.95210000 0.18500000 0.24340000
vn 0.98710000 0.01390000 0.15950000
vn 0.96450000 0.16310000 0.20790000
vn 0.90500000 0.07360000 0.41910000
vn 0.95520000 -0.04000000 0.29340000
vn 0.98580000 0.00260000 0.16780000
vn 0.99540000 0.09580000 0.00420000
vn 0.96450000 0.16310000 0.20790000
vn 0.98580000 0.00260000 0.16780000
vn 0.99650000 0.01860000 0.08140000
vn 0.97540000 0.21250000 0.05900000
vn 0.98680000 0.16180000 -0.00060000
vn 0.98580000 0.00260000 0.16780000
vn 0.99650000 0.01860000 0.08140000
vn 0.99290000 -0.10680000 -0.05330000
vn 0.97800000 -0.19480000 0.07500000
vn 0.97590000 -0.15990000 0.14840000
vn 0.98710000 0.01390000 0.15950000
vn 0.94670000 0.31630000 0.06100000
vn 0.90580000 0.32100000 0.27670000
vn 0.97540000 0.21250000 0.05900000
vn 0.95210000 0.18500000 0.24340000
vn 0.96450000 0.16310000 0.20790000
vn 0.95520000 -0.04000000 0.29340000
vn 0.98710000 0.01390000 0.15950000
vn 0.93320000 -0.20560000 0.29480000
vn 0.97590000 -0.15990000 0.14840000
vn -0.63690000 0.04160000 0.76980000
vn 0.28470000 0.00530000 0.95860000
vn 0.10860000 -0.03010000 0.99360000
vn -0.00000000 1.00000000 -0.00000000
vn 0.28470000 0.00530000 0.95860000
vn -0.00000000 1.00000000 -0.00000000
vn 0.85890000 0.00530000 0.51210000
vn 0.91350000 0.03410000 -0.40540000
vn -0.00000000 1.00000000 -0.00000000
vn 0.93170000 -0.02930000 0.36210000
vn 0.85890000 0.00530000 0.51210000
vn -0.00000000 1.00000000 -0.00000000
vn 0.10850000 0.03870000 -0.99330000
vn 0.91350000 0.03410000 -0.40540000
vn 0.67510000 -0.03880000 -0.73670000
vn -0.85890000 0.00780000 -0.51210000
vn 0.10850000 0.03870000 -0.99330000
vn -0.91320000 0.03770000 -0.40580000
vn -0.00000000 1.00000000 -0.00000000
vn -0.27230000 -0.02570000 -0.96190000
vn -0.00000000 1.00000000 -0.00000000
vn -0.88620000 -0.04350000 0.46130000
vn -0.91320000 0.03770000 -0.40580000
vn -0.63690000 0.04160000 0.76980000
vt 0.06071200 0.56686600
vt 0.00003200 0.56662700
vt 0.00014100 0.64836900
vt 0.06071200 0.64796400
vt 0.03593000 0.56675400
vt 0.02506200 0.56676900
vt 0.03018600 0.64418100
vt 0.02707500 0.64504500
vt 0.71144400 0.93254600
vt 0.99550400 0.37146900
vt 0.19362100 0.90882900
vt 0.17008000 0.90868300
vt 0.71144400 0.95608800
vt 0.94270000 0.47963400
vt 0.99550100 0.37349700
vt 0.99550100 0.37349700
vt 0.19158600 0.90737900
vt 0.99550200 0.37571400
vt 0.99550200 0.37571400
vt 0.99550200 0.37571400
vt 0.19162400 0.90581000
vt 0.75406700 0.99470400
vt 0.17000500 0.88814000
vt 0.94270000 0.50864500
vt 0.17204000 0.88959000
vt 0.75203900 0.99470000
vt 0.17204000 0.88959000
vt 0.87803800 0.75153700
vt 0.60111500 0.99536700
vt 0.17454500 0.88952000
vt 0.87762900 0.75401000
vt 0.60111500 0.99536700
vt 0.19245500 0.90507500
vt 0.99550400 0.37676000
vt 0.87543700 0.75153700
vt 0.99550400 0.37676000
vt 0.60111400 0.99432300
vt 0.60111400 0.99432300
vt 0.17537600 0.88878500
vt 0.60111400 0.99432300
vt 0.94239700 0.83765500
vt 0.19692000 0.88591200
vt 0.19692000 0.88591200
vt 0.87543700 0.75404400
vt 0.87543700 0.75404400
vt 0.19496000 0.90500500
vt 0.59022100 0.72472400
vt 0.59225300 0.72472400
vt 0.19699500 0.90645500
vt 0.94239700 0.86666500
vt 0.60111400 0.99210600
vt 0.60111400 0.99210600
vt 0.17541400 0.88721500
vt 0.17337900 0.88576500
vt 0.60111500 0.99007500
vt 0.17337900 0.88576500
vt 0.99276800 0.37594600
vt 0.99276800 0.37594600
vt 0.96596900 0.97025400
vt 0.99276800 0.37594600
vt 0.87345000 0.75172700
vt 0.87345000 0.75172700
vt 0.96534300 0.96924800
vt 0.99277100 0.37683200
vt 0.99276700 0.37349800
vt 0.99276700 0.37349800
vt 0.99276700 0.37349800
vt 0.96770300 0.97034200
vt 0.71347100 0.93253300
vt 0.96914000 0.96829800
vt 0.99277000 0.37147000
vt 0.94513100 0.87004800
vt 0.96914000 0.96491600
vt 0.71347100 0.92915000
vt 0.99092800 0.05992500
vt 0.99092800 0.05992500
vt 0.96819300 0.96649200
vt 0.98714100 0.37776900
vt 0.94513100 0.86666500
vt 0.96674500 0.96493900
vt 0.59225300 0.72745800
vt 0.37855700 0.55464000
vt 0.97502100 0.49632200
vt 0.96688300 0.96812600
vt 0.97502100 0.49718700
vt 0.97502100 0.49718700
vt 0.96749500 0.96849000
vt 0.97502100 0.49718700
vt 0.97619400 0.74725200
vt 0.95032700 0.61530400
vt 0.96661200 0.96714800
vt 0.37757300 0.55437500
vt 0.96530700 0.96698300
vt 0.59022100 0.72745700
vt 0.87341100 0.75399200
vt 0.97501900 0.49832000
vt 0.96829800 0.96784300
vt 0.98813300 0.37684500
vt 0.76903500 0.25212300
vt 0.97501900 0.49832000
vt 0.96725800 0.96601000
vt 0.99092800 0.05860400
vt 0.99092800 0.05860400
vt 0.97628200 0.74595100
vt 0.79954600 0.99267900
vt 0.71448500 0.92914400
vt 0.94649800 0.87004800
vt 0.74002200 0.99608000
vt 0.74002200 0.99608000
vt 0.94649800 0.86463600
vt 0.79567100 0.99269700
vt 0.19699500 0.88128000
vt 0.94895800 0.83765500
vt 0.83055500 0.45419100
vt 0.84987100 0.45410000
vt 0.94895800 0.86463600
vt 0.73819700 0.99607500
vt 0.99829600 0.44905700
vt 0.99763500 0.39677200
vt 0.91273300 0.98978900
vt 0.71282700 0.94274900
vt 0.04770000 0.99112300
vt 0.99927200 0.44942300
vt 0.71325300 0.94371000
vt 0.04662000 0.99112200
vt 0.04662000 0.99112200
vt 0.71405400 0.94401100
vt 0.04662000 0.99112200
vt 0.85374600 0.42715600
vt 0.94926100 0.47963400
vt 0.71631000 0.95605700
vt 0.71493000 0.94292300
vt 0.04543900 0.99112300
vt 0.97788400 0.81407800
vt 0.99768100 0.35053400
vt 0.71337500 0.94132500
vt 0.99464600 0.10714000
vt 0.99893100 0.39598100
vt 0.99464600 0.10714000
vt 0.97047400 0.66577500
vt 0.79954600 0.98726600
vt 0.71448500 0.93455600
vt 0.71451500 0.94148500
vt 0.99618300 0.10713500
vt 0.99618300 0.10713500
vt 0.51898600 0.99878700
vt 0.99900400 0.35123400
vt 0.85374600 0.44866900
vt 0.97293400 0.66577500
vt 0.97293400 0.66577500
vt 0.71631000 0.93454400
vt 0.17003600 0.88620900
vt 0.94543400 0.50864500
vt 0.75406700 0.99743700
vt 0.16711200 0.99313700
vt 0.94680100 0.51202700
vt 0.17004300 0.88284900
vt 0.17002700 0.88381400
vt 0.17002700 0.88381400
vt 0.94543400 0.51202700
vt 0.94680100 0.50661500
vt 0.97564700 0.99636800
vt 0.16323700 0.99315500
vt 0.97564700 0.99636800
vt 0.94926100 0.50661500
vt 0.83443000 0.42724800
vt 0.97391000 0.99633400
vt 0.59838100 0.99007500
vt 0.17341000 0.88383500
vt 0.17341000 0.88383500
vt 0.70091200 0.08494400
vt 0.97782000 0.49830200
vt 0.17203700 0.88463600
vt 0.97781900 0.49760200
vt 0.17119100 0.88512500
vt 0.97781900 0.49760200
vt 0.97781900 0.49760200
vt 0.68137900 0.97053100
vt 0.17360700 0.88568100
vt 0.68137900 0.97053100
vt 0.68137900 0.97053100
vt 0.17433600 0.88763800
vt 0.17433600 0.88763800
vt 0.59838100 0.99543800
vt 0.87962000 0.75401000
vt 0.59838100 0.99455400
vt 0.17534600 0.88701800
vt 0.59838100 0.99455400
vt 0.59838100 0.99455400
vt 0.58034700 0.99895300
vt 0.97840500 0.56288300
vt 0.17252400 0.88636000
vt 0.97840500 0.56288300
vt 0.68137900 0.97149800
vt 0.59838000 0.99210600
vt 0.17544500 0.88528500
vt 0.59838000 0.99210600
vt 0.59838000 0.99210600
vt 0.75203900 0.99743300
vt 0.17207100 0.88766000
vt 0.17207100 0.88766000
vt 0.97782000 0.49636300
vt 0.97782000 0.49636300
vt 0.97838200 0.56167700
vt 0.17137300 0.88600400
vt 0.17307800 0.88475500
vt 0.70091200 0.08598900
vt 0.70091200 0.08598900
vt 0.68137900 0.96922800
vt 0.68137900 0.96922800
vt 0.17545500 0.88288300
vt 0.72499800 0.99562600
vt 0.16711200 0.98772500
vt 0.72745800 0.99562600
vt 0.72745800 0.99562600
vt 0.17548300 0.88114600
vt 0.83055500 0.43267800
vt 0.84673400 0.43471200
vt 0.20369000 0.99563500
vt 0.73010900 0.97680500
vt 0.73010900 0.97680500
vt 0.73010500 0.97921800
vt 0.73010500 0.97921800
vt 0.73010500 0.97921800
vt 0.84500500 0.43291800
vt 0.80959500 0.54133300
vt 0.99765000 0.88213200
vt 0.84817500 0.43815800
vt 0.20369000 0.99938400
vt 0.73010300 0.98200100
vt 0.84301200 0.43202600
vt 0.73010300 0.98200100
vt 0.73010300 0.98200100
vt 0.33393800 0.99660000
vt 0.84826900 0.44259500
vt 0.80959500 0.54577300
vt 0.48957700 0.99445000
vt 0.97293400 0.66144700
vt 0.85064700 0.44875000
vt 0.97293400 0.66144700
vt 0.48957700 0.99863500
vt 0.84680600 0.44654400
vt 0.48957700 0.99863500
vt 0.39929700 0.95123900
vt 0.39929700 0.95123900
vt 0.84045900 0.43225800
vt 0.73010400 0.98556700
vt 0.73010400 0.98556700
vt 0.73010400 0.98556700
vt 0.73010400 0.98556700
vt 0.73010700 0.98845100
vt 0.73010700 0.98845100
vt 0.83839500 0.43374000
vt 0.73010700 0.98845100
vt 0.84993000 0.44965600
vt 0.97293200 0.66044400
vt 0.73818200 0.99163100
vt 0.73818200 0.99163100
vt 0.97293200 0.66044400
vt 0.83437100 0.43169100
vt 0.72745800 0.99029700
vt 0.72745800 0.99029700
vt 0.97389500 0.99189100
vt 0.97389500 0.99189100
vt 0.83671500 0.43631600
vt 0.73011200 0.99080000
vt 0.75521800 0.99873400
vt 0.23578900 0.95187000
vt 0.39929600 0.94830500
vt 0.39929600 0.94830500
vt 0.84470400 0.44860600
vt 0.39929600 0.94830500
vt 0.83365300 0.43259700
vt 0.72745800 0.99129800
vt 0.72745800 0.99129800
vt 0.99939800 0.45280900
vt 0.23885400 0.94923400
vt 0.75521800 0.99470000
vt 0.83589400 0.44027500
vt 0.39929600 0.94571400
vt 0.39929600 0.94571400
vt 0.39929600 0.94571400
vt 0.84284900 0.44932900
vt 0.39929600 0.94205200
vt 0.39929600 0.94205200
vt 0.39929600 0.94205200
vt 0.84022800 0.44903700
vt 0.72744100 0.99569100
vt 0.39929700 0.93831000
vt 0.39929700 0.93831000
vt 0.83755000 0.44665800
vt 0.99939800 0.44948800
vt 0.24057900 0.94639100
vt 0.72744100 0.99899400
vt 0.83626200 0.44357900
vt 0.97047100 0.66042000
vt 0.79571300 0.98841600
vt 0.74002200 0.99179900
vt 0.79811100 0.98916900
vt 0.97638800 0.49750700
vt 0.97638800 0.49750700
vt 0.97638800 0.49750700
vt 0.97638600 0.49824600
vt 0.76801700 0.25212300
vt 0.79864000 0.98974800
vt 0.79710800 0.99105100
vt 0.98956200 0.05785600
vt 0.97720300 0.74725200
vt 0.94917600 0.61478900
vt 0.98956200 0.05910100
vt 0.79799900 0.99159500
vt 0.98956200 0.05910100
vt 0.98956200 0.05910100
vt 0.79720800 0.98949800
vt 0.95032700 0.61374100
vt 0.97638800 0.49624600
vt 0.97638800 0.49624600
vt 0.37855700 0.55363100
vt 0.76809900 0.25102900
vt 0.98813300 0.37829800
vt 0.79871600 0.99084200
vt 0.98956200 0.06010200
vt 0.97047300 0.66127300
vt 0.97047300 0.66127300
vt 0.97047300 0.66127300
vt 0.97047300 0.66127300
vt 0.79632300 0.98737800
vt 0.16327900 0.98887400
vt 0.97564700 0.99208700
vt 0.72499700 0.99027300
vt 0.68001200 0.96993000
vt 0.16567700 0.98962700
vt 0.68001200 0.96993000
vt 0.68001200 0.96993000
vt 0.69991800 0.08598500
vt 0.68001300 0.96919000
vt 0.16620600 0.99020600
vt 0.97935900 0.56206300
vt 0.97935900 0.56206300
vt 0.16482300 0.99169800
vt 0.97645400 0.49624600
vt 0.97645200 0.49728100
vt 0.97645200 0.49728100
vt 0.97645200 0.49728100
vt 0.16556500 0.99205300
vt 0.16457300 0.99082500
vt 0.57969300 0.99820100
vt 0.97935900 0.56297300
vt 0.68001200 0.97104800
vt 0.68001200 0.97104800
vt 0.16487600 0.98986100
vt 0.58034700 0.99743700
vt 0.97645300 0.49828400
vt 0.97645300 0.49828400
vt 0.69987600 0.08489100
vt 0.16628200 0.99130000
vt 0.69987600 0.08489100
vt 0.72499800 0.99112400
vt 0.72499800 0.99112400
vt 0.72499800 0.99112400
vt 0.16388900 0.98783600
vt 0.72499800 0.99112400
vt 0.40066300 0.94964900
vt 0.40066300 0.94964900
vt 0.23498500 0.93667500
vt 0.40066300 0.94964900
vt 0.23498500 0.93667500
vt 0.23262800 0.93734300
vt 0.23262800 0.93734300
vt 0.48859900 0.99757800
vt 0.40066400 0.95168700
vt 0.40066300 0.94279500
vt 0.23968700 0.93861300
vt 0.23968700 0.93861300
vt 0.40066300 0.94279500
vt 0.40066300 0.94279500
vt 0.23953400 0.94647900
vt 0.23953400 0.94647900
vt 0.23953400 0.94647900
vt 0.23953400 0.94647900
vt 0.23953400 0.94647900
vt 0.99829600 0.45032300
vt 0.23953400 0.94647900
vt 0.23020500 0.93885400
vt 0.33499200 0.99588900
vt 0.23020500 0.93885400
vt 0.48859300 0.99474000
vt 0.48859300 0.99474000
vt 0.23763500 0.93697100
vt 0.23763500 0.93697100
vt 0.40066300 0.94646400
vt 0.23763500 0.93697100
vt 0.40066300 0.94646400
vt 0.40066300 0.94646400
vt 0.33499200 0.99922000
vt 0.80846900 0.54308700
vt 0.22797900 0.94133700
vt 0.22797900 0.94133700
vt 0.99876900 0.88058800
vt 0.22797900 0.94133700
vt 0.40066400 0.93772400
vt 0.24053500 0.94345900
vt 0.24053500 0.94345900
vt 0.24053500 0.94345900
vt 0.72642100 0.99694100
vt 0.24057900 0.94093900
vt 0.24057900 0.94093900
vt 0.40066300 0.93982500
vt 0.40066300 0.93982500
vt 0.40066300 0.93982500
vt 0.24057900 0.94093900
vt 0.73147400 0.97803700
vt 0.22617200 0.94782300
vt 0.73147400 0.97803700
vt 0.22617200 0.94782300
vt 0.73147400 0.97803700
vt 0.23198200 0.95232400
vt 0.23198200 0.95232400
vt 0.73147400 0.98830300
vt 0.73147400 0.98830300
vt 0.73147400 0.98830300
vt 0.73147100 0.98024100
vt 0.22670400 0.94971900
vt 0.22670400 0.94971900
vt 0.73147100 0.98024100
vt 0.22670400 0.94971900
vt 0.73147100 0.98024100
vt 0.73147900 0.99062300
vt 0.23476700 0.95142600
vt 0.23476700 0.95142600
vt 0.73147900 0.99062300
vt 0.23476700 0.95142600
vt 0.23476700 0.95142600
vt 0.73147000 0.98278600
vt 0.73147000 0.98278600
vt 0.73147000 0.98278600
vt 0.22784300 0.95122800
vt 0.22784300 0.95122800
vt 0.73147900 0.97566100
vt 0.20260400 0.99766200
vt 0.22635900 0.94478900
vt 0.22635900 0.94478900
vt 0.99876900 0.88441000
vt 0.22635900 0.94478900
vt 0.23750400 0.94928900
vt 0.75413100 0.99538300
vt 0.23750400 0.94928900
vt 0.23750400 0.94928900
vt 0.23750400 0.94928900
vt 0.22969400 0.95222200
vt 0.22969400 0.95222200
vt 0.22969400 0.95222200
vt 0.73147100 0.98568300
vt 0.73147100 0.98568300
vt 0.22783600 0.94582600
vt 0.22783600 0.94582600
vt 0.22783600 0.94582600
vt 0.22783600 0.94582600
vt 0.22783600 0.94582600
vt 0.22783600 0.94582600
vt 0.23891100 0.94335400
vt 0.23891100 0.94335400
vt 0.23891100 0.94335400
vt 0.23891100 0.94335400
vt 0.97015900 0.41064400
vt 0.97015900 0.41064400
vt 0.23820300 0.93989500
vt 0.23820300 0.93989500
vt 0.97266500 0.41314700
vt 0.97266500 0.41314700
vt 0.23820300 0.93989500
vt 0.23820300 0.93989500
vt 0.97266500 0.41314700
vt 0.23820300 0.93989500
vt 0.96939800 0.40773600
vt 0.96939800 0.40773600
vt 0.23792500 0.94618200
vt 0.23792500 0.94618200
vt 0.96939800 0.40773600
vt 0.96970100 0.40414200
vt 0.23565900 0.94899100
vt 0.23565900 0.94899100
vt 0.96970100 0.40414200
vt 0.96970100 0.40414200
vt 0.23565900 0.94899100
vt 0.23565900 0.94899100
vt 0.23500500 0.93849500
vt 0.23500500 0.93849500
vt 0.23500500 0.93849500
vt 0.23500500 0.93849500
vt 0.23500500 0.93849500
vt 0.23500500 0.93849500
vt 0.97203500 0.40070800
vt 0.23177000 0.95053900
vt 0.23177000 0.95053900
vt 0.23177000 0.95053900
vt 0.23177000 0.95053900
vt 0.97203500 0.40070800
vt 0.23131900 0.93989600
vt 0.23131900 0.93989600
vt 0.23131900 0.93989600
vt 0.23131900 0.93989600
vt 0.23131900 0.93989600
vt 0.23131900 0.93989600
vt 0.23131900 0.93989600
vt 0.22881500 0.94938500
vt 0.22881500 0.94938500
vt 0.97510300 0.40004700
vt 0.22881500 0.94938500
vt 0.22881500 0.94938500
vt 0.97510300 0.40004700
vt 0.22881500 0.94938500
vt 0.22881500 0.94938500
vt 0.22883700 0.94283300
vt 0.22883700 0.94283300
vt 0.22883700 0.94283300
vt 0.22883700 0.94283300
vt 0.22883700 0.94283300
vt 0.22883700 0.94283300
vt 0.97263700 0.40262900
vt 0.97263700 0.40262900
vt 0.97263700 0.40262900
vt 0.97263700 0.40262900
vt 0.97263700 0.40262900
vt 0.97263700 0.40262900
vt 0.97491100 0.40214300
vt 0.23100600 0.94840300
vt 0.23100600 0.94840300
vt 0.97491100 0.40214300
vt 0.23100600 0.94840300
vt 0.23104000 0.94325400
vt 0.23104000 0.94325400
vt 0.23104000 0.94325400
vt 0.23104000 0.94325400
vt 0.23104000 0.94325400
vt 0.23104000 0.94325400
vt 0.22964300 0.94630900
vt 0.22964300 0.94630900
vt 0.22964300 0.94630900
vt 0.22964300 0.94630900
vt 0.22964300 0.94630900
vt 0.22964300 0.94630900
vt 0.23341400 0.94737900
vt 0.97408300 0.40436200
vt 0.97408300 0.40436200
vt 0.97408300 0.40436200
vt 0.23341400 0.94737900
vt 0.97202900 0.40598900
vt 0.97202900 0.40598900
vt 0.97202900 0.40598900
vt 0.97202900 0.40598900
vt 0.97202900 0.40598900
vt 0.97202900 0.40598900
vt 0.97202900 0.40598900
vt 0.23409600 0.94519400
vt 0.23409600 0.94519400
vt 0.97502800 0.40658400
vt 0.97502800 0.40658400
vt 0.23409600 0.94519400
vt 0.23208900 0.94566700
vt 0.23208900 0.94566700
vt 0.23208900 0.94566700
vt 0.23208900 0.94566700
vt 0.23208900 0.94566700
vt 0.23208900 0.94566700
vt 0.97126000 0.40901600
vt 0.97126000 0.40901600
vt 0.97126000 0.40901600
vt 0.97126000 0.40901600
vt 0.97126000 0.40901600
vt 0.97126000 0.40901600
vt 0.23592400 0.94069700
vt 0.23592400 0.94069700
vt 0.23592400 0.94069700
vt 0.23592400 0.94069700
vt 0.97510300 0.41128900
vt 0.23592400 0.94069700
vt 0.23406900 0.94276000
vt 0.23406900 0.94276000
vt 0.23406900 0.94276000
vt 0.23406900 0.94276000
vt 0.23406900 0.94276000
vt 0.23406900 0.94276000
vt 0.23565600 0.94472900
vt 0.23565600 0.94472900
vt 0.97389200 0.40782300
vt 0.97389200 0.40782300
vt 0.97389200 0.40782300
vt 0.23565600 0.94472900
vt 0.23283700 0.94085800
vt 0.23283700 0.94085800
vt 0.23283700 0.94085800
vt 0.23283700 0.94085800
vt 0.23283700 0.94085800
vt 0.97340000 0.41012800
vt 0.23694000 0.94277700
vt 0.97340000 0.41012800
vt 0.97340000 0.41012800
vt 0.99515700 0.11260600
vt 0.99515700 0.11260600
vt 0.99515700 0.11260600
vt 0.91273300 0.99461200
vt 0.99618300 0.11260200
vt 0.91221000 0.99524000
vt 0.51898600 0.99485900
vt 0.97672700 0.81784500
vt 0.91116400 0.99534400
vt 0.99900400 0.34685300
vt 0.51801600 0.99525000
vt 0.91010100 0.99456000
vt 0.04599800 0.99659000
vt 0.97788400 0.81846000
vt 0.04599800 0.99659000
vt 0.99927200 0.44566500
vt 0.04753500 0.99659000
vt 0.91029100 0.99342300
vt 0.91029100 0.99342300
vt 0.04753500 0.99659000
vt 0.91204500 0.99342100
vt 0.99893100 0.40046300
vt 0.91204500 0.99342100
vt 0.99392500 0.11261100
f 7/7/7 1/1/1 4/4/4
f 7/7/7 5/5/5 1/1/1
f 7/7/7 6/6/6 5/5/5
f 7/7/7 2/2/2 6/6/6
f 3/3/3 2/2/2 7/7/7
f 3/3/3 7/7/7 8/8/8
f 11/11/11 12/12/12 17/17/17
f 17/17/17 12/12/12 21/21/21
f 12/12/12 23/23/23 27/27/27
f 12/12/12 27/27/27 30/30/30
f 21/21/21 12/12/12 30/30/30
f 33/33/33 21/21/21 30/30/30
f 33/33/33 30/30/30 39/39/39
f 46/46/46 33/33/33 43/43/43
f 49/49/49 46/46/46 43/43/43
f 53/53/53 54/54/54 43/43/43
f 39/39/39 53/53/53 43/43/43
f 33/33/33 39/39/39 43/43/43
f 64/64/64 58/58/58 36/36/36
f 60/60/60 20/20/20 34/34/34
f 67/67/67 15/15/15 19/19/19
f 57/57/57 65/65/65 18/18/18
f 66/66/66 71/71/71 16/16/16
f 71/71/71 10/10/10 16/16/16
f 73/73/73 70/70/70 77/77/77
f 73/73/73 77/77/77 101/101/101
f 73/73/73 101/101/101 80/80/80
f 84/84/84 59/59/59 63/63/63
f 87/87/87 68/68/68 59/59/59
f 87/87/87 59/59/59 84/84/84
f 91/91/91 63/63/63 93/93/93
f 91/91/91 84/84/84 63/63/63
f 97/97/97 68/68/68 87/87/87
f 70/70/70 68/68/68 97/97/97
f 80/80/80 101/101/101 91/91/91
f 80/80/80 91/91/91 93/93/93
f 77/77/77 70/70/70 97/97/97
f 81/81/81 94/94/94 48/48/48
f 94/94/94 47/47/47 48/48/48
f 79/79/79 107/107/107 72/72/72
f 110/110/110 79/79/79 50/50/50
f 41/41/41 110/110/110 50/50/50
f 113/113/113 116/116/116 110/110/110
f 113/113/113 110/110/110 41/41/41
f 110/110/110 107/107/107 79/79/79
f 121/121/121 124/124/124 13/13/13
f 127/127/127 13/13/13 124/124/124
f 127/127/127 131/131/131 13/13/13
f 132/132/132 131/131/131 127/127/127
f 9/9/9 136/136/136 121/121/121
f 9/9/9 121/121/121 13/13/13
f 142/142/142 143/143/143 136/136/136
f 142/142/142 136/136/136 9/9/9
f 69/69/69 142/142/142 9/9/9
f 151/151/151 132/132/132 143/143/143
f 151/151/151 143/143/143 142/142/142
f 106/106/106 69/69/69 74/74/74
f 151/151/151 131/131/131 132/132/132
f 106/106/106 142/142/142 69/69/69
f 153/153/153 156/156/156 160/160/160
f 161/161/161 153/153/153 24/24/24
f 14/14/14 161/161/161 24/24/24
f 130/130/130 165/165/165 161/161/161
f 130/130/130 161/161/161 14/14/14
f 161/161/161 156/156/156 153/153/153
f 159/159/159 170/170/170 173/173/173
f 159/159/159 173/173/173 175/175/175
f 159/159/159 175/175/175 152/152/152
f 179/179/179 187/187/187 183/183/183
f 192/192/192 179/179/179 183/183/183
f 179/179/179 196/196/196 187/187/187
f 192/192/192 183/183/183 200/200/200
f 206/206/206 196/196/196 179/179/179
f 205/205/205 192/192/192 200/200/200
f 170/170/170 206/206/206 173/173/173
f 170/170/170 196/196/196 206/206/206
f 152/152/152 175/175/175 205/205/205
f 152/152/152 205/205/205 200/200/200
f 199/199/199 26/26/26 154/154/154
f 154/154/154 26/26/26 22/22/22
f 185/185/185 31/31/31 28/28/28
f 201/201/201 182/182/182 25/25/25
f 184/184/184 186/186/186 32/32/32
f 189/189/189 37/37/37 29/29/29
f 195/195/195 52/52/52 40/40/40
f 188/188/188 197/197/197 38/38/38
f 168/168/168 55/55/55 51/51/51
f 198/198/198 168/168/168 51/51/51
f 211/211/211 42/42/42 56/56/56
f 211/211/211 112/112/112 42/42/42
f 169/169/169 211/211/211 56/56/56
f 216/216/216 112/112/112 211/211/211
f 157/157/157 169/169/169 158/158/158
f 157/157/157 211/211/211 169/169/169
f 225/225/225 129/129/129 218/218/218
f 228/228/228 218/218/218 129/129/129
f 231/231/231 129/129/129 225/225/225
f 148/148/148 235/235/235 228/228/228
f 148/148/148 228/228/228 129/129/129
f 239/239/239 235/235/235 148/148/148
f 242/242/242 235/235/235 239/239/239
f 166/166/166 129/129/129 231/231/231
f 166/166/166 246/246/246 253/253/253
f 166/166/166 231/231/231 246/246/246
f 242/242/242 239/239/239 255/255/255
f 260/260/260 166/166/166 253/253/253
f 260/260/260 253/253/253 265/265/265
f 271/271/271 255/255/255 115/115/115
f 271/271/271 242/242/242 255/255/255
f 273/273/273 260/260/260 265/265/265
f 279/279/279 273/273/273 265/265/265
f 283/283/283 271/271/271 115/115/115
f 217/217/217 273/273/273 279/279/279
f 287/287/287 283/283/283 115/115/115
f 114/114/114 291/291/291 287/287/287
f 114/114/114 295/295/295 291/291/291
f 114/114/114 279/279/279 295/295/295
f 114/114/114 287/287/287 115/115/115
f 114/114/114 217/217/217 279/279/279
f 298/298/298 109/109/109 258/258/258
f 108/108/108 117/117/117 257/257/257
f 141/141/141 305/305/305 299/299/299
f 141/141/141 321/321/321 305/305/305
f 141/141/141 299/299/299 327/327/327
f 141/141/141 105/105/105 321/321/321
f 311/311/311 111/111/111 306/306/306
f 306/306/306 111/111/111 297/297/297
f 314/314/314 306/306/306 297/297/297
f 105/105/105 311/311/311 321/321/321
f 105/105/105 111/111/111 311/311/311
f 327/327/327 314/314/314 297/297/297
f 327/327/327 299/299/299 314/314/314
f 140/140/140 324/324/324 149/149/149
f 325/325/325 238/238/238 150/150/150
f 326/326/326 296/296/296 259/259/259
f 323/323/323 256/256/256 240/240/240
f 96/96/96 88/88/88 301/301/301
f 100/100/100 302/302/302 303/303/303
f 99/99/99 304/304/304 319/319/319
f 78/78/78 98/98/98 320/320/320
f 102/102/102 75/75/75 312/312/312
f 76/76/76 322/322/322 310/310/310
f 103/103/103 313/313/313 307/307/307
f 89/89/89 104/104/104 308/308/308
f 90/90/90 309/309/309 315/315/315
f 82/82/82 92/92/92 318/318/318
f 85/85/85 83/83/83 317/317/317
f 86/86/86 316/316/316 300/300/300
f 162/162/162 167/167/167 263/263/263
f 329/329/329 164/164/164 264/264/264
f 213/213/213 337/337/337 332/332/332
f 213/213/213 356/356/356 337/337/337
f 213/213/213 332/332/332 361/361/361
f 213/213/213 155/155/155 356/356/356
f 345/345/345 163/163/163 340/340/340
f 346/346/346 163/163/163 328/328/328
f 346/346/346 340/340/340 163/163/163
f 351/351/351 346/346/346 328/328/328
f 155/155/155 345/345/345 356/356/356
f 155/155/155 163/163/163 345/345/345
f 361/361/361 351/351/351 328/328/328
f 361/361/361 332/332/332 351/351/351
f 360/360/360 274/274/274 215/215/215
f 212/212/212 358/358/358 214/214/214
f 362/362/362 330/330/330 261/261/261
f 359/359/359 262/262/262 275/275/275
f 210/210/210 178/178/178 331/331/331
f 209/209/209 334/334/334 336/336/336
f 171/171/171 208/208/208 355/355/355
f 207/207/207 335/335/335 357/357/357
f 174/174/174 172/172/172 353/353/353
f 177/177/177 354/354/354 343/343/343
f 203/203/203 176/176/176 342/342/342
f 202/202/202 344/344/344 341/341/341
f 191/191/191 204/204/204 338/338/338
f 193/193/193 339/339/339 348/348/348
f 190/190/190 347/347/347 352/352/352
f 180/180/180 194/194/194 350/350/350
f 181/181/181 349/349/349 333/333/333
f 245/245/245 364/364/364 371/371/371
f 284/284/284 410/410/410 375/375/375
f 277/277/277 449/449/449 383/383/383
f 292/292/292 276/276/276 382/382/382
f 237/237/237 243/243/243 387/387/387
f 241/241/241 370/370/370 388/388/388
f 281/281/281 285/285/285 372/372/372
f 282/282/282 376/376/376 393/393/393
f 234/234/234 385/385/385 395/395/395
f 293/293/293 377/377/377 404/404/404
f 288/288/288 294/294/294 405/405/405
f 269/269/269 280/280/280 391/391/391
f 272/272/272 394/394/394 366/366/366
f 290/290/290 401/401/401 409/409/409
f 244/244/244 270/270/270 363/363/363
f 286/286/286 289/289/289 408/408/408
f 224/224/224 416/416/416 422/422/422
f 266/266/266 251/251/251 431/431/431
f 252/252/252 420/420/420 428/428/428
f 226/226/226 236/236/236 396/396/396
f 232/232/232 223/223/223 425/425/425
f 233/233/233 427/427/427 434/434/434
f 227/227/227 399/399/399 443/443/443
f 278/278/278 267/267/267 446/446/446
f 268/268/268 432/432/432 445/445/445
f 249/249/249 230/230/230 435/435/435
f 248/248/248 436/436/436 453/453/453
f 219/219/219 229/229/229 440/440/440
f 221/221/221 439/439/439 412/412/412
f 250/250/250 454/454/454 421/421/421
f 254/254/254 247/247/247 419/419/419
f 222/222/222 220/220/220 414/414/414
f 459/459/459 413/413/413 442/442/442
f 407/407/407 402/402/402 464/464/464
f 403/403/403 379/379/379 462/462/462
f 411/411/411 461/461/461 467/467/467
f 374/374/374 406/406/406 468/468/468
f 463/463/463 381/381/381 477/477/477
f 378/378/378 448/448/448 485/485/485
f 478/478/478 380/380/380 482/482/482
f 389/389/389 373/373/373 471/471/471
f 392/392/392 472/472/472 491/491/491
f 447/447/447 433/433/433 486/486/486
f 365/365/365 390/390/390 490/490/490
f 481/481/481 429/429/429 497/497/497
f 494/494/494 430/430/430 417/417/417
f 367/367/367 488/488/488 368/368/368
f 368/368/368 488/488/488 501/501/501
f 495/495/495 418/418/418 452/452/452
f 369/369/369 502/502/502 386/386/386
f 507/507/507 496/496/496 451/451/451
f 509/509/509 450/450/450 438/438/438
f 503/503/503 519/519/519 398/398/398
f 384/384/384 499/499/499 400/400/400
f 510/510/510 437/437/437 424/424/424
f 397/397/397 517/517/517 444/444/444
f 516/516/516 460/460/460 441/441/441
f 455/455/455 512/512/512 423/423/423
f 458/458/458 426/426/426 415/415/415
f 493/493/493 508/508/508 523/523/523
f 530/530/530 506/506/506 540/540/540
f 529/529/529 522/522/522 511/511/511
f 564/564/564 541/541/541 534/534/534
f 542/542/542 514/514/514 531/531/531
f 456/456/456 515/515/515 538/538/538
f 560/560/560 528/528/528 537/537/537
f 524/524/524 550/550/550 483/483/483
f 527/527/527 562/562/562 547/547/547
f 544/544/544 521/521/521 526/526/526
f 558/558/558 551/551/551 546/546/546
f 525/525/525 480/480/480 498/498/498
f 552/552/552 520/520/520 545/545/545
f 539/539/539 513/513/513 457/457/457
f 559/559/559 543/543/543 563/563/563
f 470/470/470 466/466/466 568/568/568
f 469/469/469 566/566/566 597/597/597
f 567/567/567 475/475/475 548/548/548
f 572/572/572 593/593/593 487/487/487
f 583/583/583 565/565/565 536/536/536
f 578/578/578 555/555/555 561/561/561
f 581/581/581 585/585/585 556/556/556
f 492/492/492 474/474/474 575/575/575
f 582/582/582 532/532/532 592/592/592
f 576/576/576 473/473/473 595/595/595
f 586/586/586 554/554/554 557/557/557
f 590/590/590 533/533/533 504/504/504
f 598/598/598 570/570/570 588/588/588
f 476/476/476 484/484/484 553/553/553
f 465/465/465 479/479/479 569/569/569
f 573/573/573 596/596/596 589/589/589
f 577/577/577 584/584/584 580/580/580
f 579/579/579 594/594/594 574/574/574
f 591/591/591 505/505/505 489/489/489
f 500/500/500 535/535/535 518/518/518
f 587/587/587 571/571/571 549/549/549
f 601/601/601 137/137/137 145/145/145
f 603/603/603 600/600/600 144/144/144
f 608/608/608 147/147/147 135/135/135
f 609/609/609 605/605/605 146/146/146
f 612/612/612 606/606/606 134/134/134
f 613/613/613 133/133/133 126/126/126
f 615/615/615 611/611/611 128/128/128
f 618/618/618 125/125/125 122/122/122
f 614/614/614 123/123/123 118/118/118
f 621/621/621 616/616/616 120/120/120
f 620/620/620 119/119/119 138/138/138
f 599/599/599 622/622/622 139/139/139
f 602/602/602 610/610/610 617/617/617
f 602/602/602 617/617/617 619/619/619
f 607/607/607 610/610/610 602/602/602
f 604/604/604 607/607/607 602/602/602
f 61/61/61 35/35/35 44/44/44
f 95/95/95 62/62/62 45/45/45

