mtllib material.mtl
usemtl material_0
v 0.01902200 0.07152300 0.05153500
v 0.01902200 0.07152300 0.05153500
v 0.00030500 0.07302500 0.05890300
v 0.00030500 0.07302500 0.05890300
v 0.00030500 0.07302500 0.05890300
v 0.00500400 0.07302500 0.05890300
v 0.00500400 0.07302500 0.05890300
v 0.01815700 0.07298700 0.05241600
v 0.01901600 0.07150400 0.13665800
v 0.01901600 0.07150400 0.13665800
v 0.01901600 0.07150400 0.13665800
v 0.01901600 0.07150400 0.13665800
v 0.01901600 0.07150400 0.13665800
v 0.01901600 0.07150400 0.13665800
v 0.01901600 0.07150400 0.13665800
v 0.01815800 0.07298600 0.13583000
v 0.01815800 0.07298600 0.13583000
v 0.01815800 0.07298600 0.13583000
v 0.01815800 0.07298600 0.13583000
v 0.01815800 0.07298600 0.13583000
v 0.01815800 0.07298600 0.13583000
v 0.01815800 0.07298600 0.13583000
v 0.01860400 0.07221400 0.13660700
v 0.01860400 0.07221400 0.13660700
v 0.01860400 0.07221400 0.13660700
v 0.01860400 0.07221400 0.13660700
v 0.01860400 0.07221400 0.13660700
v 0.01949600 0.07233400 0.13653900
v 0.01949600 0.07233400 0.13653900
v 0.01949600 0.07233400 0.13653900
v 0.01987200 0.07298500 0.13581100
v 0.01987200 0.07298500 0.13581100
v 0.01987200 0.07298500 0.13581100
v 0.01987200 0.07298500 0.13581100
v 0.01987200 0.07298500 0.13581100
v 0.01980000 0.07285900 0.05204800
v 0.02806800 0.07297900 0.05245200
v 0.02806800 0.07297900 0.05245200
v 0.02806800 0.07297900 0.05245200
v 0.03743700 0.06670800 0.05226000
v 0.03826800 0.06460800 0.05243000
v 0.03863500 0.06194100 0.05232100
v 0.03833900 0.05913400 0.05258800
v 0.03767400 0.05730500 0.05226100
v 0.03617400 0.05470000 0.05258400
v 0.03617400 0.05470000 0.05258400
v 0.03062100 0.07254900 0.05243000
v 0.03062100 0.07254900 0.05243000
v 0.03062100 0.07254900 0.05243000
v 0.03381500 0.05251900 0.05247200
v 0.03381500 0.05251900 0.05247200
v 0.03381500 0.05251900 0.05247200
v 0.03381500 0.05251900 0.05247200
v 0.03323700 0.07135500 0.05239900
v 0.03323700 0.07135500 0.05239900
v 0.03323700 0.07135500 0.05239900
v 0.03494000 0.07012100 0.05258300
v 0.03494000 0.07012100 0.05258300
v 0.03141600 0.05128600 0.05244400
v 0.03141600 0.05128600 0.05244400
v 0.03141600 0.05128600 0.05244400
v 0.03630000 0.06860900 0.05240800
v 0.02871500 0.05056600 0.05263200
v 0.02871500 0.05056600 0.05263200
v 0.02871500 0.05056600 0.05263200
v 0.02871500 0.05056600 0.05263200
v -0.02831100 0.05058300 0.05241600
v -0.03841600 0.05915400 0.05252300
v -0.03841600 0.05915400 0.05252300
v -0.03841600 0.05915400 0.05252300
v -0.03869200 0.06136800 0.05237900
v -0.03869200 0.06136800 0.05237900
v -0.03869200 0.06136800 0.05237900
v -0.03853800 0.06365500 0.05237600
v -0.03853800 0.06365500 0.05237600
v -0.03853800 0.06365500 0.05237600
v -0.03794600 0.06584800 0.05242500
v -0.03794600 0.06584800 0.05242500
v -0.03794600 0.06584800 0.05242500
v -0.03279300 0.07170000 0.05244700
v -0.03021500 0.05089300 0.05238900
v -0.03652700 0.06843200 0.05238500
v -0.03652700 0.06843200 0.05238500
v -0.03228300 0.05163500 0.05238900
v -0.03412200 0.05269400 0.05257400
v -0.03498700 0.07012000 0.05235800
v -0.03655600 0.05519100 0.05238200
v -0.03763400 0.05700500 0.05237400
v -0.03763400 0.05700500 0.05237400
v -0.03058600 0.07262100 0.05890300
v -0.03058600 0.07262100 0.05890300
v -0.02857100 0.07294500 0.05232900
v -0.02578100 0.07302500 0.05786100
v -0.02425700 0.07302500 0.05786100
v -0.02077700 0.07302500 0.05786100
v -0.01925300 0.07302500 0.05786100
v -0.01577300 0.07302500 0.05786100
v -0.01424900 0.07302500 0.05786100
v -0.01077000 0.07302500 0.05786100
v -0.00924600 0.07302500 0.05786100
v -0.02818300 0.07300800 0.13557600
v -0.02818300 0.07300800 0.13557600
v -0.02818300 0.07300800 0.13557600
v -0.02818300 0.07300800 0.13557600
v -0.02818300 0.07300800 0.13557600
v -0.02818300 0.07300800 0.13557600
v -0.02967400 0.07191800 0.13662300
v -0.02967400 0.07191800 0.13662300
v -0.02967400 0.07191800 0.13662300
v -0.02967400 0.07191800 0.13662300
v -0.02967400 0.07191800 0.13662300
v -0.02967400 0.07191800 0.13662300
v 0.02880500 0.05147600 0.13662500
v 0.02880500 0.05147600 0.13662500
v 0.02880500 0.05147600 0.13662500
v 0.02880500 0.05147600 0.13662500
v 0.02880500 0.05147600 0.13662500
v 0.02880500 0.05147600 0.13662500
v 0.02880500 0.05147600 0.13662500
v 0.02880500 0.05147600 0.13662500
v 0.02880500 0.05147600 0.13662500
v 0.02880500 0.05147600 0.13662500
v 0.03176900 0.05234500 0.13662300
v 0.03176900 0.05234500 0.13662300
v 0.03176900 0.05234500 0.13662300
v -0.03677100 0.06642300 0.13661900
v -0.03677100 0.06642300 0.13661900
v -0.03677100 0.06642300 0.13661900
v -0.03677100 0.06642300 0.13661900
v -0.03677100 0.06642300 0.13661900
v -0.03677100 0.06642300 0.13661900
v -0.03677100 0.06642300 0.13661900
v -0.03778100 0.06181800 0.13664100
v -0.03778100 0.06181800 0.13664100
v -0.03778100 0.06181800 0.13664100
v -0.03778100 0.06181800 0.13664100
v -0.03778100 0.06181800 0.13664100
v -0.03778100 0.06181800 0.13664100
v -0.02998200 0.05172400 0.13663400
v -0.02998200 0.05172400 0.13663400
v -0.02998200 0.05172400 0.13663400
v -0.02998200 0.05172400 0.13663400
v -0.02998200 0.05172400 0.13663400
v -0.02998200 0.05172400 0.13663400
v -0.02998200 0.05172400 0.13663400
v -0.02998200 0.05172400 0.13663400
v -0.02998200 0.05172400 0.13663400
v -0.02998200 0.05172400 0.13663400
v 0.03553500 0.05517000 0.13660900
v 0.03553500 0.05517000 0.13660900
v 0.03553500 0.05517000 0.13660900
v 0.03553500 0.05517000 0.13660900
v 0.03553500 0.05517000 0.13660900
v 0.03078500 0.07166200 0.13663600
v 0.03078500 0.07166200 0.13663600
v 0.03078500 0.07166200 0.13663600
v 0.03078500 0.07166200 0.13663600
v 0.03078500 0.07166200 0.13663600
v 0.03078500 0.07166200 0.13663600
v 0.03078500 0.07166200 0.13663600
v -0.03255500 0.07087600 0.13661100
v -0.03255500 0.07087600 0.13661100
v -0.03255500 0.07087600 0.13661100
v -0.03255500 0.07087600 0.13661100
v -0.03255500 0.07087600 0.13661100
v 0.03487300 0.06903200 0.13661000
v 0.03487300 0.06903200 0.13661000
v 0.03487300 0.06903200 0.13661000
v 0.03487300 0.06903200 0.13661000
v 0.03487300 0.06903200 0.13661000
v 0.03487300 0.06903200 0.13661000
v 0.03703000 0.06568800 0.13662600
v 0.03703000 0.06568800 0.13662600
v 0.03703000 0.06568800 0.13662600
v 0.03703000 0.06568800 0.13662600
v 0.03703000 0.06568800 0.13662600
v 0.03703000 0.06568800 0.13662600
v 0.03703000 0.06568800 0.13662600
v 0.03781500 0.06019500 0.13659500
v 0.03781500 0.06019500 0.13659500
v 0.03781500 0.06019500 0.13659500
v 0.03781500 0.06019500 0.13659500
v 0.03781500 0.06019500 0.13659500
v 0.03781500 0.06019500 0.13659500
v 0.03781500 0.06019500 0.13659500
v 0.02878400 0.07254600 0.13635000
v 0.02878400 0.07254600 0.13635000
v 0.02878400 0.07254600 0.13635000
v 0.02878400 0.07254600 0.13635000
v 0.02878400 0.07254600 0.13635000
v 0.02878400 0.07254600 0.13635000
v 0.02817900 0.07298700 0.13568800
v 0.02817900 0.07298700 0.13568800
v 0.02817900 0.07298700 0.13568800
v 0.02817900 0.07298700 0.13568800
v 0.02817900 0.07298700 0.13568800
v 0.03090200 0.07248400 0.13564900
v 0.03090200 0.07248400 0.13564900
v 0.03090200 0.07248400 0.13564900
v 0.03090200 0.07248400 0.13564900
v 0.03090200 0.07248400 0.13564900
v 0.03090200 0.07248400 0.13564900
v 0.03569400 0.05417200 0.13563000
v 0.03569400 0.05417200 0.13563000
v 0.03569400 0.05417200 0.13563000
v 0.03569400 0.05417200 0.13563000
v 0.03569400 0.05417200 0.13563000
v 0.03549900 0.06961100 0.13561700
v 0.03549900 0.06961100 0.13561700
v 0.03549900 0.06961100 0.13561700
v 0.03549900 0.06961100 0.13561700
v 0.03022500 0.05088200 0.13563000
v 0.03022500 0.05088200 0.13563000
v 0.03022500 0.05088200 0.13563000
v 0.03022500 0.05088200 0.13563000
v -0.02875000 0.05057900 0.13570900
v -0.02875000 0.05057900 0.13570900
v -0.02875000 0.05057900 0.13570900
v -0.02875000 0.05057900 0.13570900
v -0.02875000 0.05057900 0.13570900
v -0.03762500 0.06663100 0.13565500
v -0.03762500 0.06663100 0.13565500
v -0.03762500 0.06663100 0.13565500
v -0.03762500 0.06663100 0.13565500
v -0.03762500 0.06663100 0.13565500
v -0.03350600 0.05227700 0.13564900
v -0.03350600 0.05227700 0.13564900
v -0.03350600 0.05227700 0.13564900
v -0.03350600 0.05227700 0.13564900
v -0.03555800 0.05391900 0.13562900
v -0.03555800 0.05391900 0.13562900
v -0.03555800 0.05391900 0.13562900
v -0.03555800 0.05391900 0.13562900
v -0.03555800 0.05391900 0.13562900
v -0.03031900 0.07265700 0.13563500
v -0.03031900 0.07265700 0.13563500
v -0.03031900 0.07265700 0.13563500
v -0.03031900 0.07265700 0.13563500
v -0.03709800 0.05607200 0.13596300
v -0.03709800 0.05607200 0.13596300
v -0.03709800 0.05607200 0.13596300
v -0.03709800 0.05607200 0.13596300
v -0.03709800 0.05607200 0.13596300
v -0.03709800 0.05607200 0.13596300
v -0.03734200 0.05814600 0.13655700
v -0.03734200 0.05814600 0.13655700
v -0.03734200 0.05814600 0.13655700
v -0.03734200 0.05814600 0.13655700
v -0.03734200 0.05814600 0.13655700
v -0.03802800 0.05802200 0.13592600
v -0.03802800 0.05802200 0.13592600
v -0.03802800 0.05802200 0.13592600
v -0.03802800 0.05802200 0.13592600
v -0.03802800 0.05802200 0.13592600
v -0.03802800 0.05802200 0.13592600
v -0.03826600 0.06123200 0.13641900
v -0.03826600 0.06123200 0.13641900
v -0.03826600 0.06123200 0.13641900
v -0.03826600 0.06123200 0.13641900
v -0.03826600 0.06123200 0.13641900
v -0.03826600 0.06123200 0.13641900
v -0.03854200 0.05997600 0.13584100
v -0.03854200 0.05997600 0.13584100
v -0.03854200 0.05997600 0.13584100
v -0.03854200 0.05997600 0.13584100
v -0.03854200 0.05997600 0.13584100
v -0.03872700 0.06185500 0.13577400
v -0.03872700 0.06185500 0.13577400
v -0.03872700 0.06185500 0.13577400
v -0.03872700 0.06185500 0.13577400
v -0.03872700 0.06185500 0.13577400
v -0.03872700 0.06185500 0.13577400
v -0.03795300 0.06439500 0.13638400
v -0.03795300 0.06439500 0.13638400
v -0.03795300 0.06439500 0.13638400
v -0.03795300 0.06439500 0.13638400
v -0.03795300 0.06439500 0.13638400
v -0.03795300 0.06439500 0.13638400
v -0.03838000 0.06447100 0.13576800
v -0.03838000 0.06447100 0.13576800
v -0.03838000 0.06447100 0.13576800
v -0.03838000 0.06447100 0.13576800
v -0.03838000 0.06447100 0.13576800
v -0.03838000 0.06447100 0.13576800
v -0.03735400 0.06665500 0.13616800
v -0.03735400 0.06665500 0.13616800
v -0.03735400 0.06665500 0.13616800
v -0.03735400 0.06665500 0.13616800
v -0.03735400 0.06665500 0.13616800
v -0.03735400 0.06665500 0.13616800
v -0.03559000 0.06867900 0.13651800
v -0.03559000 0.06867900 0.13651800
v -0.03559000 0.06867900 0.13651800
v -0.03559000 0.06867900 0.13651800
v -0.03559000 0.06867900 0.13651800
v -0.03559000 0.06867900 0.13651800
v -0.02963100 0.05106400 0.13632900
v -0.02963100 0.05106400 0.13632900
v -0.02963100 0.05106400 0.13632900
v -0.02963100 0.05106400 0.13632900
v -0.02963100 0.05106400 0.13632900
v -0.03620000 0.06887900 0.13575000
v -0.03620000 0.06887900 0.13575000
v -0.03620000 0.06887900 0.13575000
v -0.03620000 0.06887900 0.13575000
v -0.03620000 0.06887900 0.13575000
v -0.03620000 0.06887900 0.13575000
v -0.03240000 0.05262000 0.13661600
v -0.03240000 0.05262000 0.13661600
v -0.03240000 0.05262000 0.13661600
v -0.03240000 0.05262000 0.13661600
v -0.03501900 0.06981100 0.13615600
v -0.03501900 0.06981100 0.13615600
v -0.03501900 0.06981100 0.13615600
v -0.03184600 0.05145400 0.13593200
v -0.03184600 0.05145400 0.13593200
v -0.03184600 0.05145400 0.13593200
v -0.03184600 0.05145400 0.13593200
v -0.03184600 0.05145400 0.13593200
v -0.03184600 0.05145400 0.13593200
v -0.03184600 0.05145400 0.13593200
v -0.03403400 0.05306900 0.13633600
v -0.03403400 0.05306900 0.13633600
v -0.03403400 0.05306900 0.13633600
v -0.03403400 0.05306900 0.13633600
v -0.03403400 0.05306900 0.13633600
v -0.03403400 0.05306900 0.13633600
v -0.03399500 0.07086900 0.13595300
v -0.03399500 0.07086900 0.13595300
v -0.03399500 0.07086900 0.13595300
v -0.03399500 0.07086900 0.13595300
v -0.03399500 0.07086900 0.13595300
v -0.03399500 0.07086900 0.13595300
v -0.03547600 0.05420800 0.13618200
v -0.03547600 0.05420800 0.13618200
v -0.03547600 0.05420800 0.13618200
v -0.03547600 0.05420800 0.13618200
v -0.03583700 0.05554900 0.13661300
v -0.03583700 0.05554900 0.13661300
v -0.03583700 0.05554900 0.13661300
v -0.03583700 0.05554900 0.13661300
v -0.03583700 0.05554900 0.13661300
v -0.03583700 0.05554900 0.13661300
v -0.03583700 0.05554900 0.13661300
v -0.03200800 0.07201600 0.13594600
v -0.03200800 0.07201600 0.13594600
v -0.03200800 0.07201600 0.13594600
v -0.03200800 0.07201600 0.13594600
v -0.03200800 0.07201600 0.13594600
v -0.03200800 0.07201600 0.13594600
v -0.02875200 0.07263600 0.13629000
v -0.02875200 0.07263600 0.13629000
v -0.02875200 0.07263600 0.13629000
v -0.02875200 0.07263600 0.13629000
v -0.02875200 0.07263600 0.13629000
v -0.02875200 0.07263600 0.13629000
v 0.03720600 0.06720700 0.13589900
v 0.03720600 0.06720700 0.13589900
v 0.03720600 0.06720700 0.13589900
v 0.03720600 0.06720700 0.13589900
v 0.03720600 0.06720700 0.13589900
v 0.03720600 0.06720700 0.13589900
v 0.03655500 0.06744000 0.13640700
v 0.03655500 0.06744000 0.13640700
v 0.03655500 0.06744000 0.13640700
v 0.03655500 0.06744000 0.13640700
v 0.03804800 0.06524700 0.13595900
v 0.03804800 0.06524700 0.13595900
v 0.03804800 0.06524700 0.13595900
v 0.03804800 0.06524700 0.13595900
v 0.03804800 0.06524700 0.13595900
v 0.03815500 0.06262600 0.13640100
v 0.03815500 0.06262600 0.13640100
v 0.03815500 0.06262600 0.13640100
v 0.03815500 0.06262600 0.13640100
v 0.03815500 0.06262600 0.13640100
v 0.03852000 0.06333900 0.13578400
v 0.03852000 0.06333900 0.13578400
v 0.03852000 0.06333900 0.13578400
v 0.03852000 0.06333900 0.13578400
v 0.03861200 0.06114400 0.13578300
v 0.03861200 0.06114400 0.13578300
v 0.03861200 0.06114400 0.13578300
v 0.03861200 0.06114400 0.13578300
v 0.03861200 0.06114400 0.13578300
v 0.03816900 0.05846200 0.13572900
v 0.03816900 0.05846200 0.13572900
v 0.03816900 0.05846200 0.13572900
v 0.03816900 0.05846200 0.13572900
v 0.03816900 0.05846200 0.13572900
v 0.03748200 0.05742900 0.13625200
v 0.03748200 0.05742900 0.13625200
v 0.03748200 0.05742900 0.13625200
v 0.03748200 0.05742900 0.13625200
v 0.03651400 0.05600900 0.13639900
v 0.03651400 0.05600900 0.13639900
v 0.03651400 0.05600900 0.13639900
v 0.03080200 0.07217100 0.13628800
v 0.03080200 0.07217100 0.13628800
v 0.03080200 0.07217100 0.13628800
v 0.03080200 0.07217100 0.13628800
v 0.03080200 0.07217100 0.13628800
v 0.03685000 0.05571100 0.13580300
v 0.03685000 0.05571100 0.13580300
v 0.03685000 0.05571100 0.13580300
v 0.03685000 0.05571100 0.13580300
v 0.03685000 0.05571100 0.13580300
v 0.03685000 0.05571100 0.13580300
v 0.03508900 0.05389900 0.13618800
v 0.03508900 0.05389900 0.13618800
v 0.03508900 0.05389900 0.13618800
v 0.03508900 0.05389900 0.13618800
v 0.03508900 0.05389900 0.13618800
v 0.03508900 0.05389900 0.13618800
v 0.03321300 0.07084100 0.13640600
v 0.03321300 0.07084100 0.13640600
v 0.03321300 0.07084100 0.13640600
v 0.03321300 0.07084100 0.13640600
v 0.03321300 0.07084100 0.13640600
v 0.03318000 0.05266100 0.13638900
v 0.03318000 0.05266100 0.13638900
v 0.03318000 0.05266100 0.13638900
v 0.03318000 0.05266100 0.13638900
v 0.03318000 0.05266100 0.13638900
v 0.03342300 0.07123800 0.13581600
v 0.03342300 0.07123800 0.13581600
v 0.03342300 0.07123800 0.13581600
v 0.03342300 0.07123800 0.13581600
v 0.03342300 0.07123800 0.13581600
v 0.03342300 0.07123800 0.13581600
v 0.03342300 0.07123800 0.13581600
v 0.03392700 0.05263500 0.13579000
v 0.03392700 0.05263500 0.13579000
v 0.03392700 0.05263500 0.13579000
v 0.03392700 0.05263500 0.13579000
v 0.03392700 0.05263500 0.13579000
v 0.03531900 0.06946600 0.13614900
v 0.03531900 0.06946600 0.13614900
v 0.03531900 0.06946600 0.13614900
v 0.03531900 0.06946600 0.13614900
v 0.03531900 0.06946600 0.13614900
v 0.03531900 0.06946600 0.13614900
v 0.03190800 0.05152300 0.13596000
v 0.03190800 0.05152300 0.13596000
v 0.03190800 0.05152300 0.13596000
v 0.03190800 0.05152300 0.13596000
v 0.03190800 0.05152300 0.13596000
v 0.03190800 0.05152300 0.13596000
v 0.03190800 0.05152300 0.13596000
v 0.03190800 0.05152300 0.13596000
v 0.02847600 0.05063400 0.13595100
v 0.02847600 0.05063400 0.13595100
v 0.02847600 0.05063400 0.13595100
v 0.02847600 0.05063400 0.13595100
v 0.02847600 0.05063400 0.13595100
v 0.02847600 0.05063400 0.13595100
vn -0.86570000 0.50050000 0.00010000
vn 0.86550000 0.50100000 0.00020000
vn 0.00050000 1.00000000 0.00040000
vn -0.00000000 1.00000000 0.00020000
vn -0.00000000 1.00000000 0.00050000
vn -0.00000000 1.00000000 0.00050000
vn 0.00290000 1.00000000 -0.00000000
vn 0.00290000 1.00000000 -0.00000000
vn -0.02370000 0.05760000 0.99810000
vn 0.00010000 -0.00160000 1.00000000
vn -0.00010000 0.14090000 0.99000000
vn -0.86570000 0.50050000 0.00010000
vn 0.86550000 0.50100000 0.00020000
vn 0.86480000 0.50210000 0.00270000
vn 0.00180000 -0.00070000 1.00000000
vn 0.00050000 1.00000000 0.00040000
vn 0.00290000 1.00000000 -0.00000000
vn 0.86550000 0.50100000 0.00020000
vn -0.00000000 1.00000000 0.00050000
vn 0.86480000 0.50210000 0.00270000
vn 0.00160000 0.70980000 0.70440000
vn -0.00210000 0.88720000 0.46150000
vn -0.00230000 0.42420000 0.90560000
vn 0.00160000 0.70980000 0.70440000
vn 0.00030000 0.00050000 1.00000000
vn -0.02370000 0.05760000 0.99810000
vn 0.86480000 0.50210000 0.00270000
vn -0.00010000 0.14090000 0.99000000
vn 0.01170000 0.33230000 0.94310000
vn -0.00340000 0.74630000 0.66560000
vn 0.00800000 0.83530000 0.54980000
vn -0.00340000 0.74630000 0.66560000
vn -0.01440000 0.99990000 -0.00150000
vn -0.86570000 0.50050000 0.00010000
vn -0.00020000 1.00000000 -0.00010000
vn -0.01440000 0.99990000 -0.00150000
vn -0.00020000 1.00000000 -0.00010000
vn -0.01440000 0.99990000 -0.00150000
vn 0.16610000 0.98610000 -0.00030000
vn 0.91900000 0.39430000 0.00020000
vn 0.97070000 0.24030000 0.00070000
vn 0.99910000 0.04190000 0.00070000
vn 0.98660000 -0.16310000 0.00070000
vn 0.90170000 -0.43230000 0.00060000
vn 0.79940000 -0.60080000 0.00080000
vn 0.67880000 -0.73430000 -0.00070000
vn 0.41530000 0.90970000 -0.00070000
vn 0.18180000 0.98330000 0.00020000
vn 0.16610000 0.98610000 -0.00030000
vn 0.65640000 -0.75440000 0.00020000
vn 0.45690000 -0.88950000 -0.00020000
vn 0.48260000 -0.87580000 0.00060000
vn 0.67880000 -0.73430000 -0.00070000
vn 0.41530000 0.90970000 -0.00070000
vn 0.58660000 0.80980000 -0.00020000
vn 0.44290000 0.89650000 0.00030000
vn 0.58660000 0.80980000 -0.00020000
vn 0.61710000 0.78690000 0.00070000
vn 0.35560000 -0.93460000 0.00060000
vn 0.25760000 -0.96630000 -0.00100000
vn 0.45690000 -0.88950000 -0.00020000
vn 0.81510000 0.57930000 0.00090000
vn 0.14090000 -0.99000000 0.00120000
vn -0.00030000 -1.00000000 -0.00000000
vn 0.00090000 -1.00000000 0.00080000
vn 0.25760000 -0.96630000 -0.00100000
vn -0.00030000 -1.00000000 -0.00000000
vn -0.96710000 -0.25440000 0.00110000
vn -0.99230000 -0.12360000 -0.00030000
vn -0.93970000 -0.34190000 -0.00030000
vn -0.99230000 -0.12360000 -0.00030000
vn -0.99520000 -0.09800000 0.00020000
vn -0.99770000 0.06720000 -0.00080000
vn -0.99130000 0.13150000 0.00060000
vn -0.96550000 0.26050000 -0.00070000
vn -0.99770000 0.06720000 -0.00080000
vn -0.87650000 0.48140000 -0.00110000
vn -0.94400000 0.32990000 0.00050000
vn -0.96550000 0.26050000 -0.00070000
vn -0.50000000 0.86600000 0.00140000
vn -0.27190000 -0.96230000 0.00120000
vn -0.87650000 0.48140000 -0.00110000
vn -0.84450000 0.53550000 0.00040000
vn -0.44390000 -0.89610000 0.00040000
vn -0.62480000 -0.78080000 0.00070000
vn -0.67010000 0.74220000 0.00130000
vn -0.81330000 -0.58190000 0.00090000
vn -0.90260000 -0.43040000 0.00100000
vn -0.93970000 -0.34190000 -0.00030000
vn -0.35470000 0.93500000 0.00080000
vn -0.16230000 0.98670000 0.00010000
vn -0.02760000 0.99960000 -0.00060000
vn -0.02760000 0.99960000 -0.00060000
vn -0.00000000 1.00000000 0.00020000
vn -0.00000000 1.00000000 0.00020000
vn -0.00000000 1.00000000 0.00020000
vn -0.00000000 1.00000000 0.00020000
vn -0.00000000 1.00000000 0.00020000
vn -0.00000000 1.00000000 0.00020000
vn -0.00000000 1.00000000 0.00020000
vn -0.16230000 0.98670000 0.00010000
vn -0.14110000 0.91930000 0.36750000
vn -0.02760000 0.99960000 -0.00060000
vn -0.00000000 1.00000000 0.00020000
vn 0.00050000 1.00000000 0.00040000
vn -0.00210000 0.88720000 0.46150000
vn 0.00030000 0.00050000 1.00000000
vn -0.00110000 0.00050000 1.00000000
vn -0.19700000 0.61030000 0.76730000
vn -0.00230000 0.42420000 0.90560000
vn -0.00760000 0.00900000 0.99990000
vn -0.20790000 0.56490000 0.79850000
vn 0.00560000 -0.00110000 1.00000000
vn 0.00780000 -0.00460000 1.00000000
vn 0.16760000 -0.65520000 0.73660000
vn -0.00160000 -0.42050000 0.90730000
vn 0.00040000 -0.62500000 0.78060000
vn -0.00400000 0.00220000 1.00000000
vn 0.00010000 -0.00160000 1.00000000
vn 0.00110000 0.00230000 1.00000000
vn 0.00180000 -0.00070000 1.00000000
vn 0.17620000 -0.59990000 0.78040000
vn 0.17620000 -0.59990000 0.78040000
vn 0.25840000 -0.57980000 0.77270000
vn 0.21950000 -0.28780000 0.93220000
vn -0.50530000 0.30090000 0.80880000
vn -0.54000000 0.22040000 0.81230000
vn -0.00760000 0.00900000 0.99990000
vn -0.00110000 0.00050000 1.00000000
vn 0.00560000 0.00360000 1.00000000
vn -0.31440000 0.07350000 0.94640000
vn -0.10060000 0.09700000 0.99020000
vn -0.35040000 -0.06310000 0.93450000
vn -0.09520000 -0.03400000 0.99490000
vn 0.00560000 0.00360000 1.00000000
vn -0.00820000 -0.00710000 0.99990000
vn -0.31440000 0.07350000 0.94640000
vn -0.47040000 0.05650000 0.88060000
vn 0.00560000 0.00360000 1.00000000
vn -0.00110000 0.00050000 1.00000000
vn -0.00820000 -0.00710000 0.99990000
vn 0.00010000 -0.00160000 1.00000000
vn -0.00160000 -0.42050000 0.90730000
vn -0.21670000 -0.56850000 0.79360000
vn -0.23780000 -0.50930000 0.82710000
vn -0.01260000 -0.01370000 0.99980000
vn -0.02370000 0.05760000 0.99810000
vn 0.00030000 0.00050000 1.00000000
vn 0.34990000 -0.40260000 0.84590000
vn 0.52460000 -0.42770000 0.73610000
vn 0.00110000 0.00230000 1.00000000
vn 0.35090000 -0.15670000 0.92320000
vn 0.21950000 -0.28780000 0.93220000
vn 0.01170000 0.33230000 0.94310000
vn 0.18180000 0.27340000 0.94460000
vn 0.00180000 -0.00070000 1.00000000
vn 0.00560000 -0.00110000 1.00000000
vn 0.25840000 0.54010000 0.80090000
vn 0.12890000 0.55770000 0.82000000
vn -0.00010000 0.14090000 0.99000000
vn -0.33780000 0.58940000 0.73380000
vn -0.36750000 0.47390000 0.80020000
vn -0.20790000 0.56490000 0.79850000
vn -0.10060000 0.09700000 0.99020000
vn -0.00760000 0.00900000 0.99990000
vn 0.00560000 -0.00110000 1.00000000
vn 0.29980000 0.19780000 0.93330000
vn 0.18180000 0.27340000 0.94460000
vn 0.39220000 0.45040000 0.80210000
vn -0.00400000 0.00220000 1.00000000
vn 0.45870000 0.38220000 0.80220000
vn -0.00400000 0.00220000 1.00000000
vn 0.65010000 0.26500000 0.71210000
vn 0.60880000 0.28360000 0.74090000
vn 0.29980000 0.19780000 0.93330000
vn 0.00780000 -0.00460000 1.00000000
vn 0.58850000 0.15810000 0.79290000
vn 0.28850000 0.03580000 0.95680000
vn 0.00110000 0.00230000 1.00000000
vn 0.00780000 -0.00460000 1.00000000
vn 0.78410000 -0.14180000 0.60420000
vn 0.28850000 0.03580000 0.95680000
vn 0.74560000 -0.16970000 0.64440000
vn 0.35090000 -0.15670000 0.92320000
vn 0.74150000 -0.05050000 0.66910000
vn 0.01170000 0.33230000 0.94310000
vn 0.17620000 0.87270000 0.45540000
vn -0.00340000 0.74630000 0.66560000
vn 0.16970000 0.88440000 0.43470000
vn 0.12890000 0.55770000 0.82000000
vn 0.00800000 0.83530000 0.54980000
vn 0.00800000 0.83530000 0.54980000
vn 0.18180000 0.98330000 0.00020000
vn 0.16610000 0.98610000 -0.00030000
vn -0.00020000 1.00000000 -0.00010000
vn 0.16970000 0.88440000 0.43470000
vn 0.44290000 0.89650000 0.00030000
vn 0.41530000 0.90970000 -0.00070000
vn 0.18180000 0.98330000 0.00020000
vn 0.37010000 0.81000000 0.45500000
vn 0.16970000 0.88440000 0.43470000
vn 0.17620000 0.87270000 0.45540000
vn 0.79940000 -0.60080000 0.00080000
vn 0.68280000 -0.56510000 0.46310000
vn 0.63320000 -0.69170000 0.34740000
vn 0.67880000 -0.73430000 -0.00070000
vn 0.65640000 -0.75440000 0.00020000
vn 0.59070000 0.70530000 0.39180000
vn 0.81510000 0.57930000 0.00090000
vn 0.61710000 0.78690000 0.00070000
vn 0.72500000 0.56200000 0.39820000
vn 0.21290000 -0.82760000 0.51940000
vn 0.25760000 -0.96630000 -0.00100000
vn 0.35560000 -0.93460000 0.00060000
vn 0.14090000 -0.99000000 0.00120000
vn -0.00030000 -1.00000000 -0.00000000
vn 0.00090000 -1.00000000 0.00080000
vn -0.22610000 -0.89670000 0.38060000
vn -0.00180000 -0.78860000 0.61490000
vn -0.27190000 -0.96230000 0.00120000
vn -0.94400000 0.32990000 0.00050000
vn -0.87650000 0.48140000 -0.00110000
vn -0.84440000 0.31760000 0.43140000
vn -0.84450000 0.53550000 0.00040000
vn -0.78430000 0.48090000 0.39200000
vn -0.62480000 -0.78080000 0.00070000
vn -0.57910000 -0.71890000 0.38460000
vn -0.45070000 -0.73680000 0.50400000
vn -0.44390000 -0.89610000 0.00040000
vn -0.71280000 -0.57270000 0.40490000
vn -0.58440000 -0.68040000 0.44220000
vn -0.57910000 -0.71890000 0.38460000
vn -0.62480000 -0.78080000 0.00070000
vn -0.81330000 -0.58190000 0.00090000
vn -0.21200000 0.81840000 0.53420000
vn -0.16230000 0.98670000 0.00010000
vn -0.35470000 0.93500000 0.00080000
vn -0.14110000 0.91930000 0.36750000
vn -0.90260000 -0.43040000 0.00100000
vn -0.81330000 -0.58190000 0.00090000
vn -0.71280000 -0.57270000 0.40490000
vn -0.54370000 -0.38570000 0.74540000
vn -0.53050000 -0.29060000 0.79630000
vn -0.62140000 -0.28250000 0.73080000
vn -0.53050000 -0.29060000 0.79630000
vn -0.09520000 -0.03400000 0.99490000
vn -0.35040000 -0.06310000 0.93450000
vn -0.65220000 -0.16200000 0.74050000
vn -0.62140000 -0.28250000 0.73080000
vn -0.90260000 -0.43040000 0.00100000
vn -0.65220000 -0.16200000 0.74050000
vn -0.71320000 -0.15770000 0.68300000
vn -0.96710000 -0.25440000 0.00110000
vn -0.93970000 -0.34190000 -0.00030000
vn -0.62140000 -0.28250000 0.73080000
vn -0.77100000 0.08350000 0.63130000
vn -0.65220000 -0.16200000 0.74050000
vn -0.71320000 -0.15770000 0.68300000
vn -0.84000000 -0.06350000 0.53880000
vn -0.47040000 0.05650000 0.88060000
vn -0.35040000 -0.06310000 0.93450000
vn -0.99230000 -0.12360000 -0.00030000
vn -0.84000000 -0.06350000 0.53880000
vn -0.71320000 -0.15770000 0.68300000
vn -0.96710000 -0.25440000 0.00110000
vn -0.99520000 -0.09800000 0.00020000
vn -0.77100000 0.08350000 0.63130000
vn -0.99130000 0.13150000 0.00060000
vn -0.99520000 -0.09800000 0.00020000
vn -0.99770000 0.06720000 -0.00080000
vn -0.81050000 0.10890000 0.57550000
vn -0.84000000 -0.06350000 0.53880000
vn -0.81050000 0.10890000 0.57550000
vn -0.77100000 0.08350000 0.63130000
vn -0.31440000 0.07350000 0.94640000
vn -0.47040000 0.05650000 0.88060000
vn -0.77800000 0.26060000 0.57170000
vn -0.54000000 0.22040000 0.81230000
vn -0.99130000 0.13150000 0.00060000
vn -0.94400000 0.32990000 0.00050000
vn -0.96550000 0.26050000 -0.00070000
vn -0.84440000 0.31760000 0.43140000
vn -0.77800000 0.26060000 0.57170000
vn -0.81050000 0.10890000 0.57550000
vn -0.50530000 0.30090000 0.80880000
vn -0.63900000 0.44920000 0.62430000
vn -0.78430000 0.48090000 0.39200000
vn -0.84440000 0.31760000 0.43140000
vn -0.54000000 0.22040000 0.81230000
vn -0.77800000 0.26060000 0.57170000
vn -0.60850000 0.50280000 0.61400000
vn -0.36750000 0.47390000 0.80020000
vn -0.10060000 0.09700000 0.99020000
vn -0.24280000 0.40410000 0.88190000
vn -0.63900000 0.44920000 0.62430000
vn -0.50530000 0.30090000 0.80880000
vn -0.23780000 -0.50930000 0.82710000
vn -0.22610000 -0.89670000 0.38060000
vn -0.00160000 -0.42050000 0.90730000
vn 0.00040000 -0.62500000 0.78060000
vn -0.00180000 -0.78860000 0.61490000
vn -0.78430000 0.48090000 0.39200000
vn -0.60850000 0.50280000 0.61400000
vn -0.65270000 0.69130000 0.30980000
vn -0.67010000 0.74220000 0.00130000
vn -0.84450000 0.53550000 0.00040000
vn -0.63900000 0.44920000 0.62430000
vn -0.29010000 -0.58310000 0.75880000
vn -0.23510000 -0.27480000 0.93230000
vn -0.01260000 -0.01370000 0.99980000
vn -0.21670000 -0.56850000 0.79360000
vn -0.60850000 0.50280000 0.61400000
vn -0.24280000 0.40410000 0.88190000
vn -0.65270000 0.69130000 0.30980000
vn -0.45070000 -0.73680000 0.50400000
vn -0.23780000 -0.50930000 0.82710000
vn -0.21670000 -0.56850000 0.79360000
vn -0.27190000 -0.96230000 0.00120000
vn -0.44390000 -0.89610000 0.00040000
vn -0.22610000 -0.89670000 0.38060000
vn -0.29010000 -0.58310000 0.75880000
vn -0.58440000 -0.68040000 0.44220000
vn -0.38600000 -0.37460000 0.84310000
vn -0.23510000 -0.27480000 0.93230000
vn -0.29010000 -0.58310000 0.75880000
vn -0.57910000 -0.71890000 0.38460000
vn -0.45070000 -0.73680000 0.50400000
vn -0.50000000 0.86600000 0.00140000
vn -0.67010000 0.74220000 0.00130000
vn -0.24280000 0.40410000 0.88190000
vn -0.36750000 0.47390000 0.80020000
vn -0.65270000 0.69130000 0.30980000
vn -0.33780000 0.58940000 0.73380000
vn -0.71280000 -0.57270000 0.40490000
vn -0.54370000 -0.38570000 0.74540000
vn -0.58440000 -0.68040000 0.44220000
vn -0.38600000 -0.37460000 0.84310000
vn -0.00820000 -0.00710000 0.99990000
vn -0.38600000 -0.37460000 0.84310000
vn -0.53050000 -0.29060000 0.79630000
vn -0.54370000 -0.38570000 0.74540000
vn -0.23510000 -0.27480000 0.93230000
vn -0.09520000 -0.03400000 0.99490000
vn -0.01260000 -0.01370000 0.99980000
vn -0.33780000 0.58940000 0.73380000
vn -0.50000000 0.86600000 0.00140000
vn -0.35470000 0.93500000 0.00080000
vn -0.20790000 0.56490000 0.79850000
vn -0.19700000 0.61030000 0.76730000
vn -0.21200000 0.81840000 0.53420000
vn -0.21200000 0.81840000 0.53420000
vn 0.00160000 0.70980000 0.70440000
vn -0.19700000 0.61030000 0.76730000
vn -0.00230000 0.42420000 0.90560000
vn -0.14110000 0.91930000 0.36750000
vn -0.00210000 0.88720000 0.46150000
vn 0.91900000 0.39430000 0.00020000
vn 0.65010000 0.26500000 0.71210000
vn 0.81510000 0.57930000 0.00090000
vn 0.60880000 0.28360000 0.74090000
vn 0.64120000 0.46890000 0.60740000
vn 0.72500000 0.56200000 0.39820000
vn 0.64120000 0.46890000 0.60740000
vn 0.29980000 0.19780000 0.93330000
vn 0.45870000 0.38220000 0.80220000
vn 0.65010000 0.26500000 0.71210000
vn 0.77610000 0.13590000 0.61580000
vn 0.60880000 0.28360000 0.74090000
vn 0.58850000 0.15810000 0.79290000
vn 0.91900000 0.39430000 0.00020000
vn 0.97070000 0.24030000 0.00070000
vn 0.28850000 0.03580000 0.95680000
vn 0.58850000 0.15810000 0.79290000
vn 0.74150000 -0.05050000 0.66910000
vn 0.77610000 0.13590000 0.61580000
vn 0.84210000 0.03510000 0.53820000
vn 0.77610000 0.13590000 0.61580000
vn 0.97070000 0.24030000 0.00070000
vn 0.99910000 0.04190000 0.00070000
vn 0.84210000 0.03510000 0.53820000
vn 0.84210000 0.03510000 0.53820000
vn 0.74150000 -0.05050000 0.66910000
vn 0.78410000 -0.14180000 0.60420000
vn 0.99910000 0.04190000 0.00070000
vn 0.98660000 -0.16310000 0.00070000
vn 0.74560000 -0.16970000 0.64440000
vn 0.98660000 -0.16310000 0.00070000
vn 0.85430000 -0.40070000 0.33090000
vn 0.90170000 -0.43230000 0.00060000
vn 0.78410000 -0.14180000 0.60420000
vn 0.85430000 -0.40070000 0.33090000
vn 0.74560000 -0.16970000 0.64440000
vn 0.35090000 -0.15670000 0.92320000
vn 0.69120000 -0.40990000 0.59520000
vn 0.52460000 -0.42770000 0.73610000
vn 0.69120000 -0.40990000 0.59520000
vn 0.63320000 -0.48750000 0.60120000
vn 0.36130000 0.70920000 0.60540000
vn 0.17620000 0.87270000 0.45540000
vn 0.25840000 0.54010000 0.80090000
vn 0.37010000 0.81000000 0.45500000
vn 0.12890000 0.55770000 0.82000000
vn 0.85430000 -0.40070000 0.33090000
vn 0.90170000 -0.43230000 0.00060000
vn 0.68280000 -0.56510000 0.46310000
vn 0.63320000 -0.48750000 0.60120000
vn 0.79940000 -0.60080000 0.00080000
vn 0.69120000 -0.40990000 0.59520000
vn 0.68280000 -0.56510000 0.46310000
vn 0.63320000 -0.48750000 0.60120000
vn 0.52460000 -0.42770000 0.73610000
vn 0.63320000 -0.69170000 0.34740000
vn 0.47280000 -0.62920000 0.61690000
vn 0.34990000 -0.40260000 0.84590000
vn 0.36130000 0.70920000 0.60540000
vn 0.25840000 0.54010000 0.80090000
vn 0.18180000 0.27340000 0.94460000
vn 0.48760000 0.63420000 0.60000000
vn 0.39220000 0.45040000 0.80210000
vn 0.43280000 -0.69840000 0.57000000
vn 0.25840000 -0.57980000 0.77270000
vn 0.47280000 -0.62920000 0.61690000
vn 0.34990000 -0.40260000 0.84590000
vn 0.21950000 -0.28780000 0.93220000
vn 0.37010000 0.81000000 0.45500000
vn 0.61710000 0.78690000 0.00070000
vn 0.44290000 0.89650000 0.00030000
vn 0.58660000 0.80980000 -0.00020000
vn 0.48760000 0.63420000 0.60000000
vn 0.36130000 0.70920000 0.60540000
vn 0.59070000 0.70530000 0.39180000
vn 0.63320000 -0.69170000 0.34740000
vn 0.65640000 -0.75440000 0.00020000
vn 0.47280000 -0.62920000 0.61690000
vn 0.43280000 -0.69840000 0.57000000
vn 0.48260000 -0.87580000 0.00060000
vn 0.45870000 0.38220000 0.80220000
vn 0.39220000 0.45040000 0.80210000
vn 0.72500000 0.56200000 0.39820000
vn 0.48760000 0.63420000 0.60000000
vn 0.59070000 0.70530000 0.39180000
vn 0.64120000 0.46890000 0.60740000
vn 0.16760000 -0.65520000 0.73660000
vn 0.21290000 -0.82760000 0.51940000
vn 0.35560000 -0.93460000 0.00060000
vn 0.43280000 -0.69840000 0.57000000
vn 0.48260000 -0.87580000 0.00060000
vn 0.45690000 -0.88950000 -0.00020000
vn 0.17620000 -0.59990000 0.78040000
vn 0.25840000 -0.57980000 0.77270000
vn 0.00040000 -0.62500000 0.78060000
vn -0.00180000 -0.78860000 0.61490000
vn 0.16760000 -0.65520000 0.73660000
vn 0.00090000 -1.00000000 0.00080000
vn 0.14090000 -0.99000000 0.00120000
vn 0.21290000 -0.82760000 0.51940000
vt 0.90606600 0.45497900
vt 0.48651600 0.48351300
vt 0.61560200 0.62017200
vt 0.61560200 0.62017200
vt 0.61560200 0.62017200
vt 0.61185100 0.62021000
vt 0.61185100 0.62021000
vt 0.60135500 0.61333400
vt 0.83173400 0.65394600
vt 0.83173400 0.65394600
vt 0.83173400 0.65394600
vt 0.90606600 0.54658500
vt 0.48651600 0.39190500
vt 0.48651600 0.39190500
vt 0.83173400 0.65394600
vt 0.60167800 0.70310100
vt 0.60167800 0.70310100
vt 0.48472900 0.39279800
vt 0.60167800 0.70310100
vt 0.48472900 0.39279800
vt 0.83013700 0.65302600
vt 0.60167800 0.70310100
vt 0.83096900 0.65350400
vt 0.83096900 0.65350400
vt 0.83096900 0.65350400
vt 0.83096900 0.65350400
vt 0.48565800 0.39196100
vt 0.83084100 0.65446400
vt 0.83084100 0.65446400
vt 0.83084100 0.65446400
vt 0.90431300 0.54567000
vt 0.83014000 0.65487100
vt 0.90431300 0.54567000
vt 0.90431300 0.54567000
vt 0.90431300 0.54567000
vt 0.90448000 0.45552700
vt 0.89779300 0.45600100
vt 0.89779300 0.45600100
vt 0.87363000 0.08194200
vt 0.86175800 0.08173400
vt 0.85951600 0.08192400
vt 0.85718500 0.08181700
vt 0.68422500 0.25436200
vt 0.68232000 0.25401600
vt 0.67919400 0.25437800
vt 0.67919400 0.25437800
vt 0.87138000 0.08191300
vt 0.87138000 0.08191300
vt 0.87138000 0.08191300
vt 0.67573900 0.25428300
vt 0.67573900 0.25428300
vt 0.67573900 0.25428300
vt 0.67573900 0.25428300
vt 0.86849500 0.08187600
vt 0.86849500 0.08187600
vt 0.86849500 0.08187600
vt 0.86626500 0.08207400
vt 0.86626500 0.08207400
vt 0.67298000 0.25428100
vt 0.67298000 0.25428100
vt 0.67298000 0.25428100
vt 0.86407700 0.08188800
vt 0.67038500 0.25451400
vt 0.39324700 0.45212200
vt 0.39324700 0.45212200
vt 0.67038500 0.25451400
vt 0.34989800 0.45157300
vt 0.33568800 0.45171300
vt 0.33568800 0.45171300
vt 0.33568800 0.45171300
vt 0.33379000 0.45157800
vt 0.33379000 0.45157800
vt 0.65511800 0.61287700
vt 0.65334400 0.61286800
vt 0.65334400 0.61286800
vt 0.65334400 0.61286800
vt 0.65128900 0.61291800
vt 0.65128900 0.61291800
vt 0.65128900 0.61291800
vt 0.64295100 0.61296600
vt 0.34821400 0.45153600
vt 0.64829100 0.61288000
vt 0.64829100 0.61288000
vt 0.34607800 0.45153100
vt 0.34387300 0.45173000
vt 0.64584200 0.61285700
vt 0.34012100 0.45153500
vt 0.33791800 0.45153600
vt 0.33791800 0.45153600
vt 0.64055000 0.61992800
vt 0.64055000 0.61992800
vt 0.63868300 0.61286900
vt 0.63641900 0.61884400
vt 0.63520200 0.61885600
vt 0.63242500 0.61888400
vt 0.63120800 0.61889600
vt 0.62843100 0.61892400
vt 0.62721500 0.61893600
vt 0.62443700 0.61896400
vt 0.62322100 0.61897600
vt 0.63865000 0.70245900
vt 0.63865000 0.70245900
vt 0.63865000 0.70245900
vt 0.63865000 0.70245900
vt 0.63865000 0.70245900
vt 0.63865000 0.70245900
vt 0.83123900 0.60154700
vt 0.83123900 0.60154700
vt 0.83123900 0.60154700
vt 0.83123900 0.60154700
vt 0.83123900 0.60154700
vt 0.83123900 0.60154700
vt 0.85329800 0.66446100
vt 0.85329800 0.66446100
vt 0.85329800 0.66446100
vt 0.85329800 0.66446100
vt 0.85329800 0.66446100
vt 0.85329800 0.66446100
vt 0.85329800 0.66446100
vt 0.85329800 0.66446100
vt 0.85329800 0.66446100
vt 0.85329800 0.66446100
vt 0.85236700 0.66765100
vt 0.85236700 0.66765100
vt 0.85236700 0.66765100
vt 0.83714500 0.59390300
vt 0.83714500 0.59390300
vt 0.83714500 0.59390300
vt 0.83714500 0.59390300
vt 0.83714500 0.59390300
vt 0.83714500 0.59390300
vt 0.83714500 0.59390300
vt 0.84210000 0.59281200
vt 0.84210000 0.59281200
vt 0.84210000 0.59281200
vt 0.84210000 0.59281200
vt 0.84210000 0.59281200
vt 0.84210000 0.59281200
vt 0.85297100 0.60119500
vt 0.85297100 0.60119500
vt 0.85297100 0.60119500
vt 0.85297100 0.60119500
vt 0.85297100 0.60119500
vt 0.85297100 0.60119500
vt 0.85297100 0.60119500
vt 0.85297100 0.60119500
vt 0.85297100 0.60119500
vt 0.85297100 0.60119500
vt 0.84933000 0.67170800
vt 0.84933000 0.67170800
vt 0.84933000 0.67170800
vt 0.84933000 0.67170800
vt 0.84933000 0.67170800
vt 0.83157600 0.66661200
vt 0.83157600 0.66661200
vt 0.83157600 0.66661200
vt 0.83157600 0.66661200
vt 0.83157600 0.66661200
vt 0.83157600 0.66661200
vt 0.83157600 0.66661200
vt 0.83235800 0.59844600
vt 0.83235800 0.59844600
vt 0.83235800 0.59844600
vt 0.83235800 0.59844600
vt 0.83235800 0.59844600
vt 0.83441000 0.67101000
vt 0.83441000 0.67101000
vt 0.83441000 0.67101000
vt 0.83441000 0.67101000
vt 0.83441000 0.67101000
vt 0.83441000 0.67101000
vt 0.83801200 0.67332700
vt 0.83801200 0.67332700
vt 0.83801200 0.67332700
vt 0.83801200 0.67332700
vt 0.83801200 0.67332700
vt 0.83801200 0.67332700
vt 0.83801200 0.67332700
vt 0.84392400 0.67416700
vt 0.84392400 0.67416700
vt 0.68527100 0.34477300
vt 0.84392400 0.67416700
vt 0.68527100 0.34477300
vt 0.84392400 0.67416700
vt 0.84392400 0.67416700
vt 0.83062200 0.66446000
vt 0.87283600 0.17223200
vt 0.83062200 0.66446000
vt 0.87283600 0.17223200
vt 0.83062200 0.66446000
vt 0.89751700 0.54629600
vt 0.89768100 0.54557900
vt 0.87363000 0.17152000
vt 0.87363000 0.17152000
vt 0.89768100 0.54557900
vt 0.87363000 0.17152000
vt 0.87119600 0.17147200
vt 0.87119600 0.17147200
vt 0.87119600 0.17147200
vt 0.87119600 0.17147200
vt 0.87119600 0.17147200
vt 0.87119600 0.17147200
vt 0.67905100 0.34375200
vt 0.67905100 0.34375200
vt 0.67905100 0.34375200
vt 0.67905100 0.34375200
vt 0.67905100 0.34375200
vt 0.86552900 0.17143500
vt 0.86552900 0.17143500
vt 0.86552900 0.17143500
vt 0.86552900 0.17143500
vt 0.67239400 0.34381300
vt 0.67239400 0.34381300
vt 0.67239400 0.34381300
vt 0.67239400 0.34381300
vt 0.34980000 0.54120600
vt 0.34980000 0.54120600
vt 0.34980000 0.54120600
vt 0.85420400 0.60252100
vt 0.34980000 0.54120600
vt 0.65079000 0.70248900
vt 0.65079000 0.70248900
vt 0.65079000 0.70248900
vt 0.65079000 0.70248900
vt 0.65079000 0.70248900
vt 0.34489200 0.54113100
vt 0.34489200 0.54113100
vt 0.34489200 0.54113100
vt 0.34489200 0.54113100
vt 0.34208100 0.54111400
vt 0.34208100 0.54111400
vt 0.34208100 0.54111400
vt 0.34208100 0.54111400
vt 0.34208100 0.54111400
vt 0.64060800 0.70250700
vt 0.64060800 0.70250700
vt 0.64060800 0.70250700
vt 0.64060800 0.70250700
vt 0.33927100 0.54148500
vt 0.33927100 0.54148500
vt 0.33927100 0.54148500
vt 0.84828400 0.59354200
vt 0.84828400 0.59354200
vt 0.84828400 0.59354200
vt 0.84605300 0.59328000
vt 0.84605300 0.59328000
vt 0.84605300 0.59328000
vt 0.84605300 0.59328000
vt 0.84605300 0.59328000
vt 0.33707800 0.54145900
vt 0.84618500 0.59254400
vt 0.84618500 0.59254400
vt 0.33707800 0.54145900
vt 0.33707800 0.54145900
vt 0.84618500 0.59254400
vt 0.84273000 0.59229000
vt 0.84273000 0.59229000
vt 0.84273000 0.59229000
vt 0.33445200 0.54201900
vt 0.84273000 0.59229000
vt 0.84273000 0.59229000
vt 0.33519800 0.54138300
vt 0.33519800 0.54138300
vt 0.84408100 0.59199300
vt 0.33519800 0.54138300
vt 0.33519800 0.54138300
vt 0.84205800 0.59179600
vt 0.65511800 0.70262200
vt 0.33362500 0.54132700
vt 0.65511800 0.70262200
vt 0.65511800 0.70262200
vt 0.33362500 0.54132700
vt 0.65266800 0.70327700
vt 0.83932600 0.59263000
vt 0.83932600 0.59263000
vt 0.83932600 0.59263000
vt 0.65266800 0.70327700
vt 0.83932600 0.59263000
vt 0.65295200 0.70261000
vt 0.65295200 0.70261000
vt 0.65295200 0.70261000
vt 0.65295200 0.70261000
vt 0.65295200 0.70261000
vt 0.65295200 0.70261000
vt 0.83689500 0.59327700
vt 0.65055900 0.70304300
vt 0.65055900 0.70304300
vt 0.65055900 0.70304300
vt 0.83689500 0.59327700
vt 0.65055900 0.70304300
vt 0.64769000 0.70342700
vt 0.83471900 0.59517700
vt 0.83471900 0.59517700
vt 0.83471900 0.59517700
vt 0.64769000 0.70342700
vt 0.83471900 0.59517700
vt 0.85368200 0.60157300
vt 0.34876300 0.54187200
vt 0.85368200 0.60157300
vt 0.85368200 0.60157300
vt 0.85368200 0.60157300
vt 0.64803000 0.70259500
vt 0.64803000 0.70259500
vt 0.64803000 0.70259500
vt 0.64803000 0.70259500
vt 0.64803000 0.70259500
vt 0.64803000 0.70259500
vt 0.85200400 0.59859300
vt 0.85200400 0.59859300
vt 0.85200400 0.59859300
vt 0.85200400 0.59859300
vt 0.64641700 0.70303900
vt 0.83350100 0.59579300
vt 0.64641700 0.70303900
vt 0.34678100 0.54143700
vt 0.85325900 0.59919000
vt 0.85325900 0.59919000
vt 0.34678100 0.54143700
vt 0.34678100 0.54143700
vt 0.34678100 0.54143700
vt 0.85325900 0.59919000
vt 0.34388800 0.54187500
vt 0.85151900 0.59683600
vt 0.85151900 0.59683600
vt 0.85151900 0.59683600
vt 0.34388800 0.54187500
vt 0.34388800 0.54187500
vt 0.64483500 0.70282600
vt 0.64483500 0.70282600
vt 0.83236300 0.59689700
vt 0.83236300 0.59689700
vt 0.64483500 0.70282600
vt 0.83236300 0.59689700
vt 0.34192500 0.54171200
vt 0.85029300 0.59528600
vt 0.34192500 0.54171200
vt 0.85029300 0.59528600
vt 0.84884900 0.59489800
vt 0.84884900 0.59489800
vt 0.84884900 0.59489800
vt 0.84884900 0.59489800
vt 0.84884900 0.59489800
vt 0.84884900 0.59489800
vt 0.84884900 0.59489800
vt 0.83113100 0.59903600
vt 0.64242100 0.70283100
vt 0.64242100 0.70283100
vt 0.83113100 0.59903600
vt 0.83113100 0.59903600
vt 0.64242100 0.70283100
vt 0.63937500 0.70322400
vt 0.83046700 0.60254100
vt 0.83046700 0.60254100
vt 0.83046700 0.60254100
vt 0.63937500 0.70322400
vt 0.63937500 0.70322400
vt 0.86239400 0.17174400
vt 0.83637600 0.67352000
vt 0.86239400 0.17174400
vt 0.83637600 0.67352000
vt 0.86239400 0.17174400
vt 0.86239400 0.17174400
vt 0.86306300 0.17229200
vt 0.83612500 0.67281800
vt 0.83612500 0.67281800
vt 0.83612500 0.67281800
vt 0.86025100 0.17181400
vt 0.83848700 0.67442400
vt 0.83848700 0.67442400
vt 0.86025100 0.17181400
vt 0.86025100 0.17181400
vt 0.84130800 0.67453600
vt 0.84130800 0.67453600
vt 0.84130800 0.67453600
vt 0.85815100 0.17230100
vt 0.85815100 0.17230100
vt 0.85842700 0.17163300
vt 0.85842700 0.17163300
vt 0.85842700 0.17163300
vt 0.85842700 0.17163300
vt 0.85666600 0.17164100
vt 0.84290300 0.67502700
vt 0.68659400 0.34389100
vt 0.85666600 0.17164100
vt 0.68659400 0.34389100
vt 0.68420700 0.34383400
vt 0.68420700 0.34383400
vt 0.68420700 0.34383400
vt 0.68420700 0.34383400
vt 0.68420700 0.34383400
vt 0.68290000 0.34440400
vt 0.68290000 0.34440400
vt 0.84690100 0.67380600
vt 0.68290000 0.34440400
vt 0.84842800 0.67276200
vt 0.68108200 0.34457100
vt 0.68108200 0.34457100
vt 0.87103000 0.17216100
vt 0.87103000 0.17216100
vt 0.83102800 0.66663200
vt 0.87103000 0.17216100
vt 0.83102800 0.66663200
vt 0.68110500 0.34392600
vt 0.68110500 0.34392600
vt 0.68110500 0.34392600
vt 0.68110500 0.34392600
vt 0.68110500 0.34392600
vt 0.68110500 0.34392600
vt 0.67838900 0.34435900
vt 0.67838900 0.34435900
vt 0.85069700 0.67122700
vt 0.67838900 0.34435900
vt 0.67838900 0.34435900
vt 0.85069700 0.67122700
vt 0.86819500 0.17228700
vt 0.83246100 0.66922500
vt 0.83246100 0.66922500
vt 0.86819500 0.17228700
vt 0.83246100 0.66922500
vt 0.67599800 0.34459600
vt 0.85202700 0.66917100
vt 0.67599800 0.34459600
vt 0.85202700 0.66917100
vt 0.85202700 0.66917100
vt 0.86834200 0.17164900
vt 0.86834200 0.17164900
vt 0.86834200 0.17164900
vt 0.86834200 0.17164900
vt 0.86834200 0.17164900
vt 0.86834200 0.17164900
vt 0.86834200 0.17164900
vt 0.67654000 0.34394300
vt 0.67654000 0.34394300
vt 0.67654000 0.34394300
vt 0.67654000 0.34394300
vt 0.67654000 0.34394300
vt 0.83394400 0.67149000
vt 0.83394400 0.67149000
vt 0.86555300 0.17200900
vt 0.86555300 0.17200900
vt 0.86555300 0.17200900
vt 0.86555300 0.17200900
vt 0.85325000 0.66780200
vt 0.67416100 0.34414900
vt 0.67416100 0.34414900
vt 0.67416100 0.34414900
vt 0.67416100 0.34414900
vt 0.67416100 0.34414900
vt 0.85325000 0.66780200
vt 0.85325000 0.66780200
vt 0.85420400 0.66410800
vt 0.85420400 0.66410800
vt 0.85420400 0.66410800
vt 0.39324700 0.54178500
vt 0.67088200 0.34417900
vt 0.67088200 0.34417900
f 27/27/27 14/14/14 20/20/20
f 18/18/18 13/13/13 2/2/2
f 12/12/12 34/34/34 1/1/1
f 95/95/95 94/94/94 104/104/104
f 96/96/96 95/95/95 104/104/104
f 97/97/97 96/96/96 104/104/104
f 98/98/98 97/97/97 104/104/104
f 99/99/99 98/98/98 104/104/104
f 3/3/3 105/105/105 16/16/16
f 4/4/4 100/100/100 104/104/104
f 6/6/6 5/5/5 19/19/19
f 8/8/8 7/7/7 17/17/17
f 92/92/92 103/103/103 93/93/93
f 354/354/354 110/110/110 23/23/23
f 352/352/352 24/24/24 21/21/21
f 106/106/106 356/356/356 22/22/22
f 130/130/130 135/135/135 139/139/139
f 107/107/107 148/148/148 25/25/25
f 26/26/26 147/147/147 9/9/9
f 165/165/165 128/128/128 111/111/111
f 10/10/10 142/142/142 119/119/119
f 156/156/156 15/15/15 121/121/121
f 166/166/166 157/157/157 113/113/113
f 172/172/172 170/170/170 118/118/118
f 176/176/176 114/114/114 180/180/180
f 108/108/108 129/129/129 140/140/140
f 136/136/136 338/338/338 141/141/141
f 344/344/344 310/310/310 146/146/146
f 179/179/179 120/120/120 151/151/151
f 28/28/28 11/11/11 160/160/160
f 29/29/29 154/154/154 186/186/186
f 31/31/31 191/191/191 192/192/192
f 32/32/32 30/30/30 188/188/188
f 38/38/38 36/36/36 33/33/33
f 37/37/37 35/35/35 195/195/195
f 42/42/42 379/379/379 384/384/384
f 43/43/43 385/385/385 387/387/387
f 48/48/48 193/193/193 199/199/199
f 49/49/49 39/39/39 194/194/194
f 44/44/44 389/389/389 404/404/404
f 45/45/45 407/407/407 203/203/203
f 56/56/56 197/197/197 427/427/427
f 54/54/54 47/47/47 198/198/198
f 50/50/50 207/207/207 433/433/433
f 53/53/53 46/46/46 206/206/206
f 58/58/58 426/426/426 210/210/210
f 57/57/57 55/55/55 428/428/428
f 52/52/52 436/436/436 447/447/447
f 61/61/61 51/51/51 448/448/448
f 62/62/62 209/209/209 359/359/359
f 59/59/59 445/445/445 214/214/214
f 66/66/66 60/60/60 213/213/213
f 63/63/63 215/215/215 455/455/455
f 40/40/40 357/357/357 370/370/370
f 41/41/41 371/371/371 378/378/378
f 65/65/65 454/454/454 217/217/217
f 67/67/67 64/64/64 216/216/216
f 74/74/74 268/268/268 279/279/279
f 76/76/76 73/73/73 270/270/270
f 78/78/78 280/280/280 221/221/221
f 79/79/79 75/75/75 281/281/281
f 83/83/83 224/224/224 306/306/306
f 82/82/82 77/77/77 222/222/222
f 81/81/81 220/220/220 318/318/318
f 84/84/84 319/319/319 229/229/229
f 86/86/86 305/305/305 329/329/329
f 85/85/85 226/226/226 233/233/233
f 80/80/80 328/328/328 346/346/346
f 90/90/90 347/347/347 237/237/237
f 87/87/87 234/234/234 240/240/240
f 91/91/91 236/236/236 101/101/101
f 88/88/88 239/239/239 250/250/250
f 70/70/70 89/89/89 254/254/254
f 68/68/68 253/253/253 265/265/265
f 72/72/72 266/266/266 269/269/269
f 71/71/71 69/69/69 262/262/262
f 245/245/245 243/243/243 340/340/340
f 246/246/246 343/343/343 134/134/134
f 241/241/241 230/230/230 334/334/334
f 255/255/255 244/244/244 249/249/249
f 261/261/261 247/247/247 133/133/133
f 257/257/257 251/251/251 248/248/248
f 264/264/264 252/252/252 258/258/258
f 272/272/272 263/263/263 259/259/259
f 276/276/276 260/260/260 138/138/138
f 131/131/131 275/275/275 137/137/137
f 274/274/274 267/267/267 256/256/256
f 284/284/284 271/271/271 273/273/273
f 289/289/289 278/278/278 127/127/127
f 290/290/290 283/283/283 277/277/277
f 285/285/285 126/126/126 296/296/296
f 223/223/223 282/282/282 288/288/288
f 293/293/293 132/132/132 164/164/164
f 307/307/307 286/286/286 295/295/295
f 302/302/302 225/225/225 287/287/287
f 316/316/316 297/297/297 145/145/145
f 303/303/303 291/291/291 312/312/312
f 317/317/317 144/144/144 311/311/311
f 320/320/320 218/218/218 298/298/298
f 325/325/325 321/321/321 308/308/308
f 324/324/324 309/309/309 342/342/342
f 331/331/331 292/292/292 162/162/162
f 330/330/330 313/313/313 294/294/294
f 332/332/332 304/304/304 314/314/314
f 228/228/228 315/315/315 327/327/327
f 337/337/337 323/323/323 339/339/339
f 345/345/345 333/333/333 161/161/161
f 348/348/348 163/163/163 112/112/112
f 232/232/232 227/227/227 326/326/326
f 353/353/353 349/349/349 109/109/109
f 231/231/231 322/322/322 336/336/336
f 242/242/242 335/335/335 341/341/341
f 235/235/235 350/350/350 351/351/351
f 102/102/102 238/238/238 355/355/355
f 116/116/116 143/143/143 299/299/299
f 452/452/452 301/301/301 219/219/219
f 451/451/451 117/117/117 300/300/300
f 362/362/362 211/211/211 439/439/439
f 358/358/358 366/366/366 173/173/173
f 368/368/368 360/360/360 174/174/174
f 373/373/373 369/369/369 177/177/177
f 372/372/372 178/178/178 182/182/182
f 377/377/377 367/367/367 375/375/375
f 381/381/381 380/380/380 376/376/376
f 382/382/382 374/374/374 185/185/185
f 390/390/390 383/383/383 181/181/181
f 393/393/393 184/184/184 152/152/152
f 392/392/392 386/386/386 183/183/183
f 403/403/403 388/388/388 391/391/391
f 402/402/402 190/190/190 159/159/159
f 408/408/408 394/394/394 396/396/396
f 411/411/411 395/395/395 150/150/150
f 201/201/201 196/196/196 189/189/189
f 202/202/202 187/187/187 399/399/399
f 416/416/416 400/400/400 158/158/158
f 406/406/406 397/397/397 410/410/410
f 204/204/204 405/405/405 409/409/409
f 424/424/424 153/153/153 125/125/125
f 414/414/414 149/149/149 423/423/423
f 417/417/417 155/155/155 168/168/168
f 425/425/425 200/200/200 401/401/401
f 430/430/430 398/398/398 415/415/415
f 432/432/432 205/205/205 412/412/412
f 434/434/434 413/413/413 422/422/422
f 438/438/438 419/419/419 169/169/169
f 429/429/429 418/418/418 440/440/440
f 450/450/450 421/421/421 124/124/124
f 446/446/446 435/435/435 420/420/420
f 208/208/208 431/431/431 441/441/441
f 122/122/122 449/449/449 123/123/123
f 364/364/364 167/167/167 175/175/175
f 453/453/453 443/443/443 115/115/115
f 212/212/212 444/444/444 456/456/456
f 365/365/365 437/437/437 171/171/171
f 361/361/361 442/442/442 363/363/363

