mtllib material.mtl
usemtl material_0
v -0.14604900 0.02099500 0.00130600
v -0.14604900 0.02099500 -0.00130600
v -0.14605000 0.01475900 -0.00117900
v -0.14605000 0.01475900 0.00117900
v -0.14604900 -0.02099500 0.00567900
v -0.14604900 -0.02099500 0.00567900
v -0.14605000 -0.01475900 0.00816400
v -0.14605000 -0.01475900 0.00816400
v -0.14605000 -0.01475900 0.00580600
v -0.14605000 -0.02081400 0.00824500
v -0.14097000 0.01402600 -0.00267400
v -0.14097000 0.01291200 -0.01161900
v -0.14097000 0.01388900 -0.01073900
v -0.14097000 -0.01390500 -0.01062600
v -0.14097000 -0.01302500 -0.01160300
v -0.14097000 -0.01404900 0.00446700
v -0.14097000 0.02001900 -0.01653000
v -0.14097000 0.02163300 -0.01450700
v -0.14097000 -0.02162000 -0.01460100
v -0.14097000 -0.01984100 -0.01660400
v -0.14097000 -0.02161600 0.00450000
v -0.14097000 0.02160100 -0.00243000
v -0.14097000 -0.02084300 0.00866500
v -0.14097000 -0.01387900 0.01066200
v -0.14097000 -0.01487500 0.00867100
v -0.14097000 0.02162500 0.00246200
v -0.14097000 0.01407100 0.00248500
v -0.14097000 0.01984100 0.01660400
v -0.14097000 0.02158800 0.01466400
v -0.14097000 -0.02001900 0.01653000
v -0.14097000 -0.01310500 0.01156900
v -0.14097000 0.01392100 0.01059400
v -0.14097000 -0.02163300 0.01450700
v -0.14097000 0.01302500 0.01160300
vn -1.00000000 0.00010000 -0.00000000
vn -1.00000000 0.00010000 -0.00000000
vn -1.00000000 0.00010000 -0.00000000
vn -1.00000000 0.00010000 -0.00000000
vn -1.00000000 -0.00010000 -0.00000000
vn -1.00000000 -0.00000000 -0.00020000
vn -1.00000000 -0.00010000 -0.00000000
vn -1.00000000 -0.00000000 -0.00020000
vn -1.00000000 -0.00010000 -0.00000000
vn -1.00000000 -0.00000000 -0.00020000
vn -1.00000000 -0.00000000 -0.00000000
vn -1.00000000 -0.00000000 -0.00000000
vn -1.00000000 -0.00000000 -0.00000000
vn -1.00000000 -0.00000000 -0.00000000
vn -1.00000000 -0.00000000 -0.00000000
vn -1.00000000 -0.00000000 -0.00000000
vn -1.00000000 -0.00000000 -0.00000000
vn -1.00000000 -0.00000000 -0.00000000
vn -1.00000000 -0.00000000 -0.00000000
vn -1.00000000 -0.00000000 -0.00000000
vn -1.00000000 -0.00000000 -0.00000000
vn -1.00000000 -0.00000000 -0.00000000
vn -1.00000000 -0.00000000 -0.00000000
vn -1.00000000 -0.00000000 -0.00000000
vn -1.00000000 -0.00000000 -0.00000000
vn -1.00000000 -0.00000000 -0.00000000
vn -1.00000000 -0.00000000 -0.00000000
vn -1.00000000 -0.00000000 -0.00000000
vn -1.00000000 -0.00000000 -0.00000000
vn -1.00000000 -0.00000000 -0.00000000
vn -1.00000000 -0.00000000 -0.00000000
vn -1.00000000 -0.00000000 -0.00000000
vn -1.00000000 -0.00000000 -0.00000000
vn -1.00000000 -0.00000000 -0.00000000
vt 0.44740900 0.54259900
vt 0.44740500 0.54541100
vt 0.44265400 0.54531400
vt 0.44265700 0.54277600
vt 0.41541600 0.53816500
vt 0.41541600 0.53816500
vt 0.42017200 0.53545000
vt 0.42017200 0.53545000
vt 0.42016800 0.53798800
vt 0.41555800 0.53540200
vt 0.43823300 0.54688400
vt 0.43737000 0.55651700
vt 0.43811600 0.55556400
vt 0.41693400 0.55562100
vt 0.41760400 0.55666800
vt 0.41684700 0.53938000
vt 0.44277900 0.56175700
vt 0.44401200 0.55956900
vt 0.41104900 0.55994900
vt 0.41240200 0.56209400
vt 0.41108100 0.53939400
vt 0.44400600 0.54657200
vt 0.91437800 0.73846000
vt 0.91219800 0.73314400
vt 0.91434500 0.73391300
vt 0.92086900 0.70612400
vt 0.92087600 0.71188000
vt 0.90565700 0.70742000
vt 0.90773700 0.70609700
vt 0.90591000 0.73779700
vt 0.91121800 0.73255000
vt 0.91215000 0.71195800
vt 0.90809400 0.73903700
vt 0.91106800 0.71263700
f 3/3/3 1/1/1 2/2/2
f 4/4/4 1/1/1 3/3/3
f 5/5/5 7/7/7 9/9/9
f 10/10/10 8/8/8 6/6/6
f 19/19/19 14/14/14 20/20/20
f 12/12/12 13/13/13 17/17/17
f 13/13/13 18/18/18 17/17/17
f 13/13/13 22/22/22 18/18/18
f 21/21/21 16/16/16 14/14/14
f 21/21/21 14/14/14 19/19/19
f 11/11/11 22/22/22 13/13/13
f 15/15/15 12/12/12 17/17/17
f 20/20/20 15/15/15 17/17/17
f 14/14/14 15/15/15 20/20/20
f 30/30/30 28/28/28 34/34/34
f 30/30/30 31/31/31 24/24/24
f 32/32/32 29/29/29 26/26/26
f 30/30/30 34/34/34 31/31/31
f 32/32/32 26/26/26 27/27/27
f 33/33/33 24/24/24 25/25/25
f 33/33/33 25/25/25 23/23/23
f 33/33/33 30/30/30 24/24/24
f 28/28/28 32/32/32 34/34/34
f 28/28/28 29/29/29 32/32/32

