mtllib material.mtl
usemtl material_0
v 0.14583800 0.12421100 -0.01010500
v 0.14603700 0.11988800 -0.02407500
v 0.14603600 0.12363100 -0.09475200
v 0.14603800 0.12366900 -0.03825300
v 0.14603800 0.12366900 -0.03825300
v 0.14603800 0.12277500 -0.04198200
v 0.09689100 0.14605000 0.06812200
v 0.10314400 0.14604800 0.06344400
v 0.09626200 0.14605000 0.06875000
v 0.06987400 0.14605700 0.10093600
v 0.10283700 0.14604700 0.07075400
v 0.10652500 0.14606200 0.06811400
v 0.09991900 0.14528600 0.06732100
v 0.10332300 0.14451800 0.06387500
v 0.10673700 0.14454200 0.06816400
v 0.10673700 0.14454200 0.06816400
v 0.06663000 0.14452700 0.09993400
v 0.06663000 0.14452700 0.09993400
v 0.07063800 0.14452600 0.10229800
v 0.07063800 0.14452600 0.10229800
v 0.06711800 0.14452600 0.10140700
v 0.05931700 0.14763800 0.11355500
v 0.05931700 0.14763800 0.11355500
v 0.05931700 0.14763800 0.11355500
v 0.05931700 0.14763800 0.11355500
v 0.05931700 0.14763800 0.11355500
v 0.14079900 0.14718800 -0.00571500
v 0.14079900 0.14718800 -0.00571500
v 0.14079900 0.14718800 -0.00571500
v 0.14079900 0.14718800 -0.00571500
v 0.14079900 0.14718800 -0.00571500
v 0.14064600 0.14698700 -0.10858500
v 0.14064600 0.14698700 -0.10858500
v 0.13256400 0.14764300 -0.10889600
v 0.13256400 0.14764300 -0.10889600
v 0.13256400 0.14764300 -0.10889600
v 0.13256400 0.14764300 -0.10889600
v 0.06189700 0.14764200 -0.05693600
v 0.06189700 0.14764200 -0.05693600
v 0.06189700 0.14764200 -0.05693600
v -0.10741700 0.14763800 -0.00571500
v -0.10741700 0.14763800 -0.00571500
v -0.10741700 0.14763800 -0.00571500
v -0.10741700 0.14763800 -0.00571500
v -0.07992000 0.14683700 -0.02565600
v -0.07992000 0.14683700 -0.02565600
v -0.11360700 0.14674800 -0.05938300
v -0.11360700 0.14674800 -0.05938300
v -0.11360700 0.14674800 -0.05938300
v -0.11360700 0.14674800 -0.05938300
v -0.08382200 0.14683700 -0.00723300
v -0.08382200 0.14683700 -0.00723300
v -0.08382200 0.14683700 -0.00723300
v 0.10851800 0.14776100 -0.13241200
v 0.10851800 0.14776100 -0.13241200
v 0.10851800 0.14776100 -0.13241200
v 0.10851800 0.14776100 -0.13241200
v 0.10851800 0.14776100 -0.13241200
v 0.10851800 0.14776100 -0.13241200
v 0.04727500 0.14649800 -0.06954100
v 0.04727500 0.14649800 -0.06954100
v 0.07513600 0.14763600 -0.03768000
v 0.07513600 0.14763600 -0.03768000
v 0.07513600 0.14763600 -0.03768000
v 0.07513600 0.14763600 -0.03768000
v -0.10741700 0.14763800 0.00571500
v -0.10741700 0.14763800 0.00571500
v -0.10741700 0.14763800 0.00571500
v -0.10741700 0.14763800 0.00571500
v -0.08268800 0.14710600 0.01510700
v -0.08268800 0.14710600 0.01510700
v -0.07513600 0.14763600 0.03768000
v -0.07513600 0.14763600 0.03768000
v -0.07513600 0.14763600 0.03768000
v -0.07513600 0.14763600 0.03768000
v 0.02419200 0.14764000 -0.08102000
v 0.02419200 0.14764000 -0.08102000
v 0.02419200 0.14764000 -0.08102000
v 0.10741700 0.14763700 -0.00571500
v 0.10741700 0.14763700 -0.00571500
v 0.10741700 0.14763700 -0.00571500
v 0.10741700 0.14763700 -0.00571500
v -0.14108400 0.14703500 -0.00571500
v -0.14108400 0.14703500 -0.00571500
v -0.14108400 0.14703500 -0.00571500
v -0.14108400 0.14703500 -0.00571500
v -0.13925700 0.14746900 -0.10858400
v -0.13925700 0.14746900 -0.10858400
v -0.13925700 0.14746900 -0.10858400
v -0.13925700 0.14746900 -0.10858400
v 0.08268800 0.14710600 -0.01510700
v 0.08268800 0.14710600 -0.01510700
v -0.14079900 0.14718800 0.00571500
v -0.14079900 0.14718800 0.00571500
v -0.14079900 0.14718800 0.00571500
v -0.14079900 0.14718800 0.00571500
v -0.14079900 0.14718800 0.00571500
v -0.13256400 0.14764300 0.10889600
v -0.13256400 0.14764300 0.10889600
v -0.13256400 0.14764300 0.10889600
v -0.13256400 0.14764300 0.10889600
v -0.06189700 0.14764200 0.05693600
v -0.06189700 0.14764200 0.05693600
v -0.06189700 0.14764200 0.05693600
v -0.10851800 0.14776100 0.13241200
v -0.10851800 0.14776100 0.13241200
v -0.10851800 0.14776100 0.13241200
v -0.10851800 0.14776100 0.13241200
v -0.10851800 0.14776100 0.13241200
v -0.10851800 0.14776100 0.13241200
v -0.04727500 0.14649800 0.06954100
v -0.04727500 0.14649800 0.06954100
v -0.02419200 0.14764000 0.08102000
v -0.02419200 0.14764000 0.08102000
v -0.02419200 0.14764000 0.08102000
v 0.08382200 0.14683700 0.00723300
v 0.08382200 0.14683700 0.00723300
v 0.08382200 0.14683700 0.00723300
v 0.10741700 0.14763700 0.00571500
v 0.10741700 0.14763700 0.00571500
v 0.10741700 0.14763700 0.00571500
v 0.10741700 0.14763700 0.00571500
v -0.14064600 0.14698700 0.10858500
v -0.14064600 0.14698700 0.10858500
v 0.10858500 0.14737200 0.13976600
v 0.10858500 0.14737200 0.13976600
v 0.10858500 0.14737200 0.13976600
v 0.10858500 0.14737200 0.13976600
v 0.10858500 0.14737200 0.13976600
v 0.07992000 0.14683700 0.02565600
v 0.07992000 0.14683700 0.02565600
v -0.05931700 0.14763800 -0.11355500
v -0.05931700 0.14763800 -0.11355500
v -0.05931700 0.14763800 -0.11355500
v -0.05931700 0.14763800 -0.11355500
v -0.05931700 0.14763800 -0.11355500
v -0.00830400 0.14683700 -0.08364600
v -0.00830400 0.14683700 -0.08364600
v -0.02565400 0.14683700 -0.07992000
v 0.11360700 0.14674800 0.05938300
v 0.11360700 0.14674800 0.05938300
v 0.11360700 0.14674800 0.05938300
v 0.11360700 0.14674800 0.05938300
v 0.14108400 0.14703500 0.00571500
v 0.14108400 0.14703500 0.00571500
v 0.14108400 0.14703500 0.00571500
v 0.14108400 0.14703500 0.00571500
v 0.13925700 0.14746900 0.10858400
v 0.13925700 0.14746900 0.10858400
v 0.13925700 0.14746900 0.10858400
v 0.13925700 0.14746900 0.10858400
v -0.10858500 0.14737200 -0.13976600
v -0.10858500 0.14737200 -0.13976600
v -0.10858500 0.14737200 -0.13976600
v -0.10858500 0.14737200 -0.13976600
v -0.10858500 0.14737200 -0.13976600
v -0.07940600 0.14764200 -0.10110300
v -0.07940600 0.14764200 -0.10110300
v -0.07940600 0.14764200 -0.10110300
v -0.10871600 0.14720800 -0.13255800
v -0.10871600 0.14720800 -0.13255800
v -0.10871600 0.14720800 -0.13255800
v 0.13256700 0.14643000 0.10870900
v 0.13256700 0.14643000 0.10870900
v 0.10328100 0.14764800 0.07619800
v 0.10328100 0.14764800 0.07619800
v 0.10328100 0.14764800 0.07619800
v 0.10328100 0.14764800 0.07619800
v 0.10871600 0.14720800 0.13255800
v 0.10871600 0.14720800 0.13255800
v 0.10871600 0.14720800 0.13255800
v 0.07940600 0.14764200 0.10110300
v 0.07940600 0.14764200 0.10110300
v 0.07940600 0.14764200 0.10110300
v -0.10328100 0.14764800 -0.07619800
v -0.10328100 0.14764800 -0.07619800
v -0.10328100 0.14764800 -0.07619800
v -0.10328100 0.14764800 -0.07619800
v -0.13256700 0.14643000 -0.10870900
v -0.13256700 0.14643000 -0.10870900
v 0.02565400 0.14683700 0.07992000
v 0.00830400 0.14683700 0.08364600
v 0.00830400 0.14683700 0.08364600
v -0.10858500 0.14576500 0.14166700
v -0.10858500 0.14576500 0.14166700
v -0.10858500 0.14576500 0.14166700
v 0.10858500 0.14103200 0.14701300
v 0.10858500 0.14103200 0.14701300
v 0.10858500 0.14103200 0.14701300
v 0.10858500 0.14103200 0.14701300
v -0.10858500 0.14011000 0.14619800
v -0.10858500 0.14011000 0.14619800
v 0.14690400 0.14146800 0.10858500
v 0.14690400 0.14146800 0.10858500
v 0.14690400 0.14146800 0.10858500
v 0.14690400 0.14146800 0.10858500
v 0.14638700 0.13991000 0.00571500
v 0.14638700 0.13991000 0.00571500
v 0.14729800 0.13985400 -0.00571500
v 0.14729800 0.13985400 -0.00571500
v 0.14729800 0.13985400 -0.00571500
v 0.14613400 0.14127800 -0.10858500
v 0.14613400 0.14127800 -0.10858500
v 0.14613400 0.14127800 -0.10858500
v 0.10858500 0.14576500 -0.14166700
v 0.10858500 0.14576500 -0.14166700
v 0.10858500 0.14576500 -0.14166700
v 0.10858500 0.14011000 -0.14619800
v 0.10858500 0.14011000 -0.14619800
v -0.10858500 0.14103200 -0.14701300
v -0.10858500 0.14103200 -0.14701300
v -0.10858500 0.14103200 -0.14701300
v -0.10858500 0.14103200 -0.14701300
v -0.14690400 0.14146800 -0.10858500
v -0.14690400 0.14146800 -0.10858500
v -0.14690400 0.14146800 -0.10858500
v -0.14690400 0.14146800 -0.10858500
v -0.14638700 0.13991000 -0.00571500
v -0.14638700 0.13991000 -0.00571500
v -0.14729800 0.13985400 0.00571500
v -0.14729800 0.13985400 0.00571500
v -0.14729800 0.13985400 0.00571500
v -0.14613400 0.14127800 0.10858500
v -0.14613400 0.14127800 0.10858500
v -0.14613400 0.14127800 0.10858500
v -0.10858500 0.12535000 0.14683700
v -0.10858500 0.12535000 0.14683700
v 0.10858500 0.12535000 0.14683700
v 0.14683700 0.12534900 0.10858500
v 0.14683700 0.12534800 0.00571500
v 0.14683700 0.12534800 0.00571500
v 0.14683700 0.12534900 -0.00571500
v 0.14683700 0.12534800 -0.10858500
v 0.14683700 0.12534800 -0.10858500
v 0.10858500 0.12535000 -0.14683700
v 0.10858500 0.12535000 -0.14683700
v -0.10858500 0.12535000 -0.14683700
v -0.14683700 0.12535000 -0.10858500
v -0.14683700 0.12534900 -0.00571500
v -0.14683700 0.12534900 -0.00571500
v -0.14683700 0.12534900 0.00571500
v -0.14683700 0.12534800 0.10858500
v -0.14683700 0.12534800 0.10858500
vn 0.99970000 0.02470000 0.00660000
vn 0.99970000 0.02470000 0.00660000
vn 1.00000000 0.00070000 -0.00000000
vn 0.99970000 0.02470000 0.00660000
vn 1.00000000 0.00070000 -0.00000000
vn 1.00000000 0.00070000 -0.00000000
vn 0.30850000 0.89980000 0.30850000
vn -0.77990000 0.08310000 0.62040000
vn 0.30850000 0.89980000 0.30850000
vn -0.45200000 0.45660000 0.76630000
vn -0.57850000 -0.10750000 -0.80860000
vn -0.57850000 -0.10750000 -0.80860000
vn 0.30850000 0.89980000 0.30850000
vn -0.77990000 0.08310000 0.62040000
vn -0.77990000 0.08310000 0.62040000
vn -0.57850000 -0.10750000 -0.80860000
vn -0.45200000 0.45660000 0.76630000
vn -0.00050000 1.00000000 0.00110000
vn -0.45200000 0.45660000 0.76630000
vn -0.00050000 1.00000000 0.00110000
vn -0.00050000 1.00000000 0.00110000
vn 0.00150000 1.00000000 0.00720000
vn 0.00060000 1.00000000 -0.00140000
vn 0.03110000 0.99630000 -0.07970000
vn 0.00280000 1.00000000 0.00490000
vn -0.00420000 0.99980000 -0.01960000
vn 0.00490000 1.00000000 0.00400000
vn 0.72090000 0.69300000 -0.00240000
vn 0.08100000 0.99670000 -0.00210000
vn 0.74840000 0.66320000 0.00070000
vn 0.01350000 0.99980000 -0.01360000
vn 0.08100000 0.99670000 -0.00210000
vn 0.72090000 0.69300000 -0.00240000
vn 0.00490000 1.00000000 0.00400000
vn 0.00010000 1.00000000 0.00020000
vn 0.00210000 1.00000000 0.00290000
vn 0.08100000 0.99670000 -0.00210000
vn -0.05190000 0.99820000 -0.03050000
vn 0.00210000 1.00000000 0.00290000
vn 0.00010000 1.00000000 0.00020000
vn 0.01580000 0.99970000 -0.01840000
vn 0.03390000 0.99940000 -0.00000000
vn 0.03440000 0.99940000 0.00730000
vn -0.01790000 0.99970000 -0.01450000
vn 0.03440000 0.99940000 0.00730000
vn 0.01580000 0.99970000 -0.01840000
vn -0.03420000 0.99890000 0.03250000
vn 0.01580000 0.99970000 -0.01840000
vn -0.01790000 0.99970000 -0.01450000
vn 0.01940000 0.99980000 0.00460000
vn 0.03440000 0.99940000 0.00730000
vn 0.03390000 0.99940000 -0.00000000
vn 0.02660000 0.99960000 -0.01340000
vn -0.00150000 1.00000000 -0.00720000
vn 0.00210000 1.00000000 0.00290000
vn -0.05190000 0.99820000 -0.03050000
vn 0.00540000 0.97750000 -0.21080000
vn -0.00060000 1.00000000 0.00140000
vn 0.02660000 0.99860000 0.04590000
vn -0.05190000 0.99820000 -0.03050000
vn 0.02660000 0.99860000 0.04590000
vn -0.03480000 0.99880000 0.03510000
vn 0.01350000 0.99980000 -0.01360000
vn 0.00010000 1.00000000 0.00020000
vn 0.00490000 1.00000000 0.00400000
vn 0.02660000 0.99960000 -0.01340000
vn 0.03390000 0.99940000 -0.00000000
vn -0.01350000 0.99980000 0.01360000
vn 0.03480000 0.99880000 -0.03510000
vn 0.03480000 0.99880000 -0.03510000
vn 0.02660000 0.99960000 -0.01340000
vn -0.00490000 1.00000000 -0.00400000
vn -0.00010000 1.00000000 -0.00020000
vn 0.03480000 0.99880000 -0.03510000
vn -0.01350000 0.99980000 0.01360000
vn -0.03110000 0.99630000 0.07970000
vn -0.00060000 1.00000000 0.00140000
vn 0.02660000 0.99860000 0.04590000
vn -0.03390000 0.99940000 -0.00000000
vn -0.03480000 0.99880000 0.03510000
vn 0.01350000 0.99980000 -0.01360000
vn -0.02660000 0.99960000 0.01340000
vn -0.80220000 0.59700000 0.01310000
vn -0.01790000 0.99970000 -0.01450000
vn -0.61740000 0.78660000 -0.00760000
vn 0.01940000 0.99980000 0.00460000
vn 0.14820000 0.97420000 -0.17000000
vn 0.01940000 0.99980000 0.00460000
vn -0.03420000 0.99890000 0.03250000
vn -0.61740000 0.78660000 -0.00760000
vn -0.02660000 0.99960000 0.01340000
vn -0.03480000 0.99880000 0.03510000
vn -0.01350000 0.99980000 0.01360000
vn -0.08100000 0.99670000 0.00210000
vn -0.72090000 0.69300000 0.00240000
vn -0.00490000 1.00000000 -0.00400000
vn -0.74840000 0.66320000 -0.00070000
vn -0.00490000 1.00000000 -0.00400000
vn -0.00010000 1.00000000 -0.00020000
vn -0.00210000 1.00000000 -0.00290000
vn -0.08100000 0.99670000 0.00210000
vn 0.05190000 0.99820000 0.03050000
vn -0.00010000 1.00000000 -0.00020000
vn -0.00210000 1.00000000 -0.00290000
vn 0.00150000 1.00000000 0.00720000
vn 0.00060000 1.00000000 -0.00140000
vn 0.05190000 0.99820000 0.03050000
vn -0.00540000 0.97750000 0.21080000
vn -0.00210000 1.00000000 -0.00290000
vn -0.02660000 0.99860000 -0.04590000
vn 0.05190000 0.99820000 0.03050000
vn -0.02660000 0.99860000 -0.04590000
vn 0.03110000 0.99630000 -0.07970000
vn 0.00060000 1.00000000 -0.00140000
vn -0.02660000 0.99860000 -0.04590000
vn -0.02660000 0.99960000 0.01340000
vn -0.03390000 0.99940000 -0.00000000
vn -0.03440000 0.99940000 -0.00730000
vn -0.03390000 0.99940000 -0.00000000
vn -0.01580000 0.99970000 0.01840000
vn -0.03440000 0.99940000 -0.00730000
vn 0.01790000 0.99970000 0.01450000
vn -0.08100000 0.99670000 0.00210000
vn -0.72090000 0.69300000 0.00240000
vn 0.03850000 0.99900000 -0.02210000
vn 0.00280000 1.00000000 0.00490000
vn 0.00020000 0.75260000 0.65840000
vn -0.00540000 0.97750000 0.21080000
vn 0.00150000 1.00000000 0.00720000
vn -0.03440000 0.99940000 -0.00730000
vn -0.01580000 0.99970000 0.01840000
vn -0.00150000 1.00000000 -0.00720000
vn -0.03110000 0.99630000 0.07970000
vn 0.00420000 0.99980000 0.01960000
vn -0.00060000 1.00000000 0.00140000
vn -0.00280000 1.00000000 -0.00490000
vn -0.03110000 0.99630000 0.07970000
vn 0.00420000 0.99980000 0.01960000
vn 0.00420000 0.99980000 0.01960000
vn -0.01940000 0.99980000 -0.00460000
vn 0.01790000 0.99970000 0.01450000
vn 0.03420000 0.99890000 -0.03250000
vn -0.01580000 0.99970000 0.01840000
vn 0.80220000 0.59700000 -0.01310000
vn 0.61740000 0.78660000 0.00760000
vn -0.01940000 0.99980000 -0.00460000
vn 0.01790000 0.99970000 0.01450000
vn -0.14820000 0.97420000 0.17000000
vn 0.03420000 0.99890000 -0.03250000
vn 0.61740000 0.78660000 0.00760000
vn -0.01940000 0.99980000 -0.00460000
vn -0.00280000 1.00000000 -0.00490000
vn 0.00540000 0.97750000 -0.21080000
vn -0.00150000 1.00000000 -0.00720000
vn -0.03850000 0.99900000 0.02210000
vn -0.00020000 0.75260000 -0.65840000
vn -0.03850000 0.99900000 0.02210000
vn -0.00720000 0.99990000 -0.00710000
vn -0.00280000 1.00000000 -0.00490000
vn -0.00720000 0.99990000 -0.00710000
vn -0.03850000 0.99900000 0.02210000
vn -0.03680000 0.99930000 -0.00430000
vn -0.14820000 0.97420000 0.17000000
vn 0.03680000 0.99930000 0.00430000
vn -0.14820000 0.97420000 0.17000000
vn 0.03420000 0.99890000 -0.03250000
vn 0.03680000 0.99930000 0.00430000
vn 0.00720000 0.99990000 0.00710000
vn 0.00720000 0.99990000 0.00710000
vn 0.03680000 0.99930000 0.00430000
vn 0.03850000 0.99900000 -0.02210000
vn 0.00720000 0.99990000 0.00710000
vn 0.00280000 1.00000000 0.00490000
vn 0.03850000 0.99900000 -0.02210000
vn -0.00720000 0.99990000 -0.00710000
vn 0.14820000 0.97420000 -0.17000000
vn -0.03680000 0.99930000 -0.00430000
vn -0.03420000 0.99890000 0.03250000
vn 0.14820000 0.97420000 -0.17000000
vn -0.03680000 0.99930000 -0.00430000
vn -0.00420000 0.99980000 -0.01960000
vn -0.00420000 0.99980000 -0.01960000
vn 0.03110000 0.99630000 -0.07970000
vn -0.00560000 0.62530000 0.78040000
vn -0.00540000 0.97750000 0.21080000
vn 0.00020000 0.75260000 0.65840000
vn 0.00020000 0.75260000 0.65840000
vn -0.00560000 0.62530000 0.78040000
vn -0.00000000 -0.01120000 0.99990000
vn -0.00390000 0.04330000 0.99910000
vn -0.00390000 0.04330000 0.99910000
vn -0.00560000 0.62530000 0.78040000
vn 0.99950000 0.03090000 -0.00550000
vn 0.61740000 0.78660000 0.00760000
vn 0.80220000 0.59700000 -0.01310000
vn 1.00000000 -0.00410000 -0.00000000
vn 0.80220000 0.59700000 -0.01310000
vn 0.99950000 0.03090000 -0.00550000
vn 0.99950000 -0.03170000 -0.00000000
vn 0.74840000 0.66320000 0.00070000
vn 0.99900000 0.04410000 -0.01070000
vn 0.74840000 0.66320000 0.00070000
vn 0.99900000 0.04410000 -0.01070000
vn 0.72090000 0.69300000 -0.00240000
vn -0.00020000 0.75260000 -0.65840000
vn 0.00560000 0.62530000 -0.78040000
vn 0.00540000 0.97750000 -0.21080000
vn 0.00560000 0.62530000 -0.78040000
vn 0.00390000 0.04330000 -0.99910000
vn 0.00560000 0.62530000 -0.78040000
vn 0.00390000 0.04330000 -0.99910000
vn -0.00020000 0.75260000 -0.65840000
vn -0.00000000 -0.01120000 -0.99990000
vn -0.99950000 0.03090000 0.00550000
vn -0.61740000 0.78660000 -0.00760000
vn -0.80220000 0.59700000 0.01310000
vn -1.00000000 -0.00410000 -0.00000000
vn -0.99950000 0.03090000 0.00550000
vn -0.80220000 0.59700000 0.01310000
vn -0.99950000 -0.03170000 -0.00000000
vn -0.74840000 0.66320000 -0.00070000
vn -0.99900000 0.04410000 0.01070000
vn -0.99900000 0.04410000 0.01070000
vn -0.72090000 0.69300000 0.00240000
vn -0.74840000 0.66320000 -0.00070000
vn -0.00000000 -0.01120000 0.99990000
vn -0.00390000 0.04330000 0.99910000
vn -0.00000000 -0.01120000 0.99990000
vn 1.00000000 -0.00410000 -0.00000000
vn 1.00000000 -0.00410000 -0.00000000
vn 0.99950000 0.03090000 -0.00550000
vn 0.99950000 -0.03170000 -0.00000000
vn 0.99950000 -0.03170000 -0.00000000
vn 0.99900000 0.04410000 -0.01070000
vn -0.00000000 -0.01120000 -0.99990000
vn 0.00390000 0.04330000 -0.99910000
vn -0.00000000 -0.01120000 -0.99990000
vn -1.00000000 -0.00410000 -0.00000000
vn -1.00000000 -0.00410000 -0.00000000
vn -0.99950000 0.03090000 0.00550000
vn -0.99950000 -0.03170000 -0.00000000
vn -0.99950000 -0.03170000 -0.00000000
vn -0.99900000 0.04410000 0.01070000
vt 0.95785000 0.53172400
vt 0.95847600 0.57558400
vt 0.95847600 0.79616600
vt 0.95847600 0.62048700
vt 0.95847600 0.62048700
vt 0.95847600 0.63093700
vt 0.80418300 0.28612800
vt 0.82424500 0.30102600
vt 0.80220900 0.28415500
vt 0.71838300 0.18199600
vt 0.82319700 0.27903300
vt 0.83341400 0.28645500
vt 0.81458500 0.28859900
vt 0.82442600 0.29743900
vt 0.83317900 0.28636300
vt 0.83317900 0.28636300
vt 0.70954700 0.18502000
vt 0.70954700 0.18502000
vt 0.72060300 0.17859400
vt 0.72060300 0.17859400
vt 0.71090500 0.17960900
vt 0.68622100 0.14348600
vt 0.68622100 0.14348600
vt 0.68622100 0.14348600
vt 0.68622100 0.14348600
vt 0.68622100 0.14348600
vt 0.94114500 0.51794300
vt 0.94114500 0.51794300
vt 0.94114500 0.51794300
vt 0.94114500 0.51794300
vt 0.94114500 0.51794300
vt 0.94114500 0.84090900
vt 0.94114500 0.84090900
vt 0.91474300 0.84062200
vt 0.91474300 0.84062200
vt 0.91474300 0.84062200
vt 0.91474300 0.84062200
vt 0.69333600 0.67785800
vt 0.69333600 0.67785800
vt 0.69333600 0.67785800
vt 0.16277200 0.51794300
vt 0.16277200 0.51794300
vt 0.16277200 0.51794300
vt 0.16277200 0.51794300
vt 0.24912500 0.58050100
vt 0.24912500 0.58050100
vt 0.14339700 0.68635400
vt 0.14339700 0.68635400
vt 0.14339700 0.68635400
vt 0.14339700 0.68635400
vt 0.23825400 0.52263900
vt 0.23825400 0.52263900
vt 0.23825400 0.52263900
vt 0.84090800 0.91571500
vt 0.84090800 0.91571500
vt 0.84090800 0.91571500
vt 0.84090800 0.91571500
vt 0.84090800 0.91571500
vt 0.84090800 0.91571500
vt 0.64804300 0.71725600
vt 0.64804300 0.71725600
vt 0.73490800 0.61781400
vt 0.73490800 0.61781400
vt 0.73490800 0.61781400
vt 0.73490800 0.61781400
vt 0.16277200 0.48205800
vt 0.16277200 0.48205800
vt 0.16277200 0.48205800
vt 0.16277200 0.48205800
vt 0.24139300 0.45310100
vt 0.24139300 0.45310100
vt 0.26509200 0.38218600
vt 0.26509200 0.38218600
vt 0.26509200 0.38218600
vt 0.26509200 0.38218600
vt 0.57484500 0.75046300
vt 0.57484500 0.75046300
vt 0.57484500 0.75046300
vt 0.83722900 0.51794300
vt 0.83722900 0.51794300
vt 0.83722900 0.51794300
vt 0.83722900 0.51794300
vt 0.05792200 0.51794300
vt 0.05792200 0.51794300
vt 0.05792200 0.51794300
vt 0.05792200 0.51794300
vt 0.06308000 0.84090900
vt 0.06308000 0.84090900
vt 0.06308000 0.84090900
vt 0.06308000 0.84090900
vt 0.75860700 0.54689900
vt 0.75860700 0.54689900
vt 0.05885500 0.48205800
vt 0.05885500 0.48205800
vt 0.05885500 0.48205800
vt 0.05885500 0.48205800
vt 0.05885500 0.48205800
vt 0.08525700 0.15937800
vt 0.08525700 0.15937800
vt 0.08525700 0.15937800
vt 0.08525700 0.15937800
vt 0.30666400 0.32214300
vt 0.30666400 0.32214300
vt 0.30666400 0.32214300
vt 0.15909200 0.08428500
vt 0.15909200 0.08428500
vt 0.15909200 0.08428500
vt 0.15909200 0.08428500
vt 0.15909200 0.08428500
vt 0.15909200 0.08428500
vt 0.35195700 0.28274400
vt 0.35195700 0.28274400
vt 0.42515600 0.24953700
vt 0.42515600 0.24953700
vt 0.42515600 0.24953700
vt 0.76174600 0.47736100
vt 0.76174600 0.47736100
vt 0.76174600 0.47736100
vt 0.83722900 0.48205800
vt 0.83722900 0.48205800
vt 0.83722900 0.48205800
vt 0.83722900 0.48205800
vt 0.05885600 0.15909100
vt 0.05885600 0.15909100
vt 0.84089700 0.06161500
vt 0.84089700 0.06161500
vt 0.84089700 0.06161500
vt 0.84089700 0.06161500
vt 0.84089700 0.06161500
vt 0.75087500 0.41949900
vt 0.75087500 0.41949900
vt 0.31377900 0.85651400
vt 0.31377900 0.85651400
vt 0.31377900 0.85651400
vt 0.31377900 0.85651400
vt 0.31377900 0.85651400
vt 0.47306700 0.76139500
vt 0.47306700 0.76139500
vt 0.41949200 0.75088200
vt 0.85660300 0.31364600
vt 0.85660300 0.31364600
vt 0.85660300 0.31364600
vt 0.85660300 0.31364600
vt 0.94207900 0.48205800
vt 0.94207900 0.48205800
vt 0.94207900 0.48205800
vt 0.94207900 0.48205800
vt 0.93692000 0.15909100
vt 0.93692000 0.15909100
vt 0.93692000 0.15909100
vt 0.93692000 0.15909100
vt 0.15910300 0.93838500
vt 0.15910300 0.93838500
vt 0.15910300 0.93838500
vt 0.15910300 0.93838500
vt 0.15910300 0.93838500
vt 0.25212400 0.81564900
vt 0.25212400 0.81564900
vt 0.25212400 0.81564900
vt 0.15931400 0.91473200
vt 0.15931400 0.91473200
vt 0.15931400 0.91473200
vt 0.91505300 0.15967600
vt 0.91505300 0.15967600
vt 0.82329600 0.26148700
vt 0.82329600 0.26148700
vt 0.82329600 0.26148700
vt 0.82329600 0.26148700
vt 0.84068600 0.08526800
vt 0.84068600 0.08526800
vt 0.84068600 0.08526800
vt 0.74787600 0.18435100
vt 0.74787600 0.18435100
vt 0.74787600 0.18435100
vt 0.17670400 0.73851300
vt 0.17670400 0.73851300
vt 0.17670400 0.73851300
vt 0.17670400 0.73851300
vt 0.08494700 0.84032400
vt 0.08494700 0.84032400
vt 0.58050800 0.24911800
vt 0.52693300 0.23860500
vt 0.52693300 0.23860500
vt 0.15910300 0.05567900
vt 0.15910300 0.05567900
vt 0.15910300 0.05567900
vt 0.84089700 0.04018900
vt 0.84089700 0.04018900
vt 0.84089700 0.04018900
vt 0.84089700 0.04018900
vt 0.15910300 0.04180100
vt 0.15910300 0.04180100
vt 0.95890400 0.15909100
vt 0.95890400 0.15909100
vt 0.95890400 0.15909100
vt 0.95890400 0.15909100
vt 0.95863900 0.48205800
vt 0.95863900 0.48205800
vt 0.96133000 0.51794300
vt 0.96133000 0.51794300
vt 0.96133000 0.51794300
vt 0.95963500 0.84090900
vt 0.95963500 0.84090900
vt 0.95963500 0.84090900
vt 0.84089700 0.94432100
vt 0.84089700 0.94432100
vt 0.84089700 0.94432100
vt 0.84089700 0.95819900
vt 0.84089700 0.95819900
vt 0.15910300 0.95981100
vt 0.15910300 0.95981100
vt 0.15910300 0.95981100
vt 0.15910300 0.95981100
vt 0.04109600 0.84090900
vt 0.04109600 0.84090900
vt 0.04109600 0.84090900
vt 0.04109600 0.84090900
vt 0.04136100 0.51794300
vt 0.04136100 0.51794300
vt 0.03867000 0.48205800
vt 0.03867000 0.48205800
vt 0.03867000 0.48205800
vt 0.04036500 0.15909100
vt 0.04036500 0.15909100
vt 0.04036500 0.15909100
vt 0.15910300 0.03899500
vt 0.15910300 0.03899500
vt 0.84089700 0.03899600
vt 0.96098800 0.15909100
vt 0.96098800 0.48205800
vt 0.96098800 0.48205800
vt 0.96098800 0.51794300
vt 0.96098800 0.84090900
vt 0.96098800 0.84090900
vt 0.84089700 0.96100400
vt 0.84089700 0.96100400
vt 0.15910300 0.96100500
vt 0.03901200 0.84090900
vt 0.03901200 0.51794300
vt 0.03901200 0.51794300
vt 0.03901200 0.48205800
vt 0.03901200 0.15909100
vt 0.03901200 0.15909100
f 1/1/1 2/2/2 4/4/4
f 6/6/6 3/3/3 5/5/5
f 9/9/9 13/13/13 7/7/7
f 11/11/11 12/12/12 16/16/16
f 8/8/8 14/14/14 15/15/15
f 10/10/10 17/17/17 19/19/19
f 21/21/21 20/20/20 18/18/18
f 113/113/113 24/24/24 183/183/183
f 29/29/29 32/32/32 37/37/37
f 41/41/41 46/46/46 48/48/48
f 43/43/43 51/51/51 45/45/45
f 39/39/39 36/36/36 55/55/55
f 60/60/60 38/38/38 56/56/56
f 64/64/64 35/35/35 40/40/40
f 67/67/67 52/52/52 42/42/42
f 66/66/66 71/71/71 53/53/53
f 69/69/69 74/74/74 70/70/70
f 78/78/78 61/61/61 59/59/59
f 65/65/65 27/27/27 34/34/34
f 63/63/63 81/81/81 31/31/31
f 86/86/86 50/50/50 88/88/88
f 92/92/92 80/80/80 62/62/62
f 84/84/84 44/44/44 49/49/49
f 93/93/93 75/75/75 68/68/68
f 98/98/98 72/72/72 96/96/96
f 99/99/99 103/103/103 73/73/73
f 107/107/107 111/111/111 102/102/102
f 110/110/110 115/115/115 112/112/112
f 100/100/100 109/109/109 104/104/104
f 116/116/116 82/82/82 91/91/91
f 117/117/117 119/119/119 79/79/79
f 123/123/123 101/101/101 94/94/94
f 106/106/106 23/23/23 114/114/114
f 105/105/105 129/129/129 22/22/22
f 130/130/130 121/121/121 118/118/118
f 133/133/133 137/137/137 76/76/76
f 134/134/134 139/139/139 138/138/138
f 135/135/135 77/77/77 58/58/58
f 141/141/141 147/147/147 122/122/122
f 131/131/131 143/143/143 120/120/120
f 149/149/149 142/142/142 166/166/166
f 151/151/151 146/146/146 140/140/140
f 152/152/152 159/159/159 136/136/136
f 154/154/154 132/132/132 54/54/54
f 161/161/161 157/157/157 155/155/155
f 163/163/163 148/148/148 165/165/165
f 167/167/167 170/170/170 164/164/164
f 172/172/172 169/169/169 168/168/168
f 160/160/160 175/175/175 158/158/158
f 180/180/180 177/177/177 162/162/162
f 174/174/174 125/125/125 171/171/171
f 176/176/176 179/179/179 87/87/87
f 25/25/25 126/126/126 173/173/173
f 47/47/47 178/178/178 89/89/89
f 182/182/182 26/26/26 181/181/181
f 128/128/128 108/108/108 185/185/185
f 187/187/187 127/127/127 186/186/186
f 188/188/188 184/184/184 192/192/192
f 145/145/145 150/150/150 194/194/194
f 197/197/197 144/144/144 195/195/195
f 204/204/204 33/33/33 28/28/28
f 202/202/202 30/30/30 200/200/200
f 153/153/153 57/57/57 207/207/207
f 212/212/212 156/156/156 205/205/205
f 210/210/210 206/206/206 208/208/208
f 85/85/85 90/90/90 215/215/215
f 219/219/219 83/83/83 216/216/216
f 224/224/224 124/124/124 95/95/95
f 225/225/225 97/97/97 221/221/221
f 189/189/189 226/226/226 228/228/228
f 190/190/190 191/191/191 227/227/227
f 230/230/230 196/196/196 229/229/229
f 198/198/198 193/193/193 231/231/231
f 233/233/233 199/199/199 232/232/232
f 203/203/203 201/201/201 234/234/234
f 213/213/213 235/235/235 237/237/237
f 211/211/211 209/209/209 236/236/236
f 239/239/239 217/217/217 238/238/238
f 218/218/218 214/214/214 240/240/240
f 242/242/242 220/220/220 241/241/241
f 223/223/223 222/222/222 243/243/243

