mtllib material.mtl
usemtl material_0
v 3.70904400 3.28658200 2.20112000
v 3.70904400 3.36965800 2.38305000
v 3.70904400 3.36965800 2.38305000
v 3.70904400 3.31503800 2.39908600
v 3.70904400 3.31503800 2.39908600
v 3.70904400 3.25811200 2.39908400
v 3.70904400 3.25811200 2.39908400
v 3.70904400 3.20349200 2.38304400
v 3.70904400 3.20349200 2.38304400
v 3.70904400 3.15560400 2.35226500
v 3.70904400 3.15560400 2.35226500
v 3.70904400 3.11832800 2.30924200
v 3.70904400 3.11832800 2.30924200
v 3.70904400 3.09468200 2.25745900
v 3.70904400 3.09468200 2.25745900
v 3.70904400 3.08658200 2.20111300
v 3.70904400 3.08658200 2.20111300
v 3.70904400 3.09468600 2.14476600
v 3.70904400 3.09468600 2.14476600
v 3.70904400 3.11833600 2.09298600
v 3.70904400 3.11833600 2.09298600
v 3.70904400 3.15561600 2.04996500
v 3.70904400 3.15561600 2.04996500
v 3.70904400 3.20350600 2.01919100
v 3.70904400 3.20350600 2.01919100
v 3.70904400 3.25812700 2.00315500
v 3.70904400 3.25812700 2.00315500
v 3.70904400 3.31505300 2.00315700
v 3.70904400 3.31505300 2.00315700
v 3.70904400 3.31505300 2.00315700
v 3.70904400 3.36967300 2.01919700
v 3.70904400 3.36967300 2.01919700
v 3.70904400 3.41756000 2.04997500
v 3.70904400 3.41756000 2.04997500
v 3.70904400 3.45483700 2.09299900
v 3.70904400 3.45483700 2.09299900
v 3.70904400 3.47848300 2.14478100
v 3.70904400 3.47848300 2.14478100
v 3.70904400 3.48658300 2.20112800
v 3.70904400 3.48658300 2.20112800
v 3.70904400 3.47847900 2.25747400
v 3.70904400 3.47847900 2.25747400
v 3.70904400 3.45482900 2.30925500
v 3.70904400 3.45482900 2.30925500
v 3.70904400 3.41754900 2.35227500
v 3.70904400 3.41754900 2.35227500
v 3.70904400 3.53581000 2.74690900
v 3.70904400 3.53581000 2.74690900
v 3.70904400 3.37194800 2.79501700
v 3.70904400 3.37194800 2.79501700
v 3.70904400 3.20117000 2.79501000
v 3.70904400 3.20117000 2.79501000
v 3.70904400 3.03731200 2.74689000
v 3.70904400 3.03731200 2.74689000
v 3.70904400 2.89364800 2.65455500
v 3.70904400 2.89364800 2.65455500
v 3.70904400 2.78181800 2.52548500
v 3.70904400 2.78181800 2.52548500
v 3.70904400 2.71088000 2.37013700
v 3.70904400 2.71088000 2.37013700
v 3.70904400 2.68658300 2.20109700
v 3.70904400 2.68658300 2.20109700
v 3.70904400 2.71089300 2.03205800
v 3.70904400 2.71089300 2.03205800
v 3.70904400 2.78184300 1.87671600
v 3.70904400 2.78184300 1.87671600
v 3.70904400 2.89368400 1.74765500
v 3.70904400 2.89368400 1.74765500
v 3.70904400 3.03735500 1.65533200
v 3.70904400 3.03735500 1.65533200
v 3.70904400 3.20121600 1.60722400
v 3.70904400 3.20121600 1.60722400
v 3.70904400 3.37199400 1.60723100
v 3.70904400 3.37199400 1.60723100
v 3.70904400 3.53585200 1.65535100
v 3.70904400 3.53585200 1.65535100
v 3.70904400 3.67951600 1.74768600
v 3.70904400 3.67951600 1.74768600
v 3.70904400 3.79134700 1.87675500
v 3.70904400 3.79134700 1.87675500
v 3.70904400 3.86228500 2.03210300
v 3.70904400 3.86228500 2.03210300
v 3.70904400 3.88658200 2.20114300
v 3.70904400 3.88658200 2.20114300
v 3.70904400 3.86227200 2.37018200
v 3.70904400 3.86227200 2.37018200
v 3.70904400 3.79132200 2.52552400
v 3.70904400 3.79132200 2.52552400
v 3.70904400 3.67948200 2.65458500
v 3.70904400 3.67948200 2.65458500
v 3.70031500 3.53581000 2.74690900
v 3.70031500 3.53581000 2.74690900
v 3.70031500 3.37194800 2.79501700
v 3.70031500 3.37194800 2.79501700
v 3.70031500 3.20117000 2.79501000
v 3.70031500 3.20117000 2.79501000
v 3.70031500 3.03731200 2.74689000
v 3.70031500 3.03731200 2.74689000
v 3.70031500 2.89364800 2.65455500
v 3.70031500 2.89364800 2.65455500
v 3.70031500 2.78181800 2.52548500
v 3.70031500 2.78181800 2.52548500
v 3.70031500 2.71088000 2.37013700
v 3.70031500 2.71088000 2.37013700
v 3.70031500 2.68658300 2.20109700
v 3.70031500 2.68658300 2.20109700
v 3.70031500 2.71089300 2.03205800
v 3.70031500 2.71089300 2.03205800
v 3.70031500 2.78184300 1.87671600
v 3.70031500 2.78184300 1.87671600
v 3.70031500 2.89368400 1.74765500
v 3.70031500 2.89368400 1.74765500
v 3.70031500 3.03735500 1.65533200
v 3.70031500 3.03735500 1.65533200
v 3.70031500 3.20121600 1.60722400
v 3.70031500 3.20121600 1.60722400
v 3.70031500 3.37199400 1.60723100
v 3.70031500 3.37199400 1.60723100
v 3.70031500 3.53585200 1.65535100
v 3.70031500 3.53585200 1.65535100
v 3.70031500 3.67951600 1.74768600
v 3.70031500 3.67951600 1.74768600
v 3.70031500 3.79134700 1.87675500
v 3.70031500 3.79134700 1.87675500
v 3.70031500 3.86228500 2.03210300
v 3.70031500 3.86228500 2.03210300
v 3.70031500 3.88658200 2.20114300
v 3.70031500 3.88658200 2.20114300
v 3.70031500 3.86227200 2.37018200
v 3.70031500 3.86227200 2.37018200
v 3.70031500 3.79132200 2.52552400
v 3.70031500 3.79132200 2.52552400
v 3.70031500 3.67948200 2.65458500
v 3.70031500 3.67948200 2.65458500
v 3.70031500 3.36965800 2.38305000
v 3.70031500 3.36965800 2.38305000
v 3.70031500 3.31503800 2.39908600
v 3.70031500 3.31503800 2.39908600
v 3.70031500 3.25811200 2.39908400
v 3.70031500 3.25811200 2.39908400
v 3.70031500 3.20349200 2.38304400
v 3.70031500 3.20349200 2.38304400
v 3.70031500 3.15560400 2.35226500
v 3.70031500 3.15560400 2.35226500
v 3.70031500 3.11832800 2.30924200
v 3.70031500 3.11832800 2.30924200
v 3.70031500 3.09468200 2.25745900
v 3.70031500 3.09468200 2.25745900
v 3.70031500 3.08658200 2.20111300
v 3.70031500 3.08658200 2.20111300
v 3.70031500 3.09468600 2.14476600
v 3.70031500 3.09468600 2.14476600
v 3.70031500 3.11833600 2.09298600
v 3.70031500 3.11833600 2.09298600
v 3.70031500 3.15561600 2.04996500
v 3.70031500 3.15561600 2.04996500
v 3.70031500 3.20350600 2.01919100
v 3.70031500 3.20350600 2.01919100
v 3.70031500 3.25812700 2.00315500
v 3.70031500 3.25812700 2.00315500
v 3.70031500 3.31505300 2.00315700
v 3.70031500 3.31505300 2.00315700
v 3.70031500 3.31505300 2.00315700
v 3.70031500 3.36967300 2.01919700
v 3.70031500 3.36967300 2.01919700
v 3.70031500 3.41756000 2.04997500
v 3.70031500 3.41756000 2.04997500
v 3.70031500 3.45483700 2.09299900
v 3.70031500 3.45483700 2.09299900
v 3.70031500 3.47848300 2.14478100
v 3.70031500 3.47848300 2.14478100
v 3.70031500 3.48658300 2.20112800
v 3.70031500 3.48658300 2.20112800
v 3.70031500 3.47847900 2.25747400
v 3.70031500 3.47847900 2.25747400
v 3.70031500 3.45482900 2.30925500
v 3.70031500 3.45482900 2.30925500
v 3.70031500 3.41754900 2.35227500
v 3.70031500 3.41754900 2.35227500
v 3.70031500 3.28658200 2.20112000
v 3.70904400 3.39042700 2.42853200
v 3.70904400 3.39042700 2.42853200
v 3.70904400 3.32215100 2.44857700
v 3.70904400 3.32215100 2.44857700
v 3.70904400 3.25099400 2.44857400
v 3.70904400 3.25099400 2.44857400
v 3.70904400 3.18272000 2.42852400
v 3.70904400 3.18272000 2.42852400
v 3.70904400 3.12286000 2.39005100
v 3.70904400 3.12286000 2.39005100
v 3.70904400 3.07626400 2.33627200
v 3.70904400 3.07626400 2.33627200
v 3.70904400 3.04670600 2.27154400
v 3.70904400 3.04670600 2.27154400
v 3.70904400 3.03658200 2.20111100
v 3.70904400 3.03658200 2.20111100
v 3.70904400 3.04671200 2.13067800
v 3.70904400 3.04671200 2.13067800
v 3.70904400 3.07627400 2.06595200
v 3.70904400 3.07627400 2.06595200
v 3.70904400 3.12287500 2.01217700
v 3.70904400 3.12287500 2.01217700
v 3.70904400 3.18273800 1.97370800
v 3.70904400 3.18273800 1.97370800
v 3.70904400 3.25101300 1.95366400
v 3.70904400 3.25101300 1.95366400
v 3.70904400 3.32217100 1.95366600
v 3.70904400 3.32217100 1.95366600
v 3.70904400 3.39044500 1.97371600
v 3.70904400 3.39044500 1.97371600
v 3.70904400 3.45030500 2.01218900
v 3.70904400 3.45030500 2.01218900
v 3.70904400 3.49690100 2.06596800
v 3.70904400 3.49690100 2.06596800
v 3.70904400 3.52645900 2.13069600
v 3.70904400 3.52645900 2.13069600
v 3.70904400 3.53658200 2.20113000
v 3.70904400 3.53658200 2.20113000
v 3.70904400 3.52645300 2.27156300
v 3.70904400 3.52645300 2.27156300
v 3.70904400 3.49689100 2.33628800
v 3.70904400 3.49689100 2.33628800
v 3.70904400 3.45029000 2.39006400
v 3.70904400 3.45029000 2.39006400
v 3.70031500 3.39042700 2.42853200
v 3.70031500 3.39042700 2.42853200
v 3.70031500 3.32215100 2.44857700
v 3.70031500 3.32215100 2.44857700
v 3.70031500 3.25099400 2.44857400
v 3.70031500 3.25099400 2.44857400
v 3.70031500 3.18272000 2.42852400
v 3.70031500 3.18272000 2.42852400
v 3.70031500 3.12286000 2.39005100
v 3.70031500 3.12286000 2.39005100
v 3.70031500 3.07626400 2.33627200
v 3.70031500 3.07626400 2.33627200
v 3.70031500 3.04670600 2.27154400
v 3.70031500 3.04670600 2.27154400
v 3.70031500 3.03658200 2.20111100
v 3.70031500 3.03658200 2.20111100
v 3.70031500 3.04671200 2.13067800
v 3.70031500 3.04671200 2.13067800
v 3.70031500 3.07627400 2.06595200
v 3.70031500 3.07627400 2.06595200
v 3.70031500 3.12287500 2.01217700
v 3.70031500 3.12287500 2.01217700
v 3.70031500 3.18273800 1.97370800
v 3.70031500 3.18273800 1.97370800
v 3.70031500 3.25101300 1.95366400
v 3.70031500 3.25101300 1.95366400
v 3.70031500 3.32217100 1.95366600
v 3.70031500 3.32217100 1.95366600
v 3.70031500 3.39044500 1.97371600
v 3.70031500 3.39044500 1.97371600
v 3.70031500 3.45030500 2.01218900
v 3.70031500 3.45030500 2.01218900
v 3.70031500 3.49690100 2.06596800
v 3.70031500 3.49690100 2.06596800
v 3.70031500 3.52645900 2.13069600
v 3.70031500 3.52645900 2.13069600
v 3.70031500 3.53658200 2.20113000
v 3.70031500 3.53658200 2.20113000
v 3.70031500 3.52645300 2.27156300
v 3.70031500 3.52645300 2.27156300
v 3.70031500 3.49689100 2.33628800
v 3.70031500 3.49689100 2.33628800
v 3.70031500 3.45029000 2.39006400
v 3.70031500 3.45029000 2.39006400
v 3.70904400 3.31506800 1.60722900
v 3.70904400 3.31506800 1.60722900
v 3.70904400 3.31506800 1.60722900
v 3.70904400 3.25814200 1.60722600
v 3.70904400 3.25814200 1.60722600
v 3.70904400 3.25814200 1.60722600
v 3.70031500 3.31506800 1.60722900
v 3.70031500 3.31506800 1.60722900
v 3.70031500 3.31506800 1.60722900
v 3.70031500 3.25814200 1.60722600
v 3.70031500 3.25814200 1.60722600
v 3.70031500 3.25814200 1.60722600
v 3.70904400 3.27473300 1.95366500
v 3.70904400 3.27473300 1.95366500
v 3.70904400 3.27473300 1.95366500
v 3.70904400 3.29845200 1.95366500
v 3.70904400 3.29845200 1.95366500
v 3.70904400 3.29845200 1.95366500
v 3.70031500 3.29845200 1.95366500
v 3.70031500 3.29845200 1.95366500
v 3.70031500 3.29845200 1.95366500
v 3.70031500 3.27473300 1.95366500
v 3.70031500 3.27473300 1.95366500
v 3.70031500 3.27473300 1.95366500
v 3.70799900 3.30658200 2.02596200
v 3.70799900 3.30658200 2.02596200
v 3.70799900 3.26658200 2.02596200
v 3.70799900 3.26658200 2.02596200
v 3.70136000 3.26658200 2.02596200
v 3.70136000 3.26658200 2.02596200
v 3.70136000 3.30658200 2.02596200
v 3.70136000 3.30658200 2.02596200
v 3.78022100 3.30658200 1.01306300
v 3.78022100 3.30658200 1.01306300
v 3.78022100 3.26658200 1.01306300
v 3.78022100 3.26658200 1.01306300
v 3.62913700 3.26658200 1.01306300
v 3.62913700 3.26658200 1.01306300
v 3.62913700 3.30658200 1.01306300
v 3.62913700 3.30658200 1.01306300
v 3.70717900 3.28908200 2.45459900
v 3.70717900 3.28908200 2.45459900
v 3.70717900 3.28408200 2.45459900
v 3.70717900 3.28408200 2.45459900
v 3.70217900 3.28408200 2.45459900
v 3.70217900 3.28408200 2.45459900
v 3.70217900 3.28908200 2.45459900
v 3.70217900 3.28908200 2.45459900
v 3.70717900 3.28908200 2.38895800
v 3.70717900 3.28908200 2.38895800
v 3.70717900 3.28408200 2.38895800
v 3.70717900 3.28408200 2.38895800
v 3.70217900 3.28408200 2.38895800
v 3.70217900 3.28408200 2.38895800
v 3.70217900 3.28908200 2.38895800
v 3.70217900 3.28908200 2.38895800
v 3.70717900 3.36039400 2.44362800
v 3.70717900 3.36039400 2.44362800
v 3.70717900 3.35559700 2.44503600
v 3.70717900 3.35559700 2.44503600
v 3.70217900 3.35559700 2.44503600
v 3.70217900 3.35559700 2.44503600
v 3.70217900 3.36039400 2.44362800
v 3.70217900 3.36039400 2.44362800
v 3.70717900 3.34190100 2.38064600
v 3.70717900 3.34190100 2.38064600
v 3.70717900 3.33710400 2.38205400
v 3.70717900 3.33710400 2.38205400
v 3.70217900 3.33710400 2.38205400
v 3.70217900 3.33710400 2.38205400
v 3.70217900 3.34190100 2.38064600
v 3.70217900 3.34190100 2.38064600
v 3.70717900 3.42572600 2.41300800
v 3.70717900 3.42572600 2.41300800
v 3.70717900 3.42152000 2.41571100
v 3.70717900 3.42152000 2.41571100
v 3.70217900 3.42152000 2.41571100
v 3.70217900 3.42152000 2.41571100
v 3.70217900 3.42572600 2.41300800
v 3.70217900 3.42572600 2.41300800
v 3.70717900 3.39023800 2.35778800
v 3.70717900 3.39023800 2.35778800
v 3.70717900 3.38603200 2.36049100
v 3.70717900 3.38603200 2.36049100
v 3.70217900 3.38603200 2.36049100
v 3.70217900 3.38603200 2.36049100
v 3.70217900 3.39023800 2.35778800
v 3.70217900 3.39023800 2.35778800
v 3.70717900 3.47978600 2.36522400
v 3.70717900 3.47978600 2.36522400
v 3.70717900 3.47651100 2.36900300
v 3.70717900 3.47651100 2.36900300
v 3.70217900 3.47651100 2.36900300
v 3.70217900 3.47651100 2.36900300
v 3.70217900 3.47978600 2.36522400
v 3.70217900 3.47978600 2.36522400
v 3.70717900 3.43017800 2.32223800
v 3.70717900 3.43017800 2.32223800
v 3.70717900 3.42690300 2.32601700
v 3.70717900 3.42690300 2.32601700
v 3.70217900 3.42690300 2.32601700
v 3.70217900 3.42690300 2.32601700
v 3.70217900 3.43017800 2.32223800
v 3.70217900 3.43017800 2.32223800
v 3.70718000 3.51819300 2.30414500
v 3.70718000 3.51819300 2.30414500
v 3.70718000 3.51611600 2.30869300
v 3.70718000 3.51611600 2.30869300
v 3.70217900 3.51611600 2.30869300
v 3.70217900 3.51611600 2.30869300
v 3.70217900 3.51819300 2.30414500
v 3.70217900 3.51819300 2.30414500
v 3.70717900 3.45848400 2.27687700
v 3.70717900 3.45848400 2.27687700
v 3.70717900 3.45640700 2.28142500
v 3.70717900 3.45640700 2.28142500
v 3.70217900 3.45640700 2.28142500
v 3.70217900 3.45640700 2.28142500
v 3.70217900 3.45848400 2.27687700
v 3.70217900 3.45848400 2.27687700
v 3.70718000 3.53783600 2.23471900
v 3.70718000 3.53783600 2.23471900
v 3.70718000 3.53712500 2.23966800
v 3.70718000 3.53712500 2.23966800
v 3.70217900 3.53712500 2.23966800
v 3.70217900 3.53712500 2.23966800
v 3.70217900 3.53783600 2.23471900
v 3.70217900 3.53783600 2.23471900
v 3.70718000 3.47286400 2.22537700
v 3.70718000 3.47286400 2.22537700
v 3.70718000 3.47215200 2.23032600
v 3.70718000 3.47215200 2.23032600
v 3.70217900 3.47215200 2.23032600
v 3.70217900 3.47215200 2.23032600
v 3.70217900 3.47286400 2.22537700
v 3.70217900 3.47286400 2.22537700
v 3.70718000 3.53712500 2.16257100
v 3.70718000 3.53712500 2.16257100
v 3.70718000 3.53783700 2.16752000
v 3.70718000 3.53783700 2.16752000
v 3.70217900 3.53783700 2.16752000
v 3.70217900 3.53783700 2.16752000
v 3.70217900 3.53712500 2.16257100
v 3.70217900 3.53712500 2.16257100
v 3.70718000 3.47215200 2.17191300
v 3.70718000 3.47215200 2.17191300
v 3.70718000 3.47286400 2.17686200
v 3.70718000 3.47286400 2.17686200
v 3.70217900 3.47286400 2.17686200
v 3.70217900 3.47286400 2.17686200
v 3.70217900 3.47215200 2.17191300
v 3.70217900 3.47215200 2.17191300
v 3.70718000 3.51611600 2.09354700
v 3.70718000 3.51611600 2.09354700
v 3.70718000 3.51819300 2.09809500
v 3.70718000 3.51819300 2.09809500
v 3.70217900 3.51819300 2.09809500
v 3.70217900 3.51819300 2.09809500
v 3.70217900 3.51611600 2.09354700
v 3.70217900 3.51611600 2.09354700
v 3.70718000 3.45640700 2.12081500
v 3.70718000 3.45640700 2.12081500
v 3.70718000 3.45848400 2.12536300
v 3.70718000 3.45848400 2.12536300
v 3.70217900 3.45848400 2.12536300
v 3.70217900 3.45848400 2.12536300
v 3.70217900 3.45640700 2.12081500
v 3.70217900 3.45640700 2.12081500
v 3.70718000 3.47651100 2.03323800
v 3.70718000 3.47651100 2.03323800
v 3.70718000 3.47978600 2.03701600
v 3.70718000 3.47978600 2.03701600
v 3.70217900 3.47978600 2.03701600
v 3.70217900 3.47978600 2.03701600
v 3.70217900 3.47651100 2.03323800
v 3.70217900 3.47651100 2.03323800
v 3.70718000 3.42690300 2.07622300
v 3.70718000 3.42690300 2.07622300
v 3.70718000 3.43017800 2.08000200
v 3.70718000 3.43017800 2.08000200
v 3.70217900 3.43017800 2.08000200
v 3.70217900 3.43017800 2.08000200
v 3.70217900 3.42690300 2.07622300
v 3.70217900 3.42690300 2.07622300
v 3.70718000 3.42152000 1.98652800
v 3.70718000 3.42152000 1.98652800
v 3.70718000 3.42572700 1.98923200
v 3.70718000 3.42572700 1.98923200
v 3.70217900 3.42572700 1.98923200
v 3.70217900 3.42572700 1.98923200
v 3.70217900 3.42152000 1.98652800
v 3.70217900 3.42152000 1.98652800
v 3.70718000 3.38603200 2.04174900
v 3.70718000 3.38603200 2.04174900
v 3.70718000 3.39023800 2.04445200
v 3.70718000 3.39023800 2.04445200
v 3.70217900 3.39023800 2.04445200
v 3.70217900 3.39023800 2.04445200
v 3.70217900 3.38603200 2.04174900
v 3.70217900 3.38603200 2.04174900
v 3.70718000 3.35559700 1.95720400
v 3.70718000 3.35559700 1.95720400
v 3.70718000 3.36039400 1.95861300
v 3.70718000 3.36039400 1.95861300
v 3.70217900 3.36039400 1.95861300
v 3.70217900 3.36039400 1.95861300
v 3.70217900 3.35559700 1.95720400
v 3.70217900 3.35559700 1.95720400
v 3.70718000 3.33710300 2.02018600
v 3.70718000 3.33710300 2.02018600
v 3.70718000 3.34190100 2.02159500
v 3.70718000 3.34190100 2.02159500
v 3.70217900 3.34190100 2.02159500
v 3.70217900 3.34190100 2.02159500
v 3.70217900 3.33710300 2.02018600
v 3.70217900 3.33710300 2.02018600
v 3.70717900 3.21277000 1.95861300
v 3.70717900 3.21277000 1.95861300
v 3.70717900 3.21756700 1.95720500
v 3.70717900 3.21756700 1.95720500
v 3.70217900 3.21756700 1.95720500
v 3.70217900 3.21756700 1.95720500
v 3.70217900 3.21277000 1.95861300
v 3.70217900 3.21277000 1.95861300
v 3.70717900 3.23126300 2.02159500
v 3.70717900 3.23126300 2.02159500
v 3.70717900 3.23606100 2.02018700
v 3.70717900 3.23606100 2.02018700
v 3.70217900 3.23606100 2.02018700
v 3.70217900 3.23606100 2.02018700
v 3.70217900 3.23126300 2.02159500
v 3.70217900 3.23126300 2.02159500
v 3.70717900 3.14743800 1.98923100
v 3.70717900 3.14743800 1.98923100
v 3.70717900 3.15164400 1.98652800
v 3.70717900 3.15164400 1.98652800
v 3.70217900 3.15164400 1.98652800
v 3.70217900 3.15164400 1.98652800
v 3.70217900 3.14743800 1.98923100
v 3.70217900 3.14743800 1.98923100
v 3.70717900 3.18292600 2.04445200
v 3.70717900 3.18292600 2.04445200
v 3.70717900 3.18713300 2.04174900
v 3.70717900 3.18713300 2.04174900
v 3.70217900 3.18713300 2.04174900
v 3.70217900 3.18713300 2.04174900
v 3.70217900 3.18292600 2.04445200
v 3.70217900 3.18292600 2.04445200
v 3.70717900 3.09337900 2.03701600
v 3.70717900 3.09337900 2.03701600
v 3.70717900 3.09665300 2.03323700
v 3.70717900 3.09665300 2.03323700
v 3.70217900 3.09665300 2.03323700
v 3.70217900 3.09665300 2.03323700
v 3.70217900 3.09337900 2.03701600
v 3.70217900 3.09337900 2.03701600
v 3.70717900 3.14298700 2.08000100
v 3.70717900 3.14298700 2.08000100
v 3.70717900 3.14626100 2.07622300
v 3.70717900 3.14626100 2.07622300
v 3.70217900 3.14626100 2.07622300
v 3.70217900 3.14626100 2.07622300
v 3.70217900 3.14298700 2.08000100
v 3.70217900 3.14298700 2.08000100
v 3.70717900 3.05497100 2.09809500
v 3.70717900 3.05497100 2.09809500
v 3.70717900 3.05704800 2.09354700
v 3.70717900 3.05704800 2.09354700
v 3.70217900 3.05704800 2.09354700
v 3.70217900 3.05704800 2.09354700
v 3.70217900 3.05497100 2.09809500
v 3.70217900 3.05497100 2.09809500
v 3.70717900 3.11468000 2.12536300
v 3.70717900 3.11468000 2.12536300
v 3.70717900 3.11675700 2.12081500
v 3.70717900 3.11675700 2.12081500
v 3.70217900 3.11675700 2.12081500
v 3.70217900 3.11675700 2.12081500
v 3.70217900 3.11468000 2.12536300
v 3.70217900 3.11468000 2.12536300
v 3.70717900 3.03532800 2.16752000
v 3.70717900 3.03532800 2.16752000
v 3.70717900 3.03603900 2.16257100
v 3.70717900 3.03603900 2.16257100
v 3.70217900 3.03603900 2.16257100
v 3.70217900 3.03603900 2.16257100
v 3.70217900 3.03532800 2.16752000
v 3.70217900 3.03532800 2.16752000
v 3.70717900 3.10030000 2.17686200
v 3.70717900 3.10030000 2.17686200
v 3.70717900 3.10101200 2.17191300
v 3.70717900 3.10101200 2.17191300
v 3.70217900 3.10101200 2.17191300
v 3.70217900 3.10101200 2.17191300
v 3.70217900 3.10030000 2.17686200
v 3.70217900 3.10030000 2.17686200
v 3.70717900 3.03603900 2.23966800
v 3.70717900 3.03603900 2.23966800
v 3.70717900 3.03532800 2.23471900
v 3.70717900 3.03532800 2.23471900
v 3.70217900 3.03532800 2.23471900
v 3.70217900 3.03532800 2.23471900
v 3.70217900 3.03603900 2.23966800
v 3.70217900 3.03603900 2.23966800
v 3.70717900 3.10101200 2.23032600
v 3.70717900 3.10101200 2.23032600
v 3.70717900 3.10030000 2.22537700
v 3.70717900 3.10030000 2.22537700
v 3.70217900 3.10030000 2.22537700
v 3.70217900 3.10030000 2.22537700
v 3.70217900 3.10101200 2.23032600
v 3.70217900 3.10101200 2.23032600
v 3.70717900 3.05704800 2.30869300
v 3.70717900 3.05704800 2.30869300
v 3.70717900 3.05497100 2.30414500
v 3.70717900 3.05497100 2.30414500
v 3.70217900 3.05497100 2.30414500
v 3.70217900 3.05497100 2.30414500
v 3.70217900 3.05704800 2.30869300
v 3.70217900 3.05704800 2.30869300
v 3.70717900 3.11675700 2.28142500
v 3.70717900 3.11675700 2.28142500
v 3.70717900 3.11468000 2.27687700
v 3.70717900 3.11468000 2.27687700
v 3.70217900 3.11468000 2.27687700
v 3.70217900 3.11468000 2.27687700
v 3.70217900 3.11675700 2.28142500
v 3.70217900 3.11675700 2.28142500
v 3.70717900 3.09665300 2.36900200
v 3.70717900 3.09665300 2.36900200
v 3.70717900 3.09337800 2.36522300
v 3.70717900 3.09337800 2.36522300
v 3.70217900 3.09337800 2.36522300
v 3.70217900 3.09337800 2.36522300
v 3.70217900 3.09665300 2.36900200
v 3.70217900 3.09665300 2.36900200
v 3.70717900 3.14626100 2.32601700
v 3.70717900 3.14626100 2.32601700
v 3.70717900 3.14298700 2.32223800
v 3.70717900 3.14298700 2.32223800
v 3.70217900 3.14298700 2.32223800
v 3.70217900 3.14298700 2.32223800
v 3.70217900 3.14626100 2.32601700
v 3.70217900 3.14626100 2.32601700
v 3.70717900 3.15164400 2.41571100
v 3.70717900 3.15164400 2.41571100
v 3.70717900 3.14743700 2.41300800
v 3.70717900 3.14743700 2.41300800
v 3.70217900 3.14743700 2.41300800
v 3.70217900 3.14743700 2.41300800
v 3.70217900 3.15164400 2.41571100
v 3.70217900 3.15164400 2.41571100
v 3.70717900 3.18713200 2.36049000
v 3.70717900 3.18713200 2.36049000
v 3.70717900 3.18292500 2.35778700
v 3.70717900 3.18292500 2.35778700
v 3.70217900 3.18292500 2.35778700
v 3.70217900 3.18292500 2.35778700
v 3.70217900 3.18713200 2.36049000
v 3.70217900 3.18713200 2.36049000
v 3.70717900 3.21756700 2.44503500
v 3.70717900 3.21756700 2.44503500
v 3.70717900 3.21277000 2.44362600
v 3.70717900 3.21277000 2.44362600
v 3.70217900 3.21277000 2.44362600
v 3.70217900 3.21277000 2.44362600
v 3.70217900 3.21756700 2.44503500
v 3.70217900 3.21756700 2.44503500
v 3.70717900 3.23606100 2.38205300
v 3.70717900 3.23606100 2.38205300
v 3.70717900 3.23126300 2.38064400
v 3.70717900 3.23126300 2.38064400
v 3.70217900 3.23126300 2.38064400
v 3.70217900 3.23126300 2.38064400
v 3.70217900 3.23606100 2.38205300
v 3.70217900 3.23606100 2.38205300
vn 1.00000000 -0.00000000 -0.00000000
vn -0.00000000 0.41540000 0.90960000
vn 1.00000000 -0.00000000 -0.00000000
vn -0.00000000 0.14230000 0.98980000
vn 1.00000000 -0.00000000 -0.00000000
vn -0.00000000 -0.14240000 0.98980000
vn 1.00000000 -0.00000000 -0.00000000
vn 1.00000000 -0.00000000 -0.00000000
vn -0.00000000 -0.41550000 0.90960000
vn -0.00000000 -0.65490000 0.75570000
vn 1.00000000 -0.00000000 -0.00000000
vn 1.00000000 -0.00000000 -0.00000000
vn -0.00000000 -0.84130000 0.54060000
vn -0.00000000 -0.95950000 0.28170000
vn 1.00000000 -0.00000000 -0.00000000
vn 1.00000000 -0.00000000 -0.00000000
vn -0.00000000 -1.00000000 -0.00000000
vn 1.00000000 -0.00000000 -0.00000000
vn -0.00000000 -0.95950000 -0.28180000
vn -0.00000000 -0.84120000 -0.54070000
vn 1.00000000 -0.00000000 -0.00000000
vn 1.00000000 -0.00000000 -0.00000000
vn -0.00000000 -0.65480000 -0.75580000
vn -0.00000000 -0.41540000 -0.90960000
vn 1.00000000 -0.00000000 -0.00000000
vn -0.00000000 -0.14230000 -0.98980000
vn 1.00000000 -0.00000000 -0.00000000
vn 1.00000000 -0.00000000 -0.00000000
vn -0.00000000 0.14240000 -0.98980000
vn -0.00000000 0.14240000 -0.98980000
vn -0.00000000 0.41540000 -0.90960000
vn 1.00000000 -0.00000000 -0.00000000
vn -0.00000000 0.65490000 -0.75570000
vn 1.00000000 -0.00000000 -0.00000000
vn -0.00000000 0.84130000 -0.54060000
vn 1.00000000 -0.00000000 -0.00000000
vn 1.00000000 -0.00000000 -0.00000000
vn -0.00000000 0.95950000 -0.28170000
vn -0.00000000 1.00000000 -0.00000000
vn 1.00000000 -0.00000000 -0.00000000
vn 1.00000000 -0.00000000 -0.00000000
vn -0.00000000 0.95950000 0.28180000
vn -0.00000000 0.84120000 0.54070000
vn 1.00000000 -0.00000000 -0.00000000
vn -0.00000000 0.65480000 0.75580000
vn 1.00000000 -0.00000000 -0.00000000
vn -0.00000000 0.41540000 0.90960000
vn 1.00000000 -0.00000000 -0.00000000
vn -0.00000000 0.14230000 0.98980000
vn 1.00000000 -0.00000000 -0.00000000
vn -0.00000000 -0.14240000 0.98980000
vn 1.00000000 -0.00000000 -0.00000000
vn 1.00000000 -0.00000000 -0.00000000
vn -0.00000000 -0.41550000 0.90960000
vn -0.00000000 -0.65490000 0.75570000
vn 1.00000000 -0.00000000 -0.00000000
vn 1.00000000 -0.00000000 -0.00000000
vn -0.00000000 -0.84130000 0.54060000
vn -0.00000000 -0.95950000 0.28170000
vn 1.00000000 -0.00000000 -0.00000000
vn -0.00000000 -1.00000000 -0.00000000
vn 1.00000000 -0.00000000 -0.00000000
vn -0.00000000 -0.95950000 -0.28180000
vn 1.00000000 -0.00000000 -0.00000000
vn -0.00000000 -0.84120000 -0.54070000
vn 1.00000000 -0.00000000 -0.00000000
vn 1.00000000 -0.00000000 -0.00000000
vn -0.00000000 -0.65480000 -0.75580000
vn -0.00000000 -0.41540000 -0.90960000
vn 1.00000000 -0.00000000 -0.00000000
vn -0.00000000 -0.14230000 -0.98980000
vn 1.00000000 -0.00000000 -0.00000000
vn 1.00000000 -0.00000000 -0.00000000
vn -0.00000000 0.14240000 -0.98980000
vn -0.00000000 0.41540000 -0.90960000
vn 1.00000000 -0.00000000 -0.00000000
vn -0.00000000 0.65490000 -0.75570000
vn 1.00000000 -0.00000000 -0.00000000
vn 1.00000000 -0.00000000 -0.00000000
vn -0.00000000 0.84130000 -0.54060000
vn -0.00000000 0.95950000 -0.28170000
vn 1.00000000 -0.00000000 -0.00000000
vn -0.00000000 1.00000000 -0.00000000
vn 1.00000000 -0.00000000 -0.00000000
vn 1.00000000 -0.00000000 -0.00000000
vn -0.00000000 0.95950000 0.28180000
vn 1.00000000 -0.00000000 -0.00000000
vn -0.00000000 0.84120000 0.54070000
vn -0.00000000 0.65480000 0.75580000
vn 1.00000000 -0.00000000 -0.00000000
vn -1.00000000 -0.00000000 -0.00000000
vn -0.00000000 0.41540000 0.90960000
vn -0.00000000 0.14230000 0.98980000
vn -1.00000000 -0.00000000 -0.00000000
vn -1.00000000 -0.00000000 -0.00000000
vn -0.00000000 -0.14240000 0.98980000
vn -0.00000000 -0.41540000 0.90960000
vn -1.00000000 -0.00000000 -0.00000000
vn -1.00000000 -0.00000000 -0.00000000
vn -0.00000000 -0.65490000 0.75570000
vn -0.00000000 -0.84130000 0.54060000
vn -1.00000000 -0.00000000 -0.00000000
vn -1.00000000 -0.00000000 -0.00000000
vn -0.00000000 -0.95950000 0.28170000
vn -1.00000000 -0.00000000 -0.00000000
vn -0.00000000 -1.00000000 -0.00000000
vn -1.00000000 -0.00000000 -0.00000000
vn -0.00000000 -0.95950000 -0.28180000
vn -1.00000000 -0.00000000 -0.00000000
vn -0.00000000 -0.84120000 -0.54070000
vn -1.00000000 -0.00000000 -0.00000000
vn -0.00000000 -0.65480000 -0.75580000
vn -1.00000000 -0.00000000 -0.00000000
vn -0.00000000 -0.41540000 -0.90960000
vn -1.00000000 -0.00000000 -0.00000000
vn -0.00000000 -0.14230000 -0.98980000
vn -0.00000000 0.14240000 -0.98980000
vn -1.00000000 -0.00000000 -0.00000000
vn -1.00000000 -0.00000000 -0.00000000
vn -0.00000000 0.41550000 -0.90960000
vn -0.00000000 0.65490000 -0.75570000
vn -1.00000000 -0.00000000 -0.00000000
vn -0.00000000 0.84130000 -0.54060000
vn -1.00000000 -0.00000000 -0.00000000
vn -1.00000000 -0.00000000 -0.00000000
vn -0.00000000 0.95950000 -0.28170000
vn -1.00000000 -0.00000000 -0.00000000
vn -0.00000000 1.00000000 -0.00000000
vn -0.00000000 0.95950000 0.28180000
vn -1.00000000 -0.00000000 -0.00000000
vn -1.00000000 -0.00000000 -0.00000000
vn -0.00000000 0.84120000 0.54070000
vn -0.00000000 0.65480000 0.75580000
vn -1.00000000 -0.00000000 -0.00000000
vn -1.00000000 -0.00000000 -0.00000000
vn -0.00000000 0.41540000 0.90960000
vn -1.00000000 -0.00000000 -0.00000000
vn -0.00000000 0.14230000 0.98980000
vn -1.00000000 -0.00000000 -0.00000000
vn -0.00000000 -0.14240000 0.98980000
vn -0.00000000 -0.41550000 0.90960000
vn -1.00000000 -0.00000000 -0.00000000
vn -0.00000000 -0.65490000 0.75570000
vn -1.00000000 -0.00000000 -0.00000000
vn -1.00000000 -0.00000000 -0.00000000
vn -0.00000000 -0.84130000 0.54060000
vn -0.00000000 -0.95950000 0.28170000
vn -1.00000000 -0.00000000 -0.00000000
vn -0.00000000 -1.00000000 -0.00000000
vn -1.00000000 -0.00000000 -0.00000000
vn -0.00000000 -0.95950000 -0.28180000
vn -1.00000000 -0.00000000 -0.00000000
vn -0.00000000 -0.84120000 -0.54070000
vn -1.00000000 -0.00000000 -0.00000000
vn -1.00000000 -0.00000000 -0.00000000
vn -0.00000000 -0.65480000 -0.75580000
vn -0.00000000 -0.41540000 -0.90960000
vn -1.00000000 -0.00000000 -0.00000000
vn -1.00000000 -0.00000000 -0.00000000
vn -0.00000000 -0.14230000 -0.98980000
vn -1.00000000 -0.00000000 -0.00000000
vn -0.00000000 0.14240000 -0.98980000
vn -0.00000000 0.14240000 -0.98980000
vn -1.00000000 -0.00000000 -0.00000000
vn -0.00000000 0.41550000 -0.90960000
vn -0.00000000 0.65490000 -0.75570000
vn -1.00000000 -0.00000000 -0.00000000
vn -1.00000000 -0.00000000 -0.00000000
vn -0.00000000 0.84130000 -0.54060000
vn -1.00000000 -0.00000000 -0.00000000
vn -0.00000000 0.95950000 -0.28170000
vn -0.00000000 1.00000000 -0.00000000
vn -1.00000000 -0.00000000 -0.00000000
vn -1.00000000 -0.00000000 -0.00000000
vn -0.00000000 0.95950000 0.28180000
vn -1.00000000 -0.00000000 -0.00000000
vn -0.00000000 0.84120000 0.54070000
vn -1.00000000 -0.00000000 -0.00000000
vn -0.00000000 0.65480000 0.75580000
vn -1.00000000 -0.00000000 -0.00000000
vn 1.00000000 -0.00000000 -0.00000000
vn -0.00000000 -0.41540000 -0.90960000
vn -0.00000000 -0.14230000 -0.98980000
vn 1.00000000 -0.00000000 -0.00000000
vn 1.00000000 -0.00000000 -0.00000000
vn -0.00000000 0.14240000 -0.98980000
vn -0.00000000 0.41550000 -0.90960000
vn 1.00000000 -0.00000000 -0.00000000
vn 1.00000000 -0.00000000 -0.00000000
vn -0.00000000 0.65490000 -0.75570000
vn -0.00000000 0.84130000 -0.54060000
vn 1.00000000 -0.00000000 -0.00000000
vn 1.00000000 -0.00000000 -0.00000000
vn -0.00000000 0.95950000 -0.28170000
vn -0.00000000 1.00000000 -0.00000000
vn 1.00000000 -0.00000000 -0.00000000
vn 1.00000000 -0.00000000 -0.00000000
vn -0.00000000 0.95950000 0.28180000
vn -0.00000000 0.84120000 0.54070000
vn 1.00000000 -0.00000000 -0.00000000
vn 1.00000000 -0.00000000 -0.00000000
vn -0.00000000 0.65480000 0.75580000
vn -0.00000000 0.41540000 0.90960000
vn 1.00000000 -0.00000000 -0.00000000
vn 1.00000000 -0.00000000 -0.00000000
vn -0.00000000 0.14230000 0.98980000
vn -0.00000000 -0.14240000 0.98980000
vn 1.00000000 -0.00000000 -0.00000000
vn -0.00000000 -0.41550000 0.90960000
vn 1.00000000 -0.00000000 -0.00000000
vn 1.00000000 -0.00000000 -0.00000000
vn -0.00000000 -0.65490000 0.75570000
vn -0.00000000 -0.84130000 0.54060000
vn 1.00000000 -0.00000000 -0.00000000
vn -0.00000000 -0.95950000 0.28170000
vn 1.00000000 -0.00000000 -0.00000000
vn -0.00000000 -1.00000000 -0.00000000
vn 1.00000000 -0.00000000 -0.00000000
vn 1.00000000 -0.00000000 -0.00000000
vn -0.00000000 -0.95950000 -0.28180000
vn 1.00000000 -0.00000000 -0.00000000
vn -0.00000000 -0.84120000 -0.54070000
vn 1.00000000 -0.00000000 -0.00000000
vn -0.00000000 -0.65480000 -0.75580000
vn -0.00000000 -0.41540000 -0.90960000
vn -1.00000000 -0.00000000 -0.00000000
vn -1.00000000 -0.00000000 -0.00000000
vn -0.00000000 -0.14230000 -0.98980000
vn -1.00000000 -0.00000000 -0.00000000
vn -0.00000000 0.14240000 -0.98980000
vn -0.00000000 0.41540000 -0.90960000
vn -1.00000000 -0.00000000 -0.00000000
vn -1.00000000 -0.00000000 -0.00000000
vn -0.00000000 0.65490000 -0.75570000
vn -0.00000000 0.84130000 -0.54060000
vn -1.00000000 -0.00000000 -0.00000000
vn -0.00000000 0.95950000 -0.28170000
vn -1.00000000 -0.00000000 -0.00000000
vn -1.00000000 -0.00000000 -0.00000000
vn -0.00000000 1.00000000 -0.00000000
vn -1.00000000 -0.00000000 -0.00000000
vn -0.00000000 0.95950000 0.28180000
vn -0.00000000 0.84120000 0.54070000
vn -1.00000000 -0.00000000 -0.00000000
vn -1.00000000 -0.00000000 -0.00000000
vn -0.00000000 0.65480000 0.75580000
vn -0.00000000 0.41540000 0.90960000
vn -1.00000000 -0.00000000 -0.00000000
vn -1.00000000 -0.00000000 -0.00000000
vn -0.00000000 0.14230000 0.98980000
vn -0.00000000 -0.14240000 0.98980000
vn -1.00000000 -0.00000000 -0.00000000
vn -1.00000000 -0.00000000 -0.00000000
vn -0.00000000 -0.41540000 0.90960000
vn -0.00000000 -0.65490000 0.75570000
vn -1.00000000 -0.00000000 -0.00000000
vn -1.00000000 -0.00000000 -0.00000000
vn -0.00000000 -0.84130000 0.54060000
vn -0.00000000 -0.95950000 0.28170000
vn -1.00000000 -0.00000000 -0.00000000
vn -0.00000000 -1.00000000 -0.00000000
vn -1.00000000 -0.00000000 -0.00000000
vn -0.00000000 -0.95950000 -0.28180000
vn -1.00000000 -0.00000000 -0.00000000
vn -0.00000000 -0.84120000 -0.54070000
vn -1.00000000 -0.00000000 -0.00000000
vn -1.00000000 -0.00000000 -0.00000000
vn -0.00000000 -0.65480000 -0.75580000
vn 1.00000000 -0.00000000 -0.00000000
vn -0.00000000 -0.00000000 -1.00000000
vn -0.00000000 -0.99890000 -0.04790000
vn -0.00000000 0.99890000 -0.04780000
vn 1.00000000 -0.00000000 -0.00000000
vn -0.00000000 -0.00000000 -1.00000000
vn -0.00000000 -0.00000000 -1.00000000
vn -0.00000000 -0.99890000 -0.04790000
vn -1.00000000 -0.00000000 -0.00000000
vn -0.00000000 0.99890000 -0.04780000
vn -1.00000000 -0.00000000 -0.00000000
vn -0.00000000 -0.00000000 -1.00000000
vn -0.00000000 -0.00000000 1.00000000
vn 1.00000000 -0.00000000 -0.00000000
vn -0.00000000 0.99890000 -0.04780000
vn -0.00000000 -0.99890000 -0.04790000
vn -0.00000000 -0.00000000 1.00000000
vn 1.00000000 -0.00000000 -0.00000000
vn -1.00000000 -0.00000000 -0.00000000
vn -0.00000000 -0.00000000 1.00000000
vn -0.00000000 -0.99890000 -0.04790000
vn -0.00000000 0.99890000 -0.04780000
vn -0.00000000 -0.00000000 1.00000000
vn -1.00000000 -0.00000000 -0.00000000
vn 0.99750000 -0.00000000 0.07110000
vn -0.00000000 1.00000000 -0.00000000
vn -0.00000000 -1.00000000 -0.00000000
vn 0.99750000 -0.00000000 0.07110000
vn -0.99750000 -0.00000000 0.07110000
vn -0.00000000 -1.00000000 -0.00000000
vn -0.99750000 -0.00000000 0.07110000
vn -0.00000000 1.00000000 -0.00000000
vn 0.99750000 -0.00000000 0.07110000
vn -0.00000000 1.00000000 -0.00000000
vn 0.99750000 -0.00000000 0.07110000
vn -0.00000000 -1.00000000 -0.00000000
vn -0.00000000 -1.00000000 -0.00000000
vn -0.99750000 -0.00000000 0.07110000
vn -0.99750000 -0.00000000 0.07110000
vn -0.00000000 1.00000000 -0.00000000
vn -0.00000000 1.00000000 -0.00000000
vn 1.00000000 -0.00000000 -0.00000000
vn 1.00000000 -0.00000000 -0.00000000
vn -0.00000000 -1.00000000 -0.00000000
vn -0.00000000 -1.00000000 -0.00000000
vn -1.00000000 -0.00000000 -0.00000000
vn -1.00000000 -0.00000000 -0.00000000
vn -0.00000000 1.00000000 -0.00000000
vn 1.00000000 -0.00000000 -0.00000000
vn -0.00000000 1.00000000 -0.00000000
vn -0.00000000 -1.00000000 -0.00000000
vn 1.00000000 -0.00000000 -0.00000000
vn -1.00000000 -0.00000000 -0.00000000
vn -0.00000000 -1.00000000 -0.00000000
vn -0.00000000 1.00000000 -0.00000000
vn -1.00000000 -0.00000000 -0.00000000
vn -0.00000000 0.95950000 -0.28170000
vn 1.00000000 -0.00000000 -0.00000000
vn 1.00000000 -0.00000000 -0.00000000
vn -0.00000000 -0.95950000 0.28170000
vn -1.00000000 -0.00000000 -0.00000000
vn -0.00000000 -0.95950000 0.28170000
vn -1.00000000 -0.00000000 -0.00000000
vn -0.00000000 0.95950000 -0.28170000
vn -0.00000000 0.95950000 -0.28170000
vn 1.00000000 -0.00000000 -0.00000000
vn -0.00000000 -0.95950000 0.28170000
vn 1.00000000 -0.00000000 -0.00000000
vn -0.00000000 -0.95950000 0.28170000
vn -1.00000000 -0.00000000 -0.00000000
vn -0.00000000 0.95950000 -0.28170000
vn -1.00000000 -0.00000000 -0.00000000
vn 1.00000000 -0.00000000 -0.00000000
vn -0.00000000 0.84130000 -0.54060000
vn 1.00000000 -0.00000000 -0.00000000
vn -0.00000000 -0.84130000 0.54060000
vn -1.00000000 -0.00000000 -0.00000000
vn -0.00000000 -0.84130000 0.54060000
vn -0.00000000 0.84130000 -0.54060000
vn -1.00000000 -0.00000000 -0.00000000
vn -0.00000000 0.84130000 -0.54060000
vn 1.00000000 -0.00000000 -0.00000000
vn -0.00000000 -0.84130000 0.54060000
vn 1.00000000 -0.00000000 -0.00000000
vn -1.00000000 -0.00000000 -0.00000000
vn -0.00000000 -0.84130000 0.54060000
vn -1.00000000 -0.00000000 -0.00000000
vn -0.00000000 0.84130000 -0.54060000
vn 1.00000000 -0.00000000 -0.00000000
vn -0.00000000 0.65490000 -0.75570000
vn -0.00000000 -0.65490000 0.75570000
vn 1.00000000 -0.00000000 -0.00000000
vn -1.00000000 -0.00000000 -0.00000000
vn -0.00000000 -0.65490000 0.75570000
vn -0.00000000 0.65490000 -0.75570000
vn -1.00000000 -0.00000000 -0.00000000
vn 1.00000000 -0.00000000 -0.00000000
vn -0.00000000 0.65490000 -0.75570000
vn 1.00000000 -0.00000000 -0.00000000
vn -0.00000000 -0.65490000 0.75570000
vn -0.00000000 -0.65490000 0.75570000
vn -1.00000000 -0.00000000 -0.00000000
vn -1.00000000 -0.00000000 -0.00000000
vn -0.00000000 0.65490000 -0.75570000
vn 1.00000000 -0.00000000 -0.00000000
vn -0.00000000 0.41540000 -0.90960000
vn -0.00000000 -0.41540000 0.90960000
vn 1.00000000 -0.00000000 -0.00000000
vn -0.00000000 -0.41540000 0.90960000
vn -1.00000000 -0.00000000 -0.00000000
vn -0.00000000 0.41540000 -0.90960000
vn -1.00000000 -0.00000000 -0.00000000
vn 1.00000000 -0.00000000 -0.00000000
vn -0.00000000 0.41540000 -0.90960000
vn 1.00000000 -0.00000000 -0.00000000
vn -0.00000000 -0.41540000 0.90960000
vn -0.00000000 -0.41540000 0.90960000
vn -1.00000000 -0.00000000 -0.00000000
vn -0.00000000 0.41540000 -0.90960000
vn -1.00000000 -0.00000000 -0.00000000
vn 1.00000000 -0.00000000 -0.00000000
vn -0.00000000 0.14230000 -0.98980000
vn 1.00000000 -0.00000000 -0.00000000
vn -0.00000000 -0.14230000 0.98980000
vn -1.00000000 -0.00000000 -0.00000000
vn -0.00000000 -0.14230000 0.98980000
vn -0.00000000 0.14230000 -0.98980000
vn -1.00000000 -0.00000000 -0.00000000
vn 1.00000000 -0.00000000 -0.00000000
vn -0.00000000 0.14230000 -0.98980000
vn -0.00000000 -0.14230000 0.98980000
vn 1.00000000 -0.00000000 -0.00000000
vn -1.00000000 -0.00000000 -0.00000000
vn -0.00000000 -0.14230000 0.98980000
vn -1.00000000 -0.00000000 -0.00000000
vn -0.00000000 0.14230000 -0.98980000
vn -0.00000000 -0.14230000 -0.98980000
vn 1.00000000 -0.00000000 -0.00000000
vn 1.00000000 -0.00000000 -0.00000000
vn -0.00000000 0.14230000 0.98980000
vn -0.00000000 0.14230000 0.98980000
vn -1.00000000 -0.00000000 -0.00000000
vn -0.00000000 -0.14230000 -0.98980000
vn -1.00000000 -0.00000000 -0.00000000
vn 1.00000000 -0.00000000 -0.00000000
vn -0.00000000 -0.14230000 -0.98980000
vn 1.00000000 -0.00000000 -0.00000000
vn -0.00000000 0.14230000 0.98980000
vn -0.00000000 0.14230000 0.98980000
vn -1.00000000 -0.00000000 -0.00000000
vn -0.00000000 -0.14230000 -0.98980000
vn -1.00000000 -0.00000000 -0.00000000
vn 1.00000000 -0.00000000 -0.00000000
vn -0.00000000 -0.41540000 -0.90960000
vn 1.00000000 -0.00000000 -0.00000000
vn -0.00000000 0.41540000 0.90960000
vn -1.00000000 -0.00000000 -0.00000000
vn -0.00000000 0.41540000 0.90960000
vn -0.00000000 -0.41540000 -0.90960000
vn -1.00000000 -0.00000000 -0.00000000
vn 1.00000000 -0.00000000 -0.00000000
vn -0.00000000 -0.41540000 -0.90960000
vn 1.00000000 -0.00000000 -0.00000000
vn -0.00000000 0.41540000 0.90960000
vn -0.00000000 0.41540000 0.90960000
vn -1.00000000 -0.00000000 -0.00000000
vn -1.00000000 -0.00000000 -0.00000000
vn -0.00000000 -0.41540000 -0.90960000
vn 1.00000000 -0.00000000 -0.00000000
vn -0.00000000 -0.65490000 -0.75570000
vn 1.00000000 -0.00000000 -0.00000000
vn -0.00000000 0.65490000 0.75570000
vn -1.00000000 -0.00000000 -0.00000000
vn -0.00000000 0.65490000 0.75570000
vn -1.00000000 -0.00000000 -0.00000000
vn -0.00000000 -0.65490000 -0.75570000
vn -0.00000000 -0.65490000 -0.75570000
vn 1.00000000 -0.00000000 -0.00000000
vn -0.00000000 0.65490000 0.75570000
vn 1.00000000 -0.00000000 -0.00000000
vn -0.00000000 0.65490000 0.75570000
vn -1.00000000 -0.00000000 -0.00000000
vn -1.00000000 -0.00000000 -0.00000000
vn -0.00000000 -0.65490000 -0.75570000
vn 1.00000000 -0.00000000 -0.00000000
vn -0.00000000 -0.84130000 -0.54060000
vn -0.00000000 0.84130000 0.54060000
vn 1.00000000 -0.00000000 -0.00000000
vn -1.00000000 -0.00000000 -0.00000000
vn -0.00000000 0.84130000 0.54060000
vn -0.00000000 -0.84130000 -0.54060000
vn -1.00000000 -0.00000000 -0.00000000
vn -0.00000000 -0.84130000 -0.54060000
vn 1.00000000 -0.00000000 -0.00000000
vn -0.00000000 0.84130000 0.54060000
vn 1.00000000 -0.00000000 -0.00000000
vn -1.00000000 -0.00000000 -0.00000000
vn -0.00000000 0.84130000 0.54060000
vn -0.00000000 -0.84130000 -0.54060000
vn -1.00000000 -0.00000000 -0.00000000
vn -0.00000000 -0.95950000 -0.28170000
vn 1.00000000 -0.00000000 -0.00000000
vn -0.00000000 0.95950000 0.28170000
vn 1.00000000 -0.00000000 -0.00000000
vn -1.00000000 -0.00000000 -0.00000000
vn -0.00000000 0.95950000 0.28170000
vn -1.00000000 -0.00000000 -0.00000000
vn -0.00000000 -0.95950000 -0.28170000
vn -0.00000000 -0.95950000 -0.28170000
vn 1.00000000 -0.00000000 -0.00000000
vn -0.00000000 0.95950000 0.28170000
vn 1.00000000 -0.00000000 -0.00000000
vn -1.00000000 -0.00000000 -0.00000000
vn -0.00000000 0.95950000 0.28170000
vn -0.00000000 -0.95950000 -0.28170000
vn -1.00000000 -0.00000000 -0.00000000
vn -0.00000000 -0.95950000 0.28170000
vn 1.00000000 -0.00000000 -0.00000000
vn 1.00000000 -0.00000000 -0.00000000
vn -0.00000000 0.95950000 -0.28170000
vn -0.00000000 0.95950000 -0.28170000
vn -1.00000000 -0.00000000 -0.00000000
vn -0.00000000 -0.95950000 0.28170000
vn -1.00000000 -0.00000000 -0.00000000
vn 1.00000000 -0.00000000 -0.00000000
vn -0.00000000 -0.95950000 0.28170000
vn -0.00000000 0.95950000 -0.28170000
vn 1.00000000 -0.00000000 -0.00000000
vn -0.00000000 0.95950000 -0.28170000
vn -1.00000000 -0.00000000 -0.00000000
vn -1.00000000 -0.00000000 -0.00000000
vn -0.00000000 -0.95950000 0.28170000
vn 1.00000000 -0.00000000 -0.00000000
vn -0.00000000 -0.84130000 0.54060000
vn -0.00000000 0.84130000 -0.54060000
vn 1.00000000 -0.00000000 -0.00000000
vn -1.00000000 -0.00000000 -0.00000000
vn -0.00000000 0.84130000 -0.54060000
vn -0.00000000 -0.84130000 0.54060000
vn -1.00000000 -0.00000000 -0.00000000
vn 1.00000000 -0.00000000 -0.00000000
vn -0.00000000 -0.84130000 0.54060000
vn 1.00000000 -0.00000000 -0.00000000
vn -0.00000000 0.84130000 -0.54060000
vn -0.00000000 0.84130000 -0.54060000
vn -1.00000000 -0.00000000 -0.00000000
vn -1.00000000 -0.00000000 -0.00000000
vn -0.00000000 -0.84130000 0.54060000
vn -0.00000000 -0.65490000 0.75570000
vn 1.00000000 -0.00000000 -0.00000000
vn -0.00000000 0.65490000 -0.75570000
vn 1.00000000 -0.00000000 -0.00000000
vn -0.00000000 0.65490000 -0.75570000
vn -1.00000000 -0.00000000 -0.00000000
vn -0.00000000 -0.65490000 0.75570000
vn -1.00000000 -0.00000000 -0.00000000
vn -0.00000000 -0.65490000 0.75570000
vn 1.00000000 -0.00000000 -0.00000000
vn -0.00000000 0.65490000 -0.75570000
vn 1.00000000 -0.00000000 -0.00000000
vn -0.00000000 0.65490000 -0.75570000
vn -1.00000000 -0.00000000 -0.00000000
vn -1.00000000 -0.00000000 -0.00000000
vn -0.00000000 -0.65490000 0.75570000
vn -0.00000000 -0.41540000 0.90960000
vn 1.00000000 -0.00000000 -0.00000000
vn 1.00000000 -0.00000000 -0.00000000
vn -0.00000000 0.41540000 -0.90960000
vn -0.00000000 0.41540000 -0.90960000
vn -1.00000000 -0.00000000 -0.00000000
vn -0.00000000 -0.41540000 0.90960000
vn -1.00000000 -0.00000000 -0.00000000
vn 1.00000000 -0.00000000 -0.00000000
vn -0.00000000 -0.41540000 0.90960000
vn 1.00000000 -0.00000000 -0.00000000
vn -0.00000000 0.41540000 -0.90960000
vn -0.00000000 0.41540000 -0.90960000
vn -1.00000000 -0.00000000 -0.00000000
vn -1.00000000 -0.00000000 -0.00000000
vn -0.00000000 -0.41540000 0.90960000
vn -0.00000000 -0.14230000 0.98980000
vn 1.00000000 -0.00000000 -0.00000000
vn 1.00000000 -0.00000000 -0.00000000
vn -0.00000000 0.14230000 -0.98980000
vn -1.00000000 -0.00000000 -0.00000000
vn -0.00000000 0.14230000 -0.98980000
vn -0.00000000 -0.14230000 0.98980000
vn -1.00000000 -0.00000000 -0.00000000
vn 1.00000000 -0.00000000 -0.00000000
vn -0.00000000 -0.14230000 0.98980000
vn 1.00000000 -0.00000000 -0.00000000
vn -0.00000000 0.14230000 -0.98980000
vn -0.00000000 0.14230000 -0.98980000
vn -1.00000000 -0.00000000 -0.00000000
vn -1.00000000 -0.00000000 -0.00000000
vn -0.00000000 -0.14230000 0.98980000
vn -0.00000000 0.14230000 0.98980000
vn 1.00000000 -0.00000000 -0.00000000
vn 1.00000000 -0.00000000 -0.00000000
vn -0.00000000 -0.14230000 -0.98980000
vn -1.00000000 -0.00000000 -0.00000000
vn -0.00000000 -0.14230000 -0.98980000
vn -1.00000000 -0.00000000 -0.00000000
vn -0.00000000 0.14230000 0.98980000
vn 1.00000000 -0.00000000 -0.00000000
vn -0.00000000 0.14230000 0.98980000
vn 1.00000000 -0.00000000 -0.00000000
vn -0.00000000 -0.14230000 -0.98980000
vn -0.00000000 -0.14230000 -0.98980000
vn -1.00000000 -0.00000000 -0.00000000
vn -1.00000000 -0.00000000 -0.00000000
vn -0.00000000 0.14230000 0.98980000
vn -0.00000000 0.41540000 0.90960000
vn 1.00000000 -0.00000000 -0.00000000
vn 1.00000000 -0.00000000 -0.00000000
vn -0.00000000 -0.41540000 -0.90960000
vn -0.00000000 -0.41540000 -0.90960000
vn -1.00000000 -0.00000000 -0.00000000
vn -1.00000000 -0.00000000 -0.00000000
vn -0.00000000 0.41540000 0.90960000
vn 1.00000000 -0.00000000 -0.00000000
vn -0.00000000 0.41540000 0.90960000
vn -0.00000000 -0.41540000 -0.90960000
vn 1.00000000 -0.00000000 -0.00000000
vn -1.00000000 -0.00000000 -0.00000000
vn -0.00000000 -0.41540000 -0.90960000
vn -0.00000000 0.41540000 0.90960000
vn -1.00000000 -0.00000000 -0.00000000
vn -0.00000000 0.65490000 0.75580000
vn 1.00000000 -0.00000000 -0.00000000
vn -0.00000000 -0.65490000 -0.75580000
vn 1.00000000 -0.00000000 -0.00000000
vn -0.00000000 -0.65490000 -0.75580000
vn -1.00000000 -0.00000000 -0.00000000
vn -1.00000000 -0.00000000 -0.00000000
vn -0.00000000 0.65490000 0.75580000
vn -0.00000000 0.65490000 0.75580000
vn 1.00000000 -0.00000000 -0.00000000
vn 1.00000000 -0.00000000 -0.00000000
vn -0.00000000 -0.65490000 -0.75580000
vn -0.00000000 -0.65490000 -0.75580000
vn -1.00000000 -0.00000000 -0.00000000
vn -0.00000000 0.65490000 0.75580000
vn -1.00000000 -0.00000000 -0.00000000
vn -0.00000000 0.84130000 0.54060000
vn 1.00000000 -0.00000000 -0.00000000
vn 1.00000000 -0.00000000 -0.00000000
vn -0.00000000 -0.84130000 -0.54060000
vn -1.00000000 -0.00000000 -0.00000000
vn -0.00000000 -0.84130000 -0.54060000
vn -1.00000000 -0.00000000 -0.00000000
vn -0.00000000 0.84130000 0.54060000
vn 1.00000000 -0.00000000 -0.00000000
vn -0.00000000 0.84130000 0.54060000
vn -0.00000000 -0.84130000 -0.54060000
vn 1.00000000 -0.00000000 -0.00000000
vn -1.00000000 -0.00000000 -0.00000000
vn -0.00000000 -0.84130000 -0.54060000
vn -0.00000000 0.84130000 0.54060000
vn -1.00000000 -0.00000000 -0.00000000
vn -0.00000000 0.95950000 0.28170000
vn 1.00000000 -0.00000000 -0.00000000
vn 1.00000000 -0.00000000 -0.00000000
vn -0.00000000 -0.95950000 -0.28170000
vn -0.00000000 -0.95950000 -0.28170000
vn -1.00000000 -0.00000000 -0.00000000
vn -0.00000000 0.95950000 0.28170000
vn -1.00000000 -0.00000000 -0.00000000
vn -0.00000000 0.95950000 0.28170000
vn 1.00000000 -0.00000000 -0.00000000
vn 1.00000000 -0.00000000 -0.00000000
vn -0.00000000 -0.95950000 -0.28170000
vn -1.00000000 -0.00000000 -0.00000000
vn -0.00000000 -0.95950000 -0.28170000
vn -1.00000000 -0.00000000 -0.00000000
vn -0.00000000 0.95950000 0.28170000
vt 0.74332100 0.81385300
vt 0.98387100 0.58962400
vt 0.75270500 0.81385300
vt 0.98386000 0.58695800
vt 0.75232500 0.81120900
vt 0.98385300 0.58428500
vt 0.75121600 0.80878000
vt 0.74946700 0.80676100
vt 0.98385000 0.58160700
vt 0.98385000 0.57892400
vt 0.74722000 0.80531700
vt 0.74465700 0.80456500
vt 0.98385200 0.57623700
vt 0.98385600 0.57354600
vt 0.74198600 0.80456500
vt 0.73942300 0.80531700
vt 0.98386100 0.57085300
vt 0.73717600 0.80676100
vt 0.98386600 0.56815700
vt 0.98387000 0.56545900
vt 0.73542700 0.80878000
vt 0.73431800 0.81120900
vt 0.98387100 0.56275900
vt 0.98387100 0.56005700
vt 0.73393800 0.81385300
vt 0.98386800 0.55735500
vt 0.73431800 0.81649700
vt 0.73542700 0.81892700
vt 0.98408500 0.61341500
vt 0.98386600 0.55465300
vt 0.98405600 0.61077900
vt 0.73717600 0.82094500
vt 0.98402800 0.60814300
vt 0.73942300 0.82238900
vt 0.98400000 0.60550600
vt 0.74198600 0.82314200
vt 0.74465700 0.82314200
vt 0.98397400 0.60286700
vt 0.98394900 0.60022600
vt 0.74722000 0.82238900
vt 0.74946700 0.82094500
vt 0.98392600 0.59758300
vt 0.98390500 0.59493500
vt 0.75121600 0.81892700
vt 0.98388600 0.59228300
vt 0.75232500 0.81649700
vt 0.04448200 0.45663600
vt 0.31630800 0.58379200
vt 0.04440900 0.44837800
vt 0.32424000 0.58265100
vt 0.04430600 0.44044000
vt 0.33152900 0.57932300
vt 0.33758400 0.57407500
vt 0.04419300 0.43279000
vt 0.04409400 0.42539800
vt 0.34191600 0.56733400
vt 0.34417400 0.55964600
vt 0.04402600 0.41823600
vt 0.04399700 0.41127600
vt 0.34417400 0.55163300
vt 0.04401700 0.40449100
vt 0.34191600 0.54394500
vt 0.04408100 0.39785100
vt 0.33758400 0.53720400
vt 0.04418600 0.39132500
vt 0.33152800 0.53195700
vt 0.32424000 0.52862900
vt 0.04432100 0.38487600
vt 0.04448200 0.37847200
vt 0.31630800 0.52748800
vt 0.04462400 0.37206900
vt 0.30837700 0.52862900
vt 0.30108700 0.53195700
vt 0.04397500 0.54032800
vt 0.04401000 0.53069700
vt 0.29503100 0.53720400
vt 0.04405200 0.52108000
vt 0.29070000 0.54394500
vt 0.28844200 0.55163400
vt 0.04410600 0.51150000
vt 0.04417700 0.50198100
vt 0.28844200 0.55964700
vt 0.04426100 0.49255400
vt 0.29070000 0.56733500
vt 0.29503200 0.57407600
vt 0.04434600 0.48325700
vt 0.30108800 0.57932300
vt 0.04442000 0.47413400
vt 0.04448200 0.46524200
vt 0.30837700 0.58265200
vt 0.32717300 0.51316500
vt 0.04490300 0.45663400
vt 0.04482300 0.44837300
vt 0.31924200 0.51202500
vt 0.31195300 0.50869600
vt 0.04470400 0.44043400
vt 0.04457700 0.43278400
vt 0.30589800 0.50344900
vt 0.30156500 0.49670800
vt 0.04448200 0.42539300
vt 0.04438700 0.41823300
vt 0.29930800 0.48902000
vt 0.29930800 0.48100700
vt 0.04434900 0.41127600
vt 0.30156500 0.47331800
vt 0.04436000 0.40449200
vt 0.30589700 0.46657800
vt 0.04441800 0.39785600
vt 0.31195300 0.46133000
vt 0.04451800 0.39133100
vt 0.31924200 0.45800100
vt 0.04465000 0.38488400
vt 0.32717300 0.45686100
vt 0.04480000 0.37847900
vt 0.33510500 0.45800100
vt 0.04495100 0.37207700
vt 0.04448200 0.54033000
vt 0.34239300 0.46133000
vt 0.34844900 0.46657700
vt 0.04450200 0.53069900
vt 0.04454300 0.52108200
vt 0.35278100 0.47331800
vt 0.04459500 0.51150300
vt 0.35503800 0.48100600
vt 0.35503800 0.48901900
vt 0.04466200 0.50198500
vt 0.35278100 0.49670800
vt 0.04474000 0.49255900
vt 0.04481700 0.48326100
vt 0.34844900 0.50344800
vt 0.34239300 0.50869600
vt 0.04488100 0.47413700
vt 0.04491500 0.46524300
vt 0.33510500 0.51202500
vt 0.78530300 0.82471900
vt 0.98427900 0.58962200
vt 0.78492300 0.82736300
vt 0.98426900 0.58695700
vt 0.78381300 0.82979200
vt 0.98426300 0.58428500
vt 0.98426100 0.58160700
vt 0.78206400 0.83181100
vt 0.98426100 0.57892400
vt 0.77981700 0.83325500
vt 0.77725400 0.83400800
vt 0.98426400 0.57623700
vt 0.98426900 0.57354700
vt 0.77458300 0.83400800
vt 0.98427500 0.57085400
vt 0.77202000 0.83325500
vt 0.98428000 0.56815700
vt 0.76977400 0.83181100
vt 0.98428400 0.56545900
vt 0.76802400 0.82979200
vt 0.76691500 0.82736300
vt 0.98428500 0.56275900
vt 0.98428500 0.56005700
vt 0.76653500 0.82471900
vt 0.76691500 0.82207500
vt 0.98428300 0.55735500
vt 0.76802400 0.81964600
vt 0.98428000 0.55465300
vt 0.98448900 0.61341100
vt 0.76977400 0.81762700
vt 0.98446000 0.61077500
vt 0.98443200 0.60813900
vt 0.77202000 0.81618300
vt 0.77458300 0.81543100
vt 0.98440500 0.60550200
vt 0.77725400 0.81543100
vt 0.98437900 0.60286300
vt 0.98435400 0.60022200
vt 0.77981700 0.81618300
vt 0.78206400 0.81762700
vt 0.98433200 0.59757900
vt 0.78381300 0.81964600
vt 0.98431100 0.59493200
vt 0.78492300 0.82207500
vt 0.98429300 0.59228000
vt 0.77591900 0.82471900
vt 0.31630800 0.56737000
vt 0.40086300 0.01920700
vt 0.40420000 0.01934000
vt 0.31961300 0.56689500
vt 0.32265000 0.56550800
vt 0.40754200 0.01944600
vt 0.41088800 0.01952200
vt 0.32517300 0.56332100
vt 0.32697800 0.56051300
vt 0.41423700 0.01956600
vt 0.41758900 0.01958000
vt 0.32791900 0.55730900
vt 0.32791900 0.55397100
vt 0.42094300 0.01956600
vt 0.42429900 0.01952800
vt 0.32697800 0.55076700
vt 0.32517300 0.54795800
vt 0.42765600 0.01946900
vt 0.43101500 0.01939300
vt 0.32265000 0.54577200
vt 0.31961300 0.54438500
vt 0.43437600 0.01930400
vt 0.43773700 0.01920700
vt 0.31630800 0.54391000
vt 0.31300400 0.54438500
vt 0.44109700 0.01910700
vt 0.37103700 0.01728400
vt 0.30996600 0.54577200
vt 0.37434100 0.01752500
vt 0.30744300 0.54795800
vt 0.30563800 0.55076700
vt 0.37764700 0.01776600
vt 0.38095400 0.01800300
vt 0.30469700 0.55397000
vt 0.38426300 0.01823600
vt 0.30469700 0.55730900
vt 0.38757500 0.01845900
vt 0.30563800 0.56051300
vt 0.30744300 0.56332100
vt 0.39089100 0.01867200
vt 0.30996600 0.56550800
vt 0.39421000 0.01887000
vt 0.31300300 0.56689500
vt 0.39753400 0.01904900
vt 0.40088100 0.01879800
vt 0.32717300 0.49674300
vt 0.32386900 0.49626800
vt 0.40421400 0.01893100
vt 0.32083200 0.49488100
vt 0.40755300 0.01903600
vt 0.41089500 0.01911100
vt 0.31830800 0.49269500
vt 0.31650300 0.48988600
vt 0.41424100 0.01915500
vt 0.41758900 0.01916900
vt 0.31556300 0.48668300
vt 0.42094000 0.01915500
vt 0.31556300 0.48334400
vt 0.31650300 0.48014000
vt 0.42429300 0.01911700
vt 0.31830800 0.47733200
vt 0.42764800 0.01905800
vt 0.43100500 0.01898100
vt 0.32083200 0.47514500
vt 0.32386900 0.47375800
vt 0.43436400 0.01889200
vt 0.43772500 0.01879400
vt 0.32717300 0.47328300
vt 0.33047800 0.47375800
vt 0.44108500 0.01869500
vt 0.37106600 0.01687900
vt 0.33351500 0.47514500
vt 0.33603800 0.47733200
vt 0.37437000 0.01712000
vt 0.37767600 0.01736000
vt 0.33784300 0.48014000
vt 0.33878400 0.48334400
vt 0.38098300 0.01759800
vt 0.38429100 0.01783000
vt 0.33878400 0.48668200
vt 0.38760200 0.01805300
vt 0.33784300 0.48988600
vt 0.39091600 0.01826500
vt 0.33603800 0.49269500
vt 0.39423300 0.01846200
vt 0.33351500 0.49488100
vt 0.33047800 0.49626800
vt 0.39755400 0.01864100
vt 0.30351700 0.53084700
vt 0.04396300 0.54353900
vt 0.18430500 0.12545600
vt 0.28320300 0.13632200
vt 0.30594800 0.52973800
vt 0.04467400 0.36993500
vt 0.04445500 0.54354100
vt 0.18462900 0.12570700
vt 0.33996300 0.46022100
vt 0.28300900 0.13668300
vt 0.33753400 0.45911100
vt 0.04500100 0.36994300
vt 0.44221700 0.01907400
vt 0.31199200 0.54484800
vt 0.29754600 0.14400900
vt 0.17435200 0.13833100
vt 0.36993500 0.01720400
vt 0.31097800 0.54530900
vt 0.33250200 0.47468300
vt 0.36996500 0.01679900
vt 0.17467600 0.13858100
vt 0.29735300 0.14437000
vt 0.44220500 0.01866200
vt 0.33149100 0.47422100
vt 0.48402500 0.61303100
vt 0.54990600 0.59487600
vt 0.49971700 0.57132200
vt 0.48568300 0.61391100
vt 0.58182500 0.53392900
vt 0.49897700 0.57095100
vt 0.58024200 0.53292100
vt 0.54922000 0.59441200
vt 0.50637400 0.57095100
vt 0.58071000 0.55884300
vt 0.50803100 0.57183200
vt 0.47933300 0.61412100
vt 0.47316000 0.61071000
vt 0.55623600 0.57412100
vt 0.55465300 0.57311300
vt 0.57503700 0.55465300
vt 0.70405100 0.27925400
vt 0.61181100 0.03996100
vt 0.61190400 0.03974600
vt 0.66589300 0.34464500
vt 0.66602100 0.34444800
vt 0.67960900 0.97016400
vt 0.67980800 0.97028800
vt 0.70392300 0.27945000
vt 0.60898100 0.03874600
vt 0.70146800 0.27757600
vt 0.66331000 0.34296800
vt 0.60907400 0.03853000
vt 0.68123900 0.96755100
vt 0.66343800 0.34277100
vt 0.70134000 0.27777300
vt 0.68143800 0.96767500
vt 0.89455500 0.41401500
vt 0.15805300 0.91086900
vt 0.15828800 0.91087300
vt 0.20151600 0.47617700
vt 0.56855400 0.07731500
vt 0.20174600 0.47622400
vt 0.56859400 0.07708400
vt 0.89450800 0.41424500
vt 0.89153800 0.41339800
vt 0.15811100 0.90778900
vt 0.20213300 0.47316000
vt 0.15834500 0.90779400
vt 0.20236300 0.47320700
vt 0.56551900 0.07679100
vt 0.89149100 0.41362800
vt 0.56555800 0.07656000
vt 0.97606800 0.18001900
vt 0.26212500 0.97600100
vt 0.97606300 0.17978500
vt 0.75873300 0.21804500
vt 0.48166800 0.12025400
vt 0.75868600 0.21781500
vt 0.26189500 0.97604800
vt 0.48162800 0.12002300
vt 0.26150800 0.97298400
vt 0.97298800 0.18007700
vt 0.75571600 0.21866200
vt 0.97298400 0.17984300
vt 0.47863200 0.12077800
vt 0.75566900 0.21843200
vt 0.47859300 0.12054700
vt 0.26127800 0.97303100
vt 0.18270700 0.68525700
vt 0.20409900 0.60898100
vt 0.19879400 0.63634300
vt 0.18261400 0.68504200
vt 0.72037600 0.99491400
vt 0.19866600 0.63614600
vt 0.20422700 0.60917800
vt 0.72025200 0.99471500
vt 0.17987700 0.68647300
vt 0.20151600 0.61065900
vt 0.17978500 0.68625800
vt 0.19621100 0.63802000
vt 0.19608300 0.63782300
vt 0.71776300 0.99654500
vt 0.71763900 0.99634600
vt 0.20164400 0.61085600
vt 0.35064400 0.45703500
vt 0.68154900 0.36993500
vt 0.72519500 0.37008300
vt 0.35048700 0.45686100
vt 0.72501300 0.36993500
vt 0.37206100 0.35921700
vt 0.68173200 0.37008300
vt 0.37187900 0.35906900
vt 0.34836100 0.45910200
vt 0.67960900 0.37232700
vt 0.34820400 0.45892800
vt 0.72325400 0.37247400
vt 0.72307200 0.37232700
vt 0.37011700 0.36160700
vt 0.67979100 0.37247400
vt 0.36993500 0.36145900
vt 0.20261300 0.60361500
vt 0.69717600 0.25584500
vt 0.20238800 0.60354900
vt 0.64849400 0.97308000
vt 0.43121800 0.33743800
vt 0.64828000 0.97298400
vt 0.69739000 0.25594200
vt 0.43100600 0.33733800
vt 0.20174100 0.60656900
vt 0.69590700 0.25865100
vt 0.64722500 0.97588700
vt 0.20151600 0.60650300
vt 0.42990900 0.34022600
vt 0.64701200 0.97579000
vt 0.42969700 0.34012600
vt 0.69612100 0.25874800
vt 0.60661200 0.04458600
vt 0.03898700 0.34822100
vt 0.03875300 0.34820400
vt 0.97056700 0.44141500
vt 0.97061500 0.44118500
vt 0.43813200 0.21329600
vt 0.60656500 0.04481500
vt 0.43818400 0.21306800
vt 0.03876400 0.35129200
vt 0.60359600 0.04396300
vt 0.03853000 0.35127600
vt 0.96755100 0.44079200
vt 0.96759800 0.44056200
vt 0.43513000 0.21261100
vt 0.60354900 0.04419300
vt 0.43518200 0.21238200
vt 0.03916000 0.97301400
vt 0.47624000 0.04939600
vt 0.03892800 0.97298400
vt 0.84283000 0.09285900
vt 0.06592900 0.25584500
vt 0.84259500 0.09285900
vt 0.47624000 0.04963000
vt 0.06569400 0.25585000
vt 0.03876300 0.97606800
vt 0.47316000 0.04939600
vt 0.03853000 0.97603800
vt 0.84283000 0.09593900
vt 0.84259500 0.09593900
vt 0.06599800 0.25892400
vt 0.06576400 0.25892900
vt 0.47316000 0.04963100
vt 0.25350100 0.12025200
vt 0.33733800 0.97303100
vt 0.25348400 0.12002300
vt 0.42992600 0.97298400
vt 0.18544600 0.56551900
vt 0.42969700 0.97303100
vt 0.18521800 0.56557100
vt 0.33756800 0.97298400
vt 0.33796100 0.97604800
vt 0.25042900 0.12048000
vt 0.43054900 0.97600000
vt 0.25041200 0.12025200
vt 0.43032000 0.97604800
vt 0.18613200 0.56852100
vt 0.18590300 0.56857300
vt 0.33819100 0.97600000
vt 0.34299600 0.31017400
vt 0.97035700 0.62528000
vt 0.41630100 0.28865600
vt 0.34277100 0.31024000
vt 0.94870700 0.67982100
vt 0.41620500 0.28844200
vt 0.97045400 0.62549400
vt 0.94860700 0.67960900
vt 0.96755100 0.62654900
vt 0.34386800 0.31312800
vt 0.41349500 0.28992400
vt 0.34364300 0.31319400
vt 0.94591900 0.68113000
vt 0.41339800 0.28971100
vt 0.96764700 0.62676200
vt 0.94581900 0.68091800
vt 0.34277100 0.86990700
vt 0.31576400 0.45142800
vt 0.32665400 0.87519200
vt 0.31560600 0.45160200
vt 0.38641600 0.36450200
vt 0.32647200 0.87534000
vt 0.38623400 0.36465000
vt 0.34295300 0.86975900
vt 0.34471200 0.87229900
vt 0.31804700 0.45349500
vt 0.32859500 0.87758400
vt 0.31789000 0.45366900
vt 0.38836000 0.36689100
vt 0.32841300 0.87773100
vt 0.34489400 0.87215100
vt 0.38817800 0.36703900
vt 0.33733800 0.24520900
vt 0.16892300 0.54922000
vt 0.16891900 0.54945400
vt 0.23416000 0.33733800
vt 0.23411300 0.33756800
vt 0.57099100 0.08742600
vt 0.33738500 0.24497900
vt 0.57095100 0.08765700
vt 0.17200300 0.54927800
vt 0.34035500 0.24582600
vt 0.23717800 0.33795500
vt 0.17199800 0.54951200
vt 0.23713100 0.33818500
vt 0.57402600 0.08794900
vt 0.57398600 0.08818100
vt 0.34040200 0.24559600
vt 0.13088900 0.27220200
vt 0.82091100 0.15346700
vt 0.31560600 0.29992500
vt 0.13089300 0.27243600
vt 0.47859300 0.10968100
vt 0.31565300 0.30015500
vt 0.82086300 0.15323700
vt 0.47863200 0.10991200
vt 0.13396800 0.27214400
vt 0.82392800 0.15285000
vt 0.13397300 0.27237800
vt 0.31862400 0.29930800
vt 0.31867100 0.29953800
vt 0.48162800 0.10915700
vt 0.48166800 0.10938900
vt 0.82388100 0.15262000
vt 0.58737800 0.19795800
vt 0.63092900 0.07112700
vt 0.54378700 0.20862700
vt 0.63071300 0.07122000
vt 0.54391500 0.20882300
vt 0.82086300 0.99634600
vt 0.58725000 0.19776100
vt 0.82098800 0.99654500
vt 0.58996100 0.19628000
vt 0.63214400 0.07395700
vt 0.54637000 0.20694900
vt 0.63192900 0.07405000
vt 0.54649800 0.20714600
vt 0.82347600 0.99471500
vt 0.82360100 0.99491400
vt 0.58983300 0.19608300
vt 0.72868700 0.37790700
vt 0.34820400 0.46436100
vt 0.34836100 0.46453500
vt 0.32647200 0.87215100
vt 0.32665400 0.87229900
vt 0.34820400 0.37232400
vt 0.72850500 0.37776000
vt 0.34838600 0.37247200
vt 0.35048700 0.46229400
vt 0.73062800 0.37551600
vt 0.35064400 0.46246800
vt 0.32841300 0.86975900
vt 0.32859500 0.86990700
vt 0.35014700 0.36993500
vt 0.35032900 0.37008300
vt 0.73044500 0.37536800
vt 0.69047500 0.22889400
vt 0.45692800 0.23411300
vt 0.45686100 0.23433800
vt 0.26671100 0.57375800
vt 0.44599500 0.31839400
vt 0.26692400 0.57385500
vt 0.69057100 0.22868100
vt 0.44620800 0.31849400
vt 0.45988100 0.23498500
vt 0.69328100 0.23016300
vt 0.45981500 0.23521000
vt 0.26797900 0.57095100
vt 0.26819300 0.57104800
vt 0.44730400 0.31560600
vt 0.44751700 0.31570600
vt 0.69337800 0.22994900
vt 0.85912300 0.32953600
vt 0.44601200 0.02766400
vt 0.44599500 0.02789300
vt 0.22324800 0.48160900
vt 0.51124200 0.21781500
vt 0.22347700 0.48165600
vt 0.51119000 0.21804400
vt 0.85889400 0.32948800
vt 0.44908400 0.02789300
vt 0.85974600 0.32652000
vt 0.44906700 0.02812100
vt 0.22387000 0.47859300
vt 0.22410000 0.47864000
vt 0.51424500 0.21850000
vt 0.51419200 0.21872900
vt 0.85951600 0.32647200
vt 0.73937000 0.01703300
vt 0.01136600 0.88367900
vt 0.01159800 0.88370900
vt 0.84802800 0.13396900
vt 0.84826200 0.13396900
vt 0.27757600 0.08206200
vt 0.27758200 0.08229700
vt 0.73937000 0.01679900
vt 0.01176400 0.88062500
vt 0.74245000 0.01703300
vt 0.84802800 0.13088900
vt 0.01199600 0.88065500
vt 0.28065500 0.08199300
vt 0.84826200 0.13088900
vt 0.74245000 0.01679900
vt 0.28066100 0.08222800
vt 0.32732500 0.89450700
vt 0.17435200 0.09308700
vt 0.58787300 0.05246000
vt 0.17436900 0.09331600
vt 0.58810300 0.05241200
vt 0.33259100 0.32409400
vt 0.33282000 0.32404200
vt 0.32709500 0.89455400
vt 0.32670200 0.89149100
vt 0.17742400 0.09285900
vt 0.17744100 0.09308700
vt 0.58725000 0.04944300
vt 0.58748000 0.04939600
vt 0.33190500 0.32109200
vt 0.32647200 0.89153800
vt 0.33213400 0.32103900
vt 0.87528900 0.56700100
vt 0.26215000 0.56310600
vt 0.26237400 0.56304000
vt 0.35490500 0.31851000
vt 0.58312600 0.16094100
vt 0.35511900 0.31841300
vt 0.58333900 0.16084100
vt 0.87519200 0.56678700
vt 0.26127800 0.56015200
vt 0.87809500 0.56573200
vt 0.35363700 0.31570300
vt 0.26150300 0.56008600
vt 0.58181700 0.15815300
vt 0.35385000 0.31560600
vt 0.87799900 0.56551900
vt 0.58202900 0.15805300
vt 0.34489400 0.37232700
vt 0.35048700 0.45366900
vt 0.35064400 0.45349500
vt 0.34471200 0.87773100
vt 0.34489400 0.87758400
vt 0.37187900 0.36703900
vt 0.34471200 0.37247400
vt 0.37206100 0.36689100
vt 0.34295300 0.36993500
vt 0.34820400 0.45160200
vt 0.34836100 0.45142800
vt 0.34277100 0.87534000
vt 0.36993500 0.36465000
vt 0.34295300 0.87519200
vt 0.37011700 0.36450200
vt 0.34277100 0.37008300
f 1/1/1 3/3/3 5/5/5
f 1/1/1 5/5/5 7/7/7
f 1/1/1 7/7/7 8/8/8
f 1/1/1 8/8/8 11/11/11
f 1/1/1 11/11/11 12/12/12
f 1/1/1 12/12/12 15/15/15
f 1/1/1 15/15/15 16/16/16
f 1/1/1 16/16/16 18/18/18
f 1/1/1 18/18/18 21/21/21
f 1/1/1 21/21/21 22/22/22
f 1/1/1 22/22/22 25/25/25
f 1/1/1 25/25/25 27/27/27
f 1/1/1 27/27/27 28/28/28
f 1/1/1 28/28/28 32/32/32
f 1/1/1 32/32/32 34/34/34
f 1/1/1 34/34/34 36/36/36
f 1/1/1 36/36/36 37/37/37
f 1/1/1 37/37/37 40/40/40
f 1/1/1 40/40/40 41/41/41
f 1/1/1 41/41/41 44/44/44
f 1/1/1 44/44/44 46/46/46
f 1/1/1 46/46/46 3/3/3
f 93/93/93 47/47/47 92/92/92
f 93/93/93 49/49/49 47/47/47
f 96/96/96 49/49/49 93/93/93
f 96/96/96 51/51/51 49/49/49
f 97/97/97 51/51/51 96/96/96
f 97/97/97 54/54/54 51/51/51
f 100/100/100 54/54/54 97/97/97
f 100/100/100 55/55/55 54/54/54
f 100/100/100 101/101/101 58/58/58
f 58/58/58 55/55/55 100/100/100
f 101/101/101 104/104/104 59/59/59
f 59/59/59 58/58/58 101/101/101
f 104/104/104 106/106/106 61/61/61
f 61/61/61 59/59/59 104/104/104
f 106/106/106 108/108/108 63/63/63
f 63/63/63 61/61/61 106/106/106
f 108/108/108 110/110/110 65/65/65
f 65/65/65 63/63/63 108/108/108
f 110/110/110 112/112/112 68/68/68
f 68/68/68 65/65/65 110/110/110
f 112/112/112 114/114/114 69/69/69
f 69/69/69 68/68/68 112/112/112
f 114/114/114 116/116/116 71/71/71
f 71/71/71 69/69/69 114/114/114
f 117/117/117 120/120/120 75/75/75
f 75/75/75 74/74/74 117/117/117
f 120/120/120 121/121/121 77/77/77
f 77/77/77 75/75/75 120/120/120
f 123/123/123 77/77/77 121/121/121
f 123/123/123 80/80/80 77/77/77
f 126/126/126 80/80/80 123/123/123
f 126/126/126 81/81/81 80/80/80
f 128/128/128 81/81/81 126/126/126
f 128/128/128 83/83/83 81/81/81
f 129/129/129 83/83/83 128/128/128
f 129/129/129 86/86/86 83/83/83
f 132/132/132 86/86/86 129/129/129
f 132/132/132 88/88/88 86/86/86
f 133/133/133 88/88/88 132/132/132
f 133/133/133 89/89/89 88/88/88
f 92/92/92 89/89/89 133/133/133
f 92/92/92 47/47/47 89/89/89
f 227/227/227 94/94/94 91/91/91
f 91/91/91 226/226/226 227/227/227
f 227/227/227 229/229/229 95/95/95
f 95/95/95 94/94/94 227/227/227
f 229/229/229 232/232/232 98/98/98
f 98/98/98 95/95/95 229/229/229
f 99/99/99 98/98/98 233/233/233
f 232/232/232 233/233/233 98/98/98
f 102/102/102 99/99/99 233/233/233
f 233/233/233 236/236/236 102/102/102
f 238/238/238 103/103/103 102/102/102
f 102/102/102 236/236/236 238/238/238
f 239/239/239 105/105/105 103/103/103
f 103/103/103 238/238/238 239/239/239
f 107/107/107 105/105/105 239/239/239
f 239/239/239 241/241/241 107/107/107
f 107/107/107 241/241/241 244/244/244
f 244/244/244 109/109/109 107/107/107
f 244/244/244 245/245/245 111/111/111
f 111/111/111 109/109/109 244/244/244
f 113/113/113 111/111/111 248/248/248
f 245/245/245 248/248/248 111/111/111
f 115/115/115 113/113/113 249/249/249
f 248/248/248 249/249/249 113/113/113
f 253/253/253 119/119/119 118/118/118
f 118/118/118 252/252/252 253/253/253
f 256/256/256 122/122/122 119/119/119
f 119/119/119 253/253/253 256/256/256
f 256/256/256 257/257/257 124/124/124
f 124/124/124 122/122/122 256/256/256
f 257/257/257 260/260/260 124/124/124
f 124/124/124 260/260/260 125/125/125
f 127/127/127 125/125/125 260/260/260
f 260/260/260 262/262/262 127/127/127
f 130/130/130 127/127/127 264/264/264
f 262/262/262 264/264/264 127/127/127
f 131/131/131 130/130/130 264/264/264
f 264/264/264 266/266/266 131/131/131
f 267/267/267 134/134/134 131/131/131
f 131/131/131 266/266/266 267/267/267
f 226/226/226 91/91/91 134/134/134
f 134/134/134 267/267/267 226/226/226
f 135/135/135 180/180/180 137/137/137
f 137/137/137 180/180/180 139/139/139
f 139/139/139 180/180/180 142/142/142
f 142/142/142 180/180/180 144/144/144
f 144/144/144 180/180/180 145/145/145
f 145/145/145 180/180/180 148/148/148
f 148/148/148 180/180/180 150/150/150
f 150/150/150 180/180/180 152/152/152
f 152/152/152 180/180/180 154/154/154
f 154/154/154 180/180/180 155/155/155
f 155/155/155 180/180/180 158/158/158
f 158/158/158 180/180/180 159/159/159
f 159/159/159 180/180/180 161/161/161
f 161/161/161 180/180/180 164/164/164
f 164/164/164 180/180/180 167/167/167
f 167/167/167 180/180/180 168/168/168
f 168/168/168 180/180/180 170/170/170
f 170/170/170 180/180/180 173/173/173
f 173/173/173 180/180/180 174/174/174
f 174/174/174 180/180/180 176/176/176
f 176/176/176 180/180/180 178/178/178
f 178/178/178 180/180/180 135/135/135
f 48/48/48 50/50/50 184/184/184
f 184/184/184 181/181/181 48/48/48
f 184/184/184 50/50/50 52/52/52
f 52/52/52 185/185/185 184/184/184
f 52/52/52 53/53/53 185/185/185
f 53/53/53 188/188/188 185/185/185
f 53/53/53 56/56/56 189/189/189
f 189/189/189 188/188/188 53/53/53
f 56/56/56 57/57/57 189/189/189
f 192/192/192 189/189/189 57/57/57
f 193/193/193 192/192/192 57/57/57
f 57/57/57 60/60/60 193/193/193
f 62/62/62 196/196/196 193/193/193
f 193/193/193 60/60/60 62/62/62
f 62/62/62 64/64/64 197/197/197
f 197/197/197 196/196/196 62/62/62
f 197/197/197 64/64/64 66/66/66
f 66/66/66 200/200/200 197/197/197
f 66/66/66 67/67/67 201/201/201
f 201/201/201 200/200/200 66/66/66
f 67/67/67 70/70/70 201/201/201
f 204/204/204 201/201/201 70/70/70
f 70/70/70 72/72/72 205/205/205
f 205/205/205 204/204/204 70/70/70
f 210/210/210 208/208/208 73/73/73
f 73/73/73 76/76/76 210/210/210
f 76/76/76 78/78/78 211/211/211
f 211/211/211 210/210/210 76/76/76
f 211/211/211 78/78/78 79/79/79
f 79/79/79 214/214/214 211/211/211
f 79/79/79 82/82/82 216/216/216
f 216/216/216 214/214/214 79/79/79
f 82/82/82 84/84/84 216/216/216
f 84/84/84 218/218/218 216/216/216
f 84/84/84 85/85/85 219/219/219
f 219/219/219 218/218/218 84/84/84
f 221/221/221 219/219/219 87/87/87
f 87/87/87 219/219/219 85/85/85
f 221/221/221 87/87/87 90/90/90
f 90/90/90 223/223/223 221/221/221
f 90/90/90 48/48/48 181/181/181
f 181/181/181 223/223/223 90/90/90
f 179/179/179 43/43/43 177/177/177
f 179/179/179 45/45/45 43/43/43
f 136/136/136 45/45/45 179/179/179
f 136/136/136 2/2/2 45/45/45
f 138/138/138 2/2/2 136/136/136
f 138/138/138 4/4/4 2/2/2
f 140/140/140 4/4/4 138/138/138
f 140/140/140 6/6/6 4/4/4
f 141/141/141 6/6/6 140/140/140
f 141/141/141 9/9/9 6/6/6
f 141/141/141 143/143/143 10/10/10
f 10/10/10 9/9/9 141/141/141
f 143/143/143 146/146/146 13/13/13
f 13/13/13 10/10/10 143/143/143
f 146/146/146 147/147/147 14/14/14
f 14/14/14 13/13/13 146/146/146
f 149/149/149 14/14/14 147/147/147
f 149/149/149 17/17/17 14/14/14
f 151/151/151 17/17/17 149/149/149
f 151/151/151 19/19/19 17/17/17
f 151/151/151 153/153/153 20/20/20
f 20/20/20 19/19/19 151/151/151
f 153/153/153 156/156/156 23/23/23
f 23/23/23 20/20/20 153/153/153
f 156/156/156 157/157/157 24/24/24
f 24/24/24 23/23/23 156/156/156
f 157/157/157 160/160/160 26/26/26
f 26/26/26 24/24/24 157/157/157
f 160/160/160 162/162/162 30/30/30
f 30/30/30 26/26/26 160/160/160
f 165/165/165 29/29/29 163/163/163
f 165/165/165 31/31/31 29/29/29
f 166/166/166 31/31/31 165/165/165
f 166/166/166 33/33/33 31/31/31
f 169/169/169 33/33/33 166/166/166
f 169/169/169 35/35/35 33/33/33
f 171/171/171 35/35/35 169/169/169
f 171/171/171 38/38/38 35/35/35
f 172/172/172 38/38/38 171/171/171
f 172/172/172 39/39/39 38/38/38
f 175/175/175 39/39/39 172/172/172
f 175/175/175 42/42/42 39/39/39
f 175/175/175 177/177/177 43/43/43
f 43/43/43 42/42/42 175/175/175
f 228/228/228 225/225/225 182/182/182
f 182/182/182 183/183/183 228/228/228
f 225/225/225 268/268/268 224/224/224
f 224/224/224 182/182/182 225/225/225
f 265/265/265 224/224/224 268/268/268
f 265/265/265 222/222/222 224/224/224
f 263/263/263 222/222/222 265/265/265
f 263/263/263 220/220/220 222/222/222
f 263/263/263 261/261/261 217/217/217
f 217/217/217 220/220/220 263/263/263
f 261/261/261 259/259/259 215/215/215
f 215/215/215 217/217/217 261/261/261
f 259/259/259 258/258/258 213/213/213
f 213/213/213 215/215/215 259/259/259
f 258/258/258 255/255/255 212/212/212
f 212/212/212 213/213/213 258/258/258
f 255/255/255 254/254/254 209/209/209
f 209/209/209 212/212/212 255/255/255
f 254/254/254 251/251/251 207/207/207
f 207/207/207 209/209/209 254/254/254
f 247/247/247 206/206/206 250/250/250
f 247/247/247 203/203/203 206/206/206
f 247/247/247 246/246/246 202/202/202
f 202/202/202 203/203/203 247/247/247
f 246/246/246 243/243/243 199/199/199
f 199/199/199 202/202/202 246/246/246
f 242/242/242 199/199/199 243/243/243
f 242/242/242 198/198/198 199/199/199
f 242/242/242 240/240/240 195/195/195
f 195/195/195 198/198/198 242/242/242
f 237/237/237 195/195/195 240/240/240
f 237/237/237 194/194/194 195/195/195
f 235/235/235 194/194/194 237/237/237
f 235/235/235 191/191/191 194/194/194
f 234/234/234 191/191/191 235/235/235
f 234/234/234 190/190/190 191/191/191
f 231/231/231 190/190/190 234/234/234
f 231/231/231 187/187/187 190/190/190
f 231/231/231 230/230/230 186/186/186
f 186/186/186 187/187/187 231/231/231
f 230/230/230 228/228/228 183/183/183
f 183/183/183 186/186/186 230/230/230
f 275/275/275 117/117/117 74/74/74
f 74/74/74 270/270/270 275/275/275
f 71/71/71 116/116/116 274/274/274
f 280/280/280 274/274/274 116/116/116
f 118/118/118 277/277/277 252/252/252
f 277/277/277 287/287/287 252/252/252
f 279/279/279 115/115/115 249/249/249
f 249/249/249 292/292/292 279/279/279
f 72/72/72 273/273/273 205/205/205
f 282/282/282 205/205/205 273/273/273
f 208/208/208 286/286/286 269/269/269
f 269/269/269 73/73/73 208/208/208
f 291/291/291 250/250/250 206/206/206
f 206/206/206 281/281/281 291/291/291
f 207/207/207 251/251/251 285/285/285
f 288/288/288 285/285/285 251/251/251
f 284/284/284 289/289/289 276/276/276
f 276/276/276 271/271/271 284/284/284
f 278/278/278 290/290/290 283/283/283
f 283/283/283 272/272/272 278/278/278
f 303/303/303 293/293/293 296/296/296
f 293/293/293 303/303/303 301/301/301
f 298/298/298 305/305/305 304/304/304
f 304/304/304 295/295/295 298/298/298
f 306/306/306 297/297/297 299/299/299
f 299/299/299 307/307/307 306/306/306
f 308/308/308 300/300/300 294/294/294
f 294/294/294 302/302/302 308/308/308
f 311/311/311 320/320/320 317/317/317
f 317/317/317 310/310/310 311/311/311
f 313/313/313 322/322/322 319/319/319
f 319/319/319 312/312/312 313/313/313
f 324/324/324 321/321/321 314/314/314
f 314/314/314 315/315/315 324/324/324
f 316/316/316 318/318/318 323/323/323
f 316/316/316 309/309/309 318/318/318
f 327/327/327 336/336/336 334/334/334
f 334/334/334 326/326/326 327/327/327
f 330/330/330 337/337/337 335/335/335
f 335/335/335 328/328/328 330/330/330
f 340/340/340 338/338/338 329/329/329
f 329/329/329 331/331/331 340/340/340
f 332/332/332 333/333/333 339/339/339
f 332/332/332 325/325/325 333/333/333
f 350/350/350 341/341/341 343/343/343
f 343/343/343 352/352/352 350/350/350
f 346/346/346 354/354/354 351/351/351
f 351/351/351 344/344/344 346/346/346
f 355/355/355 345/345/345 348/348/348
f 345/345/345 355/355/355 353/353/353
f 347/347/347 349/349/349 356/356/356
f 347/347/347 342/342/342 349/349/349
f 365/365/365 357/357/357 360/360/360
f 360/360/360 367/367/367 365/365/365
f 362/362/362 369/369/369 368/368/368
f 368/368/368 359/359/359 362/362/362
f 371/371/371 361/361/361 364/364/364
f 361/361/361 371/371/371 370/370/370
f 363/363/363 366/366/366 372/372/372
f 363/363/363 358/358/358 366/366/366
f 376/376/376 383/383/383 381/381/381
f 381/381/381 373/373/373 376/376/376
f 377/377/377 385/385/385 384/384/384
f 384/384/384 375/375/375 377/377/377
f 388/388/388 378/378/378 380/380/380
f 378/378/378 388/388/388 386/386/386
f 379/379/379 382/382/382 387/387/387
f 379/379/379 374/374/374 382/382/382
f 391/391/391 400/400/400 397/397/397
f 397/397/397 389/389/389 391/391/391
f 394/394/394 402/402/402 399/399/399
f 399/399/399 392/392/392 394/394/394
f 403/403/403 393/393/393 396/396/396
f 403/403/403 401/401/401 393/393/393
f 395/395/395 398/398/398 404/404/404
f 395/395/395 390/390/390 398/398/398
f 407/407/407 415/415/415 413/413/413
f 413/413/413 406/406/406 407/407/407
f 409/409/409 417/417/417 416/416/416
f 416/416/416 408/408/408 409/409/409
f 420/420/420 410/410/410 412/412/412
f 420/420/420 418/418/418 410/410/410
f 411/411/411 414/414/414 419/419/419
f 411/411/411 405/405/405 414/414/414
f 423/423/423 431/431/431 429/429/429
f 429/429/429 421/421/421 423/423/423
f 433/433/433 424/424/424 426/426/426
f 433/433/433 432/432/432 424/424/424
f 435/435/435 434/434/434 425/425/425
f 425/425/425 428/428/428 435/435/435
f 436/436/436 427/427/427 422/422/422
f 422/422/422 430/430/430 436/436/436
f 439/439/439 448/448/448 446/446/446
f 446/446/446 437/437/437 439/439/439
f 449/449/449 440/440/440 442/442/442
f 449/449/449 447/447/447 440/440/440
f 451/451/451 450/450/450 441/441/441
f 441/441/441 443/443/443 451/451/451
f 452/452/452 444/444/444 438/438/438
f 438/438/438 445/445/445 452/452/452
f 464/464/464 462/462/462 453/453/453
f 453/453/453 456/456/456 464/464/464
f 466/466/466 455/455/455 458/458/458
f 466/466/466 463/463/463 455/455/455
f 465/465/465 457/457/457 460/460/460
f 460/460/460 468/468/468 465/465/465
f 467/467/467 459/459/459 454/454/454
f 454/454/454 461/461/461 467/467/467
f 480/480/480 478/478/478 470/470/470
f 470/470/470 472/472/472 480/480/480
f 482/482/482 471/471/471 474/474/474
f 482/482/482 479/479/479 471/471/471
f 475/475/475 484/484/484 481/481/481
f 481/481/481 473/473/473 475/475/475
f 483/483/483 476/476/476 469/469/469
f 469/469/469 477/477/477 483/483/483
f 496/496/496 486/486/486 487/487/487
f 496/496/496 493/493/493 486/486/486
f 489/489/489 497/497/497 495/495/495
f 495/495/495 488/488/488 489/489/489
f 492/492/492 499/499/499 498/498/498
f 498/498/498 490/490/490 492/492/492
f 491/491/491 494/494/494 500/500/500
f 491/491/491 485/485/485 494/494/494
f 511/511/511 501/501/501 504/504/504
f 511/511/511 509/509/509 501/501/501
f 506/506/506 513/513/513 512/512/512
f 512/512/512 503/503/503 506/506/506
f 508/508/508 515/515/515 514/514/514
f 514/514/514 505/505/505 508/508/508
f 507/507/507 510/510/510 516/516/516
f 507/507/507 502/502/502 510/510/510
f 528/528/528 518/518/518 520/520/520
f 518/518/518 528/528/528 526/526/526
f 521/521/521 529/529/529 527/527/527
f 527/527/527 519/519/519 521/521/521
f 524/524/524 531/531/531 530/530/530
f 530/530/530 522/522/522 524/524/524
f 523/523/523 525/525/525 532/532/532
f 523/523/523 517/517/517 525/525/525
f 543/543/543 534/534/534 535/535/535
f 534/534/534 543/543/543 541/541/541
f 537/537/537 545/545/545 544/544/544
f 544/544/544 536/536/536 537/537/537
f 546/546/546 538/538/538 540/540/540
f 540/540/540 547/547/547 546/546/546
f 539/539/539 542/542/542 548/548/548
f 539/539/539 533/533/533 542/542/542
f 550/550/550 559/559/559 557/557/557
f 550/550/550 551/551/551 559/559/559
f 554/554/554 561/561/561 560/560/560
f 560/560/560 552/552/552 554/554/554
f 562/562/562 553/553/553 556/556/556
f 556/556/556 563/563/563 562/562/562
f 555/555/555 558/558/558 564/564/564
f 555/555/555 549/549/549 558/558/558
f 573/573/573 566/566/566 567/567/567
f 567/567/567 575/575/575 573/573/573
f 570/570/570 577/577/577 576/576/576
f 576/576/576 568/568/568 570/570/570
f 579/579/579 569/569/569 571/571/571
f 569/569/569 579/579/579 578/578/578
f 572/572/572 574/574/574 580/580/580
f 572/572/572 565/565/565 574/574/574
f 592/592/592 589/589/589 582/582/582
f 582/582/582 583/583/583 592/592/592
f 585/585/585 594/594/594 591/591/591
f 591/591/591 584/584/584 585/585/585
f 587/587/587 596/596/596 593/593/593
f 593/593/593 586/586/586 587/587/587
f 588/588/588 590/590/590 595/595/595
f 588/588/588 581/581/581 590/590/590
f 607/607/607 598/598/598 600/600/600
f 607/607/607 606/606/606 598/598/598
f 601/601/601 609/609/609 608/608/608
f 608/608/608 599/599/599 601/601/601
f 603/603/603 612/612/612 610/610/610
f 610/610/610 602/602/602 603/603/603
f 604/604/604 605/605/605 611/611/611
f 604/604/604 597/597/597 605/605/605
f 615/615/615 624/624/624 621/621/621
f 621/621/621 614/614/614 615/615/615
f 618/618/618 626/626/626 623/623/623
f 623/623/623 616/616/616 618/618/618
f 628/628/628 617/617/617 619/619/619
f 628/628/628 625/625/625 617/617/617
f 620/620/620 622/622/622 627/627/627
f 620/620/620 613/613/613 622/622/622
f 631/631/631 639/639/639 638/638/638
f 638/638/638 630/630/630 631/631/631
f 633/633/633 642/642/642 640/640/640
f 640/640/640 632/632/632 633/633/633
f 636/636/636 643/643/643 641/641/641
f 641/641/641 634/634/634 636/636/636
f 635/635/635 637/637/637 644/644/644
f 635/635/635 629/629/629 637/637/637

