mtllib material.mtl
usemtl material_0
v 6.94355300 9.63032000 0.10163900
v 6.94355300 9.63032000 0.10163900
v 6.96139700 9.63032000 0.04260700
v 6.96139700 9.63032000 0.04260700
v 6.96139700 9.63032000 0.04260700
v 6.96188600 9.63032000 -0.01906100
v 6.96188600 9.63032000 -0.01906100
v 6.94498100 9.63032000 -0.07836900
v 6.94498100 9.63032000 -0.07836900
v 6.91205300 9.63032000 -0.13051100
v 6.91205300 9.63032000 -0.13051100
v 6.86576700 9.63032000 -0.17126500
v 6.86576700 9.63032000 -0.17126500
v 6.80987500 9.63032000 -0.19732700
v 6.80987500 9.63032000 -0.19732700
v 6.74890500 9.63032000 -0.20658800
v 6.74890500 9.63032000 -0.20658800
v 6.68779600 9.63032000 -0.19829600
v 6.68779600 9.63032000 -0.19829600
v 6.63149700 9.63032000 -0.17312300
v 6.63149700 9.63032000 -0.17312300
v 6.58457100 9.63032000 -0.13310900
v 6.58457100 9.63032000 -0.13310900
v 6.55082000 9.63032000 -0.08149500
v 6.55082000 9.63032000 -0.08149500
v 6.53297700 9.63032000 -0.02246300
v 6.53297700 9.63032000 -0.02246300
v 6.53248700 9.63032000 0.03920500
v 6.53248700 9.63032000 0.03920500
v 6.54939200 9.63032000 0.09851200
v 6.54939200 9.63032000 0.09851200
v 6.58232100 9.63032000 0.15065500
v 6.58232100 9.63032000 0.15065500
v 6.62860600 9.63032000 0.19140900
v 6.62860600 9.63032000 0.19140900
v 6.68449700 9.63032000 0.21747100
v 6.68449700 9.63032000 0.21747100
v 6.74546800 9.63032000 0.22673200
v 6.74546800 9.63032000 0.22673200
v 6.80657800 9.63032000 0.21844000
v 6.80657800 9.63032000 0.21844000
v 6.86287600 9.63032000 0.19326700
v 6.86287600 9.63032000 0.19326700
v 6.90980100 9.63032000 0.15325300
v 6.90980100 9.63032000 0.15325300
v 7.92538700 9.63031900 0.55947400
v 7.92538700 9.63031900 0.55947400
v 8.03244600 9.63031900 0.20528200
v 8.03244600 9.63031900 0.20528200
v 8.03244600 9.63031900 0.20528200
v 8.03538100 9.63031900 -0.16472500
v 8.03538100 9.63031900 -0.16472500
v 7.93395400 9.63031900 -0.52057100
v 7.93395400 9.63031900 -0.52057100
v 7.73638200 9.63031900 -0.83342700
v 7.73638200 9.63031900 -0.83342700
v 7.45867200 9.63031900 -1.07794800
v 7.45867200 9.63031900 -1.07794800
v 7.12332100 9.63031900 -1.23432500
v 7.12332100 9.63031900 -1.23432500
v 6.75749800 9.63031900 -1.28988700
v 6.75749800 9.63031900 -1.28988700
v 6.39083900 9.63032000 -1.24013400
v 6.39083900 9.63032000 -1.24013400
v 6.05305000 9.63032000 -1.08909800
v 6.05305000 9.63032000 -1.08909800
v 5.77149600 9.63032000 -0.84901300
v 5.77149600 9.63032000 -0.84901300
v 5.56898600 9.63032000 -0.53933000
v 5.56898600 9.63032000 -0.53933000
v 5.46192700 9.63032000 -0.18513800
v 5.46192700 9.63032000 -0.18513800
v 5.45899200 9.63032000 0.18486900
v 5.45899200 9.63032000 0.18486900
v 5.56041900 9.63032000 0.54071400
v 5.56041900 9.63032000 0.54071400
v 5.75799000 9.63032000 0.85357100
v 5.75799000 9.63032000 0.85357100
v 6.03570100 9.63032000 1.09809200
v 6.03570100 9.63032000 1.09809200
v 6.37105100 9.63032000 1.25446800
v 6.37105100 9.63032000 1.25446800
v 6.73687400 9.63032000 1.31003100
v 6.73687400 9.63032000 1.31003100
v 7.10353300 9.63032000 1.26027900
v 7.10353300 9.63032000 1.26027900
v 7.44132200 9.63032000 1.10924300
v 7.44132200 9.63032000 1.10924300
v 7.72287700 9.63032000 0.86915800
v 7.72287700 9.63032000 0.86915800
v 7.92538700 9.63919500 0.55947400
v 7.92538700 9.63919500 0.55947400
v 8.03244600 9.63919500 0.20528200
v 8.03244600 9.63919500 0.20528200
v 8.03244600 9.63919500 0.20528200
v 8.03538100 9.63919500 -0.16472500
v 8.03538100 9.63919500 -0.16472500
v 7.93395400 9.63919500 -0.52057100
v 7.93395400 9.63919500 -0.52057100
v 7.73638200 9.63919500 -0.83342700
v 7.73638200 9.63919500 -0.83342700
v 7.45867200 9.63919500 -1.07794800
v 7.45867200 9.63919500 -1.07794800
v 7.12332100 9.63919500 -1.23432500
v 7.12332100 9.63919500 -1.23432500
v 6.75749800 9.63919500 -1.28988700
v 6.75749800 9.63919500 -1.28988700
v 6.39083900 9.63919600 -1.24013400
v 6.39083900 9.63919600 -1.24013400
v 6.05305000 9.63919600 -1.08909800
v 6.05305000 9.63919600 -1.08909800
v 5.77149600 9.63919600 -0.84901300
v 5.77149600 9.63919600 -0.84901300
v 5.56898600 9.63919600 -0.53933000
v 5.56898600 9.63919600 -0.53933000
v 5.46192700 9.63919600 -0.18513800
v 5.46192700 9.63919600 -0.18513800
v 5.45899200 9.63919600 0.18486900
v 5.45899200 9.63919600 0.18486900
v 5.56041900 9.63919600 0.54071400
v 5.56041900 9.63919600 0.54071400
v 5.75799000 9.63919600 0.85357100
v 5.75799000 9.63919600 0.85357100
v 6.03570100 9.63919600 1.09809200
v 6.03570100 9.63919600 1.09809200
v 6.37105100 9.63919600 1.25446800
v 6.37105100 9.63919600 1.25446800
v 6.73687400 9.63919600 1.31003100
v 6.73687400 9.63919600 1.31003100
v 7.10353300 9.63919600 1.26027900
v 7.10353300 9.63919600 1.26027900
v 7.44132200 9.63919600 1.10924300
v 7.44132200 9.63919600 1.10924300
v 7.72287700 9.63919600 0.86915800
v 7.72287700 9.63919600 0.86915800
v 6.94355300 9.63919600 0.10163900
v 6.94355300 9.63919600 0.10163900
v 6.96139700 9.63919600 0.04260700
v 6.96139700 9.63919600 0.04260700
v 6.96139700 9.63919600 0.04260700
v 6.96188600 9.63919600 -0.01906100
v 6.96188600 9.63919600 -0.01906100
v 6.94498100 9.63919600 -0.07836900
v 6.94498100 9.63919600 -0.07836900
v 6.91205300 9.63919600 -0.13051100
v 6.91205300 9.63919600 -0.13051100
v 6.86576700 9.63919600 -0.17126500
v 6.86576700 9.63919600 -0.17126500
v 6.80987500 9.63919600 -0.19732700
v 6.80987500 9.63919600 -0.19732700
v 6.74890500 9.63919600 -0.20658800
v 6.74890500 9.63919600 -0.20658800
v 6.68779600 9.63919600 -0.19829600
v 6.68779600 9.63919600 -0.19829600
v 6.63149700 9.63919600 -0.17312300
v 6.63149700 9.63919600 -0.17312300
v 6.58457100 9.63919600 -0.13310900
v 6.58457100 9.63919600 -0.13310900
v 6.55082000 9.63919600 -0.08149500
v 6.55082000 9.63919600 -0.08149500
v 6.53297700 9.63919600 -0.02246300
v 6.53297700 9.63919600 -0.02246300
v 6.53248700 9.63919600 0.03920500
v 6.53248700 9.63919600 0.03920500
v 6.54939200 9.63919600 0.09851200
v 6.54939200 9.63919600 0.09851200
v 6.58232100 9.63919600 0.15065500
v 6.58232100 9.63919600 0.15065500
v 6.62860600 9.63919600 0.19140900
v 6.62860600 9.63919600 0.19140900
v 6.68449700 9.63919600 0.21747100
v 6.68449700 9.63919600 0.21747100
v 6.74546800 9.63919600 0.22673200
v 6.74546800 9.63919600 0.22673200
v 6.80657800 9.63919600 0.21844000
v 6.80657800 9.63919600 0.21844000
v 6.86287600 9.63919600 0.19326700
v 6.86287600 9.63919600 0.19326700
v 6.90980100 9.63919600 0.15325300
v 6.90980100 9.63919600 0.15325300
v 6.53281400 9.63032000 -0.00190700
v 6.53281400 9.63032000 -0.00190700
v 6.53281400 9.63032000 -0.00190700
v 6.53265000 9.63032000 0.01864900
v 6.53265000 9.63032000 0.01864900
v 6.53265000 9.63032000 0.01864900
v 5.45997000 9.63032000 0.06153300
v 5.45997000 9.63032000 0.06153300
v 5.45997000 9.63032000 0.06153300
v 5.46094800 9.63032000 -0.06180300
v 5.46094800 9.63032000 -0.06180300
v 5.46094800 9.63032000 -0.06180300
v 5.45997000 9.63919600 0.06153300
v 5.45997000 9.63919600 0.06153300
v 5.45997000 9.63919600 0.06153300
v 5.46094800 9.63919600 -0.06180300
v 5.46094800 9.63919600 -0.06180300
v 5.46094800 9.63919600 -0.06180300
v 6.53265000 9.63919600 0.01864900
v 6.53265000 9.63919600 0.01864900
v 6.53265000 9.63919600 0.01864900
v 6.53281400 9.63919600 -0.00190700
v 6.53281400 9.63919600 -0.00190700
v 6.53281400 9.63919600 -0.00190700
v 6.47894100 9.67850100 -0.01901100
v 6.47894100 9.67850100 -0.01901100
v 6.47894100 9.67850100 -0.01901100
v 6.47860000 9.67850100 0.03581400
v 6.47860000 9.67850100 0.03581400
v 6.47860000 9.67850100 0.03581400
v 6.47860000 9.59101200 0.03581400
v 6.47860000 9.59101200 0.03581400
v 6.47860000 9.59101200 0.03581400
v 6.47894100 9.59101200 -0.01901100
v 6.47894100 9.59101200 -0.01901100
v 6.47894100 9.59101200 -0.01901100
v 5.42526000 9.76015900 -0.03528900
v 5.42526000 9.76015900 -0.03528900
v 5.42526000 9.76015900 -0.03528900
v 5.42526000 9.76015900 -0.03528900
v 5.42479700 9.76015900 0.03897500
v 5.42479700 9.76015900 0.03897500
v 5.42479700 9.76015900 0.03897500
v 5.42479700 9.76015900 0.03897500
v 5.42479700 9.50935600 0.03897500
v 5.42479700 9.50935600 0.03897500
v 5.42479700 9.50935600 0.03897500
v 5.42479700 9.50935600 0.03897500
v 5.42526000 9.50935600 -0.03528900
v 5.42526000 9.50935600 -0.03528900
v 5.42526000 9.50935600 -0.03528900
v 5.42526000 9.50935600 -0.03528900
v 4.88095300 9.76015900 0.03559100
v 4.88095300 9.76015900 0.03559100
v 4.88095300 9.76015900 0.03559100
v 4.88141500 9.76015900 -0.03867400
v 4.88141500 9.76015900 -0.03867400
v 4.88141500 9.76015900 -0.03867400
v 4.88141500 9.50935600 -0.03867400
v 4.88141500 9.50935600 -0.03867400
v 4.88141500 9.50935600 -0.03867400
v 4.88095300 9.50935600 0.03559100
v 4.88095300 9.50935600 0.03559100
v 4.88095300 9.50935600 0.03559100
vn -0.00000000 -1.00000000 -0.00000000
vn -0.90630000 -0.00000000 -0.42260000
vn -0.98870000 -0.00000000 -0.15020000
vn -0.00000000 -1.00000000 -0.00000000
vn -0.98870000 -0.00000000 -0.15020000
vn -0.99090000 -0.00000000 0.13450000
vn -0.00000000 -1.00000000 -0.00000000
vn -0.91290000 -0.00000000 0.40820000
vn -0.00000000 -1.00000000 -0.00000000
vn -0.00000000 -1.00000000 -0.00000000
vn -0.76090000 -0.00000000 0.64880000
vn -0.00000000 -1.00000000 -0.00000000
vn -0.54730000 -0.00000000 0.83690000
vn -0.00000000 -1.00000000 -0.00000000
vn -0.28930000 -0.00000000 0.95720000
vn -0.00000000 -1.00000000 -0.00000000
vn -0.00790000 -0.00000000 1.00000000
vn -0.00000000 -1.00000000 -0.00000000
vn 0.27410000 -0.00000000 0.96170000
vn -0.00000000 -1.00000000 -0.00000000
vn 0.53400000 -0.00000000 0.84550000
vn -0.00000000 -1.00000000 -0.00000000
vn 0.75050000 -0.00000000 0.66080000
vn -0.00000000 -1.00000000 -0.00000000
vn 0.90630000 -0.00000000 0.42260000
vn -0.00000000 -1.00000000 -0.00000000
vn 0.98870000 -0.00000000 0.15020000
vn 0.99090000 -0.00000000 -0.13450000
vn -0.00000000 -1.00000000 -0.00000000
vn 0.91290000 -0.00000000 -0.40820000
vn -0.00000000 -1.00000000 -0.00000000
vn -0.00000000 -1.00000000 -0.00000000
vn 0.76090000 -0.00000000 -0.64880000
vn 0.54730000 -0.00000000 -0.83690000
vn -0.00000000 -1.00000000 -0.00000000
vn 0.28930000 -0.00000000 -0.95720000
vn -0.00000000 -1.00000000 -0.00000000
vn -0.00000000 -1.00000000 -0.00000000
vn 0.00790000 -0.00000000 -1.00000000
vn -0.27410000 -0.00000000 -0.96170000
vn -0.00000000 -1.00000000 -0.00000000
vn -0.53400000 -0.00000000 -0.84550000
vn -0.00000000 -1.00000000 -0.00000000
vn -0.75050000 -0.00000000 -0.66080000
vn -0.00000000 -1.00000000 -0.00000000
vn -0.00000000 -1.00000000 -0.00000000
vn 0.90630000 -0.00000000 0.42260000
vn 0.98870000 -0.00000000 0.15020000
vn 0.98870000 -0.00000000 0.15020000
vn -0.00000000 -1.00000000 -0.00000000
vn -0.00000000 -1.00000000 -0.00000000
vn 0.99090000 -0.00000000 -0.13450000
vn -0.00000000 -1.00000000 -0.00000000
vn 0.91290000 -0.00000000 -0.40820000
vn 0.76090000 -0.00000000 -0.64880000
vn -0.00000000 -1.00000000 -0.00000000
vn 0.54730000 -0.00000000 -0.83690000
vn -0.00000000 -1.00000000 -0.00000000
vn -0.00000000 -1.00000000 -0.00000000
vn 0.28930000 -0.00000000 -0.95720000
vn 0.00790000 -0.00000000 -1.00000000
vn -0.00000000 -1.00000000 -0.00000000
vn -0.00000000 -1.00000000 -0.00000000
vn -0.27410000 -0.00000000 -0.96170000
vn -0.00000000 -1.00000000 -0.00000000
vn -0.53400000 -0.00000000 -0.84550000
vn -0.75050000 -0.00000000 -0.66080000
vn -0.00000000 -1.00000000 -0.00000000
vn -0.00000000 -1.00000000 -0.00000000
vn -0.90630000 -0.00000000 -0.42260000
vn -0.98870000 -0.00000000 -0.15020000
vn -0.00000000 -1.00000000 -0.00000000
vn -0.00000000 -1.00000000 -0.00000000
vn -0.99090000 -0.00000000 0.13450000
vn -0.91290000 -0.00000000 0.40820000
vn -0.00000000 -1.00000000 -0.00000000
vn -0.00000000 -1.00000000 -0.00000000
vn -0.76090000 -0.00000000 0.64880000
vn -0.00000000 -1.00000000 -0.00000000
vn -0.54730000 -0.00000000 0.83690000
vn -0.28930000 -0.00000000 0.95720000
vn -0.00000000 -1.00000000 -0.00000000
vn -0.00000000 -1.00000000 -0.00000000
vn -0.00790000 -0.00000000 1.00000000
vn 0.27410000 -0.00000000 0.96170000
vn -0.00000000 -1.00000000 -0.00000000
vn -0.00000000 -1.00000000 -0.00000000
vn 0.53400000 -0.00000000 0.84550000
vn 0.75050000 -0.00000000 0.66080000
vn -0.00000000 -1.00000000 -0.00000000
vn 0.90630000 -0.00000000 0.42260000
vn -0.00000000 1.00000000 -0.00000000
vn 0.98870000 -0.00000000 0.15020000
vn 0.98870000 -0.00000000 0.15020000
vn -0.00000000 1.00000000 -0.00000000
vn -0.00000000 1.00000000 -0.00000000
vn 0.99090000 -0.00000000 -0.13450000
vn -0.00000000 1.00000000 -0.00000000
vn 0.91290000 -0.00000000 -0.40820000
vn 0.76090000 -0.00000000 -0.64880000
vn -0.00000000 1.00000000 -0.00000000
vn 0.54730000 -0.00000000 -0.83690000
vn -0.00000000 1.00000000 -0.00000000
vn 0.28930000 -0.00000000 -0.95720000
vn -0.00000000 1.00000000 -0.00000000
vn -0.00000000 1.00000000 -0.00000000
vn 0.00790000 -0.00000000 -1.00000000
vn -0.27410000 -0.00000000 -0.96170000
vn -0.00000000 1.00000000 -0.00000000
vn -0.00000000 1.00000000 -0.00000000
vn -0.53400000 -0.00000000 -0.84550000
vn -0.75050000 -0.00000000 -0.66080000
vn -0.00000000 1.00000000 -0.00000000
vn -0.00000000 1.00000000 -0.00000000
vn -0.90630000 -0.00000000 -0.42260000
vn -0.98870000 -0.00000000 -0.15020000
vn -0.00000000 1.00000000 -0.00000000
vn -0.00000000 1.00000000 -0.00000000
vn -0.99090000 -0.00000000 0.13450000
vn -0.00000000 1.00000000 -0.00000000
vn -0.91290000 -0.00000000 0.40820000
vn -0.76090000 -0.00000000 0.64880000
vn -0.00000000 1.00000000 -0.00000000
vn -0.54730000 -0.00000000 0.83690000
vn -0.00000000 1.00000000 -0.00000000
vn -0.00000000 1.00000000 -0.00000000
vn -0.28930000 -0.00000000 0.95720000
vn -0.00790000 -0.00000000 1.00000000
vn -0.00000000 1.00000000 -0.00000000
vn -0.00000000 1.00000000 -0.00000000
vn 0.27410000 -0.00000000 0.96170000
vn -0.00000000 1.00000000 -0.00000000
vn 0.53390000 -0.00000000 0.84550000
vn 0.75050000 -0.00000000 0.66080000
vn -0.00000000 1.00000000 -0.00000000
vn -0.00000000 1.00000000 -0.00000000
vn -0.90630000 -0.00000000 -0.42260000
vn -0.98870000 -0.00000000 -0.15020000
vn -0.98870000 -0.00000000 -0.15020000
vn -0.00000000 1.00000000 -0.00000000
vn -0.99090000 -0.00000000 0.13450000
vn -0.00000000 1.00000000 -0.00000000
vn -0.91290000 -0.00000000 0.40820000
vn -0.00000000 1.00000000 -0.00000000
vn -0.76090000 -0.00000000 0.64880000
vn -0.00000000 1.00000000 -0.00000000
vn -0.00000000 1.00000000 -0.00000000
vn -0.54730000 -0.00000000 0.83690000
vn -0.28930000 -0.00000000 0.95720000
vn -0.00000000 1.00000000 -0.00000000
vn -0.00790000 -0.00000000 1.00000000
vn -0.00000000 1.00000000 -0.00000000
vn 0.27410000 -0.00000000 0.96170000
vn -0.00000000 1.00000000 -0.00000000
vn 0.53400000 -0.00000000 0.84550000
vn -0.00000000 1.00000000 -0.00000000
vn 0.75050000 -0.00000000 0.66080000
vn -0.00000000 1.00000000 -0.00000000
vn -0.00000000 1.00000000 -0.00000000
vn 0.90630000 -0.00000000 0.42260000
vn -0.00000000 1.00000000 -0.00000000
vn 0.98870000 -0.00000000 0.15020000
vn 0.99090000 -0.00000000 -0.13450000
vn -0.00000000 1.00000000 -0.00000000
vn -0.00000000 1.00000000 -0.00000000
vn 0.91290000 -0.00000000 -0.40820000
vn 0.76090000 -0.00000000 -0.64880000
vn -0.00000000 1.00000000 -0.00000000
vn 0.54730000 -0.00000000 -0.83690000
vn -0.00000000 1.00000000 -0.00000000
vn -0.00000000 1.00000000 -0.00000000
vn 0.28930000 -0.00000000 -0.95720000
vn 0.00790000 -0.00000000 -1.00000000
vn -0.00000000 1.00000000 -0.00000000
vn -0.00000000 1.00000000 -0.00000000
vn -0.27410000 -0.00000000 -0.96170000
vn -0.53400000 -0.00000000 -0.84550000
vn -0.00000000 1.00000000 -0.00000000
vn -0.75050000 -0.00000000 -0.66080000
vn -0.00000000 1.00000000 -0.00000000
vn 1.00000000 -0.00000000 0.00790000
vn -0.00000000 -1.00000000 -0.00000000
vn -0.05580000 -0.00000000 0.99840000
vn 1.00000000 -0.00000000 0.00790000
vn -0.03990000 -0.00000000 -0.99920000
vn -0.00000000 -1.00000000 -0.00000000
vn -0.00000000 -1.00000000 -0.00000000
vn -0.03990000 -0.00000000 -0.99920000
vn -1.00000000 -0.00000000 -0.00790000
vn -0.00000000 -1.00000000 -0.00000000
vn -1.00000000 -0.00000000 -0.00790000
vn -0.05580000 -0.00000000 0.99840000
vn -1.00000000 -0.00000000 -0.00790000
vn -0.03990000 -0.00000000 -0.99920000
vn -0.00000000 1.00000000 -0.00000000
vn -1.00000000 -0.00000000 -0.00790000
vn -0.05580000 -0.00000000 0.99840000
vn -0.00000000 1.00000000 -0.00000000
vn -0.00000000 1.00000000 -0.00000000
vn 1.00000000 -0.00000000 0.00790000
vn -0.03990000 -0.00000000 -0.99920000
vn -0.00000000 1.00000000 -0.00000000
vn 1.00000000 -0.00000000 0.00790000
vn -0.05580000 -0.00000000 0.99840000
vn 0.07730000 0.99700000 0.00050000
vn 0.01540000 -0.00000000 -0.99990000
vn 1.00000000 -0.00000000 0.00620000
vn 0.07730000 0.99700000 0.00050000
vn 1.00000000 -0.00000000 0.00620000
vn 0.00300000 -0.00000000 1.00000000
vn 1.00000000 -0.00000000 0.00620000
vn 0.00300000 -0.00000000 1.00000000
vn 0.07730000 -0.99700000 0.00050000
vn 0.07730000 -0.99700000 0.00050000
vn 0.01540000 -0.00000000 -0.99990000
vn 1.00000000 -0.00000000 0.00620000
vn -0.00000000 1.00000000 -0.00000000
vn 0.07730000 0.99700000 0.00050000
vn 0.00620000 -0.00000000 -1.00000000
vn 0.01540000 -0.00000000 -0.99990000
vn 0.07730000 0.99700000 0.00050000
vn -0.00620000 -0.00000000 1.00000000
vn 0.00300000 -0.00000000 1.00000000
vn -0.00000000 1.00000000 -0.00000000
vn -0.00620000 -0.00000000 1.00000000
vn -0.00000000 -1.00000000 -0.00000000
vn 0.00300000 -0.00000000 1.00000000
vn 0.07730000 -0.99700000 0.00050000
vn 0.07730000 -0.99700000 0.00050000
vn -0.00000000 -1.00000000 -0.00000000
vn 0.00620000 -0.00000000 -1.00000000
vn 0.01540000 -0.00000000 -0.99990000
vn -1.00000000 -0.00000000 -0.00620000
vn -0.00000000 1.00000000 -0.00000000
vn -0.00620000 -0.00000000 1.00000000
vn -1.00000000 -0.00000000 -0.00620000
vn -0.00000000 1.00000000 -0.00000000
vn 0.00620000 -0.00000000 -1.00000000
vn -1.00000000 -0.00000000 -0.00620000
vn 0.00620000 -0.00000000 -1.00000000
vn -0.00000000 -1.00000000 -0.00000000
vn -0.00000000 -1.00000000 -0.00000000
vn -0.00620000 -0.00000000 1.00000000
vn -1.00000000 -0.00000000 -0.00620000
vt 0.75771300 0.07730500
vt 0.25246200 0.11279900
vt 0.24956300 0.11285200
vt 0.75812600 0.08017700
vt 0.28243100 0.11140900
vt 0.27953100 0.11135800
vt 0.75933100 0.08281500
vt 0.27663000 0.11131100
vt 0.76123000 0.08500600
vt 0.76366900 0.08657400
vt 0.27372900 0.11127500
vt 0.76645100 0.08739000
vt 0.27082700 0.11125400
vt 0.76935100 0.08739000
vt 0.26792600 0.11124900
vt 0.77213300 0.08657300
vt 0.26502500 0.11126800
vt 0.77457200 0.08500600
vt 0.26212600 0.11130200
vt 0.77647100 0.08281500
vt 0.25922700 0.11130300
vt 0.77767500 0.08017700
vt 0.25632600 0.11136200
vt 0.77808800 0.07730500
vt 0.25342800 0.11142200
vt 0.77767500 0.07443700
vt 0.25053000 0.11147100
vt 0.27856200 0.11244000
vt 0.77647200 0.07179500
vt 0.27566000 0.11244100
vt 0.77457200 0.06960400
vt 0.77213300 0.06803600
vt 0.27275800 0.11249800
vt 0.26985900 0.11253900
vt 0.76935000 0.06722000
vt 0.26695900 0.11257600
vt 0.76645000 0.06722100
vt 0.76366800 0.06803800
vt 0.26405900 0.11261400
vt 0.26115900 0.11265300
vt 0.76122800 0.06960600
vt 0.25826000 0.11269800
vt 0.75932900 0.07179800
vt 0.25536100 0.11274700
vt 0.75812500 0.07443600
vt 0.70677300 0.07730500
vt 0.19699600 0.11949200
vt 0.38146300 0.10715700
vt 0.17985600 0.12248400
vt 0.70925000 0.09452900
vt 0.71647700 0.11035500
vt 0.36424600 0.10465500
vt 0.72787100 0.12350400
vt 0.34700200 0.10236500
vt 0.32970900 0.10050700
vt 0.74250800 0.13291000
vt 0.31236300 0.09925600
vt 0.75920200 0.13781200
vt 0.77660000 0.13781100
vt 0.29498300 0.09870900
vt 0.27759500 0.09891300
vt 0.79329400 0.13291000
vt 0.80793000 0.12350400
vt 0.26022600 0.09979000
vt 0.81932400 0.11035500
vt 0.24289400 0.10124100
vt 0.22559500 0.10306800
vt 0.82655200 0.09452900
vt 0.82902800 0.07730500
vt 0.20831400 0.10508300
vt 0.19102700 0.10706700
vt 0.82655200 0.06008600
vt 0.81932500 0.04425500
vt 0.35235400 0.10582800
vt 0.33500000 0.10464200
vt 0.80793100 0.03110600
vt 0.79329400 0.02170000
vt 0.31761800 0.10414200
vt 0.77660000 0.01679900
vt 0.30023700 0.10461600
vt 0.28290400 0.10601300
vt 0.75920100 0.01679900
vt 0.74250700 0.02170200
vt 0.26563600 0.10807600
vt 0.24842900 0.11062100
vt 0.72787000 0.03110900
vt 0.71647600 0.04425800
vt 0.23127000 0.11348000
vt 0.21413400 0.11648600
vt 0.70924900 0.06008500
vt 0.19692400 0.11908100
vt 0.98114700 0.35438000
vt 0.38152300 0.10674400
vt 0.17978500 0.12207300
vt 0.97867100 0.37160100
vt 0.97144300 0.38742800
vt 0.36430300 0.10424200
vt 0.96005000 0.40057700
vt 0.34705100 0.10195100
vt 0.32974600 0.10009200
vt 0.94541300 0.40998300
vt 0.31238500 0.09883900
vt 0.92871900 0.41488500
vt 0.29498700 0.09829200
vt 0.91132100 0.41488500
vt 0.89462700 0.40998300
vt 0.27758200 0.09849600
vt 0.26019800 0.09937400
vt 0.87999000 0.40057700
vt 0.86859700 0.38742800
vt 0.24285500 0.10082500
vt 0.22554900 0.10265300
vt 0.86136900 0.37160200
vt 0.85889400 0.35438000
vt 0.20826600 0.10466800
vt 0.19098000 0.10665200
vt 0.86137000 0.33715900
vt 0.86859500 0.32133300
vt 0.35238300 0.10541200
vt 0.87998800 0.30818400
vt 0.33502000 0.10422500
vt 0.31761900 0.10372500
vt 0.89462500 0.29877700
vt 0.30021500 0.10419900
vt 0.91131900 0.29387500
vt 0.92871800 0.29387500
vt 0.28286300 0.10559800
vt 0.26558000 0.10766200
vt 0.94541200 0.29877700
vt 0.96004900 0.30818300
vt 0.24836400 0.11020800
vt 0.97144300 0.32133200
vt 0.23120000 0.11306900
vt 0.21406100 0.11607500
vt 0.97867100 0.33715800
vt 0.93020700 0.35438000
vt 0.25247000 0.11321600
vt 0.24957100 0.11326900
vt 0.28242400 0.11182700
vt 0.92979500 0.35725000
vt 0.27952400 0.11177600
vt 0.92859000 0.35988800
vt 0.27662400 0.11172900
vt 0.92669100 0.36207900
vt 0.27372500 0.11169200
vt 0.92425200 0.36364700
vt 0.92147000 0.36446400
vt 0.27082600 0.11167200
vt 0.26792700 0.11166700
vt 0.91857000 0.36446400
vt 0.26502900 0.11168500
vt 0.91578800 0.36364700
vt 0.26212900 0.11172000
vt 0.91334900 0.36207900
vt 0.25923100 0.11172000
vt 0.91145000 0.35988800
vt 0.25633500 0.11177900
vt 0.91024600 0.35725000
vt 0.90983300 0.35438000
vt 0.25343600 0.11184000
vt 0.91024600 0.35151000
vt 0.25053700 0.11188900
vt 0.27856200 0.11285700
vt 0.91144800 0.34887300
vt 0.91334700 0.34668200
vt 0.27566400 0.11285800
vt 0.27276500 0.11291600
vt 0.91578600 0.34511400
vt 0.26986400 0.11295700
vt 0.91856900 0.34429600
vt 0.92146800 0.34429600
vt 0.26696400 0.11299400
vt 0.26406400 0.11303100
vt 0.92425100 0.34511300
vt 0.92669100 0.34668100
vt 0.26116500 0.11307000
vt 0.25826700 0.11311500
vt 0.92859000 0.34887200
vt 0.25536900 0.11316400
vt 0.92979400 0.35151000
vt 0.24956300 0.11148800
vt 0.77727400 0.07355800
vt 0.11497100 0.13368100
vt 0.27952900 0.11244000
vt 0.97770600 0.31563500
vt 0.77687300 0.07267400
vt 0.82173400 0.04953000
vt 0.93495400 0.28879600
vt 0.35814100 0.10621500
vt 0.82414200 0.05481100
vt 0.18526500 0.10772400
vt 0.13557000 0.08759600
vt 0.35816900 0.10579900
vt 0.93517600 0.28844200
vt 0.86618500 0.32660900
vt 0.18521800 0.10730900
vt 0.13518900 0.08742600
vt 0.86377900 0.33188300
vt 0.91104600 0.34975200
vt 0.27952900 0.11285700
vt 0.97792800 0.31528100
vt 0.91064800 0.35063100
vt 0.24957000 0.11190500
vt 0.11459000 0.13351100
vt 0.75412800 0.40189300
vt 0.77764400 0.37823500
vt 0.34277100 0.12155700
vt 0.75648300 0.40084400
vt 0.34484300 0.12002300
vt 0.76361900 0.38338600
vt 0.34729100 0.12332900
vt 0.76747700 0.38195800
vt 0.75789900 0.39167900
vt 0.76027800 0.39068700
vt 0.77367500 0.37931600
vt 0.34521900 0.12486300
vt 0.73348200 0.35668400
vt 0.73348200 0.35668400
vt 0.76833300 0.32941500
vt 0.76833300 0.32941500
vt 0.73667200 0.35526300
vt 0.74281600 0.33825000
vt 0.74281600 0.33825000
vt 0.73667200 0.35526300
vt 0.75387500 0.33415600
vt 0.73834700 0.34598600
vt 0.75387500 0.33415600
vt 0.73834700 0.34598600
vt 0.74157000 0.34464200
vt 0.74157000 0.34464200
vt 0.75695400 0.33251300
vt 0.75695400 0.33251300
vt 0.66678900 0.70795600
vt 0.72626100 0.33190500
vt 0.73393800 0.31426800
vt 0.66331000 0.70765700
vt 0.72307200 0.33332700
vt 0.76161500 0.30474100
vt 0.66432000 0.69590700
vt 0.75023600 0.30783900
vt 0.73172800 0.32103900
vt 0.72850500 0.32238300
vt 0.74499700 0.31017400
vt 0.66779900 0.69620600
f 4/4/4 50/50/50 1/1/1
f 46/46/46 1/1/1 50/50/50
f 50/50/50 7/7/7 51/51/51
f 7/7/7 50/50/50 4/4/4
f 51/51/51 7/7/7 53/53/53
f 53/53/53 7/7/7 9/9/9
f 10/10/10 53/53/53 9/9/9
f 53/53/53 10/10/10 56/56/56
f 58/58/58 10/10/10 12/12/12
f 10/10/10 58/58/58 56/56/56
f 14/14/14 58/58/58 12/12/12
f 58/58/58 14/14/14 59/59/59
f 16/16/16 62/62/62 14/14/14
f 14/14/14 62/62/62 59/59/59
f 18/18/18 63/63/63 16/16/16
f 62/62/62 16/16/16 63/63/63
f 63/63/63 20/20/20 65/65/65
f 20/20/20 63/63/63 18/18/18
f 65/65/65 22/22/22 68/68/68
f 22/22/22 65/65/65 20/20/20
f 69/69/69 22/22/22 24/24/24
f 22/22/22 69/69/69 68/68/68
f 26/26/26 69/69/69 24/24/24
f 69/69/69 26/26/26 72/72/72
f 31/31/31 73/73/73 29/29/29
f 73/73/73 31/31/31 76/76/76
f 32/32/32 76/76/76 31/31/31
f 76/76/76 32/32/32 77/77/77
f 35/35/35 79/79/79 32/32/32
f 77/77/77 32/32/32 79/79/79
f 79/79/79 37/37/37 82/82/82
f 37/37/37 79/79/79 35/35/35
f 82/82/82 38/38/38 83/83/83
f 38/38/38 82/82/82 37/37/37
f 86/86/86 38/38/38 41/41/41
f 38/38/38 86/86/86 83/83/83
f 87/87/87 41/41/41 43/43/43
f 41/41/41 87/87/87 86/86/86
f 45/45/45 90/90/90 43/43/43
f 43/43/43 90/90/90 87/87/87
f 1/1/1 90/90/90 45/45/45
f 90/90/90 1/1/1 46/46/46
f 94/94/94 91/91/91 47/47/47
f 94/94/94 47/47/47 49/49/49
f 97/97/97 93/93/93 48/48/48
f 97/97/97 48/48/48 52/52/52
f 97/97/97 54/54/54 99/99/99
f 54/54/54 97/97/97 52/52/52
f 99/99/99 55/55/55 100/100/100
f 55/55/55 99/99/99 54/54/54
f 100/100/100 57/57/57 102/102/102
f 57/57/57 100/100/100 55/55/55
f 102/102/102 60/60/60 104/104/104
f 60/60/60 102/102/102 57/57/57
f 104/104/104 61/61/61 107/107/107
f 61/61/61 104/104/104 60/60/60
f 107/107/107 64/64/64 108/108/108
f 64/64/64 107/107/107 61/61/61
f 108/108/108 66/66/66 111/111/111
f 66/66/66 108/108/108 64/64/64
f 111/111/111 67/67/67 112/112/112
f 67/67/67 111/111/111 66/66/66
f 112/112/112 70/70/70 115/115/115
f 70/70/70 112/112/112 67/67/67
f 115/115/115 71/71/71 116/116/116
f 71/71/71 115/115/115 70/70/70
f 121/121/121 119/119/119 74/74/74
f 121/121/121 74/74/74 75/75/75
f 122/122/122 121/121/121 75/75/75
f 122/122/122 75/75/75 78/78/78
f 124/124/124 122/122/122 78/78/78
f 124/124/124 78/78/78 80/80/80
f 127/127/127 124/124/124 80/80/80
f 127/127/127 80/80/80 81/81/81
f 128/128/128 127/127/127 81/81/81
f 128/128/128 81/81/81 84/84/84
f 131/131/131 128/128/128 84/84/84
f 131/131/131 84/84/84 85/85/85
f 133/133/133 131/131/131 85/85/85
f 133/133/133 85/85/85 88/88/88
f 134/134/134 133/133/133 88/88/88
f 134/134/134 88/88/88 89/89/89
f 91/91/91 134/134/134 89/89/89
f 91/91/91 89/89/89 47/47/47
f 95/95/95 136/136/136 92/92/92
f 136/136/136 95/95/95 140/140/140
f 140/140/140 95/95/95 142/142/142
f 95/95/95 96/96/96 142/142/142
f 98/98/98 142/142/142 96/96/96
f 142/142/142 98/98/98 144/144/144
f 101/101/101 146/146/146 98/98/98
f 144/144/144 98/98/98 146/146/146
f 103/103/103 146/146/146 101/101/101
f 146/146/146 103/103/103 147/147/147
f 105/105/105 150/150/150 103/103/103
f 103/103/103 150/150/150 147/147/147
f 152/152/152 105/105/105 106/106/106
f 105/105/105 152/152/152 150/150/150
f 109/109/109 152/152/152 106/106/106
f 152/152/152 109/109/109 154/154/154
f 154/154/154 109/109/109 156/156/156
f 156/156/156 109/109/109 110/110/110
f 156/156/156 113/113/113 158/158/158
f 113/113/113 156/156/156 110/110/110
f 114/114/114 159/159/159 113/113/113
f 158/158/158 113/113/113 159/159/159
f 117/117/117 161/161/161 114/114/114
f 159/159/159 114/114/114 161/161/161
f 165/165/165 118/118/118 120/120/120
f 118/118/118 165/165/165 164/164/164
f 168/168/168 120/120/120 123/123/123
f 120/120/120 168/168/168 165/165/165
f 168/168/168 125/125/125 170/170/170
f 125/125/125 168/168/168 123/123/123
f 170/170/170 125/125/125 171/171/171
f 125/125/125 126/126/126 171/171/171
f 129/129/129 174/174/174 126/126/126
f 171/171/171 126/126/126 174/174/174
f 130/130/130 174/174/174 129/129/129
f 174/174/174 130/130/130 175/175/175
f 132/132/132 175/175/175 130/130/130
f 175/175/175 132/132/132 178/178/178
f 135/135/135 178/178/178 132/132/132
f 178/178/178 135/135/135 180/180/180
f 136/136/136 135/135/135 92/92/92
f 135/135/135 136/136/136 180/180/180
f 143/143/143 6/6/6 141/141/141
f 6/6/6 143/143/143 8/8/8
f 141/141/141 5/5/5 139/139/139
f 5/5/5 141/141/141 6/6/6
f 138/138/138 2/2/2 137/137/137
f 2/2/2 138/138/138 3/3/3
f 179/179/179 137/137/137 2/2/2
f 179/179/179 2/2/2 44/44/44
f 177/177/177 179/179/179 44/44/44
f 177/177/177 44/44/44 42/42/42
f 176/176/176 177/177/177 42/42/42
f 176/176/176 42/42/42 40/40/40
f 176/176/176 39/39/39 173/173/173
f 39/39/39 176/176/176 40/40/40
f 173/173/173 36/36/36 172/172/172
f 36/36/36 173/173/173 39/39/39
f 172/172/172 34/34/34 169/169/169
f 34/34/34 172/172/172 36/36/36
f 167/167/167 169/169/169 34/34/34
f 167/167/167 34/34/34 33/33/33
f 166/166/166 167/167/167 33/33/33
f 166/166/166 33/33/33 30/30/30
f 166/166/166 28/28/28 163/163/163
f 28/28/28 166/166/166 30/30/30
f 162/162/162 25/25/25 160/160/160
f 25/25/25 162/162/162 27/27/27
f 157/157/157 160/160/160 25/25/25
f 157/157/157 25/25/25 23/23/23
f 155/155/155 157/157/157 23/23/23
f 155/155/155 23/23/23 21/21/21
f 153/153/153 155/155/155 21/21/21
f 153/153/153 21/21/21 19/19/19
f 153/153/153 17/17/17 151/151/151
f 17/17/17 153/153/153 19/19/19
f 151/151/151 15/15/15 149/149/149
f 15/15/15 151/151/151 17/17/17
f 148/148/148 149/149/149 15/15/15
f 148/148/148 15/15/15 13/13/13
f 145/145/145 148/148/148 13/13/13
f 145/145/145 13/13/13 11/11/11
f 143/143/143 145/145/145 11/11/11
f 143/143/143 11/11/11 8/8/8
f 187/187/187 186/186/186 29/29/29
f 29/29/29 73/73/73 187/187/187
f 72/72/72 26/26/26 190/190/190
f 182/182/182 190/190/190 26/26/26
f 193/193/193 74/74/74 119/119/119
f 74/74/74 193/193/193 189/189/189
f 71/71/71 191/191/191 116/116/116
f 196/196/196 116/116/116 191/191/191
f 118/118/118 164/164/164 195/195/195
f 195/195/195 164/164/164 199/199/199
f 198/198/198 161/161/161 117/117/117
f 161/161/161 198/198/198 202/202/202
f 203/203/203 27/27/27 162/162/162
f 27/27/27 203/203/203 181/181/181
f 28/28/28 184/184/184 163/163/163
f 200/200/200 163/163/163 184/184/184
f 185/185/185 194/194/194 201/201/201
f 194/194/194 185/185/185 188/188/188
f 197/197/197 183/183/183 204/204/204
f 183/183/183 197/197/197 192/192/192
f 218/218/218 208/208/208 205/205/205
f 208/208/208 218/218/218 221/221/221
f 210/210/210 223/223/223 227/227/227
f 210/210/210 227/227/227 212/212/212
f 229/229/229 214/214/214 213/213/213
f 213/213/213 228/228/228 229/229/229
f 206/206/206 232/232/232 220/220/220
f 232/232/232 206/206/206 215/215/215
f 209/209/209 216/216/216 207/207/207
f 216/216/216 209/209/209 211/211/211
f 233/233/233 239/239/239 244/244/244
f 239/239/239 233/233/233 236/236/236
f 234/234/234 224/224/224 237/237/237
f 237/237/237 224/224/224 217/217/217
f 231/231/231 238/238/238 219/219/219
f 238/238/238 231/231/231 240/240/240
f 242/242/242 230/230/230 226/226/226
f 230/230/230 242/242/242 241/241/241
f 235/235/235 225/225/225 222/222/222
f 225/225/225 235/235/235 243/243/243

