mtllib material.mtl
usemtl material_0
v 0.11555900 -0.04812400 0.14192000
v 0.11555900 -0.04812400 0.14192000
v 0.11555900 -0.04812400 0.14192000
v 0.11555900 -0.04812400 0.14192000
v 0.11555900 -0.04812400 0.14192000
v 0.11420200 -0.04796700 0.14187600
v 0.11420200 -0.04796700 0.14187600
v 0.11420200 -0.04796700 0.14187600
v 0.11420200 -0.04796700 0.14187600
v 0.11420200 -0.04796700 0.14187600
v 0.11858100 -0.04979300 0.14192400
v 0.11858100 -0.04979300 0.14192400
v 0.11858100 -0.04979300 0.14192400
v 0.11858100 -0.04979300 0.14192400
v 0.11270400 -0.04819400 0.14191500
v 0.11270400 -0.04819400 0.14191500
v 0.11270400 -0.04819400 0.14191500
v 0.11270400 -0.04819400 0.14191500
v 0.11270400 -0.04819400 0.14191500
v 0.11270400 -0.04819400 0.14191500
v 0.11130200 -0.04882900 0.14202700
v 0.11130200 -0.04882900 0.14202700
v 0.11130200 -0.04882900 0.14202700
v 0.11130200 -0.04882900 0.14202700
v 0.11130200 -0.04882900 0.14202700
v 0.11130200 -0.04882900 0.14202700
v 0.11130200 -0.04882900 0.14202700
v 0.10996900 -0.04983500 0.14198000
v 0.10996900 -0.04983500 0.14198000
v 0.10996900 -0.04983500 0.14198000
v 0.10996900 -0.04983500 0.14198000
v 0.10996900 -0.04983500 0.14198000
v 0.10996900 -0.04983500 0.14198000
v 0.10996900 -0.04983500 0.14198000
v 0.10996900 -0.04983500 0.14198000
v 0.10907400 -0.05106600 0.14194100
v 0.10907400 -0.05106600 0.14194100
v 0.10907400 -0.05106600 0.14194100
v 0.10907400 -0.05106600 0.14194100
v 0.10853000 -0.05233500 0.14190000
v 0.10853000 -0.05233500 0.14190000
v 0.10853000 -0.05233500 0.14190000
v 0.10853000 -0.05233500 0.14190000
v 0.10853000 -0.05233500 0.14190000
v 0.10853000 -0.05233500 0.14190000
v 0.10853000 -0.05233500 0.14190000
v 0.10831200 -0.05376800 0.14191300
v 0.10831200 -0.05376800 0.14191300
v 0.10831200 -0.05376800 0.14191300
v 0.10831200 -0.05376800 0.14191300
v 0.10831200 -0.05376800 0.14191300
v 0.10831200 -0.05376800 0.14191300
v 0.10845300 -0.05533500 0.14190200
v 0.10845300 -0.05533500 0.14190200
v 0.10845300 -0.05533500 0.14190200
v 0.10845300 -0.05533500 0.14190200
v 0.10845300 -0.05533500 0.14190200
v 0.10907000 -0.05684000 0.14201600
v 0.10907000 -0.05684000 0.14201600
v 0.10907000 -0.05684000 0.14201600
v 0.10907000 -0.05684000 0.14201600
v 0.10907000 -0.05684000 0.14201600
v 0.10907000 -0.05684000 0.14201600
v 0.10907000 -0.05684000 0.14201600
v 0.10907000 -0.05684000 0.14201600
v 0.10980700 -0.05795700 0.14188400
v 0.10980700 -0.05795700 0.14188400
v 0.10980700 -0.05795700 0.14188400
v 0.10980700 -0.05795700 0.14188400
v 0.10980700 -0.05795700 0.14188400
v 0.11777400 -0.04913900 0.14202800
v 0.11777400 -0.04913900 0.14202800
v 0.11777400 -0.04913900 0.14202800
v 0.11777400 -0.04913900 0.14202800
v 0.11777400 -0.04913900 0.14202800
v 0.11777400 -0.04913900 0.14202800
v 0.11777400 -0.04913900 0.14202800
v 0.11677200 -0.04852200 0.14193600
v 0.11677200 -0.04852200 0.14193600
v 0.11677200 -0.04852200 0.14193600
v 0.11677200 -0.04852200 0.14193600
v 0.11911300 -0.05758000 0.14188600
v 0.11911300 -0.05758000 0.14188600
v 0.11911300 -0.05758000 0.14188600
v 0.11911300 -0.05758000 0.14188600
v 0.11911300 -0.05758000 0.14188600
v 0.11912400 -0.05761900 0.13943500
v 0.11912400 -0.05761900 0.13943500
v 0.11912400 -0.05761900 0.13943500
v 0.11912400 -0.05761900 0.13943500
v 0.11912400 -0.05761900 0.13943500
v 0.11991700 -0.05607300 0.14188800
v 0.11991700 -0.05607300 0.14188800
v 0.11991700 -0.05607300 0.14188800
v 0.11991700 -0.05607300 0.14188800
v 0.11991700 -0.05607300 0.14188800
v 0.12001700 -0.05583900 0.13943500
v 0.12001700 -0.05583900 0.13943500
v 0.12001700 -0.05583900 0.13943500
v 0.12001700 -0.05583900 0.13943500
v 0.12026500 -0.05466700 0.14187200
v 0.12026500 -0.05466700 0.14187200
v 0.12026500 -0.05466700 0.14187200
v 0.12026500 -0.05466700 0.14187200
v 0.12026500 -0.05466700 0.14187200
v 0.12026500 -0.05466700 0.14187200
v 0.12026300 -0.05468900 0.13943500
v 0.12026300 -0.05468900 0.13943500
v 0.12026300 -0.05468900 0.13943500
v 0.12032800 -0.05389800 0.13943500
v 0.12032800 -0.05389800 0.13943500
v 0.12032800 -0.05389800 0.13943500
v 0.12032800 -0.05389800 0.13943500
v 0.12025600 -0.05383800 0.14202700
v 0.12025600 -0.05383800 0.14202700
v 0.12025600 -0.05383800 0.14202700
v 0.12025600 -0.05383800 0.14202700
v 0.12025600 -0.05383800 0.14202700
v 0.12025600 -0.05383800 0.14202700
v 0.12025600 -0.05383800 0.14202700
v 0.12026300 -0.05326100 0.13943500
v 0.12026300 -0.05326100 0.13943500
v 0.12026300 -0.05326100 0.13943500
v 0.12026300 -0.05326100 0.13943500
v 0.12002100 -0.05212200 0.14186000
v 0.12002100 -0.05212200 0.14186000
v 0.12002100 -0.05212200 0.14186000
v 0.12002100 -0.05212200 0.14186000
v 0.12002100 -0.05212200 0.14186000
v 0.12002100 -0.05212200 0.14186000
v 0.11975300 -0.05130900 0.13943500
v 0.11975300 -0.05130900 0.13943500
v 0.11975300 -0.05130900 0.13943500
v 0.11934000 -0.05067000 0.13943500
v 0.11934000 -0.05067000 0.13943500
v 0.11934000 -0.05067000 0.13943500
v 0.11934000 -0.05067000 0.13943500
v 0.11934000 -0.05067000 0.13943500
v 0.11918100 -0.05054800 0.14202400
v 0.11918100 -0.05054800 0.14202400
v 0.11918100 -0.05054800 0.14202400
v 0.11918100 -0.05054800 0.14202400
v 0.11918100 -0.05054800 0.14202400
v 0.11918100 -0.05054800 0.14202400
v 0.11821000 -0.04940700 0.13943500
v 0.11821000 -0.04940700 0.13943500
v 0.11821000 -0.04940700 0.13943500
v 0.11821000 -0.04940700 0.13943500
v 0.11666400 -0.04842500 0.13943500
v 0.11666400 -0.04842500 0.13943500
v 0.11666400 -0.04842500 0.13943500
v 0.11666400 -0.04842500 0.13943500
v 0.11666400 -0.04842500 0.13943500
v 0.11431700 -0.04794100 0.13943500
v 0.11431700 -0.04794100 0.13943500
v 0.11431700 -0.04794100 0.13943500
v 0.11431700 -0.04794100 0.13943500
v 0.11431700 -0.04794100 0.13943500
v 0.11279900 -0.04815600 0.13943500
v 0.11279900 -0.04815600 0.13943500
v 0.11279900 -0.04815600 0.13943500
v 0.11193300 -0.04843300 0.13943500
v 0.11193300 -0.04843300 0.13943500
v 0.11193300 -0.04843300 0.13943500
v 0.11193300 -0.04843300 0.13943500
v 0.11096100 -0.04897800 0.13943500
v 0.11096100 -0.04897800 0.13943500
v 0.11096100 -0.04897800 0.13943500
v 0.11096100 -0.04897800 0.13943500
v 0.11003200 -0.04972400 0.13943500
v 0.11003200 -0.04972400 0.13943500
v 0.11003200 -0.04972400 0.13943500
v 0.11702800 -0.05937800 0.13943500
v 0.11702800 -0.05937800 0.13943500
v 0.11702800 -0.05937800 0.13943500
v 0.11702800 -0.05937800 0.13943500
v 0.11702800 -0.05937800 0.13943500
v 0.11547200 -0.05986900 0.13943500
v 0.11547200 -0.05986900 0.13943500
v 0.11547200 -0.05986900 0.13943500
v 0.11414300 -0.06001400 0.13943500
v 0.11414300 -0.06001400 0.13943500
v 0.11414300 -0.06001400 0.13943500
v 0.11414300 -0.06001400 0.13943500
v 0.11414300 -0.06001400 0.13943500
v 0.11152000 -0.05934200 0.13943500
v 0.11152000 -0.05934200 0.13943500
v 0.11152000 -0.05934200 0.13943500
v 0.11152000 -0.05934200 0.13943500
v 0.11152000 -0.05934200 0.13943500
v 0.11152000 -0.05934200 0.13943500
v 0.10962600 -0.05779900 0.13943500
v 0.10962600 -0.05779900 0.13943500
v 0.10962600 -0.05779900 0.13943500
v 0.10962600 -0.05779900 0.13943500
v 0.10963100 -0.05019700 0.13943500
v 0.10963100 -0.05019700 0.13943500
v 0.10963100 -0.05019700 0.13943500
v 0.10894900 -0.05122900 0.13943500
v 0.10894900 -0.05122900 0.13943500
v 0.10894900 -0.05122900 0.13943500
v 0.10894900 -0.05122900 0.13943500
v 0.10894900 -0.05122900 0.13943500
v 0.10904400 -0.05688000 0.13943500
v 0.10904400 -0.05688000 0.13943500
v 0.10904400 -0.05688000 0.13943500
v 0.10904400 -0.05688000 0.13943500
v 0.10851700 -0.05235300 0.13943500
v 0.10851700 -0.05235300 0.13943500
v 0.10851700 -0.05235300 0.13943500
v 0.10846900 -0.05551400 0.13943500
v 0.10846900 -0.05551400 0.13943500
v 0.10846900 -0.05551400 0.13943500
v 0.10846900 -0.05551400 0.13943500
v 0.10833700 -0.05468900 0.13943500
v 0.10833700 -0.05468900 0.13943500
v 0.10833700 -0.05468900 0.13943500
v 0.10833700 -0.05468900 0.13943500
v 0.10833700 -0.05468900 0.13943500
v 0.10832400 -0.05316500 0.13943500
v 0.10832400 -0.05316500 0.13943500
v 0.10832400 -0.05316500 0.13943500
v 0.10832400 -0.05316500 0.13943500
v 0.10832400 -0.05316500 0.13943500
v 0.11096500 -0.05896300 0.14186400
v 0.11096500 -0.05896300 0.14186400
v 0.11096500 -0.05896300 0.14186400
v 0.11096500 -0.05896300 0.14186400
v 0.11202800 -0.05946800 0.14204000
v 0.11202800 -0.05946800 0.14204000
v 0.11202800 -0.05946800 0.14204000
v 0.11202800 -0.05946800 0.14204000
v 0.11202800 -0.05946800 0.14204000
v 0.11202800 -0.05946800 0.14204000
v 0.11261900 -0.05972300 0.14189700
v 0.11261900 -0.05972300 0.14189700
v 0.11261900 -0.05972300 0.14189700
v 0.11261900 -0.05972300 0.14189700
v 0.11261900 -0.05972300 0.14189700
v 0.11554800 -0.05985800 0.14189000
v 0.11554800 -0.05985800 0.14189000
v 0.11554800 -0.05985800 0.14189000
v 0.11554800 -0.05985800 0.14189000
v 0.11554800 -0.05985800 0.14189000
v 0.11554800 -0.05985800 0.14189000
v 0.11677500 -0.05938800 0.14203300
v 0.11677500 -0.05938800 0.14203300
v 0.11677500 -0.05938800 0.14203300
v 0.11677500 -0.05938800 0.14203300
v 0.11677500 -0.05938800 0.14203300
v 0.11677500 -0.05938800 0.14203300
v 0.11677500 -0.05938800 0.14203300
v 0.11787500 -0.05878500 0.14190600
v 0.11787500 -0.05878500 0.14190600
v 0.11787500 -0.05878500 0.14190600
v 0.11787500 -0.05878500 0.14190600
v 0.11787500 -0.05878500 0.14190600
v 0.11382800 -0.05995200 0.14189100
v 0.11382800 -0.05995200 0.14189100
v 0.11382800 -0.05995200 0.14189100
v 0.11382800 -0.05995200 0.14189100
v 0.11382800 -0.05995200 0.14189100
v 0.11483000 -0.05980200 0.14211800
v 0.11483000 -0.05980200 0.14211800
v 0.11483000 -0.05980200 0.14211800
v 0.11483000 -0.05980200 0.14211800
v 0.11483000 -0.05980200 0.14211800
v 0.11050900 -0.05839700 0.14214100
v 0.11050900 -0.05839700 0.14214100
v 0.11050900 -0.05839700 0.14214100
v 0.11050900 -0.05839700 0.14214100
v 0.11050900 -0.05839700 0.14214100
v 0.11050900 -0.05839700 0.14214100
v 0.11838000 -0.05813500 0.14213800
v 0.11838000 -0.05813500 0.14213800
v 0.11838000 -0.05813500 0.14213800
v 0.11838000 -0.05813500 0.14213800
v 0.11838000 -0.05813500 0.14213800
v 0.11969400 -0.05626100 0.14213000
v 0.11969400 -0.05626100 0.14213000
v 0.11969400 -0.05626100 0.14213000
v 0.11969400 -0.05626100 0.14213000
v 0.11969400 -0.05626100 0.14213000
v 0.11969400 -0.05626100 0.14213000
v 0.11969400 -0.05626100 0.14213000
v 0.11984000 -0.05233600 0.14218300
v 0.11984000 -0.05233600 0.14218300
v 0.11984000 -0.05233600 0.14218300
v 0.11984000 -0.05233600 0.14218300
v 0.11984000 -0.05233600 0.14218300
v 0.11340000 -0.05964900 0.14218900
v 0.11340000 -0.05964900 0.14218900
v 0.11340000 -0.05964900 0.14218900
v 0.11340000 -0.05964900 0.14218900
v 0.11340000 -0.05964900 0.14218900
v 0.11340000 -0.05964900 0.14218900
v 0.11029000 -0.05534300 0.14285000
v 0.11029000 -0.05534300 0.14285000
v 0.11029000 -0.05534300 0.14285000
v 0.11029000 -0.05534300 0.14285000
v 0.11029000 -0.05534300 0.14285000
v 0.11029000 -0.05534300 0.14285000
v 0.10853600 -0.05326200 0.14214500
v 0.10853600 -0.05326200 0.14214500
v 0.10853600 -0.05326200 0.14214500
v 0.10853600 -0.05326200 0.14214500
v 0.10853600 -0.05326200 0.14214500
v 0.10853600 -0.05326200 0.14214500
v 0.11077800 -0.05318000 0.14305800
v 0.11077800 -0.05318000 0.14305800
v 0.11077800 -0.05318000 0.14305800
v 0.11077800 -0.05318000 0.14305800
v 0.11077800 -0.05318000 0.14305800
v 0.11077800 -0.05318000 0.14305800
v 0.10918300 -0.05098400 0.14208800
v 0.10918300 -0.05098400 0.14208800
v 0.10918300 -0.05098400 0.14208800
v 0.10918300 -0.05098400 0.14208800
v 0.10918300 -0.05098400 0.14208800
v 0.10918300 -0.05098400 0.14208800
v 0.11143500 -0.05111000 0.14290400
v 0.11143500 -0.05111000 0.14290400
v 0.11143500 -0.05111000 0.14290400
v 0.11143500 -0.05111000 0.14290400
v 0.11143500 -0.05111000 0.14290400
v 0.11143500 -0.05111000 0.14290400
v 0.11249100 -0.05646800 0.14322700
v 0.11249100 -0.05646800 0.14322700
v 0.11249100 -0.05646800 0.14322700
v 0.11249100 -0.05646800 0.14322700
v 0.11249100 -0.05646800 0.14322700
v 0.11249100 -0.05646800 0.14322700
v 0.11249100 -0.05646800 0.14322700
v 0.11249100 -0.05646800 0.14322700
v 0.11350500 -0.05045300 0.14305800
v 0.11350500 -0.05045300 0.14305800
v 0.11350500 -0.05045300 0.14305800
v 0.11350500 -0.05045300 0.14305800
v 0.11350500 -0.05045300 0.14305800
v 0.11350500 -0.05045300 0.14305800
v 0.11350500 -0.05045300 0.14305800
v 0.11370800 -0.05338300 0.14352600
v 0.11370800 -0.05338300 0.14352600
v 0.11370800 -0.05338300 0.14352600
v 0.11370800 -0.05338300 0.14352600
v 0.11370800 -0.05338300 0.14352600
v 0.11509500 -0.05748700 0.14306000
v 0.11509500 -0.05748700 0.14306000
v 0.11509500 -0.05748700 0.14306000
v 0.11509500 -0.05748700 0.14306000
v 0.11509500 -0.05748700 0.14306000
v 0.11509500 -0.05748700 0.14306000
v 0.11564700 -0.04834300 0.14218000
v 0.11564700 -0.04834300 0.14218000
v 0.11564700 -0.04834300 0.14218000
v 0.11564700 -0.04834300 0.14218000
v 0.11564700 -0.04834300 0.14218000
v 0.11564700 -0.04834300 0.14218000
v 0.11564700 -0.04834300 0.14218000
v 0.11548800 -0.05380700 0.14353000
v 0.11548800 -0.05380700 0.14353000
v 0.11548800 -0.05380700 0.14353000
v 0.11548800 -0.05380700 0.14353000
v 0.11548800 -0.05380700 0.14353000
v 0.11548800 -0.05380700 0.14353000
v 0.11548800 -0.05380700 0.14353000
v 0.11704400 -0.05124600 0.14297400
v 0.11704400 -0.05124600 0.14297400
v 0.11704400 -0.05124600 0.14297400
v 0.11704400 -0.05124600 0.14297400
v 0.11704400 -0.05124600 0.14297400
v 0.11704400 -0.05124600 0.14297400
v 0.11704400 -0.05124600 0.14297400
v 0.11716100 -0.05683600 0.14290500
v 0.11716100 -0.05683600 0.14290500
v 0.11716100 -0.05683600 0.14290500
v 0.11716100 -0.05683600 0.14290500
v 0.11716100 -0.05683600 0.14290500
v 0.11716100 -0.05683600 0.14290500
v 0.11781200 -0.05477000 0.14306000
v 0.11781200 -0.05477000 0.14306000
v 0.11781200 -0.05477000 0.14306000
v 0.11781200 -0.05477000 0.14306000
v 0.11781200 -0.05477000 0.14306000
v 0.11781200 -0.05477000 0.14306000
v 0.11337900 -0.04814900 0.14209800
v 0.11337900 -0.04814900 0.14209800
v 0.11337900 -0.04814900 0.14209800
v 0.11337900 -0.04814900 0.14209800
v 0.11337900 -0.04814900 0.14209800
v 0.10862000 -0.05530100 0.14213600
v 0.10862000 -0.05530100 0.14213600
v 0.10862000 -0.05530100 0.14213600
v 0.10862000 -0.05530100 0.14213600
v 0.10862000 -0.05530100 0.14213600
vn 0.31110000 0.95010000 0.02340000
vn 0.20180000 0.97900000 -0.02870000
vn 0.11440000 0.99330000 0.01610000
vn 0.06920000 0.77400000 0.62940000
vn 0.24820000 0.78010000 0.57430000
vn 0.03500000 0.70580000 0.70750000
vn 0.11440000 0.99330000 0.01610000
vn -0.13700000 0.95260000 0.27180000
vn -0.14940000 0.98880000 0.00370000
vn 0.06920000 0.77400000 0.62940000
vn 0.63090000 0.77540000 0.02610000
vn 0.78180000 0.62330000 0.01880000
vn 0.74520000 0.66680000 -0.00780000
vn 0.48370000 0.48130000 0.73100000
vn -0.13700000 0.95260000 0.27180000
vn -0.14030000 0.99010000 0.00980000
vn -0.40970000 0.91140000 0.03930000
vn -0.30520000 0.95230000 0.00290000
vn -0.14940000 0.98880000 0.00370000
vn -0.23820000 0.65270000 0.71920000
vn -0.60310000 0.79700000 0.03330000
vn -0.17790000 0.34380000 0.92200000
vn -0.23820000 0.65270000 0.71920000
vn -0.15330000 0.37290000 0.91510000
vn -0.40970000 0.91140000 0.03930000
vn -0.28110000 0.32980000 0.90120000
vn -0.48900000 0.87220000 0.01400000
vn -0.83400000 0.55080000 0.03260000
vn -0.31030000 0.29750000 0.90290000
vn -0.28110000 0.32980000 0.90120000
vn -0.62570000 0.77990000 0.01880000
vn -0.60310000 0.79700000 0.03330000
vn -0.78340000 0.56150000 0.26640000
vn -0.76310000 0.64630000 0.00950000
vn -0.80870000 0.58820000 0.00200000
vn -0.80870000 0.58820000 0.00200000
vn -0.78340000 0.56150000 0.26640000
vn -0.83600000 0.34470000 0.42700000
vn -0.91900000 0.39360000 0.02010000
vn -0.83600000 0.34470000 0.42700000
vn -0.93340000 0.35900000 0.00210000
vn -0.91900000 0.39360000 0.02010000
vn -0.62240000 0.19540000 0.75790000
vn -0.84130000 0.13220000 0.52420000
vn -0.98820000 0.15010000 0.03170000
vn -0.97300000 0.23080000 0.00320000
vn -0.80560000 -0.07620000 0.58750000
vn -0.84130000 0.13220000 0.52420000
vn -0.99990000 -0.00800000 -0.00680000
vn -0.98820000 0.15010000 0.03170000
vn -0.68410000 -0.03130000 0.72870000
vn -0.99570000 -0.08920000 0.02350000
vn -0.92570000 -0.37780000 0.02110000
vn -0.98730000 -0.15910000 0.00480000
vn -0.99570000 -0.08920000 0.02350000
vn -0.80560000 -0.07620000 0.58750000
vn -0.76440000 -0.26890000 0.58600000
vn -0.76440000 -0.26890000 0.58600000
vn -0.53780000 -0.43980000 0.71930000
vn -0.92160000 -0.38800000 0.01490000
vn -0.92570000 -0.37780000 0.02110000
vn -0.83300000 -0.55270000 0.02580000
vn -0.84500000 -0.53440000 0.01640000
vn -0.39020000 -0.18430000 0.90210000
vn -0.33410000 -0.23580000 0.91250000
vn -0.83300000 -0.55270000 0.02580000
vn -0.63160000 -0.77530000 -0.00350000
vn -0.65540000 -0.75460000 -0.03180000
vn -0.58660000 -0.68450000 0.43280000
vn -0.53780000 -0.43980000 0.71930000
vn 0.53620000 0.84410000 0.00310000
vn 0.63090000 0.77540000 0.02610000
vn 0.25930000 0.53950000 0.80110000
vn 0.48370000 0.48130000 0.73100000
vn 0.52410000 0.85160000 0.01040000
vn 0.19480000 0.34480000 0.91820000
vn 0.30340000 0.30090000 0.90410000
vn 0.31110000 0.95010000 0.02340000
vn 0.52410000 0.85160000 0.01040000
vn 0.25930000 0.53950000 0.80110000
vn 0.24820000 0.78010000 0.57430000
vn 0.69750000 -0.71650000 0.01450000
vn 0.63510000 -0.64550000 0.42410000
vn 0.54420000 -0.37820000 0.74890000
vn 0.80430000 -0.43000000 0.41000000
vn 0.88210000 -0.47100000 0.01140000
vn 0.88210000 -0.47100000 0.01140000
vn 0.69750000 -0.71650000 0.01450000
vn 0.64250000 -0.76540000 -0.03640000
vn -0.00000000 -0.00000000 -1.00000000
vn 0.89380000 -0.44840000 -0.00660000
vn 0.80430000 -0.43000000 0.41000000
vn 0.88210000 -0.47100000 0.01140000
vn 0.89380000 -0.44840000 -0.00660000
vn 0.78980000 -0.18860000 0.58370000
vn 0.97080000 -0.23950000 0.01650000
vn 0.97780000 -0.20970000 0.00150000
vn 0.97080000 -0.23950000 0.01650000
vn 0.89380000 -0.44840000 -0.00660000
vn -0.00000000 -0.00000000 -1.00000000
vn 0.99960000 0.00500000 0.02770000
vn 0.68190000 -0.12780000 0.72020000
vn 0.97780000 -0.20970000 0.00150000
vn 0.78980000 -0.18860000 0.58370000
vn 0.99670000 -0.08170000 0.00030000
vn 0.97080000 -0.23950000 0.01650000
vn -0.00000000 -0.00000000 -1.00000000
vn 0.97780000 -0.20970000 0.00150000
vn 0.99670000 -0.08170000 0.00030000
vn 0.99450000 0.10130000 0.02540000
vn 0.99670000 -0.08170000 0.00030000
vn 0.99960000 0.00500000 0.02770000
vn -0.00000000 -0.00000000 -1.00000000
vn 0.99960000 0.00500000 0.02770000
vn 0.98970000 0.13920000 0.03380000
vn 0.68190000 -0.12780000 0.72020000
vn 0.80940000 0.16610000 0.56320000
vn 0.40650000 -0.05580000 0.91190000
vn 0.38550000 0.01130000 0.92260000
vn 0.99450000 0.10130000 0.02540000
vn -0.00000000 -0.00000000 -1.00000000
vn 0.98970000 0.13920000 0.03380000
vn 0.99450000 0.10130000 0.02540000
vn 0.96720000 0.25310000 -0.02200000
vn 0.98970000 0.13920000 0.03380000
vn 0.96720000 0.25310000 -0.02200000
vn 0.83690000 0.54010000 0.08860000
vn 0.88330000 0.46780000 0.03230000
vn 0.80940000 0.16610000 0.56320000
vn 0.72050000 0.32000000 0.61520000
vn 0.83690000 0.54010000 0.08860000
vn 0.96720000 0.25310000 -0.02200000
vn -0.00000000 -0.00000000 -1.00000000
vn -0.00000000 -0.00000000 -1.00000000
vn 0.83690000 0.54010000 0.08860000
vn 0.74520000 0.66680000 -0.00780000
vn 0.88330000 0.46780000 0.03230000
vn 0.78180000 0.62330000 0.01880000
vn 0.78180000 0.62330000 0.01880000
vn 0.48370000 0.48130000 0.73100000
vn 0.72050000 0.32000000 0.61520000
vn 0.34010000 0.20670000 0.91740000
vn 0.30340000 0.30090000 0.90410000
vn 0.88330000 0.46780000 0.03230000
vn 0.53620000 0.84410000 0.00310000
vn 0.74520000 0.66680000 -0.00780000
vn 0.63090000 0.77540000 0.02610000
vn -0.00000000 -0.00000000 -1.00000000
vn -0.00000000 -0.00000000 -1.00000000
vn 0.31110000 0.95010000 0.02340000
vn 0.20180000 0.97900000 -0.02870000
vn 0.52410000 0.85160000 0.01040000
vn 0.53620000 0.84410000 0.00310000
vn 0.11440000 0.99330000 0.01610000
vn -0.00000000 -0.00000000 -1.00000000
vn -0.14030000 0.99010000 0.00980000
vn -0.14940000 0.98880000 0.00370000
vn 0.20180000 0.97900000 -0.02870000
vn -0.00000000 -0.00000000 -1.00000000
vn -0.14030000 0.99010000 0.00980000
vn -0.30520000 0.95230000 0.00290000
vn -0.48900000 0.87220000 0.01400000
vn -0.30520000 0.95230000 0.00290000
vn -0.40970000 0.91140000 0.03930000
vn -0.00000000 -0.00000000 -1.00000000
vn -0.62570000 0.77990000 0.01880000
vn -0.60310000 0.79700000 0.03330000
vn -0.00000000 -0.00000000 -1.00000000
vn -0.48900000 0.87220000 0.01400000
vn -0.00000000 -0.00000000 -1.00000000
vn -0.62570000 0.77990000 0.01880000
vn -0.76310000 0.64630000 0.00950000
vn 0.35440000 -0.93460000 0.03110000
vn 0.64250000 -0.76540000 -0.03640000
vn -0.00000000 -0.00000000 -1.00000000
vn 0.30110000 -0.95360000 -0.00480000
vn 0.48390000 -0.87400000 0.04390000
vn 0.10790000 -0.99420000 0.00140000
vn 0.30110000 -0.95360000 -0.00480000
vn -0.00000000 -0.00000000 -1.00000000
vn -0.24780000 -0.96800000 -0.03910000
vn 0.05500000 -0.99800000 0.03190000
vn 0.10790000 -0.99420000 0.00140000
vn -0.00000000 -0.00000000 -1.00000000
vn -0.18640000 -0.98250000 0.00060000
vn -0.00000000 -0.00000000 -1.00000000
vn -0.43490000 -0.89950000 0.04120000
vn -0.65540000 -0.75460000 -0.03180000
vn -0.24780000 -0.96800000 -0.03910000
vn -0.63160000 -0.77530000 -0.00350000
vn -0.38910000 -0.92070000 0.03120000
vn -0.00000000 -0.00000000 -1.00000000
vn -0.84500000 -0.53440000 0.01640000
vn -0.83300000 -0.55270000 0.02580000
vn -0.63160000 -0.77530000 -0.00350000
vn -0.83400000 0.55080000 0.03260000
vn -0.76310000 0.64630000 0.00950000
vn -0.00000000 -0.00000000 -1.00000000
vn -0.83400000 0.55080000 0.03260000
vn -0.80870000 0.58820000 0.00200000
vn -0.91900000 0.39360000 0.02010000
vn -0.00000000 -0.00000000 -1.00000000
vn -0.93340000 0.35900000 0.00210000
vn 0.00010000 -0.00000000 -1.00000000
vn -0.92160000 -0.38800000 0.01490000
vn -0.84500000 -0.53440000 0.01640000
vn -0.00000000 -0.00000000 -1.00000000
vn -0.97300000 0.23080000 0.00320000
vn -0.93340000 0.35900000 0.00210000
vn -0.00000000 -0.00000000 -1.00000000
vn -0.98730000 -0.15910000 0.00480000
vn -0.92160000 -0.38800000 0.01490000
vn -0.92570000 -0.37780000 0.02110000
vn -0.00000000 -0.00000000 -1.00000000
vn -0.99990000 -0.00800000 -0.00680000
vn 0.00010000 -0.00000000 -1.00000000
vn -0.00000000 -0.00000000 -1.00000000
vn -0.98730000 -0.15910000 0.00480000
vn -0.99570000 -0.08920000 0.02350000
vn -0.00000000 -0.00000000 -1.00000000
vn -0.97300000 0.23080000 0.00320000
vn -0.99990000 -0.00800000 -0.00680000
vn -0.98820000 0.15010000 0.03170000
vn 0.00010000 -0.00000000 -1.00000000
vn -0.58660000 -0.68450000 0.43280000
vn -0.41420000 -0.64700000 0.64020000
vn -0.65540000 -0.75460000 -0.03180000
vn -0.43490000 -0.89950000 0.04120000
vn -0.17750000 -0.33800000 0.92420000
vn -0.38910000 -0.92070000 0.03120000
vn -0.16800000 -0.74950000 0.64030000
vn -0.14590000 -0.34420000 0.92750000
vn -0.43490000 -0.89950000 0.04120000
vn -0.41420000 -0.64700000 0.64020000
vn -0.16800000 -0.74950000 0.64030000
vn -0.14700000 -0.79070000 0.59440000
vn -0.24780000 -0.96800000 -0.03910000
vn -0.18640000 -0.98250000 0.00060000
vn -0.38910000 -0.92070000 0.03120000
vn 0.10790000 -0.99420000 0.00140000
vn 0.35440000 -0.93460000 0.03110000
vn 0.05500000 -0.99800000 0.03190000
vn 0.05110000 -0.92140000 0.38530000
vn 0.30110000 -0.95360000 -0.00480000
vn 0.17540000 -0.67580000 0.71590000
vn 0.20880000 -0.34450000 0.91530000
vn 0.48390000 -0.87400000 0.04390000
vn 0.35440000 -0.93460000 0.03110000
vn 0.17710000 -0.34220000 0.92280000
vn 0.12240000 -0.38600000 0.91430000
vn 0.39290000 -0.56460000 0.72580000
vn 0.17540000 -0.67580000 0.71590000
vn 0.69750000 -0.71650000 0.01450000
vn 0.39290000 -0.56460000 0.72580000
vn 0.63510000 -0.64550000 0.42410000
vn 0.48390000 -0.87400000 0.04390000
vn 0.64250000 -0.76540000 -0.03640000
vn 0.05500000 -0.99800000 0.03190000
vn -0.04440000 -0.73090000 0.68100000
vn -0.18640000 -0.98250000 0.00060000
vn -0.14700000 -0.79070000 0.59440000
vn 0.05110000 -0.92140000 0.38530000
vn 0.17540000 -0.67580000 0.71590000
vn 0.05110000 -0.92140000 0.38530000
vn -0.04440000 -0.73090000 0.68100000
vn 0.00560000 -0.37730000 0.92610000
vn 0.12240000 -0.38600000 0.91430000
vn -0.58660000 -0.68450000 0.43280000
vn -0.33410000 -0.23580000 0.91250000
vn -0.53780000 -0.43980000 0.71930000
vn -0.28010000 -0.23610000 0.93050000
vn -0.17750000 -0.33800000 0.92420000
vn -0.41420000 -0.64700000 0.64020000
vn 0.54420000 -0.37820000 0.74890000
vn 0.20880000 -0.34450000 0.91530000
vn 0.63510000 -0.64550000 0.42410000
vn 0.39290000 -0.56460000 0.72580000
vn 0.33200000 -0.22870000 0.91510000
vn 0.33200000 -0.22870000 0.91510000
vn 0.80430000 -0.43000000 0.41000000
vn 0.68190000 -0.12780000 0.72020000
vn 0.78980000 -0.18860000 0.58370000
vn 0.40650000 -0.05580000 0.91190000
vn 0.54420000 -0.37820000 0.74890000
vn 0.32370000 -0.17190000 0.93040000
vn 0.80940000 0.16610000 0.56320000
vn 0.30320000 0.08930000 0.94880000
vn 0.38550000 0.01130000 0.92260000
vn 0.34010000 0.20670000 0.91740000
vn 0.72050000 0.32000000 0.61520000
vn -0.14700000 -0.79070000 0.59440000
vn -0.04440000 -0.73090000 0.68100000
vn -0.16800000 -0.74950000 0.64030000
vn 0.00560000 -0.37730000 0.92610000
vn -0.06740000 -0.32680000 0.94270000
vn -0.14590000 -0.34420000 0.92750000
vn -0.28010000 -0.23610000 0.93050000
vn -0.19370000 -0.05060000 0.97970000
vn -0.39340000 -0.02020000 0.91910000
vn -0.37720000 -0.00410000 0.92610000
vn -0.33410000 -0.23580000 0.91250000
vn -0.39020000 -0.18430000 0.90210000
vn -0.68410000 -0.03130000 0.72870000
vn -0.84130000 0.13220000 0.52420000
vn -0.62240000 0.19540000 0.75790000
vn -0.37720000 -0.00410000 0.92610000
vn -0.39340000 -0.02020000 0.91910000
vn -0.37820000 0.13010000 0.91650000
vn -0.15980000 -0.03260000 0.98660000
vn -0.19370000 -0.05060000 0.97970000
vn -0.37720000 -0.00410000 0.92610000
vn -0.14840000 0.12030000 0.98160000
vn -0.32680000 0.17300000 0.92910000
vn -0.37820000 0.13010000 0.91650000
vn -0.32680000 0.17300000 0.92910000
vn -0.31030000 0.29750000 0.90290000
vn -0.83600000 0.34470000 0.42700000
vn -0.78340000 0.56150000 0.26640000
vn -0.37820000 0.13010000 0.91650000
vn -0.62240000 0.19540000 0.75790000
vn -0.12030000 0.14840000 0.98160000
vn -0.17790000 0.34380000 0.92200000
vn -0.31030000 0.29750000 0.90290000
vn -0.14840000 0.12030000 0.98160000
vn -0.32680000 0.17300000 0.92910000
vn -0.28110000 0.32980000 0.90120000
vn -0.02330000 -0.08730000 0.99590000
vn -0.19370000 -0.05060000 0.97970000
vn -0.28010000 -0.23610000 0.93050000
vn -0.15980000 -0.03260000 0.98660000
vn -0.06740000 -0.32680000 0.94270000
vn -0.14590000 -0.34420000 0.92750000
vn 0.01340000 -0.12810000 0.99170000
vn -0.17750000 -0.33800000 0.92420000
vn -0.00030000 0.38450000 0.92310000
vn -0.12030000 0.14840000 0.98160000
vn -0.15330000 0.37290000 0.91510000
vn 0.09050000 0.30300000 0.94870000
vn -0.17790000 0.34380000 0.92200000
vn 0.03570000 0.16000000 0.98650000
vn 0.06270000 0.17540000 0.98250000
vn -0.02330000 -0.08730000 0.99590000
vn -0.14840000 0.12030000 0.98160000
vn -0.12030000 0.14840000 0.98160000
vn -0.15980000 -0.03260000 0.98660000
vn 0.03570000 0.16000000 0.98650000
vn 0.01340000 -0.12810000 0.99170000
vn 0.11740000 -0.13820000 0.98340000
vn -0.06740000 -0.32680000 0.94270000
vn 0.17710000 -0.34220000 0.92280000
vn 0.00560000 -0.37730000 0.92610000
vn 0.12240000 -0.38600000 0.91430000
vn 0.09050000 0.30300000 0.94870000
vn 0.19480000 0.34480000 0.91820000
vn -0.00030000 0.38450000 0.92310000
vn 0.24820000 0.78010000 0.57430000
vn 0.25930000 0.53950000 0.80110000
vn 0.03500000 0.70580000 0.70750000
vn 0.06920000 0.77400000 0.62940000
vn 0.06270000 0.17540000 0.98250000
vn 0.01340000 -0.12810000 0.99170000
vn 0.03570000 0.16000000 0.98650000
vn 0.22680000 0.07320000 0.97120000
vn -0.02330000 -0.08730000 0.99590000
vn 0.14860000 -0.12050000 0.98150000
vn 0.11740000 -0.13820000 0.98340000
vn 0.30320000 0.08930000 0.94880000
vn 0.22680000 0.07320000 0.97120000
vn 0.06270000 0.17540000 0.98250000
vn 0.34010000 0.20670000 0.91740000
vn 0.09050000 0.30300000 0.94870000
vn 0.30340000 0.30090000 0.90410000
vn 0.19480000 0.34480000 0.91820000
vn 0.32370000 -0.17190000 0.93040000
vn 0.17710000 -0.34220000 0.92280000
vn 0.20880000 -0.34450000 0.91530000
vn 0.33200000 -0.22870000 0.91510000
vn 0.14860000 -0.12050000 0.98150000
vn 0.11740000 -0.13820000 0.98340000
vn 0.40650000 -0.05580000 0.91190000
vn 0.38550000 0.01130000 0.92260000
vn 0.30320000 0.08930000 0.94880000
vn 0.22680000 0.07320000 0.97120000
vn 0.14860000 -0.12050000 0.98150000
vn 0.32370000 -0.17190000 0.93040000
vn 0.03500000 0.70580000 0.70750000
vn -0.15330000 0.37290000 0.91510000
vn -0.23820000 0.65270000 0.71920000
vn -0.00030000 0.38450000 0.92310000
vn -0.13700000 0.95260000 0.27180000
vn -0.39020000 -0.18430000 0.90210000
vn -0.68410000 -0.03130000 0.72870000
vn -0.80560000 -0.07620000 0.58750000
vn -0.76440000 -0.26890000 0.58600000
vn -0.39340000 -0.02020000 0.91910000
vt 0.04812000 0.98248100
vt 0.04812000 0.98248100
vt 0.04812000 0.98248100
vt 0.50826500 0.95661400
vt 0.04812000 0.98248100
vt 0.50695300 0.95727700
vt 0.04807800 0.98134100
vt 0.58079700 0.96921500
vt 0.58079700 0.96921500
vt 0.50695300 0.95727700
vt 0.04811800 0.98603800
vt 0.04811800 0.98603800
vt 0.04811800 0.98603800
vt 0.51069700 0.95380500
vt 0.58076700 0.97057500
vt 0.58076700 0.97057500
vt 0.58076700 0.97057500
vt 0.58076700 0.97057500
vt 0.58076700 0.97057500
vt 0.50535500 0.95760500
vt 0.58065500 0.97215300
vt 0.50370300 0.95748500
vt 0.50370300 0.95748500
vt 0.50370300 0.95748500
vt 0.58065500 0.97215300
vt 0.50370300 0.95748500
vt 0.58065500 0.97215300
vt 0.58071400 0.97394300
vt 0.50198300 0.95696400
vt 0.50198300 0.95696400
vt 0.58071400 0.97394300
vt 0.58071400 0.97394300
vt 0.58071400 0.97394300
vt 0.58071400 0.97394300
vt 0.58071400 0.97394300
vt 0.58075900 0.97554600
vt 0.58075900 0.97554600
vt 0.58075900 0.97554600
vt 0.58075900 0.97554600
vt 0.58080300 0.97689600
vt 0.58080300 0.97689600
vt 0.58080300 0.97689600
vt 0.49960000 0.95497500
vt 0.58080300 0.97689600
vt 0.58080300 0.97689600
vt 0.58080300 0.97689600
vt 0.98839900 0.68930800
vt 0.58078700 0.97810400
vt 0.98839900 0.68930800
vt 0.58078700 0.97810400
vt 0.49884800 0.95360900
vt 0.98839900 0.68930800
vt 0.98842900 0.69060900
vt 0.98842900 0.69060900
vt 0.98842900 0.69060900
vt 0.98842900 0.69060900
vt 0.98842900 0.69060900
vt 0.98832200 0.69222500
vt 0.49847000 0.95022500
vt 0.98832200 0.69222500
vt 0.98832200 0.69222500
vt 0.98832200 0.69222500
vt 0.98832200 0.69222500
vt 0.49847000 0.95022500
vt 0.49847000 0.95022500
vt 0.98847500 0.69363600
vt 0.98847500 0.69363600
vt 0.98847500 0.69363600
vt 0.98847500 0.69363600
vt 0.49879900 0.94882200
vt 0.04823100 0.98492800
vt 0.04823100 0.98492800
vt 0.51012400 0.95476500
vt 0.51012400 0.95476500
vt 0.04823100 0.98492800
vt 0.51012400 0.95476500
vt 0.51012400 0.95476500
vt 0.04813400 0.98369900
vt 0.04813400 0.98369900
vt 0.50934200 0.95576200
vt 0.04813400 0.98369900
vt 0.98835700 0.93531700
vt 0.98835700 0.93531700
vt 0.50833800 0.94574200
vt 0.98835700 0.93531700
vt 0.98835700 0.93531700
vt 0.99099500 0.93529800
vt 0.99099500 0.93529800
vt 0.99099500 0.93529800
vt 0.69786900 0.44161800
vt 0.99099500 0.93529800
vt 0.98834900 0.93707900
vt 0.98834900 0.93707900
vt 0.98834900 0.93707900
vt 0.98834900 0.93707900
vt 0.98834900 0.93707900
vt 0.99098800 0.93733500
vt 0.99098800 0.93733500
vt 0.99098800 0.93733500
vt 0.69578300 0.44112500
vt 0.04807200 0.99105800
vt 0.51058400 0.94825600
vt 0.98835700 0.93841700
vt 0.98835700 0.93841700
vt 0.98835700 0.93841700
vt 0.98835700 0.93841700
vt 0.69451800 0.44115300
vt 0.99098000 0.93840100
vt 0.99098000 0.93840100
vt 0.04544600 0.99051200
vt 0.99097500 0.93905500
vt 0.04544600 0.99051200
vt 0.69367300 0.44128100
vt 0.04823600 0.99041300
vt 0.04823600 0.99041300
vt 0.51088400 0.94909700
vt 0.04823600 0.99041300
vt 0.51088400 0.94909700
vt 0.51088400 0.94909700
vt 0.04823600 0.99041300
vt 0.69302200 0.44150800
vt 0.04544400 0.98997300
vt 0.04544400 0.98997300
vt 0.04544400 0.98997300
vt 0.04805100 0.98891400
vt 0.04805100 0.98891400
vt 0.04805100 0.98891400
vt 0.04805100 0.98891400
vt 0.04805100 0.98891400
vt 0.04805100 0.98891400
vt 0.04543900 0.98808500
vt 0.04543900 0.98808500
vt 0.69110500 0.44252700
vt 0.69053900 0.44311800
vt 0.04543900 0.98728300
vt 0.04543900 0.98728300
vt 0.04543900 0.98728300
vt 0.04543900 0.98728300
vt 0.04822600 0.98707000
vt 0.51102100 0.95281900
vt 0.04822600 0.98707000
vt 0.51102100 0.95281900
vt 0.51102100 0.95281900
vt 0.04822600 0.98707000
vt 0.04543900 0.98546000
vt 0.04543900 0.98546000
vt 0.04543900 0.98546000
vt 0.68949600 0.44461600
vt 0.68885200 0.44647800
vt 0.04544200 0.98354200
vt 0.04544200 0.98354200
vt 0.04544200 0.98354200
vt 0.04544200 0.98354200
vt 0.04545000 0.98140500
vt 0.68892900 0.44905700
vt 0.58342400 0.96909600
vt 0.58342400 0.96909600
vt 0.04545000 0.98140500
vt 0.68953100 0.45059200
vt 0.58343600 0.97046200
vt 0.58343600 0.97046200
vt 0.58344200 0.97135400
vt 0.58344200 0.97135400
vt 0.58344200 0.97135400
vt 0.69003700 0.45143000
vt 0.58344800 0.97252200
vt 0.58344800 0.97252200
vt 0.69084900 0.45231200
vt 0.58344800 0.97252200
vt 0.69186000 0.45310000
vt 0.58345300 0.97380200
vt 0.58345300 0.97380200
vt 0.99099500 0.93236600
vt 0.99099500 0.93236600
vt 0.70023100 0.44337500
vt 0.99099500 0.93236600
vt 0.99099500 0.93236600
vt 0.99098900 0.93081200
vt 0.99098900 0.93081200
vt 0.70113200 0.44488200
vt 0.99112300 0.69848300
vt 0.99098200 0.92969500
vt 0.99098200 0.92969500
vt 0.70161400 0.44623900
vt 0.99112300 0.69848300
vt 0.70156200 0.44915200
vt 0.99112300 0.69597700
vt 0.99112300 0.69597700
vt 0.99112300 0.69597700
vt 0.99112300 0.69597700
vt 0.99112300 0.69597700
vt 0.70041700 0.45151900
vt 0.99111000 0.69336200
vt 0.99111000 0.69336200
vt 0.99111000 0.69336200
vt 0.58345400 0.97446500
vt 0.58345400 0.97446500
vt 0.69245600 0.45340300
vt 0.58345700 0.97575300
vt 0.58345700 0.97575300
vt 0.58345700 0.97575300
vt 0.69370600 0.45386000
vt 0.58345700 0.97575300
vt 0.69959900 0.45235600
vt 0.99110100 0.69222000
vt 0.99110100 0.69222000
vt 0.69959900 0.45235600
vt 0.58345700 0.97691000
vt 0.58345700 0.97691000
vt 0.69499000 0.45403300
vt 0.99108600 0.69074200
vt 0.99108600 0.69074200
vt 0.99108600 0.69074200
vt 0.69831200 0.45329800
vt 0.99107700 0.69001300
vt 0.69748100 0.45364100
vt 0.69748100 0.45364100
vt 0.99107700 0.69001300
vt 0.99107700 0.69001300
vt 0.69588800 0.45403300
vt 0.58345600 0.97765000
vt 0.99105800 0.68884200
vt 0.58345600 0.97765000
vt 0.69588800 0.45403300
vt 0.98850500 0.69528300
vt 0.98850500 0.69528300
vt 0.98850500 0.69528300
vt 0.98850500 0.69528300
vt 0.50048000 0.94647000
vt 0.98831800 0.69647600
vt 0.98831800 0.69647600
vt 0.50048000 0.94647000
vt 0.98831800 0.69647600
vt 0.98831800 0.69647600
vt 0.98847300 0.69711800
vt 0.98847300 0.69711800
vt 0.98847300 0.69711800
vt 0.98847300 0.69711800
vt 0.98847300 0.69711800
vt 0.98834700 0.93087600
vt 0.98834700 0.93087600
vt 0.98834700 0.93087600
vt 0.98834700 0.93087600
vt 0.98834700 0.93087600
vt 0.50389100 0.94476800
vt 0.50530400 0.94478700
vt 0.98819800 0.93216400
vt 0.98819800 0.93216400
vt 0.50530400 0.94478700
vt 0.50530400 0.94478700
vt 0.50530400 0.94478700
vt 0.50530400 0.94478700
vt 0.98833600 0.93345800
vt 0.50663900 0.94498600
vt 0.98833600 0.93345800
vt 0.98833600 0.93345800
vt 0.98833600 0.93345800
vt 0.98833500 0.92950100
vt 0.50211900 0.94531200
vt 0.98847900 0.69821300
vt 0.98847900 0.69821300
vt 0.98833500 0.92950100
vt 0.50318600 0.94509100
vt 0.98809600 0.93037500
vt 0.50318600 0.94509100
vt 0.50318600 0.94509100
vt 0.50318600 0.94509100
vt 0.98820200 0.69450700
vt 0.49934500 0.94811600
vt 0.49934500 0.94811600
vt 0.49934500 0.94811600
vt 0.49934500 0.94811600
vt 0.98820200 0.69450700
vt 0.50739100 0.94545400
vt 0.50739100 0.94545400
vt 0.98808500 0.93433700
vt 0.50739100 0.94545400
vt 0.50739100 0.94545400
vt 0.50941400 0.94685900
vt 0.98808800 0.93676500
vt 0.50941400 0.94685900
vt 0.98808800 0.93676500
vt 0.50941400 0.94685900
vt 0.50941400 0.94685900
vt 0.50941400 0.94685900
vt 0.04840000 0.98894300
vt 0.51102100 0.95076900
vt 0.51102100 0.95076900
vt 0.51102100 0.95076900
vt 0.04840000 0.98894300
vt 0.98815600 0.69765700
vt 0.50179800 0.94577800
vt 0.98815600 0.69765700
vt 0.50179800 0.94577800
vt 0.50179800 0.94577800
vt 0.50179800 0.94577800
vt 0.50025700 0.95128300
vt 0.50025700 0.95128300
vt 0.50025700 0.95128300
vt 0.50025700 0.95128300
vt 0.50025700 0.95128300
vt 0.50025700 0.95128300
vt 0.49926100 0.95403600
vt 0.58053700 0.97756100
vt 0.49926100 0.95403600
vt 0.49926100 0.95403600
vt 0.49926100 0.95403600
vt 0.49926100 0.95403600
vt 0.50155400 0.95328600
vt 0.50155400 0.95328600
vt 0.50155400 0.95328600
vt 0.50155400 0.95328600
vt 0.50155400 0.95328600
vt 0.50155400 0.95328600
vt 0.50076200 0.95609700
vt 0.50076200 0.95609700
vt 0.58060000 0.97540000
vt 0.58060000 0.97540000
vt 0.50076200 0.95609700
vt 0.50076200 0.95609700
vt 0.50298700 0.95513200
vt 0.50298700 0.95513200
vt 0.50298700 0.95513200
vt 0.50298700 0.95513200
vt 0.50298700 0.95513200
vt 0.50298700 0.95513200
vt 0.50206100 0.94932800
vt 0.50206100 0.94932800
vt 0.50206100 0.94932800
vt 0.50206100 0.94932800
vt 0.50206100 0.94932800
vt 0.50206100 0.94932800
vt 0.50206100 0.94932800
vt 0.50206100 0.94932800
vt 0.50532200 0.95502600
vt 0.50532200 0.95502600
vt 0.50532200 0.95502600
vt 0.50532200 0.95502600
vt 0.50532200 0.95502600
vt 0.50532200 0.95502600
vt 0.50532200 0.95502600
vt 0.50443600 0.95199100
vt 0.50443600 0.95199100
vt 0.50443600 0.95199100
vt 0.50443600 0.95199100
vt 0.50443600 0.95199100
vt 0.50431300 0.94733000
vt 0.50431300 0.94733000
vt 0.50431300 0.94733000
vt 0.50431300 0.94733000
vt 0.50431300 0.94733000
vt 0.50431300 0.94733000
vt 0.50827200 0.95636000
vt 0.50827200 0.95636000
vt 0.50827200 0.95636000
vt 0.04840000 0.98271600
vt 0.50827200 0.95636000
vt 0.50827200 0.95636000
vt 0.50827200 0.95636000
vt 0.50607700 0.95090000
vt 0.50607700 0.95090000
vt 0.50607700 0.95090000
vt 0.50607700 0.95090000
vt 0.50607700 0.95090000
vt 0.50607700 0.95090000
vt 0.50607700 0.95090000
vt 0.50860100 0.95290900
vt 0.50860100 0.95290900
vt 0.50860100 0.95290900
vt 0.50860100 0.95290900
vt 0.50860100 0.95290900
vt 0.50860100 0.95290900
vt 0.50860100 0.95290900
vt 0.50664100 0.94722000
vt 0.50664100 0.94722000
vt 0.50664100 0.94722000
vt 0.50664100 0.94722000
vt 0.50664100 0.94722000
vt 0.50664100 0.94722000
vt 0.50806600 0.94906400
vt 0.50806600 0.94906400
vt 0.50806600 0.94906400
vt 0.50806600 0.94906400
vt 0.50806600 0.94906400
vt 0.50806600 0.94906400
vt 0.50605400 0.95739900
vt 0.50605400 0.95739900
vt 0.50605400 0.95739900
vt 0.50605400 0.95739900
vt 0.58056400 0.97000400
vt 0.49858800 0.95194600
vt 0.49858800 0.95194600
vt 0.98817600 0.69071200
vt 0.98817600 0.69071200
vt 0.49858800 0.95194600
f 8/8/8 15/15/15 390/390/390
f 37/37/37 318/318/318 33/33/33
f 93/93/93 86/86/86 87/87/87
f 94/94/94 91/91/91 99/99/99
f 106/106/106 96/96/96 98/98/98
f 103/103/103 97/97/97 108/108/108
f 105/105/105 109/109/109 111/111/111
f 120/120/120 110/110/110 123/123/123
f 114/114/114 101/101/101 112/112/112
f 125/125/125 115/115/115 122/122/122
f 126/126/126 124/124/124 132/132/132
f 127/127/127 131/131/131 135/135/135
f 144/144/144 128/128/128 137/137/137
f 12/12/12 139/139/139 138/138/138
f 13/13/13 136/136/136 146/146/146
f 72/72/72 11/11/11 147/147/147
f 71/71/71 145/145/145 153/153/153
f 79/79/79 75/75/75 152/152/152
f 1/1/1 78/78/78 150/150/150
f 2/2/2 151/151/151 158/158/158
f 7/7/7 3/3/3 154/154/154
f 16/16/16 156/156/156 160/160/160
f 19/19/19 9/9/9 157/157/157
f 18/18/18 161/161/161 163/163/163
f 25/25/25 17/17/17 164/164/164
f 27/27/27 162/162/162 169/169/169
f 32/32/32 21/21/21 167/167/167
f 31/31/31 166/166/166 171/171/171
f 121/121/121 113/113/113 107/107/107
f 133/133/133 121/121/121 107/107/107
f 134/134/134 133/133/133 107/107/107
f 134/134/134 107/107/107 100/100/100
f 90/90/90 134/134/134 100/100/100
f 148/148/148 134/134/134 90/90/90
f 175/175/175 148/148/148 90/90/90
f 149/149/149 148/148/148 175/175/175
f 180/180/180 149/149/149 175/175/175
f 155/155/155 149/149/149 180/180/180
f 155/155/155 180/180/180 184/184/184
f 159/159/159 155/155/155 184/184/184
f 165/165/165 159/159/159 184/184/184
f 168/168/168 165/165/165 184/184/184
f 168/168/168 184/184/184 186/186/186
f 192/192/192 168/168/168 186/186/186
f 198/198/198 170/170/170 168/168/168
f 198/198/198 168/168/168 192/192/192
f 202/202/202 198/198/198 192/192/192
f 210/210/210 202/202/202 192/192/192
f 210/210/210 192/192/192 207/207/207
f 217/217/217 207/207/207 214/214/214
f 220/220/220 210/210/210 207/207/207
f 224/224/224 204/204/204 216/216/216
f 34/34/34 172/172/172 197/197/197
f 28/28/28 196/196/196 199/199/199
f 36/36/36 35/35/35 200/200/200
f 42/42/42 39/39/39 201/201/201
f 41/41/41 203/203/203 209/209/209
f 46/46/46 208/208/208 221/221/221
f 50/50/50 45/45/45 223/223/223
f 49/49/49 222/222/222 215/215/215
f 55/55/55 52/52/52 219/219/219
f 54/54/54 218/218/218 211/211/211
f 61/61/61 53/53/53 213/213/213
f 60/60/60 212/212/212 205/205/205
f 63/63/63 206/206/206 193/193/193
f 66/66/66 62/62/62 194/194/194
f 67/67/67 195/195/195 190/190/190
f 227/227/227 68/68/68 188/188/188
f 233/233/233 228/228/228 187/187/187
f 239/239/239 230/230/230 191/191/191
f 237/237/237 189/189/189 181/181/181
f 260/260/260 238/238/238 185/185/185
f 242/242/242 258/258/258 182/182/182
f 240/240/240 183/183/183 178/178/178
f 244/244/244 179/179/179 176/176/176
f 248/248/248 241/241/241 173/173/173
f 256/256/256 247/247/247 177/177/177
f 257/257/257 174/174/174 89/89/89
f 82/82/82 253/253/253 88/88/88
f 225/225/225 268/268/268 69/69/69
f 252/252/252 263/263/263 245/245/245
f 277/277/277 251/251/251 254/254/254
f 276/276/276 255/255/255 83/83/83
f 284/284/284 274/274/274 84/84/84
f 280/280/280 85/85/85 92/92/92
f 282/282/282 95/95/95 104/104/104
f 116/116/116 281/281/281 102/102/102
f 286/286/286 117/117/117 129/129/129
f 290/290/290 130/130/130 141/141/141
f 140/140/140 14/14/14 74/74/74
f 234/234/234 273/273/273 226/226/226
f 293/293/293 231/231/231 235/235/235
f 291/291/291 236/236/236 261/261/261
f 265/265/265 292/292/292 259/259/259
f 264/264/264 262/262/262 243/243/243
f 299/299/299 307/307/307 395/395/395
f 314/314/314 319/319/319 308/308/308
f 311/311/311 306/306/306 300/300/300
f 301/301/301 65/65/65 269/269/269
f 302/302/302 391/391/391 64/64/64
f 323/323/323 29/29/29 316/316/316
f 326/326/326 26/26/26 30/30/30
f 325/325/325 315/315/315 313/313/313
f 329/329/329 297/297/297 271/271/271
f 334/334/334 272/272/272 229/229/229
f 328/328/328 310/310/310 298/298/298
f 337/337/337 387/387/387 24/24/24
f 339/339/339 22/22/22 322/322/322
f 343/343/343 324/324/324 312/312/312
f 345/345/345 309/309/309 330/330/330
f 296/296/296 332/332/332 232/232/232
f 349/349/349 331/331/331 295/295/295
f 336/336/336 321/321/321 344/344/344
f 355/355/355 389/389/389 335/335/335
f 364/364/364 342/342/342 327/327/327
f 361/361/361 333/333/333 347/347/347
f 351/351/351 294/294/294 266/266/266
f 352/352/352 267/267/267 250/250/250
f 362/362/362 340/340/340 346/346/346
f 369/369/369 341/341/341 360/360/360
f 371/371/371 353/353/353 338/338/338
f 373/373/373 76/76/76 354/354/354
f 372/372/372 143/143/143 77/77/77
f 379/379/379 366/366/366 348/348/348
f 384/384/384 365/365/365 378/378/378
f 377/377/377 278/278/278 279/279/279
f 376/376/376 246/246/246 275/275/275
f 375/375/375 350/350/350 249/249/249
f 368/368/368 363/363/363 383/383/383
f 370/370/370 289/289/289 142/142/142
f 385/385/385 374/374/374 285/285/285
f 380/380/380 283/283/283 118/118/118
f 287/287/287 367/367/367 382/382/382
f 288/288/288 381/381/381 119/119/119
f 23/23/23 388/388/388 20/20/20
f 317/317/317 38/38/38 40/40/40
f 304/304/304 44/44/44 48/48/48
f 305/305/305 320/320/320 43/43/43
f 393/393/393 47/47/47 56/56/56
f 303/303/303 51/51/51 392/392/392
f 394/394/394 57/57/57 58/58/58
f 270/270/270 59/59/59 70/70/70
f 357/357/357 73/73/73 80/80/80
f 356/356/356 81/81/81 5/5/5
f 359/359/359 4/4/4 10/10/10
f 386/386/386 358/358/358 6/6/6

