mtllib material.mtl
usemtl material_0
v 0.14135100 0.02870200 0.09409400
v 0.14135100 0.05475700 0.09832700
v 0.14135100 0.05562600 0.09409400
v 0.13931900 0.05948400 0.08914000
v 0.13931900 0.05948400 0.08914000
v 0.13931900 0.05948400 0.08914000
v 0.13931900 0.05948400 0.08914000
v 0.13931900 0.05800400 0.09069300
v 0.13931900 0.05800400 0.09069300
v 0.13931900 0.05800400 0.09069300
v 0.13931900 0.05800400 0.09069300
v 0.13931900 0.05857700 0.09156600
v 0.13931900 0.05857700 0.09156600
v 0.13931900 0.05857700 0.09156600
v 0.13931900 0.05857700 0.09156600
v 0.13931900 0.02870200 0.08896400
v 0.13931900 0.02870200 0.08896400
v 0.13931900 0.02870200 0.08896400
v 0.13931900 0.02870200 0.09409400
v 0.13931900 0.02870200 0.09409400
v 0.13931900 0.02870200 0.09409400
v 0.13931900 0.02870200 0.09409400
v 0.13931900 0.02870200 0.09409400
v 0.13931900 0.05562600 0.09409400
v 0.13931900 0.05562600 0.09409400
v 0.13931900 0.05562600 0.09409400
v 0.13931900 0.05677100 0.09152900
v 0.13931900 0.05677100 0.09152900
v 0.13931900 0.05677100 0.09152900
v 0.13931900 0.05677100 0.09152900
v 0.13931900 0.05720200 0.09231900
v 0.13931900 0.05720200 0.09231900
v 0.13931900 0.05720200 0.09231900
v 0.13931900 0.05720200 0.09231900
v 0.13931900 0.05562600 0.08896400
v 0.13931900 0.05562600 0.08896400
v 0.13931900 0.05562600 0.08896400
v 0.13931900 0.05562600 0.08896400
v 0.13931900 0.02487800 0.07114800
v 0.13931900 0.02487800 0.07114800
v 0.13931900 0.02487800 0.07114800
v 0.13931900 0.02487800 0.07114800
v 0.13931900 0.02879100 0.06752100
v 0.13931900 0.02879100 0.06752100
v 0.13931900 0.02879100 0.06752100
v 0.13931900 0.02879100 0.06752100
v 0.13931900 0.02879100 0.06752100
v 0.13931900 0.02978500 0.06671500
v 0.13931900 0.02978500 0.06671500
v 0.13931900 0.02978500 0.06671500
v 0.13931900 0.02978500 0.06671500
v 0.13931900 0.02602500 0.07292600
v 0.13931900 0.02602500 0.07292600
v 0.13931900 0.02602500 0.07292600
v 0.13931900 0.02602500 0.07292600
v 0.13931900 0.05454300 0.09838500
v 0.13931900 0.05454300 0.09838500
v 0.13931900 0.05454300 0.09838500
v 0.13931900 0.05454300 0.09838500
v 0.13931900 0.05553700 0.09757900
v 0.13931900 0.05553700 0.09757900
v 0.13931900 0.05553700 0.09757900
v 0.13931900 0.05553700 0.09757900
v 0.13931900 0.05553700 0.09757900
v 0.13931900 0.05945000 0.09395200
v 0.13931900 0.05945000 0.09395200
v 0.13931900 0.05945000 0.09395200
v 0.13931900 0.05945000 0.09395200
v 0.13931900 0.02581100 0.07377100
v 0.13931900 0.02581100 0.07377100
v 0.13931900 0.02581100 0.07377100
v 0.13931900 0.02581100 0.07377100
v 0.13931900 0.05807300 0.09230700
v 0.13931900 0.05807300 0.09230700
v 0.13931900 0.05807300 0.09230700
v 0.13931900 0.02721300 0.07279900
v 0.13931900 0.02721300 0.07279900
v 0.13931900 0.02721300 0.07279900
v 0.13931900 0.02721300 0.07279900
v 0.13931900 0.02870200 0.07100600
v 0.13931900 0.02870200 0.07100600
v 0.13931900 0.02870200 0.07100600
v 0.13931900 0.02484400 0.07596000
v 0.13931900 0.02484400 0.07596000
v 0.13931900 0.02484400 0.07596000
v 0.13931900 0.02484400 0.07596000
v 0.13931900 0.02629500 0.07438800
v 0.13931900 0.02629500 0.07438800
v 0.13931900 0.02629500 0.07438800
v 0.13931900 0.02629500 0.07438800
v 0.13931900 0.02742700 0.07415200
v 0.13931900 0.02742700 0.07415200
v 0.13931900 0.02742700 0.07415200
v 0.13931900 0.02742700 0.07415200
v 0.13931900 0.02870200 0.07613600
v 0.13931900 0.02870200 0.07613600
v 0.13931900 0.02870200 0.07613600
v 0.13931900 0.02870200 0.07613600
v 0.13931900 0.02487800 0.08910600
v 0.13931900 0.02487800 0.08910600
v 0.13931900 0.02487800 0.08910600
v 0.13931900 0.02487800 0.08910600
v 0.13931900 0.02623100 0.09076900
v 0.13931900 0.02623100 0.09076900
v 0.13931900 0.02623100 0.09076900
v 0.13931900 0.02623100 0.09076900
v 0.13931900 0.02572900 0.09161300
v 0.13931900 0.02572900 0.09161300
v 0.13931900 0.02572900 0.09161300
v 0.13931900 0.02572900 0.09161300
v 0.13931900 0.02701600 0.09069300
v 0.13931900 0.02701600 0.09069300
v 0.13931900 0.02701600 0.09069300
v 0.13931900 0.02701600 0.09069300
v 0.13931900 0.02484400 0.09391800
v 0.13931900 0.02484400 0.09391800
v 0.13931900 0.02484400 0.09391800
v 0.13931900 0.02484400 0.09391800
v 0.13931900 0.02752900 0.09132900
v 0.13931900 0.02752900 0.09132900
v 0.13931900 0.02752900 0.09132900
v 0.13931900 0.02752900 0.09132900
v 0.13931900 0.02655200 0.09242600
v 0.13931900 0.02655200 0.09242600
v 0.13931900 0.02655200 0.09242600
v 0.13931900 0.02655200 0.09242600
v 0.13931900 0.02737800 0.09207200
v 0.13931900 0.02737800 0.09207200
v 0.13931900 0.02737800 0.09207200
v 0.13931900 0.02737800 0.09207200
v 0.13931900 0.05551400 0.06749000
v 0.13931900 0.05551400 0.06749000
v 0.13931900 0.05551400 0.06749000
v 0.13931900 0.05551400 0.06749000
v 0.13931900 0.05457500 0.06672900
v 0.13931900 0.05457500 0.06672900
v 0.13931900 0.05457500 0.06672900
v 0.13931900 0.05562600 0.07100600
v 0.13931900 0.05562600 0.07100600
v 0.13931900 0.05562600 0.07100600
v 0.13931900 0.05562600 0.07100600
v 0.13931900 0.05562600 0.07100600
v 0.13931900 0.02875600 0.09737400
v 0.13931900 0.02875600 0.09737400
v 0.13931900 0.02875600 0.09737400
v 0.13931900 0.02951700 0.09831300
v 0.13931900 0.02951700 0.09831300
v 0.13931900 0.02951700 0.09831300
v 0.13931900 0.02951700 0.09831300
v 0.13931900 0.05711500 0.07286300
v 0.13931900 0.05711500 0.07286300
v 0.13931900 0.05711500 0.07286300
v 0.13931900 0.05711500 0.07286300
v 0.13931900 0.05948400 0.07118200
v 0.13931900 0.05948400 0.07118200
v 0.13931900 0.05948400 0.07118200
v 0.13931900 0.05948400 0.07118200
v 0.13931900 0.05677100 0.07357100
v 0.13931900 0.05677100 0.07357100
v 0.13931900 0.05677100 0.07357100
v 0.13931900 0.05677100 0.07357100
v 0.13931900 0.05800400 0.07273500
v 0.13931900 0.05800400 0.07273500
v 0.13931900 0.05800400 0.07273500
v 0.13931900 0.05800400 0.07273500
v 0.13931900 0.05857700 0.07360800
v 0.13931900 0.05857700 0.07360800
v 0.13931900 0.05857700 0.07360800
v 0.13931900 0.05857700 0.07360800
v 0.13931900 0.05562600 0.07613600
v 0.13931900 0.05562600 0.07613600
v 0.13931900 0.05562600 0.07613600
v 0.13931900 0.05720200 0.07436100
v 0.13931900 0.05720200 0.07436100
v 0.13931900 0.05720200 0.07436100
v 0.13931900 0.05720200 0.07436100
v 0.13931900 0.05945000 0.07599400
v 0.13931900 0.05945000 0.07599400
v 0.13931900 0.05945000 0.07599400
v 0.13931900 0.05945000 0.07599400
v 0.13931900 0.05807300 0.07434900
v 0.13931900 0.05807300 0.07434900
v 0.13931900 0.05807300 0.07434900
v 0.13931900 0.05807300 0.07434900
v 0.13931900 0.05711500 0.09082100
v 0.13931900 0.05711500 0.09082100
v 0.13931900 0.05711500 0.09082100
v 0.13931900 0.05711500 0.09082100
v 0.14135100 0.05948400 0.09391800
v 0.14135100 0.05948400 0.09391800
v 0.14135100 0.05948400 0.09391800
v 0.14135100 0.05948400 0.09391800
v 0.14135100 0.05945000 0.08910600
v 0.14135100 0.05945000 0.08910600
v 0.14135100 0.05945000 0.08910600
v 0.14135100 0.05945000 0.08910600
v 0.14135100 0.05562600 0.08896400
v 0.14135100 0.05562600 0.08896400
v 0.14135100 0.05562600 0.08896400
v 0.14135100 0.05562600 0.07613600
v 0.14135100 0.05562600 0.07613600
v 0.14135100 0.05562600 0.07613600
v 0.14135100 0.05562600 0.07613600
v 0.14135100 0.05948400 0.07596000
v 0.14135100 0.05948400 0.07596000
v 0.14135100 0.05948400 0.07596000
v 0.14135100 0.05948400 0.07596000
v 0.14135100 0.05945000 0.07114800
v 0.14135100 0.05945000 0.07114800
v 0.14135100 0.05945000 0.07114800
v 0.14135100 0.05945000 0.07114800
v 0.14135100 0.05562600 0.07100600
v 0.14135100 0.05562600 0.07100600
v 0.14135100 0.05562600 0.07100600
v 0.14135100 0.05557900 0.06771300
v 0.14135100 0.05557900 0.06771300
v 0.14135100 0.05557900 0.06771300
v 0.14135100 0.05557900 0.06771300
v 0.14135100 0.05472600 0.06675200
v 0.14135100 0.05472600 0.06675200
v 0.14135100 0.05472600 0.06675200
v 0.14135100 0.05472600 0.06675200
v 0.14135100 0.05472600 0.06675200
v 0.14135100 0.02971000 0.06673700
v 0.14135100 0.02971000 0.06673700
v 0.14135100 0.02971000 0.06673700
v 0.14135100 0.02971000 0.06673700
v 0.14135100 0.02880000 0.06754400
v 0.14135100 0.02880000 0.06754400
v 0.14135100 0.02880000 0.06754400
v 0.14135100 0.02870200 0.07100600
v 0.14135100 0.02870200 0.07100600
v 0.14135100 0.02870200 0.07100600
v 0.14135100 0.02870200 0.07100600
v 0.14135100 0.02870200 0.07100600
v 0.14135100 0.02484400 0.07118200
v 0.14135100 0.02484400 0.07118200
v 0.14135100 0.02484400 0.07118200
v 0.14135100 0.02484400 0.07118200
v 0.14135100 0.02487800 0.07599400
v 0.14135100 0.02487800 0.07599400
v 0.14135100 0.02487800 0.07599400
v 0.14135100 0.02487800 0.07599400
v 0.14135100 0.02870200 0.07613600
v 0.14135100 0.02870200 0.07613600
v 0.14135100 0.02870200 0.07613600
v 0.14135100 0.02870200 0.08896400
v 0.14135100 0.02870200 0.08896400
v 0.14135100 0.02870200 0.08896400
v 0.14135100 0.02870200 0.08896400
v 0.14135100 0.02484400 0.08914000
v 0.14135100 0.02484400 0.08914000
v 0.14135100 0.02484400 0.08914000
v 0.14135100 0.02484400 0.08914000
v 0.14135100 0.02487800 0.09395200
v 0.14135100 0.02487800 0.09395200
v 0.14135100 0.02487800 0.09395200
v 0.14135100 0.02487800 0.09395200
v 0.14135100 0.02870200 0.09409400
v 0.14135100 0.02870200 0.09409400
v 0.14135100 0.02870200 0.09409400
v 0.14135100 0.02874900 0.09738700
v 0.14135100 0.02874900 0.09738700
v 0.14135100 0.02874900 0.09738700
v 0.14135100 0.02874900 0.09738700
v 0.14135100 0.02874900 0.09738700
v 0.14135100 0.02960200 0.09834800
v 0.14135100 0.02960200 0.09834800
v 0.14135100 0.02960200 0.09834800
v 0.14135100 0.02960200 0.09834800
v 0.14135100 0.05475700 0.09832700
v 0.14135100 0.05475700 0.09832700
v 0.14135100 0.05475700 0.09832700
v 0.14135100 0.05475700 0.09832700
v 0.14135100 0.05556400 0.09741700
v 0.14135100 0.05556400 0.09741700
v 0.14135100 0.05556400 0.09741700
v 0.14135100 0.05562600 0.09409400
v 0.14135100 0.05562600 0.09409400
v 0.14135100 0.05562600 0.09409400
v 0.14135100 0.05562600 0.09409400
v 0.14135100 0.05562600 0.09409400
v 0.14135100 0.05855500 0.09141100
v 0.14135100 0.05855500 0.09141100
v 0.14135100 0.05855500 0.09141100
v 0.14135100 0.05855500 0.09141100
v 0.14135100 0.05703100 0.09215600
v 0.14135100 0.05703100 0.09215600
v 0.14135100 0.05703100 0.09215600
v 0.14135100 0.05703100 0.09215600
v 0.14135100 0.02588000 0.07311500
v 0.14135100 0.02588000 0.07311500
v 0.14135100 0.02588000 0.07311500
v 0.14135100 0.02588000 0.07311500
v 0.14135100 0.02675300 0.07267600
v 0.14135100 0.02675300 0.07267600
v 0.14135100 0.02675300 0.07267600
v 0.14135100 0.02675300 0.07267600
v 0.14135100 0.05801600 0.09239300
v 0.14135100 0.05801600 0.09239300
v 0.14135100 0.05801600 0.09239300
v 0.14135100 0.05801600 0.09239300
v 0.14135100 0.05801600 0.09239300
v 0.14135100 0.02595200 0.07412200
v 0.14135100 0.02595200 0.07412200
v 0.14135100 0.02595200 0.07412200
v 0.14135100 0.02595200 0.07412200
v 0.14135100 0.02756600 0.07333100
v 0.14135100 0.02756600 0.07333100
v 0.14135100 0.02756600 0.07333100
v 0.14135100 0.02756600 0.07333100
v 0.14135100 0.02702800 0.07443600
v 0.14135100 0.02702800 0.07443600
v 0.14135100 0.02702800 0.07443600
v 0.14135100 0.02702800 0.07443600
v 0.14135100 0.02663300 0.09061000
v 0.14135100 0.02663300 0.09061000
v 0.14135100 0.02663300 0.09061000
v 0.14135100 0.02663300 0.09061000
v 0.14135100 0.02584500 0.09118700
v 0.14135100 0.02584500 0.09118700
v 0.14135100 0.02584500 0.09118700
v 0.14135100 0.02584500 0.09118700
v 0.14135100 0.02595200 0.09208000
v 0.14135100 0.02595200 0.09208000
v 0.14135100 0.02595200 0.09208000
v 0.14135100 0.02595200 0.09208000
v 0.14135100 0.02748700 0.09115400
v 0.14135100 0.02748700 0.09115400
v 0.14135100 0.02748700 0.09115400
v 0.14135100 0.02748700 0.09115400
v 0.14135100 0.02682100 0.09241500
v 0.14135100 0.02682100 0.09241500
v 0.14135100 0.02682100 0.09241500
v 0.14135100 0.02682100 0.09241500
v 0.14135100 0.02744800 0.09194400
v 0.14135100 0.02744800 0.09194400
v 0.14135100 0.02744800 0.09194400
v 0.14135100 0.02744800 0.09194400
v 0.14135100 0.05692500 0.07305200
v 0.14135100 0.05692500 0.07305200
v 0.14135100 0.05692500 0.07305200
v 0.14135100 0.05692500 0.07305200
v 0.14135100 0.05786000 0.07267400
v 0.14135100 0.05786000 0.07267400
v 0.14135100 0.05786000 0.07267400
v 0.14135100 0.05786000 0.07267400
v 0.14135100 0.05855500 0.07345300
v 0.14135100 0.05855500 0.07345300
v 0.14135100 0.05855500 0.07345300
v 0.14135100 0.05855500 0.07345300
v 0.14135100 0.05742200 0.07445200
v 0.14135100 0.05742200 0.07445200
v 0.14135100 0.05742200 0.07445200
v 0.14135100 0.05742200 0.07445200
v 0.14135100 0.05681400 0.07382800
v 0.14135100 0.05681400 0.07382800
v 0.14135100 0.05681400 0.07382800
v 0.14135100 0.05681400 0.07382800
v 0.14135100 0.05826000 0.07421500
v 0.14135100 0.05826000 0.07421500
v 0.14135100 0.05826000 0.07421500
v 0.14135100 0.05826000 0.07421500
v 0.14135100 0.05677700 0.09129300
v 0.14135100 0.05677700 0.09129300
v 0.14135100 0.05677700 0.09129300
v 0.14135100 0.05677700 0.09129300
v 0.14135100 0.05774200 0.09058800
v 0.14135100 0.05774200 0.09058800
v 0.14135100 0.05774200 0.09058800
v 0.14135100 0.05774200 0.09058800
vn 1.00000000 -0.00000000 -0.00000000
vn 1.00000000 -0.00000000 -0.00000000
vn 1.00000000 -0.00000000 -0.00000000
vn -1.00000000 -0.00000000 -0.00000000
vn -0.01660000 0.99980000 0.00700000
vn 0.01660000 0.99980000 -0.00700000
vn -0.01590000 0.04570000 -0.99880000
vn 0.03300000 -0.83580000 0.54800000
vn -1.00000000 -0.00000000 -0.00000000
vn 0.06920000 0.14200000 0.98740000
vn -0.05550000 -0.71010000 0.70190000
vn -1.00000000 -0.00000000 -0.00000000
vn 0.00060000 -0.82710000 -0.56210000
vn -0.04600000 -0.87570000 -0.48060000
vn 0.03300000 -0.83580000 0.54800000
vn -0.00000000 -0.03730000 -0.99930000
vn -0.00000000 -1.00000000 -0.00000000
vn -1.00000000 -0.00000000 -0.00000000
vn -0.01590000 -0.04570000 0.99880000
vn -0.00390000 -0.99990000 0.01660000
vn -0.00000000 -0.99990000 0.01420000
vn -0.00000000 -0.03730000 0.99930000
vn -1.00000000 -0.00000000 -0.00000000
vn -0.00000000 0.99970000 0.02560000
vn -1.00000000 -0.00000000 -0.00000000
vn -0.00000000 0.03730000 0.99930000
vn -1.00000000 -0.00000000 -0.00000000
vn -0.03550000 0.95870000 -0.28210000
vn 0.03550000 0.87740000 -0.47850000
vn 0.04810000 0.89880000 0.43580000
vn -1.00000000 -0.00000000 -0.00000000
vn 0.04200000 -0.01340000 -0.99900000
vn -0.05810000 0.23390000 -0.97050000
vn 0.03550000 0.87740000 -0.47850000
vn -0.00000000 0.03730000 -0.99930000
vn -1.00000000 -0.00000000 -0.00000000
vn -0.00000000 1.00000000 -0.00000000
vn -0.01590000 0.04570000 -0.99880000
vn -0.00000000 -0.03730000 -0.99930000
vn -1.00000000 -0.00000000 -0.00000000
vn 0.01590000 -0.04570000 -0.99880000
vn -0.01660000 -0.99980000 -0.00700000
vn -1.00000000 -0.00000000 -0.00000000
vn 0.01110000 -0.66310000 -0.74840000
vn -0.00000000 -0.99970000 -0.02560000
vn 0.00440000 -0.99960000 -0.02820000
vn -0.01490000 -0.62970000 -0.77670000
vn -1.00000000 -0.00000000 -0.00000000
vn 0.01090000 0.00060000 -0.99990000
vn -0.01490000 -0.62970000 -0.77670000
vn 0.01080000 0.00060000 -0.99990000
vn 0.04620000 0.96830000 0.24560000
vn -1.00000000 -0.00000000 -0.00000000
vn -0.05100000 0.44830000 0.89240000
vn 0.08360000 0.10650000 0.99080000
vn 0.02820000 0.00080000 0.99960000
vn -1.00000000 -0.00000000 -0.00000000
vn -0.04450000 0.62910000 0.77600000
vn -0.01740000 -0.00290000 0.99980000
vn -0.04450000 0.62910000 0.77600000
vn -0.01200000 0.99980000 0.01860000
vn 0.04280000 0.74780000 0.66260000
vn -1.00000000 -0.00000000 -0.00000000
vn -0.00000000 0.99970000 0.02560000
vn -0.01660000 0.99980000 0.00700000
vn -1.00000000 -0.00000000 -0.00000000
vn -0.00000000 0.03730000 0.99930000
vn 0.01590000 0.04570000 0.99880000
vn 0.04620000 0.96830000 0.24560000
vn -0.05690000 0.99590000 -0.07100000
vn 0.05200000 0.78570000 -0.61640000
vn -1.00000000 -0.00000000 -0.00000000
vn -1.00000000 -0.00000000 -0.00000000
vn 0.00060000 -0.82710000 -0.56210000
vn 0.04200000 -0.01340000 -0.99900000
vn 0.12950000 -0.97950000 0.15450000
vn 0.08360000 0.10650000 0.99080000
vn -1.00000000 -0.00000000 -0.00000000
vn -0.09480000 -0.62450000 0.77530000
vn -0.00000000 -0.99970000 -0.02560000
vn -0.00000000 -0.03730000 -0.99930000
vn -1.00000000 -0.00000000 -0.00000000
vn -0.01590000 -0.04570000 0.99880000
vn -1.00000000 -0.00000000 -0.00000000
vn -0.01660000 -0.99980000 -0.00700000
vn 0.01660000 -0.99980000 0.00700000
vn -0.07800000 0.27880000 -0.95720000
vn -1.00000000 -0.00000000 -0.00000000
vn 0.05200000 0.78570000 -0.61640000
vn 0.09620000 -0.20300000 -0.97440000
vn 0.09620000 -0.20300000 -0.97440000
vn 0.12950000 -0.97950000 0.15450000
vn -0.11450000 -0.89310000 -0.43500000
vn -1.00000000 -0.00000000 -0.00000000
vn -0.00000000 -0.03730000 0.99930000
vn -1.00000000 -0.00000000 -0.00000000
vn -0.01590000 -0.04570000 0.99880000
vn -0.00000000 -1.00000000 -0.00000000
vn 0.01590000 -0.04570000 -0.99880000
vn -0.00000000 -0.03730000 -0.99930000
vn -0.01660000 -0.99980000 -0.00700000
vn -1.00000000 -0.00000000 -0.00000000
vn 0.05790000 0.85820000 0.51010000
vn -1.00000000 -0.00000000 -0.00000000
vn -0.05380000 0.59020000 0.80540000
vn 0.05860000 0.09620000 0.99360000
vn 0.08600000 0.70040000 -0.70860000
vn 0.05790000 0.85820000 0.51010000
vn -1.00000000 -0.00000000 -0.00000000
vn -0.08130000 0.98960000 -0.11830000
vn -1.00000000 -0.00000000 -0.00000000
vn 0.03780000 -0.77820000 0.62680000
vn 0.05860000 0.09620000 0.99360000
vn -0.06690000 -0.53600000 0.84150000
vn -1.00000000 -0.00000000 -0.00000000
vn 0.01660000 -0.99980000 0.00700000
vn -0.01660000 -0.99980000 -0.00700000
vn -0.01590000 -0.04570000 0.99880000
vn -1.00000000 -0.00000000 -0.00000000
vn 0.03780000 -0.77820000 0.62680000
vn -0.02510000 -0.99850000 -0.04840000
vn 0.02120000 -0.97980000 -0.19900000
vn 0.04690000 -0.39330000 -0.91820000
vn -1.00000000 -0.00000000 -0.00000000
vn 0.08600000 0.70040000 -0.70860000
vn -0.05280000 0.35900000 -0.93180000
vn -0.02980000 -0.60000000 -0.79950000
vn -1.00000000 -0.00000000 -0.00000000
vn 0.02120000 -0.97980000 -0.19900000
vn 0.04690000 -0.39330000 -0.91820000
vn -0.03810000 0.62900000 -0.77650000
vn 0.04870000 0.74680000 -0.66320000
vn -1.00000000 -0.00000000 -0.00000000
vn -0.02870000 0.99910000 -0.03190000
vn -0.03810000 0.62900000 -0.77650000
vn -1.00000000 -0.00000000 -0.00000000
vn 0.01090000 0.00060000 -0.99990000
vn -0.00000000 0.03730000 -0.99930000
vn -0.02870000 0.99910000 -0.03190000
vn -1.00000000 -0.00000000 -0.00000000
vn -0.00000000 0.99990000 -0.01420000
vn -0.01590000 0.04570000 -0.99880000
vn -0.00390000 -0.99990000 0.01660000
vn -1.00000000 -0.00000000 -0.00000000
vn -0.00700000 -0.77700000 0.62940000
vn -0.01740000 -0.00290000 0.99980000
vn 0.01980000 -0.74760000 0.66390000
vn -0.00700000 -0.77700000 0.62940000
vn -1.00000000 -0.00000000 -0.00000000
vn 0.03980000 0.14230000 0.98900000
vn 0.04350000 0.89900000 0.43590000
vn -0.05110000 0.37390000 0.92610000
vn -1.00000000 -0.00000000 -0.00000000
vn 0.01660000 0.99980000 -0.00700000
vn -0.01590000 0.04570000 -0.99880000
vn -0.01660000 0.99980000 0.00700000
vn -1.00000000 -0.00000000 -0.00000000
vn 0.04350000 0.89900000 0.43590000
vn -0.03870000 0.98920000 0.14100000
vn 0.04190000 0.87720000 -0.47840000
vn -1.00000000 -0.00000000 -0.00000000
vn -0.03300000 -0.74560000 0.66550000
vn 0.03300000 -0.83580000 0.54800000
vn 0.03980000 0.14230000 0.98900000
vn -1.00000000 -0.00000000 -0.00000000
vn 0.03300000 -0.83580000 0.54800000
vn 0.03910000 -0.82650000 -0.56160000
vn -0.03740000 -0.93200000 -0.36050000
vn -1.00000000 -0.00000000 -0.00000000
vn -0.00000000 0.03730000 0.99930000
vn -0.00000000 1.00000000 -0.00000000
vn -1.00000000 -0.00000000 -0.00000000
vn -1.00000000 -0.00000000 -0.00000000
vn 0.04620000 -0.01340000 -0.99880000
vn 0.04190000 0.87720000 -0.47840000
vn -0.04620000 0.71580000 -0.69680000
vn 0.01590000 0.04570000 0.99880000
vn -0.01660000 0.99980000 0.00700000
vn -0.00000000 0.03730000 0.99930000
vn -1.00000000 -0.00000000 -0.00000000
vn 0.04620000 -0.01340000 -0.99880000
vn 0.03910000 -0.82650000 -0.56160000
vn -0.03840000 -0.27160000 -0.96170000
vn -1.00000000 -0.00000000 -0.00000000
vn -1.00000000 -0.00000000 -0.00000000
vn -0.08930000 0.58730000 0.80440000
vn 0.04810000 0.89880000 0.43580000
vn 0.06920000 0.14200000 0.98740000
vn 0.01590000 0.04570000 0.99880000
vn -0.01660000 0.99980000 0.00700000
vn 0.01660000 0.99980000 -0.00700000
vn 1.00000000 -0.00000000 -0.00000000
vn 0.01660000 0.99980000 -0.00700000
vn -0.01590000 0.04570000 -0.99880000
vn 1.00000000 -0.00000000 -0.00000000
vn -0.00000000 0.03730000 -0.99930000
vn -0.00000000 0.03730000 -0.99930000
vn -0.00000000 1.00000000 -0.00000000
vn 1.00000000 -0.00000000 -0.00000000
vn -0.00000000 1.00000000 -0.00000000
vn -0.00000000 0.03730000 0.99930000
vn 0.01590000 0.04570000 0.99880000
vn 1.00000000 -0.00000000 -0.00000000
vn 0.01660000 0.99980000 -0.00700000
vn -0.01660000 0.99980000 0.00700000
vn 0.01590000 0.04570000 0.99880000
vn 1.00000000 -0.00000000 -0.00000000
vn 0.01660000 0.99980000 -0.00700000
vn -0.01590000 0.04570000 -0.99880000
vn 1.00000000 -0.00000000 -0.00000000
vn -0.00000000 0.03730000 -0.99930000
vn -0.00000000 0.03730000 -0.99930000
vn 1.00000000 -0.00000000 -0.00000000
vn -0.00000000 0.99990000 -0.01420000
vn 1.00000000 -0.00000000 -0.00000000
vn -0.00000000 0.99990000 -0.01420000
vn -0.02870000 0.99910000 -0.03190000
vn 0.04870000 0.74680000 -0.66320000
vn 1.00000000 -0.00000000 -0.00000000
vn -0.03810000 0.62900000 -0.77650000
vn 0.01080000 0.00060000 -0.99990000
vn 0.04870000 0.74680000 -0.66320000
vn 0.01090000 0.00060000 -0.99990000
vn 1.00000000 -0.00000000 -0.00000000
vn 0.01110000 -0.66310000 -0.74840000
vn 0.01080000 0.00060000 -0.99990000
vn -0.01490000 -0.62970000 -0.77670000
vn 1.00000000 -0.00000000 -0.00000000
vn 0.01110000 -0.66310000 -0.74840000
vn 0.00440000 -0.99960000 -0.02820000
vn 1.00000000 -0.00000000 -0.00000000
vn -0.00000000 -0.99970000 -0.02560000
vn 0.01590000 -0.04570000 -0.99880000
vn 0.00440000 -0.99960000 -0.02820000
vn -0.00000000 -0.03730000 -0.99930000
vn 1.00000000 -0.00000000 -0.00000000
vn 0.01660000 -0.99980000 0.00700000
vn -0.01660000 -0.99980000 -0.00700000
vn 0.01590000 -0.04570000 -0.99880000
vn 0.01660000 -0.99980000 0.00700000
vn -0.00000000 -0.03730000 0.99930000
vn -0.01590000 -0.04570000 0.99880000
vn 1.00000000 -0.00000000 -0.00000000
vn -0.00000000 -0.03730000 0.99930000
vn -0.00000000 -1.00000000 -0.00000000
vn 1.00000000 -0.00000000 -0.00000000
vn -0.00000000 -1.00000000 -0.00000000
vn -0.00000000 -0.03730000 -0.99930000
vn 1.00000000 -0.00000000 -0.00000000
vn 0.01590000 -0.04570000 -0.99880000
vn 1.00000000 -0.00000000 -0.00000000
vn 0.01660000 -0.99980000 0.00700000
vn 0.01590000 -0.04570000 -0.99880000
vn -0.01660000 -0.99980000 -0.00700000
vn 0.01660000 -0.99980000 0.00700000
vn -0.00000000 -0.03730000 0.99930000
vn 1.00000000 -0.00000000 -0.00000000
vn -0.01590000 -0.04570000 0.99880000
vn -0.00000000 -0.03730000 0.99930000
vn 1.00000000 -0.00000000 -0.00000000
vn -0.00000000 -0.99990000 0.01420000
vn -0.00700000 -0.77700000 0.62940000
vn -0.00390000 -0.99990000 0.01660000
vn -0.00000000 -0.99990000 0.01420000
vn 1.00000000 -0.00000000 -0.00000000
vn 0.01980000 -0.74760000 0.66390000
vn 0.01980000 -0.74760000 0.66390000
vn -0.01740000 -0.00290000 0.99980000
vn 0.02820000 0.00080000 0.99960000
vn 1.00000000 -0.00000000 -0.00000000
vn 0.04280000 0.74780000 0.66260000
vn 1.00000000 -0.00000000 -0.00000000
vn -0.04450000 0.62910000 0.77600000
vn 0.02820000 0.00080000 0.99960000
vn -0.01200000 0.99980000 0.01860000
vn 0.04280000 0.74780000 0.66260000
vn 1.00000000 -0.00000000 -0.00000000
vn -0.00000000 0.03730000 0.99930000
vn 1.00000000 -0.00000000 -0.00000000
vn 0.01590000 0.04570000 0.99880000
vn -0.01200000 0.99980000 0.01860000
vn -0.00000000 0.99970000 0.02560000
vn 0.03300000 -0.83580000 0.54800000
vn 1.00000000 -0.00000000 -0.00000000
vn -0.04600000 -0.87570000 -0.48060000
vn -0.05550000 -0.71010000 0.70190000
vn -0.03550000 0.95870000 -0.28210000
vn -0.05810000 0.23390000 -0.97050000
vn 1.00000000 -0.00000000 -0.00000000
vn 0.03550000 0.87740000 -0.47850000
vn -0.05100000 0.44830000 0.89240000
vn 1.00000000 -0.00000000 -0.00000000
vn 0.04620000 0.96830000 0.24560000
vn -0.05690000 0.99590000 -0.07100000
vn 1.00000000 -0.00000000 -0.00000000
vn -0.09480000 -0.62450000 0.77530000
vn 0.08360000 0.10650000 0.99080000
vn -0.05100000 0.44830000 0.89240000
vn -0.04600000 -0.87570000 -0.48060000
vn 0.04200000 -0.01340000 -0.99900000
vn 1.00000000 -0.00000000 -0.00000000
vn 0.00060000 -0.82710000 -0.56210000
vn -0.05810000 0.23390000 -0.97050000
vn 0.05200000 0.78570000 -0.61640000
vn -0.05690000 0.99590000 -0.07100000
vn -0.07800000 0.27880000 -0.95720000
vn 1.00000000 -0.00000000 -0.00000000
vn 0.12950000 -0.97950000 0.15450000
vn -0.09480000 -0.62450000 0.77530000
vn 1.00000000 -0.00000000 -0.00000000
vn -0.11450000 -0.89310000 -0.43500000
vn -0.11450000 -0.89310000 -0.43500000
vn 1.00000000 -0.00000000 -0.00000000
vn 0.09620000 -0.20300000 -0.97440000
vn -0.07800000 0.27880000 -0.95720000
vn 1.00000000 -0.00000000 -0.00000000
vn -0.06690000 -0.53600000 0.84150000
vn -0.05380000 0.59020000 0.80540000
vn 0.05860000 0.09620000 0.99360000
vn 0.05790000 0.85820000 0.51010000
vn -0.05380000 0.59020000 0.80540000
vn -0.08130000 0.98960000 -0.11830000
vn 1.00000000 -0.00000000 -0.00000000
vn 1.00000000 -0.00000000 -0.00000000
vn -0.08130000 0.98960000 -0.11830000
vn 0.08600000 0.70040000 -0.70860000
vn -0.05280000 0.35900000 -0.93180000
vn -0.02510000 -0.99850000 -0.04840000
vn -0.06690000 -0.53600000 0.84150000
vn 0.03780000 -0.77820000 0.62680000
vn 1.00000000 -0.00000000 -0.00000000
vn 0.04690000 -0.39330000 -0.91820000
vn 1.00000000 -0.00000000 -0.00000000
vn -0.02980000 -0.60000000 -0.79950000
vn -0.05280000 0.35900000 -0.93180000
vn 1.00000000 -0.00000000 -0.00000000
vn -0.02980000 -0.60000000 -0.79950000
vn 0.02120000 -0.97980000 -0.19900000
vn -0.02510000 -0.99850000 -0.04840000
vn -0.05110000 0.37390000 0.92610000
vn 0.04350000 0.89900000 0.43590000
vn -0.03870000 0.98920000 0.14100000
vn 1.00000000 -0.00000000 -0.00000000
vn -0.05110000 0.37390000 0.92610000
vn 0.03980000 0.14230000 0.98900000
vn 1.00000000 -0.00000000 -0.00000000
vn -0.03300000 -0.74560000 0.66550000
vn 1.00000000 -0.00000000 -0.00000000
vn -0.03740000 -0.93200000 -0.36050000
vn -0.03300000 -0.74560000 0.66550000
vn 0.03300000 -0.83580000 0.54800000
vn 1.00000000 -0.00000000 -0.00000000
vn -0.04620000 0.71580000 -0.69680000
vn 0.04620000 -0.01340000 -0.99880000
vn -0.03840000 -0.27160000 -0.96170000
vn 1.00000000 -0.00000000 -0.00000000
vn -0.04620000 0.71580000 -0.69680000
vn -0.03870000 0.98920000 0.14100000
vn 0.04190000 0.87720000 -0.47840000
vn -0.03840000 -0.27160000 -0.96170000
vn 1.00000000 -0.00000000 -0.00000000
vn -0.03740000 -0.93200000 -0.36050000
vn 0.03910000 -0.82650000 -0.56160000
vn 0.04810000 0.89880000 0.43580000
vn -0.08930000 0.58730000 0.80440000
vn -0.03550000 0.95870000 -0.28210000
vn 1.00000000 -0.00000000 -0.00000000
vn 1.00000000 -0.00000000 -0.00000000
vn 0.06920000 0.14200000 0.98740000
vn -0.05550000 -0.71010000 0.70190000
vn -0.08930000 0.58730000 0.80440000
vt 0.59797900 0.86515800
vt 0.57792200 0.86061900
vt 0.57723400 0.86517500
vt 0.86526300 0.88270300
vt 0.08525800 0.99716100
vt 0.08525800 0.99716100
vt 0.98425600 0.54062200
vt 0.99964300 0.10103400
vt 0.86639000 0.88436300
vt 0.88952100 0.85825200
vt 0.88952100 0.85825200
vt 0.86595400 0.88530700
vt 0.86595400 0.88530700
vt 0.86595400 0.88530700
vt 0.99892300 0.10178400
vt 0.98907300 0.78028200
vt 0.88872100 0.88228200
vt 0.88872100 0.88228200
vt 0.18945000 0.99576500
vt 0.88872100 0.88780300
vt 0.88872100 0.88780300
vt 0.18945000 0.99576500
vt 0.88872100 0.88780300
vt 0.00005000 0.99848500
vt 0.86820300 0.88800600
vt 0.98180700 0.60136700
vt 0.86733000 0.88525300
vt 0.85461300 0.45294300
vt 0.99137800 0.72657800
vt 0.99850200 0.64212500
vt 0.86700200 0.88610700
vt 0.57768800 0.99674900
vt 0.57768800 0.99674900
vt 0.99047100 0.72649300
vt 0.98425600 0.53647000
vt 0.86820300 0.88248400
vt 0.99085200 0.30993800
vt 0.98425600 0.53647000
vt 0.98531300 0.32436000
vt 0.89163500 0.86308100
vt 0.98531300 0.32436000
vt 0.89163500 0.86308100
vt 0.88865300 0.85920700
vt 0.40298600 0.93772400
vt 0.88865300 0.85920700
vt 0.73156600 0.99459700
vt 0.40298600 0.93772400
vt 0.88789600 0.85834700
vt 0.40298600 0.93879300
vt 0.40298600 0.93879300
vt 0.40298600 0.93879300
vt 0.99195600 0.12796200
vt 0.89076100 0.86500300
vt 0.92065100 0.88895700
vt 0.92065100 0.88895700
vt 0.22105000 0.90879100
vt 0.86902800 0.89261500
vt 0.22105000 0.90879100
vt 0.22105000 0.90879100
vt 0.22105200 0.90986200
vt 0.00003200 0.99473400
vt 0.22105200 0.90986200
vt 0.86827100 0.89175500
vt 0.00003200 0.99473400
vt 0.08520900 0.99198300
vt 0.86528900 0.88788100
vt 0.98180700 0.59725100
vt 0.98180700 0.59725100
vt 0.99103200 0.12796200
vt 0.99343100 0.06015700
vt 0.93539100 0.03580800
vt 0.89092400 0.86591000
vt 0.86633800 0.88610100
vt 0.86633800 0.88610100
vt 0.57862500 0.99672200
vt 0.98805000 0.50794300
vt 0.92193000 0.88895700
vt 0.88985600 0.86487400
vt 0.92193000 0.88895700
vt 0.88872100 0.86295600
vt 0.98531300 0.32024400
vt 0.88872100 0.86295600
vt 0.02171600 0.99597500
vt 0.89166100 0.86825900
vt 0.89166100 0.86825900
vt 0.18384000 0.99218600
vt 0.93486900 0.03580700
vt 0.89055500 0.86657800
vt 0.93486900 0.03580700
vt 0.93486900 0.03580700
vt 0.93365100 0.03580800
vt 0.98670600 0.50853100
vt 0.92069000 0.99837900
vt 0.88969300 0.86633200
vt 0.02171600 0.99182300
vt 0.88872100 0.86847800
vt 0.02171600 0.99182300
vt 0.88872100 0.86847800
vt 0.98907300 0.78439700
vt 0.98907300 0.78439700
vt 0.89163500 0.88240600
vt 0.89163500 0.88240600
vt 0.99652700 0.13828600
vt 0.89060400 0.88420600
vt 0.92274400 0.88896400
vt 0.92274400 0.88896400
vt 0.91865600 0.88677000
vt 0.99573300 0.13769400
vt 0.89098700 0.88511100
vt 0.99937800 0.00384900
vt 0.89000600 0.88413000
vt 0.92358900 0.88898200
vt 0.92358900 0.88898200
vt 0.92358900 0.88898200
vt 0.89166100 0.88758400
vt 0.08326200 0.99758200
vt 0.89166100 0.88758400
vt 0.18945000 0.99161300
vt 0.88961500 0.88481900
vt 0.92414000 0.88899500
vt 0.99302000 0.16080900
vt 0.99734400 0.79202500
vt 0.91954200 0.88680100
vt 0.89036000 0.88599200
vt 0.91954200 0.88680100
vt 0.91954200 0.88680100
vt 0.92043000 0.88683100
vt 0.88973000 0.88561700
vt 0.99815100 0.79202500
vt 0.92043000 0.88683100
vt 0.40298600 0.96648300
vt 0.40298600 0.96648300
vt 0.86828800 0.85937500
vt 0.93917500 0.99755800
vt 0.40298600 0.96547100
vt 0.86900400 0.85854900
vt 0.40298600 0.96547100
vt 0.98116600 0.23557300
vt 0.93922000 0.99377500
vt 0.86820300 0.86315900
vt 0.93922000 0.99377500
vt 0.98116600 0.23557300
vt 0.88868000 0.89133300
vt 0.88868000 0.89133300
vt 0.22105200 0.88104100
vt 0.22105000 0.88185900
vt 0.22105000 0.88185900
vt 0.22105000 0.88185900
vt 0.88810000 0.89234900
vt 0.93203600 0.03580800
vt 0.99689800 0.39443500
vt 0.93203600 0.03580800
vt 0.86706800 0.86516900
vt 0.82055500 0.99645800
vt 0.98116600 0.23142100
vt 0.82055500 0.99645800
vt 0.86526300 0.86337800
vt 0.99770500 0.39439500
vt 0.99749800 0.94682800
vt 0.18312400 0.99820500
vt 0.86733000 0.86592800
vt 0.93299400 0.03580800
vt 0.54307900 0.99707400
vt 0.93299400 0.03580800
vt 0.86639000 0.86503800
vt 0.54235800 0.99782400
vt 0.57185700 0.99859700
vt 0.99977400 0.01109100
vt 0.86595400 0.86598200
vt 0.97809800 0.55174600
vt 0.99085200 0.32374200
vt 0.86820300 0.86868000
vt 0.86700200 0.86678100
vt 0.93992700 0.03580700
vt 0.18383200 0.99763100
vt 0.93992700 0.03580700
vt 0.97809800 0.54763100
vt 0.82050600 0.99128000
vt 0.97809800 0.54763100
vt 0.86528900 0.86855500
vt 0.93899000 0.03580700
vt 0.57261200 0.99905400
vt 0.93899000 0.03580700
vt 0.86633800 0.86677500
vt 0.86706800 0.88449400
vt 0.88856300 0.85825200
vt 0.99916500 0.64258600
vt 0.88856300 0.85825200
vt 0.97962000 0.59721500
vt 0.08685600 0.99200100
vt 0.08685600 0.99200100
vt 0.57426100 0.86536800
vt 0.08685600 0.99717900
vt 0.98206900 0.54058600
vt 0.57426700 0.87054600
vt 0.98206900 0.54058600
vt 0.98206900 0.53647000
vt 0.99247400 0.30992700
vt 0.57721300 0.87069700
vt 0.99247400 0.32373200
vt 0.97591100 0.55174600
vt 0.97591100 0.55174600
vt 0.57715900 0.88450100
vt 0.82215200 0.99129800
vt 0.82215200 0.99129800
vt 0.97591100 0.54759400
vt 0.57418500 0.88469400
vt 0.82215200 0.99647600
vt 0.98335300 0.23145800
vt 0.57419100 0.88987200
vt 0.98335300 0.23145800
vt 0.98335300 0.23557300
vt 0.57713700 0.89002300
vt 0.94084100 0.99374900
vt 0.57715900 0.89356600
vt 0.94084100 0.99729300
vt 0.94084100 0.99729300
vt 0.40079900 0.96655300
vt 0.57781300 0.89460100
vt 0.40080000 0.96563300
vt 0.40080000 0.96563300
vt 0.40080000 0.96563300
vt 0.40080000 0.96563300
vt 0.59708700 0.89460100
vt 0.40080000 0.93871200
vt 0.40080000 0.93871200
vt 0.40080000 0.93871200
vt 0.59779200 0.89373200
vt 0.40079900 0.93773300
vt 0.73311100 0.99457700
vt 0.59788200 0.89000600
vt 0.89026500 0.86297200
vt 0.98749900 0.32024400
vt 0.73311100 0.99830300
vt 0.98749900 0.32024400
vt 0.60085500 0.88981300
vt 0.18384000 0.99756700
vt 0.89320500 0.86313300
vt 0.98749900 0.32439600
vt 0.18233400 0.99261200
vt 0.01952900 0.99593900
vt 0.01952900 0.99593900
vt 0.60084900 0.88463500
vt 0.01952900 0.99182300
vt 0.89026500 0.86849300
vt 0.59790300 0.88448400
vt 0.89026500 0.88229700
vt 0.99126000 0.78028200
vt 0.59795700 0.87068000
vt 0.99126000 0.78028200
vt 0.60093100 0.87048800
vt 0.08472600 0.99240400
vt 0.99126000 0.78443400
vt 0.89320500 0.88245800
vt 0.08482700 0.99758200
vt 0.19163700 0.99165000
vt 0.60092500 0.86531000
vt 0.19163700 0.99165000
vt 0.19163700 0.99576500
vt 0.59797900 0.86515800
vt 0.89026500 0.88781800
vt 0.22323900 0.88103300
vt 0.89023000 0.89136200
vt 0.89023000 0.89136200
vt 0.59795700 0.86161500
vt 0.22323900 0.88103300
vt 0.22323700 0.88195100
vt 0.22323700 0.88195100
vt 0.22323700 0.88195100
vt 0.59730300 0.86058100
vt 0.22323700 0.90902300
vt 0.57792200 0.86061900
vt 0.22323700 0.90902300
vt 0.22323700 0.90902300
vt 0.00167200 0.99491900
vt 0.22323900 0.90989100
vt 0.57729600 0.86160000
vt 0.97962000 0.60136700
vt 0.57723400 0.86517500
vt 0.97962000 0.60136700
vt 0.00167200 0.99849500
vt 0.00167200 0.99849500
vt 0.99964300 0.10313800
vt 0.57496600 0.86806500
vt 0.86751400 0.88515500
vt 0.89011400 0.85606700
vt 0.85461300 0.45487700
vt 0.57756500 0.99894000
vt 0.57614400 0.86726200
vt 0.99137800 0.72509300
vt 0.92049500 0.88677100
vt 0.60006500 0.88773400
vt 0.99147100 0.12638500
vt 0.99343100 0.05834600
vt 0.59939000 0.88820700
vt 0.92143500 0.88677000
vt 0.92143500 0.88677000
vt 0.92143500 0.88677000
vt 0.86792500 0.88620800
vt 0.57862500 0.99891000
vt 0.57538600 0.86700700
vt 0.86792500 0.88620800
vt 0.57862500 0.99891000
vt 0.93523800 0.03362100
vt 0.99241100 0.05871400
vt 0.93523800 0.03362100
vt 0.60001400 0.88665100
vt 0.98805000 0.50983600
vt 0.92230900 0.88677200
vt 0.59876700 0.88750300
vt 0.91959200 0.99710900
vt 0.92069000 0.99650400
vt 0.59918600 0.88631400
vt 0.93408000 0.03362100
vt 0.93408000 0.03362100
vt 0.59955900 0.86890700
vt 0.92322200 0.88678700
vt 0.92322200 0.88678700
vt 0.92322200 0.88678700
vt 0.99652700 0.13640800
vt 0.92237400 0.88677000
vt 0.99847600 0.00536500
vt 0.60016800 0.86828500
vt 0.60008900 0.86732500
vt 0.99937800 0.00570300
vt 0.91882100 0.88896400
vt 0.91882100 0.88896400
vt 0.99313900 0.16239100
vt 0.92414000 0.88680700
vt 0.92414000 0.88680700
vt 0.59890300 0.86832200
vt 0.91975600 0.88899600
vt 0.59942100 0.86696500
vt 0.91975600 0.88899600
vt 0.91975600 0.88899600
vt 0.59893600 0.86747200
vt 0.92043000 0.88901900
vt 0.99777300 0.79047000
vt 0.99228900 0.16239100
vt 0.93183200 0.03362100
vt 0.99770500 0.39591400
vt 0.99678600 0.94850100
vt 0.57614500 0.88782200
vt 0.93283900 0.03362100
vt 0.93283900 0.03362100
vt 0.57542300 0.88822900
vt 0.93283900 0.03362100
vt 0.57489000 0.88739100
vt 0.99908600 0.00968200
vt 0.93358700 0.03362200
vt 0.54307900 0.99917800
vt 0.57576800 0.88631500
vt 0.93969000 0.03362100
vt 0.93969000 0.03362100
vt 0.93969000 0.03362100
vt 0.57623300 0.88698700
vt 0.94034500 0.03362100
vt 0.99762600 0.94850100
vt 0.18383200 0.99954700
vt 0.93878800 0.03362100
vt 0.57512100 0.88657100
vt 0.99977400 0.00918500
vt 0.57261200 0.99736500
vt 0.99916500 0.64073000
vt 0.88820000 0.85606600
vt 0.85381000 0.45437800
vt 0.57633600 0.86819100
vt 0.57558900 0.86895000
vt 0.88923900 0.85606500
vt 0.88923900 0.85606500
vt 0.88923900 0.85606500
f 2/2/2 1/1/1 3/3/3
f 4/4/4 9/9/9 12/12/12
f 18/18/18 23/23/23 25/25/25
f 31/31/31 27/27/27 25/25/25
f 36/36/36 18/18/18 25/25/25
f 27/27/27 36/36/36 25/25/25
f 25/25/25 23/23/23 57/57/57
f 63/63/63 25/25/25 57/57/57
f 23/23/23 149/149/149 57/57/57
f 31/31/31 25/25/25 66/66/66
f 53/53/53 40/40/40 72/72/72
f 73/73/73 31/31/31 66/66/66
f 40/40/40 53/53/53 78/78/78
f 4/4/4 12/12/12 66/66/66
f 12/12/12 73/73/73 66/66/66
f 48/48/48 43/43/43 82/82/82
f 40/40/40 78/78/78 82/82/82
f 72/72/72 40/40/40 84/84/84
f 72/72/72 84/84/84 88/88/88
f 82/82/82 78/78/78 94/94/94
f 94/94/94 88/88/88 84/84/84
f 82/82/82 94/94/94 96/96/96
f 94/94/94 84/84/84 96/96/96
f 104/104/104 102/102/102 109/109/109
f 102/102/102 104/104/104 111/111/111
f 102/102/102 111/111/111 18/18/18
f 109/109/109 102/102/102 115/115/115
f 18/18/18 111/111/111 119/119/119
f 109/109/109 115/115/115 124/124/124
f 119/119/119 128/128/128 23/23/23
f 18/18/18 119/119/119 23/23/23
f 124/124/124 115/115/115 23/23/23
f 128/128/128 124/124/124 23/23/23
f 48/48/48 82/82/82 140/140/140
f 136/136/136 48/48/48 140/140/140
f 133/133/133 136/136/136 140/140/140
f 23/23/23 144/144/144 149/149/149
f 157/157/157 140/140/140 153/153/153
f 153/153/153 140/140/140 161/161/161
f 157/157/157 153/153/153 165/165/165
f 157/157/157 165/165/165 169/169/169
f 161/161/161 140/140/140 172/172/172
f 173/173/173 161/161/161 172/172/172
f 96/96/96 18/18/18 172/172/172
f 82/82/82 96/96/96 172/172/172
f 140/140/140 82/82/82 172/172/172
f 173/173/173 172/172/172 180/180/180
f 184/184/184 173/173/173 180/180/180
f 169/169/169 184/184/184 180/180/180
f 157/157/157 169/169/169 180/180/180
f 172/172/172 18/18/18 36/36/36
f 4/4/4 36/36/36 185/185/185
f 185/185/185 36/36/36 27/27/27
f 4/4/4 185/185/185 9/9/9
f 190/190/190 5/5/5 65/65/65
f 191/191/191 193/193/193 6/6/6
f 194/194/194 38/38/38 7/7/7
f 196/196/196 197/197/197 35/35/35
f 198/198/198 171/171/171 37/37/37
f 198/198/198 200/200/200 171/171/171
f 202/202/202 206/206/206 177/177/177
f 201/201/201 179/179/179 170/170/170
f 205/205/205 156/156/156 178/178/178
f 204/204/204 208/208/208 154/154/154
f 209/209/209 142/142/142 155/155/155
f 211/211/211 212/212/212 138/138/138
f 139/139/139 217/217/217 134/134/134
f 214/214/214 216/216/216 141/141/141
f 132/132/132 218/218/218 222/222/222
f 135/135/135 131/131/131 220/220/220
f 223/223/223 49/49/49 137/137/137
f 221/221/221 226/226/226 51/51/51
f 44/44/44 225/225/225 229/229/229
f 47/47/47 50/50/50 227/227/227
f 45/45/45 232/232/232 80/80/80
f 230/230/230 234/234/234 46/46/46
f 233/233/233 239/239/239 41/41/41
f 235/235/235 39/39/39 81/81/81
f 237/237/237 240/240/240 86/86/86
f 238/238/238 85/85/85 42/42/42
f 242/242/242 97/97/97 83/83/83
f 241/241/241 244/244/244 95/95/95
f 245/245/245 17/17/17 98/98/98
f 245/245/245 247/247/247 17/17/17
f 250/250/250 253/253/253 99/99/99
f 248/248/248 100/100/100 16/16/16
f 252/252/252 255/255/255 116/116/116
f 254/254/254 117/117/117 101/101/101
f 258/258/258 19/19/19 118/118/118
f 256/256/256 259/259/259 22/22/22
f 20/20/20 263/263/263 143/143/143
f 261/261/261 264/264/264 21/21/21
f 147/147/147 266/266/266 267/267/267
f 148/148/148 145/145/145 262/262/262
f 269/269/269 274/274/274 56/56/56
f 268/268/268 59/59/59 146/146/146
f 62/62/62 271/271/271 276/276/276
f 60/60/60 58/58/58 273/273/273
f 64/64/64 282/282/282 24/24/24
f 275/275/275 281/281/281 61/61/61
f 280/280/280 189/189/189 68/68/68
f 278/278/278 67/67/67 26/26/26
f 284/284/284 368/368/368 195/195/195
f 279/279/279 249/249/249 199/199/199
f 279/279/279 260/260/260 249/249/249
f 279/279/279 367/367/367 289/289/289
f 279/279/279 199/199/199 367/367/367
f 301/301/301 279/279/279 289/289/289
f 272/272/272 270/270/270 260/260/260
f 272/272/272 279/279/279 277/277/277
f 295/295/295 292/292/292 236/236/236
f 192/192/192 284/284/284 195/195/195
f 192/192/192 301/301/301 284/284/284
f 192/192/192 279/279/279 301/301/301
f 231/231/231 228/228/228 224/224/224
f 231/231/231 295/295/295 236/236/236
f 243/243/243 236/236/236 292/292/292
f 243/243/243 292/292/292 307/307/307
f 310/310/310 295/295/295 231/231/231
f 243/243/243 307/307/307 313/313/313
f 246/246/246 313/313/313 310/310/310
f 246/246/246 310/310/310 231/231/231
f 246/246/246 243/243/243 313/313/313
f 316/316/316 323/323/323 251/251/251
f 249/249/249 316/316/316 251/251/251
f 257/257/257 323/323/323 324/324/324
f 257/257/257 251/251/251 323/323/323
f 331/331/331 316/316/316 249/249/249
f 257/257/257 324/324/324 333/333/333
f 260/260/260 331/331/331 249/249/249
f 260/260/260 257/257/257 333/333/333
f 260/260/260 336/336/336 331/331/331
f 260/260/260 333/333/333 336/336/336
f 213/213/213 231/231/231 224/224/224
f 213/213/213 224/224/224 219/219/219
f 213/213/213 219/219/219 215/215/215
f 270/270/270 265/265/265 260/260/260
f 346/346/346 213/213/213 210/210/210
f 346/346/346 343/343/343 213/213/213
f 356/356/356 213/213/213 343/343/343
f 348/348/348 346/346/346 210/210/210
f 203/203/203 213/213/213 356/356/356
f 203/203/203 356/356/356 352/352/352
f 203/203/203 249/249/249 246/246/246
f 203/203/203 231/231/231 213/213/213
f 203/203/203 246/246/246 231/231/231
f 207/207/207 352/352/352 361/361/361
f 207/207/207 203/203/203 352/352/352
f 207/207/207 348/348/348 210/210/210
f 207/207/207 361/361/361 348/348/348
f 199/199/199 249/249/249 203/203/203
f 368/368/368 367/367/367 199/199/199
f 368/368/368 199/199/199 195/195/195
f 129/129/129 122/122/122 338/338/338
f 121/121/121 328/328/328 339/339/339
f 123/123/123 130/130/130 332/332/332
f 127/127/127 337/337/337 334/334/334
f 126/126/126 335/335/335 327/327/327
f 107/107/107 125/125/125 326/326/326
f 110/110/110 325/325/325 322/322/322
f 103/103/103 108/108/108 320/320/320
f 105/105/105 321/321/321 318/318/318
f 113/113/113 106/106/106 319/319/319
f 114/114/114 317/317/317 329/329/329
f 120/120/120 112/112/112 330/330/330
f 168/168/168 349/349/349 362/362/362
f 182/182/182 167/167/167 363/363/363
f 183/183/183 360/360/360 355/355/355
f 174/174/174 181/181/181 354/354/354
f 160/160/160 175/175/175 359/359/359
f 176/176/176 353/353/353 357/357/357
f 159/159/159 358/358/358 342/342/342
f 151/151/151 158/158/158 341/341/341
f 164/164/164 150/150/150 345/345/345
f 152/152/152 340/340/340 344/344/344
f 166/166/166 163/163/163 351/351/351
f 162/162/162 347/347/347 350/350/350
f 93/93/93 311/311/311 312/312/312
f 90/90/90 91/91/91 314/314/314
f 87/87/87 315/315/315 306/306/306
f 71/71/71 89/89/89 304/304/304
f 70/70/70 305/305/305 294/294/294
f 52/52/52 69/69/69 293/293/293
f 77/77/77 55/55/55 297/297/297
f 54/54/54 291/291/291 298/298/298
f 79/79/79 296/296/296 309/309/309
f 92/92/92 76/76/76 308/308/308
f 14/14/14 285/285/285 299/299/299
f 74/74/74 13/13/13 302/302/302
f 32/32/32 75/75/75 300/300/300
f 33/33/33 303/303/303 288/288/288
f 29/29/29 34/34/34 290/290/290
f 28/28/28 287/287/287 366/366/366
f 187/187/187 30/30/30 364/364/364
f 186/186/186 365/365/365 371/371/371
f 10/10/10 188/188/188 369/369/369
f 15/15/15 8/8/8 283/283/283
f 11/11/11 370/370/370 286/286/286

