mtllib material.mtl
usemtl material_0
v -0.11349300 0.05089900 0.00115600
v -0.11349300 0.05089900 0.00115600
v -0.11349300 0.05089900 0.00115600
v -0.11349300 0.05089900 0.00115600
v -0.12254300 0.05066600 0.00131200
v -0.12254300 0.05066600 0.00131200
v -0.12254300 0.05066600 0.00131200
v -0.12254300 0.05066600 0.00131200
v -0.11349300 0.05764600 0.00156200
v -0.11349300 0.05764600 0.00156200
v -0.11349300 0.05764600 0.00156200
v -0.12254300 0.05772100 0.00160200
v -0.12254300 0.05772100 0.00160200
v -0.12254300 0.05772100 0.00160200
v -0.12254300 0.05772100 0.00160200
v -0.12254300 0.05772100 0.00160200
v -0.12254300 0.04804400 0.00512900
v -0.12254300 0.04804400 0.00512900
v -0.12254300 0.04804400 0.00512900
v -0.12254300 0.04804400 0.00512900
v -0.12254300 0.05263600 0.00047200
v -0.12254300 0.05263600 0.00047200
v -0.12254300 0.05263600 0.00047200
v -0.12254300 0.05263600 0.00047200
v -0.11349300 0.04814100 0.00479000
v -0.11349300 0.04814100 0.00479000
v -0.11349300 0.04814100 0.00479000
v -0.11349300 0.04814100 0.00479000
v -0.11349300 0.05895900 0.00296800
v -0.11349300 0.05895900 0.00296800
v -0.11349300 0.05895900 0.00296800
v -0.11349300 0.05895900 0.00296800
v -0.12254300 0.05935500 0.00358500
v -0.12254300 0.05935500 0.00358500
v -0.12254300 0.05935500 0.00358500
v -0.12254300 0.05935500 0.00358500
v -0.11349300 0.05354800 0.00029900
v -0.11349300 0.05354800 0.00029900
v -0.11349300 0.05354800 0.00029900
v -0.11349300 0.05354800 0.00029900
v -0.12254300 0.05520200 0.00041400
v -0.12254300 0.05520200 0.00041400
v -0.12254300 0.05520200 0.00041400
v -0.12254300 0.05520200 0.00041400
v -0.12254300 0.04911500 0.00278800
v -0.12254300 0.04911500 0.00278800
v -0.12254300 0.04911500 0.00278800
v -0.12254300 0.04911500 0.00278800
v -0.11349300 0.05978400 0.00471300
v -0.11349300 0.05978400 0.00471300
v -0.11349300 0.05978400 0.00471300
v -0.11349300 0.05978400 0.00471300
v -0.11349300 0.04919200 0.00268500
v -0.11349300 0.04919200 0.00268500
v -0.11349300 0.04919200 0.00268500
v -0.11349300 0.04919200 0.00268500
v -0.12254300 0.06001800 0.00606700
v -0.12254300 0.06001800 0.00606700
v -0.12254300 0.06001800 0.00606700
v -0.12254300 0.06001800 0.00606700
v -0.11349300 0.05593900 0.00065900
v -0.11349300 0.05593900 0.00065900
v -0.11349300 0.05593900 0.00065900
v -0.11349300 0.05593900 0.00065900
v -0.11349300 0.05999300 0.00662600
v -0.11349300 0.05999300 0.00662600
v -0.11349300 0.05999300 0.00662600
v -0.11349300 0.05999300 0.00662600
v -0.11349300 0.05212700 0.01214000
v -0.11349300 0.05212700 0.01214000
v -0.11349300 0.05212700 0.01214000
v -0.11349300 0.05212700 0.01214000
v -0.12254300 0.05077500 0.01145800
v -0.12254300 0.05077500 0.01145800
v -0.12254300 0.05077500 0.01145800
v -0.12254300 0.05077500 0.01145800
v -0.11349300 0.05772100 0.01109800
v -0.11349300 0.05772100 0.01109800
v -0.11349300 0.05772100 0.01109800
v -0.12254300 0.05766700 0.01116000
v -0.12254300 0.05766700 0.01116000
v -0.12254300 0.05766700 0.01116000
v -0.12254300 0.05766700 0.01116000
v -0.12254300 0.05766700 0.01116000
v -0.11349300 0.04924100 0.01016900
v -0.11349300 0.04924100 0.01016900
v -0.11349300 0.04924100 0.01016900
v -0.11349300 0.04924100 0.01016900
v -0.12254300 0.04891900 0.00968400
v -0.12254300 0.04891900 0.00968400
v -0.12254300 0.04891900 0.00968400
v -0.12254300 0.04891900 0.00968400
v -0.11349300 0.05526800 0.01226700
v -0.11349300 0.05526800 0.01226700
v -0.11349300 0.05526800 0.01226700
v -0.11349300 0.05526800 0.01226700
v -0.11349300 0.05526800 0.01226700
v -0.12254300 0.05532500 0.01222800
v -0.12254300 0.05532500 0.01222800
v -0.12254300 0.05532500 0.01222800
v -0.12254300 0.05952100 0.00880500
v -0.12254300 0.05952100 0.00880500
v -0.12254300 0.05952100 0.00880500
v -0.12254300 0.05952100 0.00880500
v -0.11349300 0.05946500 0.00893000
v -0.11349300 0.05946500 0.00893000
v -0.11349300 0.05946500 0.00893000
v -0.11349300 0.05946500 0.00893000
v -0.12254300 0.05297300 0.01231000
v -0.12254300 0.05297300 0.01231000
v -0.12254300 0.05297300 0.01231000
v -0.12254300 0.05297300 0.01231000
v -0.11349300 0.04802100 0.00735700
v -0.11349300 0.04802100 0.00735700
v -0.11349300 0.04802100 0.00735700
v -0.11349300 0.04802100 0.00735700
v -0.11349300 0.04802100 0.00735700
v -0.12254300 0.04806900 0.00747900
v -0.12254300 0.04806900 0.00747900
v -0.12254300 0.04806900 0.00747900
v -0.12254300 0.06051000 0.00913600
v -0.12254300 0.06051000 0.00913600
v -0.12254300 0.06051000 0.00913600
v -0.12254300 0.06051000 0.00913600
v -0.12254300 0.06051000 0.00913600
v -0.12254300 0.05810000 0.01209800
v -0.12254300 0.05810000 0.01209800
v -0.12254300 0.05810000 0.01209800
v -0.12254300 0.05810000 0.01209800
v -0.12254300 0.04884300 0.00153900
v -0.12254300 0.04884300 0.00153900
v -0.12254300 0.04884300 0.00153900
v -0.12254300 0.04884300 0.00153900
v -0.12254300 0.05100900 -0.00003600
v -0.12254300 0.05100900 -0.00003600
v -0.12254300 0.05100900 -0.00003600
v -0.12254300 0.05100900 -0.00003600
v -0.12254300 0.04714300 0.00444000
v -0.12254300 0.04714300 0.00444000
v -0.12254300 0.04714300 0.00444000
v -0.12254300 0.04714300 0.00444000
v -0.12254300 0.05367900 -0.00068700
v -0.12254300 0.05367900 -0.00068700
v -0.12254300 0.05367900 -0.00068700
v -0.12254300 0.04723400 0.00856100
v -0.12254300 0.04723400 0.00856100
v -0.12254300 0.04723400 0.00856100
v -0.12254300 0.04723400 0.00856100
v -0.12254300 0.05668400 -0.00017700
v -0.12254300 0.05668400 -0.00017700
v -0.12254300 0.05668400 -0.00017700
v -0.12254300 0.05668400 -0.00017700
v -0.12254300 0.05668400 -0.00017700
v -0.12254300 0.05900000 0.00142800
v -0.12254300 0.05900000 0.00142800
v -0.12254300 0.05900000 0.00142800
v -0.12254300 0.04881400 0.01110000
v -0.12254300 0.04881400 0.01110000
v -0.12254300 0.04881400 0.01110000
v -0.12254300 0.04881400 0.01110000
v -0.12254300 0.05085600 0.01268700
v -0.12254300 0.05085600 0.01268700
v -0.12254300 0.05085600 0.01268700
v -0.12254300 0.05085600 0.01268700
v -0.12254300 0.06039200 0.00344500
v -0.12254300 0.06039200 0.00344500
v -0.12254300 0.06039200 0.00344500
v -0.12254300 0.06039200 0.00344500
v -0.12254300 0.05452000 0.01342900
v -0.12254300 0.05452000 0.01342900
v -0.12254300 0.05452000 0.01342900
v -0.12254300 0.05452000 0.01342900
v -0.12254300 0.05452000 0.01342900
v -0.12254300 0.06099900 0.00589000
v -0.12254300 0.06099900 0.00589000
v -0.12254300 0.06099900 0.00589000
v -0.12254300 0.06099900 0.00589000
v -0.12674300 0.05007300 0.00050200
v -0.12674300 0.05007300 0.00050200
v -0.12674300 0.05007300 0.00050200
v -0.12674300 0.05007300 0.00050200
v -0.12674300 0.05007300 0.00050200
v -0.12674300 0.06075200 0.00446400
v -0.12674300 0.06075200 0.00446400
v -0.12674300 0.06075200 0.00446400
v -0.12674300 0.06075200 0.00446400
v -0.12674300 0.06075200 0.00446400
v -0.12674300 0.06075200 0.00446400
v -0.12674300 0.05668000 -0.00016700
v -0.12674300 0.05668000 -0.00016700
v -0.12674300 0.05668000 -0.00016700
v -0.12674300 0.05668000 -0.00016700
v -0.12674300 0.05668000 -0.00016700
v -0.12674300 0.06099600 0.00696900
v -0.12674300 0.06099600 0.00696900
v -0.12674300 0.06099600 0.00696900
v -0.12674300 0.06099600 0.00696900
v -0.12674300 0.06099600 0.00696900
v -0.12674300 0.05940500 0.00180300
v -0.12674300 0.05940500 0.00180300
v -0.12674300 0.05940500 0.00180300
v -0.12674300 0.05940500 0.00180300
v -0.12674300 0.05940500 0.00180300
v -0.12674300 0.05940500 0.00180300
v -0.12674300 0.05312800 -0.00069800
v -0.12674300 0.05312800 -0.00069800
v -0.12674300 0.05312800 -0.00069800
v -0.12674300 0.05312800 -0.00069800
v -0.12674300 0.05312800 -0.00069800
v -0.12674300 0.05312800 -0.00069800
v -0.12674300 0.04793100 0.00267600
v -0.12674300 0.04793100 0.00267600
v -0.12674300 0.04793100 0.00267600
v -0.12674300 0.04793100 0.00267600
v -0.12674300 0.04793100 0.00267600
v -0.12674300 0.04793100 0.00267600
v -0.12674300 0.04688200 0.00642500
v -0.12674300 0.04688200 0.00642500
v -0.12674300 0.04688200 0.00642500
v -0.12674300 0.04688200 0.00642500
v -0.12674300 0.04688200 0.00642500
v -0.12674300 0.04688200 0.00642500
v -0.12674300 0.05688900 0.01277000
v -0.12674300 0.05688900 0.01277000
v -0.12674300 0.05688900 0.01277000
v -0.12674300 0.05688900 0.01277000
v -0.12674300 0.05688900 0.01277000
v -0.12674300 0.05186800 0.01306900
v -0.12674300 0.05186800 0.01306900
v -0.12674300 0.05186800 0.01306900
v -0.12674300 0.05186800 0.01306900
v -0.12674300 0.05186800 0.01306900
v -0.12674300 0.05186800 0.01306900
v -0.12674300 0.04970400 0.01192400
v -0.12674300 0.04970400 0.01192400
v -0.12674300 0.04970400 0.01192400
v -0.12674300 0.04970400 0.01192400
v -0.12674300 0.04970400 0.01192400
v -0.12674300 0.06040000 0.00918700
v -0.12674300 0.06040000 0.00918700
v -0.12674300 0.06040000 0.00918700
v -0.12674300 0.06040000 0.00918700
v -0.12674300 0.06040000 0.00918700
v -0.12674300 0.04790400 0.00994300
v -0.12674300 0.04790400 0.00994300
v -0.12674300 0.04790400 0.00994300
v -0.12674300 0.04790400 0.00994300
v -0.12674300 0.04790400 0.00994300
v -0.12674300 0.05437100 0.01336900
v -0.12674300 0.05437100 0.01336900
v -0.12674300 0.05437100 0.01336900
v -0.12674300 0.05437100 0.01336900
v -0.12674300 0.05917000 0.01111200
v -0.12674300 0.05917000 0.01111200
v -0.12674300 0.05917000 0.01111200
v -0.12674300 0.05917000 0.01111200
v -0.12674300 0.05917000 0.01111200
v -0.12675300 0.05910600 0.00650900
v -0.12675300 0.05910600 0.00650900
v -0.12675300 0.05910600 0.00650900
v -0.12675300 0.05910600 0.00650900
v -0.12675300 0.05910600 0.00650900
v -0.12675300 0.05910600 0.00650900
v -0.12675300 0.05910600 0.00650900
v -0.12675300 0.05910600 0.00650900
v -0.12674600 0.05596400 0.01130800
v -0.12674600 0.05596400 0.01130800
v -0.12674600 0.05596400 0.01130800
v -0.12674600 0.05596400 0.01130800
v -0.12674600 0.05596400 0.01130800
v -0.12674600 0.05596400 0.01130800
v -0.12674600 0.05596400 0.01130800
v -0.12674600 0.05596400 0.01130800
v -0.12674600 0.05596400 0.01130800
v -0.12674600 0.05315700 0.00108200
v -0.12674600 0.05315700 0.00108200
v -0.12674600 0.05315700 0.00108200
v -0.12674600 0.05315700 0.00108200
v -0.12674600 0.05315700 0.00108200
v -0.12674600 0.05315700 0.00108200
v -0.12674600 0.05315700 0.00108200
v -0.12674600 0.05315700 0.00108200
v -0.12674600 0.05315700 0.00108200
v -0.12674500 0.04900400 0.00506100
v -0.12674500 0.04900400 0.00506100
v -0.12674500 0.04900400 0.00506100
v -0.12674500 0.04900400 0.00506100
v -0.12674500 0.04900400 0.00506100
v -0.12674500 0.04900400 0.00506100
v -0.12674400 0.05006500 0.00984500
v -0.12674400 0.05006500 0.00984500
v -0.12674400 0.05006500 0.00984500
v -0.12674400 0.05006500 0.00984500
v -0.12674400 0.05006500 0.00984500
v -0.12674400 0.05006500 0.00984500
v -0.12674400 0.05006500 0.00984500
v -0.12674400 0.05006500 0.00984500
v -0.12674300 0.05817900 0.00334000
v -0.12674300 0.05817900 0.00334000
v -0.12674300 0.05817900 0.00334000
v -0.12674300 0.05817900 0.00334000
v -0.12674300 0.05817900 0.00334000
v -0.12674300 0.05817900 0.00334000
v -0.12707500 0.05157700 0.00439300
v -0.12707500 0.05157700 0.00439300
v -0.12707500 0.05157700 0.00439300
v -0.12707500 0.05157700 0.00439300
v -0.12707500 0.05157700 0.00439300
v -0.12706500 0.05092500 0.00713300
v -0.12706500 0.05092500 0.00713300
v -0.12706500 0.05092500 0.00713300
v -0.12706500 0.05092500 0.00713300
v -0.12706500 0.05092500 0.00713300
v -0.12716800 0.05376400 0.00392300
v -0.12716800 0.05376400 0.00392300
v -0.12716800 0.05376400 0.00392300
v -0.12716800 0.05376400 0.00392300
v -0.12707500 0.05638400 0.00439300
v -0.12707500 0.05638400 0.00439300
v -0.12707500 0.05638400 0.00439300
v -0.12707500 0.05638400 0.00439300
v -0.12707500 0.05638400 0.00439300
v -0.12725900 0.05398100 0.00635300
v -0.12725900 0.05398100 0.00635300
v -0.12725900 0.05398100 0.00635300
v -0.12725900 0.05398100 0.00635300
v -0.12725900 0.05398100 0.00635300
v -0.12725900 0.05398100 0.00635300
v -0.12725900 0.05398100 0.00635300
v -0.12713500 0.05592700 0.00814000
v -0.12713500 0.05592700 0.00814000
v -0.12713500 0.05592700 0.00814000
v -0.12713500 0.05592700 0.00814000
v -0.12710900 0.05304300 0.00922100
v -0.12710900 0.05304300 0.00922100
v -0.12710900 0.05304300 0.00922100
v -0.12710900 0.05304300 0.00922100
v -0.12710900 0.05304300 0.00922100
vn -0.00580000 -0.39260000 -0.91970000
vn 1.00000000 -0.00000000 -0.00000000
vn 0.00430000 -0.66720000 -0.74490000
vn 0.01290000 -0.30790000 -0.95130000
vn -0.00240000 -0.68920000 -0.72450000
vn 0.00430000 -0.66720000 -0.74490000
vn 1.00000000 -0.00000000 -0.00000000
vn -0.00580000 -0.39260000 -0.91970000
vn 0.00300000 0.73080000 -0.68260000
vn 1.00000000 -0.00000000 -0.00000000
vn -0.00010000 0.46760000 -0.88400000
vn -0.00010000 0.46760000 -0.88400000
vn 1.00000000 -0.00000000 -0.00000000
vn -0.01030000 0.42670000 -0.90440000
vn -0.00960000 0.77160000 -0.63600000
vn 0.00300000 0.73080000 -0.68260000
vn 0.00890000 -0.99890000 -0.04680000
vn -0.00510000 -0.99990000 0.01030000
vn -0.00580000 -0.90940000 -0.41590000
vn 1.00000000 -0.00000000 -0.00000000
vn 0.01290000 -0.30790000 -0.95130000
vn -0.00580000 -0.39260000 -0.91970000
vn 1.00000000 -0.00000000 -0.00000000
vn -0.01680000 -0.02260000 -0.99960000
vn 1.00000000 -0.00000000 -0.00000000
vn -0.00580000 -0.90940000 -0.41590000
vn 0.00890000 -0.99890000 -0.04680000
vn 0.00260000 -0.89470000 -0.44660000
vn 0.00300000 0.73080000 -0.68260000
vn 0.01040000 0.90400000 -0.42740000
vn 1.00000000 -0.00000000 -0.00000000
vn -0.00960000 0.77160000 -0.63600000
vn -0.00960000 0.77160000 -0.63600000
vn 1.00000000 -0.00000000 -0.00000000
vn -0.01370000 0.96600000 -0.25800000
vn 0.01040000 0.90400000 -0.42740000
vn -0.01680000 -0.02260000 -0.99960000
vn 0.01290000 -0.30790000 -0.95130000
vn 0.01470000 0.14880000 -0.98880000
vn 1.00000000 -0.00000000 -0.00000000
vn -0.01030000 0.42670000 -0.90440000
vn 0.01470000 0.14880000 -0.98880000
vn 1.00000000 -0.00000000 -0.00000000
vn -0.01680000 -0.02260000 -0.99960000
vn 1.00000000 -0.00000000 -0.00000000
vn -0.00580000 -0.90940000 -0.41590000
vn 0.00260000 -0.89470000 -0.44660000
vn -0.00240000 -0.68920000 -0.72450000
vn -0.01370000 0.96600000 -0.25800000
vn 1.00000000 -0.00000000 -0.00000000
vn 0.01040000 0.90400000 -0.42740000
vn 0.00940000 0.99410000 -0.10840000
vn -0.00240000 -0.68920000 -0.72450000
vn 0.00260000 -0.89470000 -0.44660000
vn 1.00000000 -0.00000000 -0.00000000
vn 0.00430000 -0.66720000 -0.74490000
vn -0.01370000 0.96600000 -0.25800000
vn 0.00940000 0.99410000 -0.10840000
vn -0.00830000 0.98390000 0.17840000
vn 1.00000000 -0.00000000 -0.00000000
vn 0.01470000 0.14880000 -0.98880000
vn 1.00000000 -0.00000000 -0.00000000
vn -0.01030000 0.42670000 -0.90440000
vn -0.00010000 0.46760000 -0.88400000
vn 0.00310000 0.97470000 0.22350000
vn 1.00000000 -0.00000000 -0.00000000
vn 0.00940000 0.99410000 -0.10840000
vn -0.00830000 0.98390000 0.17840000
vn 0.01490000 -0.04020000 0.99910000
vn -0.01630000 -0.36130000 0.93230000
vn 1.00000000 -0.00000000 -0.00000000
vn 0.02200000 -0.56390000 0.82550000
vn -0.01420000 -0.69090000 0.72280000
vn 0.02200000 -0.56390000 0.82550000
vn -0.01630000 -0.36130000 0.93230000
vn 1.00000000 -0.00000000 -0.00000000
vn 0.00370000 0.43010000 0.90280000
vn -0.00030000 0.77920000 0.62680000
vn 1.00000000 -0.00000000 -0.00000000
vn 1.00000000 -0.00000000 -0.00000000
vn -0.00120000 0.41490000 0.90990000
vn -0.00360000 0.78570000 0.61860000
vn -0.00030000 0.77920000 0.62680000
vn 0.00370000 0.43010000 0.90280000
vn 1.00000000 -0.00000000 -0.00000000
vn -0.01420000 -0.69090000 0.72280000
vn 0.02200000 -0.56390000 0.82550000
vn 0.01130000 -0.91730000 0.39810000
vn -0.01420000 -0.69090000 0.72280000
vn -0.00010000 -0.93300000 0.35990000
vn 0.01130000 -0.91730000 0.39810000
vn 1.00000000 -0.00000000 -0.00000000
vn 1.00000000 -0.00000000 -0.00000000
vn 0.01490000 -0.04020000 0.99910000
vn -0.00120000 0.41490000 0.90990000
vn -0.00400000 0.03460000 0.99940000
vn 0.00370000 0.43010000 0.90280000
vn -0.00120000 0.41490000 0.90990000
vn 1.00000000 -0.00000000 -0.00000000
vn -0.00400000 0.03460000 0.99940000
vn -0.00830000 0.98390000 0.17840000
vn -0.00360000 0.78570000 0.61860000
vn 0.00310000 0.97470000 0.22350000
vn 1.00000000 -0.00000000 -0.00000000
vn -0.00030000 0.77920000 0.62680000
vn 0.00310000 0.97470000 0.22350000
vn -0.00360000 0.78570000 0.61860000
vn 1.00000000 -0.00000000 -0.00000000
vn -0.01630000 -0.36130000 0.93230000
vn 1.00000000 -0.00000000 -0.00000000
vn 0.01490000 -0.04020000 0.99910000
vn -0.00400000 0.03460000 0.99940000
vn 0.01130000 -0.91730000 0.39810000
vn -0.00010000 -0.93300000 0.35990000
vn -0.00510000 -0.99990000 0.01030000
vn 1.00000000 -0.00000000 -0.00000000
vn 0.00890000 -0.99890000 -0.04680000
vn -0.00010000 -0.93300000 0.35990000
vn 1.00000000 -0.00000000 -0.00000000
vn -0.00510000 -0.99990000 0.01030000
vn -0.02220000 0.96540000 0.25970000
vn -0.01560000 0.84260000 0.53840000
vn 1.00000000 -0.00000000 -0.00000000
vn 0.04940000 0.77470000 0.63040000
vn 0.03760000 0.98810000 0.14880000
vn 0.04940000 0.77470000 0.63040000
vn -0.04000000 0.58750000 0.80820000
vn 0.04950000 0.34800000 0.93620000
vn 1.00000000 -0.00000000 -0.00000000
vn 0.05050000 -0.86170000 -0.50490000
vn 1.00000000 -0.00000000 -0.00000000
vn -0.03520000 -0.71190000 -0.70140000
vn 0.02750000 -0.58780000 -0.80860000
vn -0.03760000 -0.36520000 -0.93020000
vn 0.02750000 -0.58780000 -0.80860000
vn 0.03360000 -0.23680000 -0.97100000
vn 1.00000000 -0.00000000 -0.00000000
vn -0.06730000 -0.96080000 -0.26890000
vn 1.00000000 -0.00000000 -0.00000000
vn 0.05050000 -0.86170000 -0.50490000
vn 0.07250000 -0.99710000 0.02210000
vn 1.00000000 -0.00000000 -0.00000000
vn 0.03360000 -0.23680000 -0.97100000
vn -0.01930000 0.16700000 -0.98580000
vn 0.03840000 -0.84850000 0.52780000
vn 1.00000000 -0.00000000 -0.00000000
vn -0.06110000 -0.95850000 0.27850000
vn 0.07250000 -0.99710000 0.02210000
vn -0.00260000 0.58580000 -0.81040000
vn -0.01830000 0.56980000 -0.82160000
vn -0.01930000 0.16700000 -0.98580000
vn -0.00260000 0.14790000 -0.98900000
vn 1.00000000 -0.00000000 -0.00000000
vn 0.02870000 0.82270000 -0.56780000
vn -0.01830000 0.56980000 -0.82160000
vn 1.00000000 -0.00000000 -0.00000000
vn 1.00000000 -0.00000000 -0.00000000
vn 0.03840000 -0.84850000 0.52780000
vn -0.02490000 -0.73990000 0.67220000
vn 0.02490000 -0.61340000 0.78940000
vn -0.03220000 -0.46740000 0.88340000
vn 0.02490000 -0.61340000 0.78940000
vn 0.04130000 -0.19830000 0.97930000
vn 1.00000000 -0.00000000 -0.00000000
vn 1.00000000 -0.00000000 -0.00000000
vn 0.02480000 0.97020000 -0.24110000
vn -0.03300000 0.89160000 -0.45150000
vn 0.02870000 0.82270000 -0.56780000
vn 1.00000000 -0.00000000 -0.00000000
vn -0.01000000 -0.11890000 0.99290000
vn -0.02210000 0.23120000 0.97260000
vn 0.04950000 0.34800000 0.93620000
vn 0.04130000 -0.19830000 0.97930000
vn 0.03760000 0.98810000 0.14880000
vn -0.02560000 0.99500000 -0.09700000
vn 0.02480000 0.97020000 -0.24110000
vn 1.00000000 -0.00000000 -0.00000000
vn -0.03760000 -0.36520000 -0.93020000
vn -1.00000000 -0.00090000 -0.00090000
vn -1.00000000 -0.00070000 -0.00180000
vn 0.02750000 -0.58780000 -0.80860000
vn -0.03520000 -0.71190000 -0.70140000
vn -1.00000000 0.00550000 -0.00050000
vn -1.00000000 0.00020000 -0.00010000
vn -0.02560000 0.99500000 -0.09700000
vn 0.02480000 0.97020000 -0.24110000
vn -1.00000000 0.00170000 -0.00360000
vn -0.03300000 0.89160000 -0.45150000
vn -1.00000000 0.00030000 -0.00180000
vn -0.00260000 0.58580000 -0.81040000
vn -1.00000000 0.00080000 -0.00040000
vn -1.00000000 0.00010000 -0.00020000
vn -0.00260000 0.14790000 -0.98900000
vn -1.00000000 0.00550000 -0.00050000
vn -1.00000000 0.00500000 0.00130000
vn 0.03760000 0.98810000 0.14880000
vn -0.02220000 0.96540000 0.25970000
vn -0.02560000 0.99500000 -0.09700000
vn -0.03300000 0.89160000 -0.45150000
vn 0.02870000 0.82270000 -0.56780000
vn -1.00000000 0.00020000 -0.00010000
vn -1.00000000 0.00010000 -0.00020000
vn -0.00260000 0.58580000 -0.81040000
vn -0.01830000 0.56980000 -0.82160000
vn -0.03760000 -0.36520000 -0.93020000
vn 0.03360000 -0.23680000 -0.97100000
vn -1.00000000 -0.00070000 -0.00180000
vn -1.00000000 0.00030000 -0.00180000
vn -0.00260000 0.14790000 -0.98900000
vn -0.01930000 0.16700000 -0.98580000
vn -1.00000000 -0.00120000 -0.00030000
vn -1.00000000 -0.00090000 -0.00090000
vn -1.00000000 -0.00080000 -0.00050000
vn -0.06730000 -0.96080000 -0.26890000
vn -0.03520000 -0.71190000 -0.70140000
vn 0.05050000 -0.86170000 -0.50490000
vn 0.07250000 -0.99710000 0.02210000
vn -1.00000000 -0.00050000 0.00010000
vn -0.06730000 -0.96080000 -0.26890000
vn -1.00000000 -0.00120000 -0.00030000
vn -0.06110000 -0.95850000 0.27850000
vn -1.00000000 -0.00070000 0.00040000
vn -0.02210000 0.23120000 0.97260000
vn -0.04000000 0.58750000 0.80820000
vn 0.04950000 0.34800000 0.93620000
vn -1.00000000 0.00050000 0.00190000
vn -1.00000000 0.00110000 0.00150000
vn 0.04130000 -0.19830000 0.97930000
vn -0.01000000 -0.11890000 0.99290000
vn -0.03220000 -0.46740000 0.88340000
vn -1.00000000 -0.00020000 0.00050000
vn -1.00000000 -0.00050000 0.00060000
vn -1.00000000 -0.00020000 0.00140000
vn -0.03220000 -0.46740000 0.88340000
vn -0.02490000 -0.73990000 0.67220000
vn -1.00000000 -0.00020000 0.00050000
vn -1.00000000 -0.00050000 0.00040000
vn 0.02490000 -0.61340000 0.78940000
vn -0.01560000 0.84260000 0.53840000
vn -1.00000000 0.00210000 0.00280000
vn -1.00000000 0.00100000 0.00070000
vn -0.02220000 0.96540000 0.25970000
vn -1.00000000 0.00500000 0.00130000
vn -0.06110000 -0.95850000 0.27850000
vn -1.00000000 -0.00050000 0.00010000
vn 0.03840000 -0.84850000 0.52780000
vn -1.00000000 -0.00050000 0.00040000
vn -0.02490000 -0.73990000 0.67220000
vn -1.00000000 0.00050000 0.00190000
vn -1.00000000 -0.00020000 0.00140000
vn -0.02210000 0.23120000 0.97260000
vn -0.01000000 -0.11890000 0.99290000
vn 0.04940000 0.77470000 0.63040000
vn -0.01560000 0.84260000 0.53840000
vn -1.00000000 0.00100000 0.00070000
vn -1.00000000 0.00110000 0.00150000
vn -0.04000000 0.58750000 0.80820000
vn -1.00000000 0.00170000 -0.00360000
vn -0.97700000 0.17760000 0.11770000
vn -0.99430000 0.09940000 -0.03890000
vn -0.98690000 0.15410000 -0.04810000
vn -0.99490000 0.09750000 0.02600000
vn -1.00000000 0.00500000 0.00130000
vn -1.00000000 0.00210000 0.00280000
vn -1.00000000 0.00550000 -0.00050000
vn -1.00000000 -0.00020000 0.00140000
vn -1.00000000 0.00210000 0.00280000
vn -1.00000000 0.00050000 0.00190000
vn -1.00000000 0.00110000 0.00150000
vn -1.00000000 0.00100000 0.00070000
vn -1.00000000 -0.00050000 0.00060000
vn -0.97700000 0.17760000 0.11770000
vn -0.99200000 0.03660000 0.12120000
vn -0.96410000 -0.06420000 0.25750000
vn -0.98150000 0.07900000 -0.17450000
vn -1.00000000 -0.00090000 -0.00090000
vn -1.00000000 -0.00070000 -0.00180000
vn -1.00000000 -0.00080000 -0.00050000
vn -0.96920000 -0.17040000 -0.17760000
vn -1.00000000 0.00030000 -0.00180000
vn -1.00000000 0.00080000 -0.00040000
vn -0.98510000 0.06340000 -0.15970000
vn -0.98880000 -0.07010000 -0.13170000
vn -0.96920000 -0.17040000 -0.17760000
vn -0.97570000 -0.21390000 0.04760000
vn -1.00000000 -0.00120000 -0.00030000
vn -1.00000000 -0.00080000 -0.00050000
vn -1.00000000 -0.00070000 0.00040000
vn -0.99050000 -0.13440000 -0.02840000
vn -1.00000000 -0.00070000 0.00040000
vn -1.00000000 -0.00050000 0.00010000
vn -1.00000000 -0.00050000 0.00060000
vn -1.00000000 -0.00050000 0.00040000
vn -1.00000000 -0.00020000 0.00050000
vn -0.96410000 -0.06420000 0.25750000
vn -0.99100000 -0.10380000 0.08430000
vn -0.97570000 -0.21390000 0.04760000
vn -1.00000000 0.00080000 -0.00040000
vn -0.98690000 0.15410000 -0.04810000
vn -1.00000000 0.00020000 -0.00010000
vn -0.98150000 0.07900000 -0.17450000
vn -1.00000000 0.00010000 -0.00020000
vn -1.00000000 0.00170000 -0.00360000
vn -0.99050000 -0.13440000 -0.02840000
vn -0.99770000 -0.06660000 -0.01220000
vn -0.98880000 -0.07010000 -0.13170000
vn -0.99820000 -0.04940000 -0.03330000
vn -0.96920000 -0.17040000 -0.17760000
vn -0.99050000 -0.13440000 -0.02840000
vn -0.99770000 -0.06660000 -0.01220000
vn -0.99100000 -0.10380000 0.08430000
vn -0.99790000 -0.05470000 0.03440000
vn -0.97570000 -0.21390000 0.04760000
vn -0.99820000 0.04270000 -0.04150000
vn -0.98880000 -0.07010000 -0.13170000
vn -0.98510000 0.06340000 -0.15970000
vn -0.99820000 -0.04940000 -0.03330000
vn -0.98510000 0.06340000 -0.15970000
vn -0.98150000 0.07900000 -0.17450000
vn -0.99490000 0.09750000 0.02600000
vn -0.99820000 0.04270000 -0.04150000
vn -0.98690000 0.15410000 -0.04810000
vn -0.99820000 -0.04940000 -0.03330000
vn -0.99430000 0.09940000 -0.03890000
vn -0.99770000 -0.06660000 -0.01220000
vn -0.99490000 0.09750000 0.02600000
vn -0.99790000 -0.05470000 0.03440000
vn -0.99820000 0.04270000 -0.04150000
vn -0.99830000 0.01220000 0.05630000
vn -0.99200000 0.03660000 0.12120000
vn -0.99430000 0.09940000 -0.03890000
vn -0.99830000 0.01220000 0.05630000
vn -0.97700000 0.17760000 0.11770000
vn -0.99830000 0.01220000 0.05630000
vn -0.99790000 -0.05470000 0.03440000
vn -0.99100000 -0.10380000 0.08430000
vn -0.99200000 0.03660000 0.12120000
vn -0.96410000 -0.06420000 0.25750000
vt 0.72965400 0.07190700
vt 0.88951700 0.96201900
vt 0.72965400 0.07190700
vt 0.72965400 0.07190700
vt 0.71991400 0.07215800
vt 0.71991400 0.07215800
vt 0.52195500 0.94786000
vt 0.71991400 0.07215800
vt 0.72965400 0.06464600
vt 0.88430800 0.96178100
vt 0.72965400 0.06464600
vt 0.71991400 0.06456500
vt 0.52604200 0.94426600
vt 0.71991400 0.06456500
vt 0.71991400 0.06456500
vt 0.71991400 0.06456500
vt 0.35669100 0.99476900
vt 0.57900200 0.98412100
vt 0.99197700 0.95749600
vt 0.52338700 0.95221600
vt 0.71991400 0.07003900
vt 0.71991400 0.07003900
vt 0.52240300 0.94614700
vt 0.71991400 0.07003900
vt 0.89150900 0.95802800
vt 0.99416000 0.96394600
vt 0.35404800 0.98835200
vt 0.56801900 0.97013500
vt 0.72965400 0.06323100
vt 0.94727700 0.00078700
vt 0.88324600 0.96030800
vt 0.72965400 0.06323100
vt 0.71991500 0.06280500
vt 0.52843000 0.94490800
vt 0.94680900 0.00773600
vt 0.94680900 0.00773600
vt 0.72965300 0.06905700
vt 0.72965300 0.06905700
vt 0.72965300 0.06905700
vt 0.88750800 0.96301900
vt 0.71991400 0.06727700
vt 0.71991400 0.06727700
vt 0.52376700 0.94471400
vt 0.71991400 0.06727700
vt 0.52221400 0.94983500
vt 0.99416000 0.95601100
vt 0.57025700 0.96408000
vt 0.71991400 0.07382600
vt 0.94539000 0.00023100
vt 0.88254800 0.95845400
vt 0.94539000 0.00023100
vt 0.94539000 0.00023100
vt 0.72965400 0.07374300
vt 0.57025700 0.97099500
vt 0.89077600 0.96032400
vt 0.72965400 0.07374300
vt 0.94413200 0.00731500
vt 0.94413200 0.00731500
vt 0.94413200 0.00731500
vt 0.53066100 0.94646000
vt 0.72965300 0.06648400
vt 0.88565400 0.96270200
vt 0.72965300 0.06648400
vt 0.72965300 0.06648400
vt 0.94333100 0.00012500
vt 0.88231800 0.95640400
vt 0.94333100 0.00012500
vt 0.94333100 0.00012500
vt 0.93558300 0.60616700
vt 0.93558300 0.60616700
vt 0.88817600 0.95024100
vt 0.93558300 0.60616700
vt 0.92584500 0.60471100
vt 0.92584500 0.60471100
vt 0.92584500 0.60471100
vt 0.52964400 0.95561000
vt 0.93558400 0.61218800
vt 0.93558400 0.61218800
vt 0.88390600 0.95152600
vt 0.53320200 0.95165300
vt 0.92584400 0.61212800
vt 0.92584400 0.61212800
vt 0.92584400 0.61212800
vt 0.92584400 0.61212800
vt 0.89046800 0.95227600
vt 0.93558800 0.60306400
vt 0.93558800 0.60306400
vt 0.52635300 0.99372100
vt 0.92584900 0.60271500
vt 0.58346800 0.98626400
vt 0.52888100 0.98707100
vt 0.52729300 0.95524900
vt 0.88575300 0.95019700
vt 0.93558200 0.60954700
vt 0.93558200 0.60954700
vt 0.93558200 0.60954700
vt 0.93558200 0.60954700
vt 0.92584200 0.60960700
vt 0.53272000 0.95374100
vt 0.92584200 0.60960700
vt 0.94119100 0.00773600
vt 0.92584800 0.61412600
vt 0.94119100 0.00773600
vt 0.53244800 0.94883600
vt 0.93558800 0.61406700
vt 0.94085700 0.00055900
vt 0.93558800 0.61406700
vt 0.88264200 0.95391000
vt 0.92584200 0.60707600
vt 0.53149100 0.95507700
vt 0.92584200 0.60707600
vt 0.92584200 0.60707600
vt 0.52952700 0.99372100
vt 0.58346800 0.97831700
vt 0.58346800 0.97831700
vt 0.89150900 0.95526400
vt 0.35669100 0.98754600
vt 0.58140300 0.98491600
vt 0.52516700 0.95401200
vt 0.58140300 0.98491600
vt 0.68039700 0.51730600
vt 0.68039700 0.51730600
vt 0.53323900 0.94855600
vt 0.97609800 0.81401300
vt 0.53323900 0.94855600
vt 0.97609200 0.81141600
vt 0.97609200 0.81141600
vt 0.97609200 0.81141600
vt 0.53414400 0.95214100
vt 0.89302600 0.54664800
vt 0.52112500 0.94902000
vt 0.39362600 0.55345000
vt 0.39362600 0.55345000
vt 0.39362600 0.55112100
vt 0.39362600 0.55112100
vt 0.39362600 0.55112100
vt 0.52112900 0.94663700
vt 0.90565700 0.74218200
vt 0.52237500 0.95217400
vt 0.89379600 0.54993100
vt 0.45376500 0.25318900
vt 0.52210400 0.94469100
vt 0.39362600 0.54824800
vt 0.39362600 0.54824800
vt 0.97441000 0.81605500
vt 0.52552400 0.95529600
vt 0.90888800 0.73914400
vt 0.44999200 0.25085700
vt 0.39362600 0.54501300
vt 0.39362600 0.54501300
vt 0.39362600 0.54501300
vt 0.39362600 0.54501300
vt 0.52413600 0.94345700
vt 0.52661400 0.94344000
vt 0.39362600 0.54251900
vt 0.52661400 0.94344000
vt 0.52830000 0.95639600
vt 0.97666300 0.81407800
vt 0.97609800 0.80142400
vt 0.97609800 0.80142400
vt 0.97609300 0.80362000
vt 0.97609300 0.80362000
vt 0.97609300 0.80362000
vt 0.53061300 0.95651300
vt 0.52889400 0.94423900
vt 0.96548500 0.79692400
vt 0.96548500 0.79692400
vt 0.52889400 0.94423900
vt 0.53318100 0.95510200
vt 0.97609000 0.80756200
vt 0.97609000 0.80756200
vt 0.97609000 0.80756200
vt 0.97609000 0.80756200
vt 0.53106600 0.94579300
vt 0.96558800 0.79958600
vt 0.96558800 0.79958600
vt 0.53106600 0.94579300
vt 0.38910600 0.55212700
vt 0.90638500 0.74903400
vt 0.90638500 0.74903400
vt 0.38910600 0.55212700
vt 0.38910600 0.55212700
vt 0.91517000 0.75184900
vt 0.91517000 0.75184900
vt 0.96873000 0.79734800
vt 0.96873000 0.79734800
vt 0.91517000 0.75184900
vt 0.96873000 0.79734800
vt 0.90941100 0.75311400
vt 0.38910600 0.54501700
vt 0.90941100 0.75311400
vt 0.90941100 0.75311400
vt 0.38910600 0.54501700
vt 0.91723600 0.75010400
vt 0.91723600 0.75010400
vt 0.53414400 0.94443100
vt 0.68394300 0.51589600
vt 0.96910400 0.80002300
vt 0.96910400 0.79435400
vt 0.52938500 0.94131500
vt 0.91239200 0.75311400
vt 0.91239200 0.75311400
vt 0.38910600 0.54208300
vt 0.38910600 0.54208300
vt 0.38910500 0.54884000
vt 0.38910500 0.54884000
vt 0.90709700 0.75158800
vt 0.90709700 0.75158800
vt 0.38910500 0.54884000
vt 0.38910500 0.54884000
vt 0.90691600 0.74624400
vt 0.90691600 0.74624400
vt 0.90691600 0.74624400
vt 0.90691600 0.74624400
vt 0.38910700 0.55443000
vt 0.89061400 0.54993100
vt 0.45376500 0.24917500
vt 0.90924900 0.74286600
vt 0.90924900 0.74286600
vt 0.90924900 0.74286600
vt 0.90924900 0.74286600
vt 0.90924900 0.74286600
vt 0.97157100 0.81011200
vt 0.97157100 0.81011200
vt 0.97157100 0.81011200
vt 0.91951500 0.74353200
vt 0.91951500 0.74353200
vt 0.97157200 0.80470700
vt 0.97157200 0.80470700
vt 0.97157200 0.80470700
vt 0.91705400 0.74058800
vt 0.91705400 0.74058800
vt 0.91705400 0.74058800
vt 0.97157500 0.80237900
vt 0.97157500 0.80237900
vt 0.91500900 0.74027400
vt 0.91500900 0.74027400
vt 0.97157500 0.80237900
vt 0.68367900 0.51831000
vt 0.91862900 0.74811900
vt 0.91862900 0.74811900
vt 0.68367900 0.51831000
vt 0.91862900 0.74811900
vt 0.91251400 0.74078300
vt 0.91251400 0.74078300
vt 0.97666300 0.81814300
vt 0.91251400 0.74078300
vt 0.97158000 0.80044400
vt 0.91862700 0.74171900
vt 0.91862700 0.74171900
vt 0.97157000 0.80740100
vt 0.97157000 0.80740100
vt 0.97157400 0.81256700
vt 0.68394300 0.52055500
vt 0.91945700 0.74601000
vt 0.91945700 0.74601000
vt 0.97157400 0.81256700
vt 0.91587300 0.74943100
vt 0.97698500 0.82419000
vt 0.97698500 0.82419000
vt 0.97698500 0.82419000
vt 0.97698500 0.82419000
vt 0.91587300 0.74943100
vt 0.91587300 0.74943100
vt 0.91587300 0.74943100
vt 0.91789100 0.74412900
vt 0.91789100 0.74412900
vt 0.91789100 0.74412900
vt 0.91789100 0.74412900
vt 0.91789100 0.74412900
vt 0.91789100 0.74412900
vt 0.97902600 0.82946300
vt 0.97902600 0.82946300
vt 0.91789100 0.74412900
vt 0.98151700 0.81857100
vt 0.90848800 0.75027100
vt 0.90848800 0.75027100
vt 0.90848800 0.75027100
vt 0.90848800 0.75027100
vt 0.90848800 0.75027100
vt 0.90848800 0.75027100
vt 0.98151700 0.81857100
vt 0.90848800 0.75027100
vt 0.90933500 0.74503900
vt 0.90933500 0.74503900
vt 0.90933500 0.74503900
vt 0.90933500 0.74503900
vt 0.90933500 0.74503900
vt 0.90933500 0.74503900
vt 0.91359800 0.74202800
vt 0.91359800 0.74202800
vt 0.91359800 0.74202800
vt 0.91359800 0.74202800
vt 0.91359800 0.74202800
vt 0.91359800 0.74202800
vt 0.91359800 0.74202800
vt 0.91359800 0.74202800
vt 0.91292300 0.75129800
vt 0.97779000 0.82081600
vt 0.91292300 0.75129800
vt 0.97779000 0.82081600
vt 0.91292300 0.75129800
vt 0.91292300 0.75129800
vt 0.91037100 0.74711500
vt 0.91037100 0.74711500
vt 0.91037100 0.74711500
vt 0.91037100 0.74711500
vt 0.91037100 0.74711500
vt 0.91213200 0.74470300
vt 0.91213200 0.74470300
vt 0.91213200 0.74470300
vt 0.91213200 0.74470300
vt 0.91213200 0.74470300
vt 0.98128600 0.82161500
vt 0.91122900 0.74870300
vt 0.98128600 0.82161500
vt 0.91122900 0.74870300
vt 0.97930100 0.82202300
vt 0.97930100 0.82202300
vt 0.97930100 0.82202300
vt 0.97930100 0.82202300
vt 0.97930100 0.82202300
vt 0.91327000 0.74705000
vt 0.98109100 0.82422300
vt 0.91327000 0.74705000
vt 0.98109100 0.82422300
vt 0.91327000 0.74705000
vt 0.98109100 0.82422300
vt 0.91327000 0.74705000
vt 0.97950700 0.82607000
vt 0.97950700 0.82607000
vt 0.91562800 0.74669600
vt 0.97950700 0.82607000
vt 0.91490300 0.74431000
vt 0.91490300 0.74431000
vt 0.91490300 0.74431000
vt 0.98151700 0.82733600
vt 0.91490300 0.74431000
f 1/1/1 8/8/8 22/22/22
f 27/27/27 117/117/117 17/17/17
f 29/29/29 9/9/9 16/16/16
f 32/32/32 15/15/15 33/33/33
f 38/38/38 4/4/4 21/21/21
f 37/37/37 24/24/24 44/44/44
f 26/26/26 19/19/19 46/46/46
f 51/51/51 30/30/30 36/36/36
f 54/54/54 28/28/28 47/47/47
f 49/49/49 35/35/35 57/57/57
f 67/67/67 52/52/52 58/58/58
f 61/61/61 39/39/39 42/42/42
f 53/53/53 48/48/48 5/5/5
f 63/63/63 41/41/41 14/14/14
f 3/3/3 56/56/56 6/6/6
f 11/11/11 64/64/64 12/12/12
f 87/87/87 72/72/72 74/74/74
f 86/86/86 73/73/73 89/89/89
f 95/95/95 81/81/81 98/98/98
f 97/97/97 77/77/77 84/84/84
f 68/68/68 59/59/59 101/101/101
f 106/106/106 65/65/65 103/103/103
f 96/96/96 100/100/100 112/112/112
f 113/113/113 88/88/88 91/91/91
f 114/114/114 90/90/90 118/118/118
f 69/69/69 94/94/94 111/111/111
f 107/107/107 102/102/102 82/82/82
f 115/115/115 120/120/120 18/18/18
f 78/78/78 105/105/105 83/83/83
f 70/70/70 109/109/109 75/75/75
f 129/129/129 99/99/99 80/80/80
f 129/129/129 169/169/169 99/99/99
f 123/123/123 80/80/80 104/104/104
f 7/7/7 45/45/45 131/131/131
f 129/129/129 80/80/80 123/123/123
f 7/7/7 131/131/131 137/137/137
f 45/45/45 139/139/139 131/131/131
f 20/20/20 139/139/139 45/45/45
f 23/23/23 7/7/7 137/137/137
f 23/23/23 137/137/137 142/142/142
f 43/43/43 23/23/23 142/142/142
f 20/20/20 146/146/146 139/139/139
f 119/119/119 146/146/146 20/20/20
f 43/43/43 142/142/142 153/153/153
f 92/92/92 146/146/146 119/119/119
f 13/13/13 43/43/43 153/153/153
f 13/13/13 153/153/153 156/156/156
f 92/92/92 157/157/157 146/146/146
f 157/157/157 92/92/92 76/76/76
f 164/164/164 157/157/157 76/76/76
f 156/156/156 34/34/34 13/13/13
f 165/165/165 34/34/34 156/156/156
f 164/164/164 76/76/76 110/110/110
f 165/165/165 60/60/60 34/34/34
f 169/169/169 164/164/164 110/110/110
f 177/177/177 60/60/60 165/165/165
f 169/169/169 110/110/110 99/99/99
f 123/123/123 60/60/60 177/177/177
f 123/123/123 104/104/104 60/60/60
f 176/176/176 166/166/166 186/186/186
f 175/175/175 185/185/185 198/198/198
f 135/135/135 133/133/133 181/181/181
f 149/149/149 190/190/190 203/203/203
f 134/134/134 178/178/178 205/205/205
f 155/155/155 150/150/150 204/204/204
f 138/138/138 219/219/219 214/214/214
f 143/143/143 136/136/136 206/206/206
f 168/168/168 154/154/154 200/200/200
f 130/130/130 140/140/140 216/216/216
f 167/167/167 199/199/199 188/188/188
f 151/151/151 144/144/144 210/210/210
f 152/152/152 209/209/209 193/193/193
f 132/132/132 215/215/215 182/182/182
f 127/127/127 257/257/257 224/224/224
f 141/141/141 148/148/148 217/217/217
f 161/161/161 230/230/230 234/234/234
f 125/125/125 174/174/174 196/196/196
f 121/121/121 197/197/197 242/242/242
f 160/160/160 162/162/162 238/238/238
f 172/172/172 128/128/128 225/225/225
f 159/159/159 235/235/235 248/248/248
f 171/171/171 223/223/223 251/251/251
f 122/122/122 239/239/239 254/254/254
f 145/145/145 158/158/158 246/246/246
f 170/170/170 252/252/252 229/229/229
f 126/126/126 124/124/124 253/253/253
f 147/147/147 244/244/244 221/221/221
f 163/163/163 173/173/173 228/228/228
f 268/268/268 249/249/249 226/226/226
f 195/195/195 263/263/263 243/243/243
f 179/179/179 212/212/212 276/276/276
f 264/264/264 267/267/267 240/240/240
f 278/278/278 213/213/213 287/287/287
f 241/241/241 270/270/270 255/255/255
f 269/269/269 227/227/227 256/256/256
f 207/207/207 180/180/180 277/277/277
f 211/211/211 220/220/220 286/286/286
f 189/189/189 208/208/208 280/280/280
f 288/288/288 222/222/222 290/290/290
f 218/218/218 245/245/245 291/291/291
f 191/191/191 281/281/281 298/298/298
f 202/202/202 192/192/192 302/302/302
f 293/293/293 247/247/247 237/237/237
f 294/294/294 236/236/236 231/231/231
f 201/201/201 300/300/300 184/184/184
f 271/271/271 292/292/292 232/232/232
f 303/303/303 258/258/258 187/187/187
f 183/183/183 265/265/265 194/194/194
f 266/266/266 233/233/233 250/250/250
f 308/308/308 279/279/279 284/284/284
f 305/305/305 310/310/310 325/325/325
f 315/315/315 283/283/283 306/306/306
f 314/314/314 328/328/328 321/321/321
f 320/320/320 326/326/326 262/262/262
f 318/318/318 282/282/282 316/316/316
f 307/307/307 323/323/323 317/317/317
f 319/319/319 301/301/301 275/275/275
f 289/289/289 309/309/309 304/304/304
f 261/261/261 299/299/299 322/322/322
f 313/313/313 285/285/285 297/297/297
f 333/333/333 272/272/272 259/259/259
f 331/331/331 260/260/260 324/324/324
f 334/334/334 332/332/332 329/329/329
f 337/337/337 273/273/273 330/330/330
f 335/335/335 327/327/327 312/312/312
f 338/338/338 295/295/295 274/274/274
f 311/311/311 296/296/296 336/336/336
f 116/116/116 55/55/55 2/2/2
f 116/116/116 2/2/2 40/40/40
f 116/116/116 40/40/40 62/62/62
f 93/93/93 31/31/31 50/50/50
f 93/93/93 50/50/50 66/66/66
f 85/85/85 116/116/116 62/62/62
f 85/85/85 62/62/62 10/10/10
f 79/79/79 93/93/93 66/66/66
f 79/79/79 66/66/66 108/108/108
f 31/31/31 85/85/85 10/10/10
f 71/71/71 85/85/85 31/31/31
f 116/116/116 25/25/25 55/55/55
f 93/93/93 71/71/71 31/31/31

